<svg xmlns="http://www.w3.org/2000/svg" xmlns:xlink="http://www.w3.org/1999/xlink" viewBox="0 0 589.37 80"><defs><style>.cls-1{fill:none;}.cls-2{fill:#373c38;}.cls-3,.cls-7{fill:#fb7b3b;}.cls-3,.cls-4{fill-rule:evenodd;}.cls-4{fill:#ffa3cc;}.cls-5{clip-path:url(#clip-path);}.cls-6{fill:#333;}</style><clipPath id="clip-path"><rect class="cls-1" width="80" height="80"/></clipPath></defs><g id="レイヤー_2" data-name="レイヤー 2"><g id="logo"><g id="type"><path class="cls-2" d="M133.65,64.21,116.22,44.29V64.21h-6.88v-44h6.88V38.37l14.11-18.14H139L122.86,41.39l19.38,22.82Z"/><path class="cls-2" d="M167.32,41.21v23h-6.88v-23L145,20.23h8l10.91,15.05,10.91-15h7.94Z"/><path class="cls-3" d="M231.39,42.22a22.63,22.63,0,0,0-1.71-8.6,23,23,0,0,0-4.69-7A22.7,22.7,0,0,0,218,22a22.41,22.41,0,0,0-8.6-1.72A21.85,21.85,0,0,0,200.87,22a21.51,21.51,0,0,0-7,4.68,23.37,23.37,0,0,0-4.74,7,22.45,22.45,0,0,0-1.72,8.6,22,22,0,0,0,22,22,22.41,22.41,0,0,0,8.6-1.72,21.35,21.35,0,0,0,2.24-1.13,8.35,8.35,0,0,1-3.41-3,5.33,5.33,0,0,1-.32-.56,6.74,6.74,0,0,1-.34.72c-1.59,2.8-3.7,3.13-5.63,3.76-.33-1.23-.74-2.64-.74-2.64l-2.4.58a6.94,6.94,0,0,1-.12-3.08,15.08,15.08,0,1,1,17.24-15,15.77,15.77,0,0,1-.1,1.68,9.19,9.19,0,0,1,3.86.82c-.54,1.15-1.13,2.49-1.13,2.49l2.21,1.1a8,8,0,0,1-5.78,4.11,7,7,0,0,1-1.11.11,5.14,5.14,0,0,1,.81.73,8.87,8.87,0,0,1,2.2,4,21.65,21.65,0,0,0,4.2-6.48A22,22,0,0,0,231.39,42.22Z"/><path class="cls-3" d="M220.07,52.89a15.05,15.05,0,0,0,4.35-9,9.87,9.87,0,0,0-3,.57,4.78,4.78,0,0,0-1.11.55,6.07,6.07,0,0,0,.22-1.08,8,8,0,0,0-2.27-6.71L216.56,39s-1.11-1-2.06-1.79a8.79,8.79,0,0,0-2.22,6.5,5.22,5.22,0,0,0,.34,1.62A7.06,7.06,0,0,0,212,45a8.82,8.82,0,0,0-7.53-.3l1.28,2.2s-1.52.8-2.67,1.36c1,1.77,2.58,3.16,5.6,4.28a4.14,4.14,0,0,0,1.11.23,7.33,7.33,0,0,0-.71.75,7.62,7.62,0,0,0-1.77,3.7,14.74,14.74,0,0,0,12.79-4.28Zm-7.83-4.48a.42.42,0,0,1,.42.42s0,0,0,.07L215,50a1.62,1.62,0,0,1,.38-.52l-1.84-1.94a.5.5,0,0,1-.26.08.53.53,0,0,1-.53-.53.52.52,0,0,1,.53-.52.52.52,0,0,1,.52.52.55.55,0,0,1-.1.31l1.85,2a1.51,1.51,0,0,1,.69-.25c0-.68,0-1.37.05-2a.45.45,0,0,1-.34-.43.46.46,0,0,1,.46-.46.45.45,0,0,1,.45.46.46.46,0,0,1-.35.44c0,.68,0,1.35-.05,2a1.61,1.61,0,0,1,.65.17l.85-1.43a.35.35,0,0,1-.1-.24.36.36,0,0,1,.36-.36.36.36,0,1,1,0,.72h-.08l-.84,1.43a1.54,1.54,0,0,1,.36.36l1.49-1.37a.41.41,0,0,1-.05-.19.43.43,0,1,1,.42.42.41.41,0,0,1-.22-.07l-1.52,1.4a1.4,1.4,0,0,1,.13.36l2-.3a.36.36,0,1,1,0,.22l-2,.3a.57.57,0,0,1,0,.13v.08l2,.14a.38.38,0,0,1,.35-.24.37.37,0,0,1,0,.74.38.38,0,0,1-.36-.28l-2-.15a1.29,1.29,0,0,1-.08.28l1.49.75a.32.32,0,0,1,.19-.07.3.3,0,1,1-.29.29v0l-1.48-.75a1.76,1.76,0,0,1-.32.39c.28.45.57.9.86,1.35h0a.3.3,0,1,1-.29.3.27.27,0,0,1,.06-.17l-.86-1.34a1.35,1.35,0,0,1-.34.17L217.6,54a.28.28,0,0,1,.27.28.29.29,0,1,1-.57,0,.28.28,0,0,1,.1-.21l-.66-1.9-.61,0h-.36v2.17s.5.15.5.27,0,.29-.13.29-.42-.13-.42-.29a1.65,1.65,0,0,1,.05-.27V52.16s-.13-.09-.28-.17c-.46.5-.81,1-1.27,1.5,0,0,.1.1.1.16A.32.32,0,0,1,214,54a.33.33,0,0,1-.33-.34.35.35,0,0,1,.35-.34.32.32,0,0,1,.14,0l1.35-1.47a1.72,1.72,0,0,1-.27-.27l-1.78.86v0a.34.34,0,1,1-.68,0,.34.34,0,0,1,.34-.34.37.37,0,0,1,.25.1l1.75-.84A1.28,1.28,0,0,1,215,51l-2.45-.08a.28.28,0,0,1-.26.18.29.29,0,1,1,.27-.39l2.4.07v-.14a1.54,1.54,0,0,1,.06-.43l-2.41-1.12a.42.42,0,0,1-.32.15.41.41,0,0,1-.41-.41A.41.41,0,0,1,212.24,48.41Z"/><path class="cls-4" d="M220.24,61.36a7.28,7.28,0,0,0,2.65.72l.14-2.46,2.73.05a11.42,11.42,0,0,0-.28-2.44c-.16.18-.32.35-.49.52A23.75,23.75,0,0,1,220.24,61.36Z"/><path class="cls-2" d="M267.43,26.39H255.34V64.21h-6.93V26.39h-12.1V20.23h31.12Z"/><path class="cls-2" d="M285.81,62.49a22,22,0,0,1-13.46-20.27,22.64,22.64,0,0,1,1.72-8.6,23.37,23.37,0,0,1,4.74-7,21.51,21.51,0,0,1,7-4.68,21.88,21.88,0,0,1,8.53-1.72,22.41,22.41,0,0,1,8.6,1.72,22.7,22.7,0,0,1,7,4.68,23,23,0,0,1,4.69,7,22.64,22.64,0,0,1,1.72,8.6,22,22,0,0,1-1.72,8.53,21.7,21.7,0,0,1-4.69,7,23.06,23.06,0,0,1-7,4.74,22.41,22.41,0,0,1-8.6,1.72A21.88,21.88,0,0,1,285.81,62.49Zm-2.14-30.94a15,15,0,1,0,10.67-4.45A15,15,0,0,0,283.67,31.55Z"/><path class="cls-2" d="M369.94,64.21V40.86L356.19,61.37,342.38,40.86V64.21H335.5v-46L356.19,49l20.69-30.83v46Z"/><path class="cls-2" d="M409.89,54.79H394.24l-3.73,9.42h-7.59l19.15-46,19.08,46h-7.52Zm-2.49-6.17-5.33-13.4-5.34,13.4Z"/><path class="cls-2" d="M450.55,55.38A12.7,12.7,0,0,1,440.66,64a13.4,13.4,0,0,1-2.67.24,14.32,14.32,0,0,1-5.22-.95,17.26,17.26,0,0,1-7.29-5.63l5.45-4.27a9.83,9.83,0,0,0,4.33,3.44,6.76,6.76,0,0,0,4,.36,5.86,5.86,0,0,0,4.63-3.68c.59-2-.77-3.79-2-5-2-1.84-5.16-5-5.39-5.21l-5.4-5.1a12.6,12.6,0,0,1-3.38-5.28,9.46,9.46,0,0,1-.12-5.57,10,10,0,0,1,3.26-4.92,11.59,11.59,0,0,1,5.28-2.49,11.75,11.75,0,0,1,6.52.47,14.92,14.92,0,0,1,6,4.45l-5.4,4.33c-2.25-2.73-4.56-2.73-5.81-2.49a4,4,0,0,0-3.2,2.55c-.23.83-.17,2.19,1.66,4l7.35,7c1.07,1.07,2.37,2.31,3.32,3.2a13.26,13.26,0,0,1,3.86,5.75A10.39,10.39,0,0,1,450.55,55.38Z"/><path class="cls-2" d="M486.83,26.39H474.74V64.21H467.8V26.39H455.71V20.23h31.12Z"/><path class="cls-2" d="M500.05,38.13h16.06v6.22H500.05V58h19.5v6.22H493.17v-44h26.38v6.16h-19.5Z"/><path class="cls-2" d="M558.44,64.21h-7.77L539.59,49.33h-5V64.21h-6.88v-44h13c5.81,0,9.19,2.37,11,4.38a14.94,14.94,0,0,1,3.55,10.2A14.89,14.89,0,0,1,551.68,45a12.39,12.39,0,0,1-5.1,3.37Zm-17.73-21c2.85,0,5-.83,6.34-2.37a8.75,8.75,0,0,0,2-6,8.8,8.8,0,0,0-2-6.05c-1.36-1.54-3.49-2.31-6.34-2.31h-6.16V43.17Z"/><path class="cls-2" d="M589,55.38a12.71,12.71,0,0,1-9.9,8.59,13.36,13.36,0,0,1-2.66.24,14.32,14.32,0,0,1-5.22-.95,17.26,17.26,0,0,1-7.29-5.63l5.45-4.27a9.83,9.83,0,0,0,4.33,3.44,6.75,6.75,0,0,0,4,.36,5.83,5.83,0,0,0,4.62-3.68c.6-2-.77-3.79-2-5-2-1.84-5.16-5-5.4-5.21l-5.39-5.1a12.51,12.51,0,0,1-3.38-5.28,9.46,9.46,0,0,1-.12-5.57,10,10,0,0,1,3.26-4.92,11.54,11.54,0,0,1,5.28-2.49,11.75,11.75,0,0,1,6.52.47,14.92,14.92,0,0,1,6,4.45l-5.4,4.33c-2.25-2.73-4.56-2.73-5.81-2.49a4,4,0,0,0-3.2,2.55c-.24.83-.18,2.19,1.66,4l7.35,7c1.07,1.07,2.37,2.31,3.32,3.2a13.15,13.15,0,0,1,3.85,5.75A10.39,10.39,0,0,1,589,55.38Z"/></g><g id="mark"><g class="cls-5"><g class="cls-5"><path class="cls-6" d="M73.66,18.43H65.48V10.85L63.15,9v9.44H44.55v1.86H74.78c-.36-.63-.73-1.25-1.12-1.86"/><path class="cls-6" d="M79.09,48.2H65.48V37.5H79.87a39.58,39.58,0,0,0-1.37-8.2v6.34h-27V25.41H77.21c-.24-.63-.51-1.25-.78-1.86H49.66v14h14V48.2H24.55v8.37h33v4.65H6.08c.4.64.82,1.26,1.25,1.86h52.1V54.71h-33V50.06H63.62V70.53h1.86V50.06H78.66c.16-.61.3-1.23.43-1.86"/><path class="cls-6" d="M8.45,16.94,7.91,16c-.46.62-.91,1.26-1.33,1.91l1.87-1"/><path class="cls-7" d="M27.2,19.31a.57.57,0,1,0-.57-.57.5.5,0,0,0,.07.27l-2,1.85a2.28,2.28,0,0,0-.49-.49l1.14-1.94.11,0a.49.49,0,1,0-.36-.16l-1.15,1.93a2,2,0,0,0-.88-.23c0-.91.05-1.83.07-2.75a.62.62,0,0,0,.48-.6A.61.61,0,0,0,23,16a.61.61,0,0,0-.15,1.2c0,.93,0,1.85-.08,2.77a2.18,2.18,0,0,0-.93.34l-2.5-2.64a.71.71,0,0,0-.58-1.13.72.72,0,0,0,0,1.43.75.75,0,0,0,.36-.1l2.49,2.62a2.07,2.07,0,0,0-.51.7l-3.24-1.5a.38.38,0,0,0,0-.1.56.56,0,1,0-.56.56.58.58,0,0,0,.43-.2L21,21.5a1.85,1.85,0,0,0-.09.58c0,.06,0,.12,0,.19l-3.25-.1a.37.37,0,0,0-.36-.25.39.39,0,1,0,0,.77.37.37,0,0,0,.35-.23l3.31.1a2.06,2.06,0,0,0,.23.57l-2.37,1.14a.48.48,0,0,0-.33-.14.47.47,0,0,0-.47.47.47.47,0,0,0,.93,0s0,0,0-.06l2.42-1.16a2.53,2.53,0,0,0,.37.36l-1.83,2a.53.53,0,0,0-.18,0,.47.47,0,0,0,0,.93.47.47,0,0,0,.47-.47.37.37,0,0,0-.06-.21l1.88-2a1.06,1.06,0,0,0,.69.24v3c0,.06-.25.2-.25.37a.4.4,0,0,0,.39.39.46.46,0,0,0,.46-.39c0-.17-.14-.31-.14-.37V24.17h0s0,0,0,0h0l.23,0c.29.86.59,1.72.89,2.58a.38.38,0,0,0-.14.28.39.39,0,0,0,.39.39A.38.38,0,0,0,24.9,27a.37.37,0,0,0-.36-.37c-.29-.86-.58-1.71-.88-2.57a2,2,0,0,0,.47-.22c.38.6.77,1.2,1.15,1.81a.36.36,0,0,0-.08.23.41.41,0,0,0,.81,0,.41.41,0,0,0-.41-.41l-.07,0-1.17-1.83a2.18,2.18,0,0,0,.43-.53l2,1v0a.41.41,0,0,0,.81,0,.4.4,0,0,0-.67-.3l-2-1a1.58,1.58,0,0,0,.11-.37l2.71.19a.5.5,0,1,0,.49-.63.5.5,0,0,0-.47.34l-2.69-.2v-.1a1.28,1.28,0,0,0,0-.19l2.73-.4a.48.48,0,0,0,.44.28.49.49,0,0,0,0-1,.49.49,0,0,0-.48.41L25,21.61a1.9,1.9,0,0,0-.18-.49l2.05-1.9a.56.56,0,0,0,.31.09m-3.77,2.86a.31.31,0,0,1,0,.08l0,.05a.27.27,0,0,1-.09.12l-.06,0-.09.05-.07,0h-.16a.33.33,0,0,1-.15-.05l-.06,0a.3.3,0,0,1-.08-.08l0-.05a.31.31,0,0,1-.05-.12l0-.11a.69.69,0,0,1,0-.13l0-.06a.44.44,0,0,1,.12-.15l.05,0a.48.48,0,0,1,.2-.07H23a.41.41,0,0,1,.19.05l.06,0,.11.11,0,.06a.42.42,0,0,1,0,.1v.2Z"/><path class="cls-6" d="M8.84,14.81l-.05.06.05-.06"/><path class="cls-6" d="M5.53,19.58c.28-.47.58-.94.88-1.41-.31.47-.6.94-.88,1.41"/><path class="cls-6" d="M9.93,13.53l-.26.3.26-.3"/><path class="cls-6" d="M39.59,16.67l.88-1.93.72-1.56-1.59-.63A14.44,14.44,0,0,0,34,11.32a14.29,14.29,0,0,0-3.83.55,12.38,12.38,0,0,0-3.7-9.18l-.34-.3c-.85.32-1.68.67-2.5,1L23,4.1l-.29-.26c-.68.33-1.35.68-2,1,.14-.08.29-.17.44-.24l2,1.71,2.29-2.43A10.86,10.86,0,0,1,28.49,13a8.58,8.58,0,0,1-.29,1.46,6.72,6.72,0,0,1,1.49-.75,12,12,0,0,1,9.31.34c-.73,1.56-1.53,3.37-1.53,3.37l3,1.49a10.86,10.86,0,0,1-7.83,5.56,8.46,8.46,0,0,1-1.49.15,8,8,0,0,1,1.1,1,12,12,0,0,1,3.35,8.69c-1.72-.05-3.7-.08-3.7-.08l-.19,3.33a10.85,10.85,0,0,1-8.2-5,8.15,8.15,0,0,1-.44-.75,7.16,7.16,0,0,1-.46,1c-2.15,3.8-5,4.24-7.62,5.09-.45-1.66-1-3.56-1-3.56l-3.24.77A10,10,0,0,1,13,25.9a13.33,13.33,0,0,1,1-1,5.34,5.34,0,0,1-1.5-.31c-3.54-1.31-5.63-2.89-7-4.85-.3.51-.59,1-.87,1.55A15.27,15.27,0,0,0,11,25.78,11.43,11.43,0,0,0,9.2,35.61L9.67,37l3.18-.76c.17.62.37,1.36.56,2L13.85,40l1.63-.53.92-.29c2.12-.64,4.71-1.42,6.8-4.27a12.27,12.27,0,0,0,8.47,4.33l1.56,0,.2-3.33,2.11,0,1.71,0,0-1.71a13.48,13.48,0,0,0-2.8-8.55,12.35,12.35,0,0,0,7.52-6.13l.65-1.43Z"/><path class="cls-6" d="M16.91,14.37c.31.17.61.35.89.54a6.75,6.75,0,0,1-.46-2.18,11.79,11.79,0,0,1,1.58-6.8C18,6.48,17.19,7,16.36,7.65a14.45,14.45,0,0,0-.66,4.42A13.14,13.14,0,0,0,12,11.39c-.55.54-1.08,1.1-1.6,1.67a11.41,11.41,0,0,1,6.56,1.31"/><path class="cls-6" d="M19.7,5.46l-.47.28.47-.28"/><path class="cls-6" d="M40,0A40,40,0,1,0,80,40,40,40,0,0,0,40,0m0,78.14A38.14,38.14,0,1,1,78.14,40,38.15,38.15,0,0,1,40,78.14"/></g></g></g></g></g></svg>