<?xml version="1.0" encoding="utf-8"?>
<!-- Generator: Adobe Illustrator 24.0.3, SVG Export Plug-In . SVG Version: 6.00 Build 0)  -->
<svg version="1.1" id="レイヤー_1" xmlns="http://www.w3.org/2000/svg" xmlns:xlink="http://www.w3.org/1999/xlink" x="0px"
	 y="0px" viewBox="0 0 140.1 24" style="enable-background:new 0 0 140.1 24;" xml:space="preserve">
<style type="text/css">
	.st0{clip-path:url(#SVGID_2_);fill:#FF6200;}
	.st1{clip-path:url(#SVGID_2_);fill:#233241;}
</style>
<g>
	<defs>
		<rect id="SVGID_1_" width="140.1" height="24"/>
	</defs>
	<clipPath id="SVGID_2_">
		<use xlink:href="#SVGID_1_"  style="overflow:visible;"/>
	</clipPath>
	<path class="st0" d="M4.8,11.1c2.7-2,5.2-4.2,7.6-6.6c0.2-0.2,0.3-0.5,0.3-0.8c0-0.3-0.1-0.6-0.3-0.8l-0.1-0.1
		c-0.3-0.2-2.9-2.5-3.2-2.7C8.6-0.3,7.9,0.3,8.3,1c0.4,0.7,1.1,1.9,1.6,2.6C9.5,3.9,4.5,9.5,4,10.2C3.5,10.9,4,11.7,4.8,11.1
		L4.8,11.1z M16.6,8.1c0.6-0.8,0-1.6-0.9-0.9c-0.6,0.4-9.4,8.2-11,9.9c-1.6-1.4-3.3-2.8-3.7-3.1c-0.1-0.1-0.3-0.2-0.5-0.2
		c-0.2,0-0.3,0.1-0.4,0.2C0,14.1,0,14.3,0,14.4c0,0.1,0.1,0.3,0.1,0.4c1.2,1.7,2.5,3.2,3.9,4.7c0.2,0.2,0.4,0.4,0.7,0.4
		c0.3,0,0.6,0,0.8-0.2l0.1-0.1C9.7,16.2,13.4,12.3,16.6,8.1z M20.8,12.4c-3.2,4.4-7.1,8.3-11.6,11.4c-0.9,0.6-1.4-0.2-0.9-0.9
		c3.4-4.3,7.3-8.1,11.6-11.4C20.7,11,21.3,11.7,20.8,12.4z"/>
	<path class="st1" d="M101.8,5.6h2.9v13.1h-2.9V5.6z M93.1,12c1.4,0,2.2-0.8,2.2-1.9c0-1.2-0.8-1.9-2.2-1.9h-2.8V12H93.1z M87.3,5.5
		h5.9c0.7,0,1.4,0.1,2,0.3c0.7,0.2,1.3,0.6,1.8,1.1c0.4,0.4,0.7,0.9,0.9,1.4c0.2,0.5,0.3,1.1,0.3,1.6c0.1,0.9-0.2,1.8-0.7,2.5
		c-0.5,0.7-1.2,1.3-2.1,1.6l3.2,4.7h-3.3l-2.8-4.2h-2.2v4.2h-2.9L87.3,5.5z M79.2,13.2l-1.7-4.3l-1.7,4.3H79.2z M76.2,5.5h2.6
		l5.6,13.3h-3l-1.2-2.9h-5.5l-1.2,2.9h-2.9L76.2,5.5z M55.6,12.2c0-0.9,0.2-1.8,0.5-2.6c0.3-0.8,0.8-1.6,1.4-2.2
		c0.6-0.6,1.3-1.1,2.2-1.5c0.8-0.3,1.7-0.5,2.6-0.5h0.2c0.9,0,1.9,0.1,2.7,0.4c0.9,0.3,1.7,0.8,2.4,1.4l-1.8,2.2
		C64.8,8.5,63.6,8,62.3,8c-1,0.1-2,0.5-2.7,1.3c-0.7,0.8-1.1,1.8-1,2.8c-0.1,1,0.3,2.1,1,2.8c0.7,0.8,1.7,1.3,2.7,1.3h0.3
		c1,0,1.9-0.2,2.7-0.8v-1.9h-2.9v-2.5H68v5.7c-1.5,1.4-3.5,2.1-5.6,2.1c-0.9,0-1.7-0.1-2.5-0.4c-0.8-0.3-1.6-0.7-2.2-1.3
		c-0.6-0.6-1.2-1.3-1.5-2.1c-0.4-0.8-0.6-1.6-0.6-2.5C55.6,12.5,55.6,12.3,55.6,12.2L55.6,12.2z M48.9,13.2l-1.7-4.3l-1.7,4.3H48.9z
		 M45.9,5.5h2.6l5.6,13.3h-3l-1.2-2.9h-5.5l-1.2,2.9h-2.9L45.9,5.5z M27.3,5.5h2.9v5.8l5.3-5.8h3.5l-5.3,5.6l5.5,7.6h-3.4l-4-5.6
		l-1.5,1.6v4h-2.9V5.5z"/>
	<path class="st1" d="M130.2,12.2c0,2.7,1.4,5,4,5s4-2.3,4-5.2c0-2.5-1.3-5.1-4-5.1C131.5,7,130.2,9.5,130.2,12.2z M139.9,12
		c0,4.3-2.6,6.6-5.8,6.6c-3.2,0-5.6-2.5-5.6-6.3c0-3.9,2.4-6.5,5.8-6.5S139.9,8.3,139.9,12L139.9,12z M126.6,12.6h-4.8V17h5.4v1.3
		h-7V5.9h6.7v1.3h-5.1v3.9h4.8L126.6,12.6z M110.8,16.4c0.9,0.5,1.9,0.8,2.9,0.8c1.6,0,2.6-0.9,2.6-2.1s-0.7-1.8-2.4-2.5
		c-2-0.7-3.3-1.8-3.3-3.5c0-1.9,1.6-3.4,4-3.4c1,0,1.9,0.2,2.8,0.6L117,7.7c-0.7-0.4-1.5-0.6-2.3-0.6c-1.7,0-2.4,1-2.4,1.9
		c0,1.2,0.8,1.7,2.5,2.4c2.1,0.8,3.2,1.9,3.2,3.7s-1.4,3.6-4.4,3.6c-1.1,0-2.2-0.3-3.2-0.8L110.8,16.4z"/>
</g>
</svg>
