<?xml version="1.0" encoding="utf-8"?>
<!-- Generator: Adobe Illustrator 24.0.3, SVG Export Plug-In . SVG Version: 6.00 Build 0)  -->
<svg version="1.1" id="レイヤー_1" xmlns="http://www.w3.org/2000/svg" xmlns:xlink="http://www.w3.org/1999/xlink" x="0px"
	 y="0px" viewBox="0 0 159.9 23.8" style="enable-background:new 0 0 159.9 23.8;" xml:space="preserve">
<style type="text/css">
	.st0{clip-path:url(#SVGID_2_);fill:#FF6200;}
	.st1{clip-path:url(#SVGID_4_);fill:#233241;}
	.st2{clip-path:url(#SVGID_6_);fill:#233241;}
</style>
<title>アセット 2</title>
<g>
	<g>
		<defs>
			<rect id="SVGID_1_" y="0.1" width="159.9" height="23.7"/>
		</defs>
		<clipPath id="SVGID_2_">
			<use xlink:href="#SVGID_1_"  style="overflow:visible;"/>
		</clipPath>
		<path class="st0" d="M4.9,10.9C7.5,9,10,6.7,12.3,4.4c0.5-0.5,0.5-1.1,0-1.5l0,0C12,2.7,9.5,0.4,9.2,0.1C8.6-0.2,7.9,0.4,8.3,1
			c0.5,0.8,1.1,1.8,1.5,2.5c-0.3,0.5-5.2,5.9-5.7,6.6C3.5,10.7,4.2,11.6,4.9,10.9L4.9,10.9z M16.5,7.9c0.6-0.8,0-1.5-0.9-0.9
			c-0.6,0.3-9.2,8.2-10.8,9.9c-1.5-1.4-3.2-2.8-3.7-3.1c-0.3-0.2-0.6-0.2-0.9,0c-0.2,0.3-0.2,0.6,0,0.8c1.2,1.7,2.5,3.2,3.9,4.6
			c0.3,0.5,0.9,0.6,1.4,0.2l0.2-0.2C9.7,16.1,13.4,12.2,16.5,7.9L16.5,7.9z M20.6,12.2c-3.2,4.3-7.1,8.2-11.4,11.2
			c-0.9,0.6-1.4-0.2-0.9-0.9c3.4-4.2,7.2-8,11.6-11.2C20.5,10.9,21.1,11.6,20.6,12.2z"/>
	</g>
	<g>
		<defs>
			<rect id="SVGID_3_" y="0.1" width="159.9" height="23.7"/>
		</defs>
		<clipPath id="SVGID_4_">
			<use xlink:href="#SVGID_3_"  style="overflow:visible;"/>
		</clipPath>
		<path class="st1" d="M100.6,5.5h2.8v12.9h-2.8V5.5z M91.9,11.8c1.4,0,2.2-0.8,2.2-1.8c0-1.2-0.8-1.8-2.2-1.8h-2.8v3.7H91.9z
			 M86.2,5.5h5.9c1.4-0.2,2.8,0.5,3.7,1.4C96.6,7.6,97,8.7,97,9.8c0.2,1.8-1.1,3.5-2.8,4l3.1,4.6h-3.2l-2.8-4.2h-2.2v4.2h-2.9V5.5z
			 M78.2,13l-1.7-4.2L74.8,13H78.2z M75.3,5.5h2.6l5.5,13.1h-2.9l-1.2-2.9h-5.4l-1.2,2.9h-2.9L75.3,5.5z M55,12.1L55,12.1
			c0-3.7,2.9-6.6,6.5-6.8h0.2c1.8-0.2,3.7,0.6,5.1,1.8l-1.8,2.2c-0.9-0.9-2.2-1.4-3.4-1.4c-2.2,0.2-3.9,1.8-3.7,4
			c-0.2,2.2,1.5,4,3.5,4.2h0.3c0.9,0,1.8-0.3,2.6-0.8v-1.8h-2.6V11h5.5v5.7c-1.5,1.4-3.4,2-5.5,2c-3.5,0.2-6.6-2.6-6.8-6.2
			C55,12.4,55,12.2,55,12.1L55,12.1z M48.4,13l-1.7-4.2L45,13H48.4z M45.4,5.5h2.6l5.5,13.1h-2.9l-1.2-2.9H44l-1.2,2.9h-2.9
			L45.4,5.5z M27.1,5.5h2.8v5.7l5.2-5.7h3.4L33.3,11l5.4,7.5h-3.4l-4-5.5l-1.5,1.5v4H27V5.5H27.1z"/>
	</g>
	<g>
		<defs>
			<rect id="SVGID_5_" y="0.1" width="159.9" height="23.7"/>
		</defs>
		<clipPath id="SVGID_6_">
			<use xlink:href="#SVGID_5_"  style="overflow:visible;"/>
		</clipPath>
		<path class="st2" d="M157.2,6.9v2.5h2.3v1.2h-2.3v4.8c0,1.1,0.3,1.7,1.2,1.7c0.3,0,0.6,0,0.9-0.2l0.2,1.2
			c-0.5,0.2-0.9,0.2-1.4,0.2c-0.6,0-1.2-0.2-1.7-0.6c-0.5-0.6-0.8-1.5-0.6-2.3v-4.8h-1.4V9.3h1.4V7.2L157.2,6.9z M148.9,12.1
			c0-1.1,0-2,0-2.8h1.4V11l0,0c0.3-1.1,1.2-1.8,2.5-2c0.2,0,0.3,0,0.5,0v1.5c-0.2,0-0.3,0-0.6,0c-1.1,0-2,0.9-2.2,2
			c0,0.3,0,0.5,0,0.8v4.8h-1.5V12.1z M140,13.8c0,2,1.1,3.4,2.6,3.4c1.5,0,2.6-1.4,2.6-3.4c0-1.5-0.8-3.4-2.6-3.4
			C140.8,10.4,140,12.1,140,13.8L140,13.8z M146.9,13.6c0.2,1.2-0.3,2.5-1.1,3.4c-0.8,0.9-2,1.4-3.2,1.4s-2.3-0.5-3.1-1.4
			c-0.8-0.9-1.2-2-1.1-3.2c-0.2-1.2,0.3-2.5,1.1-3.4c0.8-0.9,2-1.4,3.2-1.4C145.2,9.2,146.9,11,146.9,13.6L146.9,13.6z M130.1,14.6
			c0,0.2,0,0.5,0,0.6c0.3,1.1,1.2,1.8,2.5,1.8c1.7,0,2.6-1.4,2.6-3.4c0.2-1.7-0.8-3.2-2.5-3.2c-1.2,0-2.2,0.8-2.5,2
			c0,0.2-0.2,0.5-0.2,0.6V14.6z M128.6,12.2c0-1.1,0-2-0.2-2.9h1.4l0.2,1.5c0.6-1.1,1.8-1.7,3.1-1.7c2.2,0,3.7,1.8,3.7,4.5
			c0,3.2-2,4.8-4,4.8c-1.1,0-2.2-0.5-2.8-1.4l0,0v4.8h-1.5v-9.5H128.6z M125.1,12.9c0-0.9-0.5-2.6-2.2-2.6c-1.4,0.2-2.5,1.2-2.5,2.6
			H125.1z M120.4,14.1c-0.2,0.8,0.2,1.7,0.8,2.3c0.6,0.6,1.4,0.9,2.3,0.8c0.8,0,1.7-0.2,2.5-0.5l0.3,1.1c-0.9,0.5-2,0.6-2.9,0.6
			c-1.2,0-2.3-0.3-3.2-1.2c-0.8-0.9-1.2-2-1.1-3.2c0-2.6,1.5-4.8,4.2-4.8c2.9,0,3.7,2.5,3.7,4.2c0,0.3,0,0.5,0,0.8H120.4z
			 M111.2,11.6h1.7c1.7,0,2.8-0.9,2.8-2.3c0-1.5-1.1-2.3-2.8-2.3c-0.5,0-1.1,0-1.5,0.2v4.5H111.2z M109.7,6.1c1.1-0.2,2-0.3,3.1-0.3
			c1.2-0.2,2.5,0.2,3.5,0.9c0.6,0.6,1.1,1.4,0.9,2.3c0,1.4-0.9,2.8-2.3,3.1c1.1,0.5,1.7,1.4,1.8,2.6c0.2,1.1,0.6,2.3,0.9,3.4H116
			c-0.3-0.9-0.6-2-0.8-2.9c-0.3-1.7-0.9-2.3-2.5-2.3h-1.5v5.2h-1.7v-12H109.7z"/>
	</g>
</g>
</svg>
