<?xml version="1.0" encoding="utf-8"?>
<!-- Generator: Adobe Illustrator 24.0.3, SVG Export Plug-In . SVG Version: 6.00 Build 0)  -->
<svg version="1.1" id="レイヤー_1" xmlns="http://www.w3.org/2000/svg" xmlns:xlink="http://www.w3.org/1999/xlink" x="0px"
	 y="0px" viewBox="0 0 104.6 24" style="enable-background:new 0 0 104.6 24;" xml:space="preserve">
<style type="text/css">
	.st0{fill:#FF6200;}
	.st1{fill:#233241;}
</style>
<g>
	<path class="st0" d="M20.8,12.4c-3.2,4.4-7.1,8.2-11.6,11.3c-0.9,0.6-1.4-0.2-0.9-0.9c3.4-4.3,7.2-8,11.6-11.3
		C20.6,11,21.2,11.7,20.8,12.4z M16.6,8.1c0.6-0.8,0.1-1.6-0.9-0.9C15.1,7.5,6.4,15.3,4.8,17c-1.6-1.3-3.3-2.8-3.7-3.1
		c-0.3-0.2-0.6-0.2-0.9,0.1c-0.2,0.2-0.2,0.6,0,0.8c1.2,1.6,2.5,3.2,3.8,4.7c0.4,0.5,1,0.6,1.5,0.2l0.1-0.1
		C9.7,16.2,13.4,12.3,16.6,8.1z M4.9,11c2.7-2,5.2-4.2,7.5-6.6c0.4-0.4,0.4-1.1,0-1.6l-0.1-0.1c-0.3-0.2-2.8-2.5-3.1-2.7
		C8.7-0.3,8,0.2,8.3,1c0.4,0.7,1.1,1.8,1.6,2.6C9.5,3.9,4.6,9.4,4.1,10C3.6,10.8,4.1,11.7,4.9,11L4.9,11z"/>
	<path class="st1" d="M27.2,5.6h2.8v5.8l5.3-5.8h3.4l-5.3,5.5l5.5,7.5h-3.4l-4-5.5L30,14.7v4h-2.8L27.2,5.6L27.2,5.6z M45.7,5.4h2.6
		l5.5,13.2h-3l-1.2-2.9h-5.5L43,18.6h-2.9L45.7,5.4z M48.7,13.2L47,8.9l-1.7,4.3H48.7z M55.3,12.2L55.3,12.2
		c-0.1-3.7,2.9-6.7,6.6-6.7l0,0h0.2C64,5.4,65.8,6,67.3,7.2l-1.8,2.2C64.6,8.5,63.4,8,62.2,8c-2.1,0.1-3.8,1.9-3.7,4l0,0
		c-0.1,2.1,1.5,4,3.6,4.1h0.3c0.9,0,1.9-0.2,2.7-0.8v-1.8h-2.8V11h5.6v5.7c-1.5,1.3-3.5,2.1-5.5,2.1c-3.6,0.1-6.6-2.6-6.8-6.2l0,0
		C55.3,12.5,55.3,12.3,55.3,12.2L55.3,12.2z M75.7,5.4h2.6l5.5,13.1h-3l-1.2-2.9h-5.5L73,18.6h-2.8L75.7,5.4z M78.7,13.2L77,8.9
		l-1.7,4.3H78.7z M86.8,5.6h5.9c1.4-0.1,2.8,0.4,3.8,1.3c0.8,0.8,1.1,1.8,1.1,3l0,0c0.1,1.8-1,3.5-2.8,4l3.1,4.7h-3.3l-2.8-4.2h-2.2
		v4.2h-2.8L86.8,5.6z M92.5,12c1.3,0,2.2-0.7,2.2-1.8l0,0c0-1.2-0.9-1.8-2.2-1.8h-2.8V12H92.5z M101.2,5.6h2.8v13.1h-2.8V5.6z"/>
</g>
</svg>
