<svg xmlns="http://www.w3.org/2000/svg" viewBox="0 0 555.47 79.85"><defs><style>.cls-1{fill:#231815;}.cls-2{fill:#f7b200;}</style></defs><title>アセット 2</title><g id="レイヤー_2" data-name="レイヤー 2"><g id="レイヤー_1-2" data-name="レイヤー 1"><path class="cls-1" d="M97.39,33.38h.72a3.66,3.66,0,0,1,3.65,3.68V72.48h20.57A3.66,3.66,0,0,1,126,76.16h0a3.67,3.67,0,0,1-3.65,3.69H98.5A4.79,4.79,0,0,1,93.73,75v-38A3.67,3.67,0,0,1,97.39,33.38Z"/><path class="cls-1" d="M162.51,33.05h0a5.75,5.75,0,0,1,5.26,3.46l16.38,37.82a3.94,3.94,0,0,1-3.58,5.52h0A3.88,3.88,0,0,1,177,77.43l-3.67-8.8H151.52l-3.75,8.89a3.8,3.8,0,0,1-3.49,2.33h0a3.82,3.82,0,0,1-3.47-5.35l16.45-38A5.74,5.74,0,0,1,162.51,33.05Zm7.84,28.34-8-18.59-7.9,18.59Z"/><path class="cls-1" d="M206.2,33.38h0A5.58,5.58,0,0,1,210.9,36l12.37,19.39L235.64,36a5.55,5.55,0,0,1,4.69-2.58h0A5.6,5.6,0,0,1,245.91,39V75.8a4,4,0,0,1-4,4h0a4,4,0,0,1-4-4V46.52L226.31,63.94a3.59,3.59,0,0,1-6,0L208.66,46.65V75.8a4,4,0,0,1-4,4h0a4,4,0,0,1-4-4V39A5.6,5.6,0,0,1,206.2,33.38Z"/><path class="cls-1" d="M264.41,37.43a4,4,0,0,1,4-4h14.15a22.7,22.7,0,0,1,7.27,1.09,15.23,15.23,0,0,1,5.53,3.16,13.82,13.82,0,0,1,3.49,4.91,16.11,16.11,0,0,1,1.22,6.37V49a15.45,15.45,0,0,1-1.45,6.87,14.33,14.33,0,0,1-4,5,17.47,17.47,0,0,1-5.87,3,24.36,24.36,0,0,1-7.19,1h-9.17V75.8a4,4,0,0,1-4,4h0a4,4,0,0,1-4-4Zm17.47,20.11a10.77,10.77,0,0,0,7.3-2.33,7.62,7.62,0,0,0,2.67-6v-.13a7.38,7.38,0,0,0-2.71-6.23,11.52,11.52,0,0,0-7.26-2.1h-9.44V57.54Z"/><path class="cls-1" d="M352,70.36c-3.13,4.75-8.55,7.22-15,7.22-10.53,0-17.57-7.58-17.57-16.49,0-9.39,7.34-17.09,17.88-17.09,6.13,0,11.73,2.53,14.68,7.46l-3.31,2A13.76,13.76,0,0,0,337.15,48c-8.12,0-13.48,6-13.48,12.82s5.3,13.06,13.54,13.06a14.14,14.14,0,0,0,11.5-5.6Z"/><path class="cls-1" d="M362.61,49.48C365,46,367.6,44,370.85,44a6.46,6.46,0,0,1,3.67,1.08l-2.17,3.5a4.74,4.74,0,0,0-2.16-.61c-3,0-5.72,2.59-6.92,7-.54,2-.66,5.36-.66,9.69V76.8h-4.34v-32h4.34Z"/><path class="cls-1" d="M380.72,61.15c.18,7.35,5.17,12.7,12,12.7,6.68,0,9.87-3.79,12.22-7.64L408.4,68c-3.25,6.38-8.24,9.57-15.22,9.57-10.6,0-16.67-8.12-16.67-16.67,0-8.72,6.43-16.91,16.42-16.91,9.09,0,16.43,6.56,16.55,17.15ZM405,57.54c-1.68-6.62-6.44-9.57-12-9.57-5.71,0-10,3.07-11.85,9.57Z"/><path class="cls-1" d="M444.93,44.84h4v32h-4V71.32a16.18,16.18,0,0,1-12.88,6.26A16.79,16.79,0,0,1,432.17,44a15.13,15.13,0,0,1,12.76,6.68Zm-25,16a12.82,12.82,0,0,0,12.58,13A12.59,12.59,0,0,0,445.23,61a12.67,12.67,0,1,0-25.34-.12Z"/><path class="cls-1" d="M461.89,32.93H466V44.84h6.56v3.61H466V76.8h-4.09V48.45h-5.65V44.84h5.65Z"/><path class="cls-1" d="M483.49,35a3.46,3.46,0,0,1-3.43,3.43A3.42,3.42,0,0,1,476.69,35a3.37,3.37,0,0,1,3.37-3.37A3.42,3.42,0,0,1,483.49,35Zm-5.41,9.81h4.09v32h-4.09Z"/><path class="cls-1" d="M487.65,44.84H492l10.71,23.23,10.59-23.23h4.4l-14.63,32h-.72Z"/><path class="cls-1" d="M526.7,61.15c.18,7.35,5.17,12.7,12,12.7,6.68,0,9.86-3.79,12.21-7.64l3.43,1.8c-3.25,6.38-8.24,9.57-15.22,9.57-10.6,0-16.67-8.12-16.67-16.67,0-8.72,6.44-16.91,16.43-16.91,9.08,0,16.43,6.56,16.55,17.15ZM551,57.54c-1.68-6.62-6.44-9.57-12-9.57-5.72,0-10,3.07-11.86,9.57Z"/><circle class="cls-2" cx="14.94" cy="36.93" r="8.06"/><path class="cls-1" d="M73,30.61a30.61,30.61,0,0,0-61.22,0h5.73a24.88,24.88,0,0,1,49.76,0v2.85H48.11V54H27.92v19.7H11.21v5.74H33.66V59.76H53.85V39.19H73.08Z"/><polygon class="cls-1" points="20.78 22.66 15.72 22.66 10.65 22.66 0 41.31 15.72 41.31 31.43 41.31 20.78 22.66"/></g></g></svg>