<svg version="1.1" id="レイヤー_1" xmlns="http://www.w3.org/2000/svg" x="0" y="0" viewBox="0 0 223.1 53.2" xml:space="preserve"><style>.st0{enable-background:new}.st1{fill:#2c7aa5}</style><g id="レイヤー_2_1_"><g id="レイヤー_1-2"><g class="st0"><path class="st1" d="M13.3 13.4v.3c-.1.3-.8 1.3-.9 1.4v.4c0 .3-.2.5-.5.6v.2c0 .3-.2.5-.3.8v.3s-.5 1.2-.4 1.1c-.2.3-.6.4-.8 1.3v.3C9.6 20.2 9.2 22 9 22h-.2c-.1 0 0 .2-.2.2 0 .2.1.2 0 .3 0 .1-.1.2-.2.3v.1c0 .2-.2.2-.2.3v.1c0 .1-.1.2-.1.3v.2L8 24v.2c0 .2-.3.2-.3.4v.5c-.1.3-.3 1-.4 1.4 0 .2.1.3.1.5 0 .5-.1.7.1 1.3v.2h.1s0 .1-.1.2.4 1.8.6 1.8h.2c.2 0 0 .4.6.5 0 0 0 .1-.1.1 0 .3.2.4.4.4s.2-.2.3-.2c.7 0 1.2-.2 1.9-.3v.1c.1 0 .2-.2.4-.2h.2s.9 0 1.6-.6h.4c.1 0 .9-.4 1.1-.4.1 0 .1-.1.2-.1h.3c.4 0 .9-.4 1.4-.4h.3c.1 0 .1.3.1.3.2 0 .4-.1.6-.1.5 0 .5.8.9.8v.5c-.1 0-.2 0-.2.1s.3.2.3.3c0 .2-.4.1-.4.3v.1c0 .3-.4.4-.5.4-.4 0-.5-.2-.8-.2h-.1l-.3-.6h-.2c-.1 0-.4 0-.5-.2-.4 0-.5.3-.8.3h-.3c-.3 0-.2.2-.5.2h-.2c-.2 0-.7.3-.9.3h-.2v.1h-.2v.1h-.2s-.1.1-.2.1h-.2c-.3 0-.2.2-.4.2-.3.1-.6.1-.9.2h-.1c-.2 0-.2.2-.3.3-.1-.1-.1-.1-.2-.1-.2 0-.5.2-.7.2h.1c-.1 0-.1.1-.2.1h-.6c-.3 0-.4-.2-.4-.2-.2 0-.3.1-.3.2-.1 0-.2-.2-.2-.3-.1 0-.2.1-.3.1-.2 0-.4-.2-.6-.2 0 0-.1 0-.2.1 0-.4-.4-.3-.4-.4v-.2c0-.2-.3 0-.4-.2-.1 0-.2-.5-.2-.6 0-.1-.2-.1-.3-.2-.1-.2.1-.7-.3-.8v-.2c0-.1.1-.3.1-.4.1-.3-.3-.4-.2-.8 0-.2.1-.2.2-.4 0-.2-.1-.2 0-.3.1-.3.4-.8.4-.8 0-.2 0-.8.1-1.2 0-.2.1-.4.2-.4 0 0-.1-.3 0-.3.1-.4.2-.4.3-.8 0-.3 0-.5.1-.6.1-.4.3-.7.4-1.1v-.5h.1c.2 0 .6-1.3.6-1.1 0-.1.3-.4.4-.5v-.5c0-.3.2-.4.3-.6v-.1c0 .1.2-.5.4-1 0 0 .1 0 .2-.1.1-.3 1.5-2.8 1.5-2.6.3-.5.2-.7.5-1l.2-.2c.1-.2.2-.5.2-.7.1-.2.2-.2.3-.3v-.3c0-.1.4-.6.7-.6.1-.5 1.1-2.1 1.4-2.1.1-.4.1-.7.3-1.1 0 0 .3-.2.3-.3 0-.1-.1 0-.1-.1 0 0 .2-.2.3-.4v-.3c-.6-.2.1-.7.2-.7.4 0 1.2.2 1 1 0 0 0 .1.2.1-.2.1-.2.2-.2.4l-.1.4c0 .2-.1.4-.2.4h-.1c-.3 0-.7 1.1-.8 1.3v.1c-.4.1-.4.6-.9.6h-.1c-.1.4-.2.9-.5 1.1zm7.8 15.2l.1-.5c.1-.6.4-1 .7-1.7 0 0-.1-.1 0-.2 0-.1.4-.4.4-.7.1-.2.2-.7.2-.7h.2v-.2s.2-.2.2-.4V24c.4 0 .8-1 .9-1.2.6-.1.8-1 1.1-1h.2c.2-1 1.6-1.9 2.4-2.6.1-.1.7-.8 2-1.2 0 0 .1.1.2.1s.1-.2.2-.2c0 0 .1.2.3.2 0 0 .2-.2.6-.2.6 0 1.4 1.6 1.3 2.1.1.2.3.2.5.4 0 .1-.1.1-.1.2l-.2 1c0 .2-.1.3-.2.3H32v.2c-.1.3-.1.4-.2.8h-.1c-.6 0-.3.3-.6.8H31l-1.2 1.1v.2c-.7 0-1 .6-1.3 1 0 .1-.5.5-.6.5h-.1c-.2 0-1.3 1-1.3 1-.2.2-1.1 1-1.3 1H25c-.1 0 0 .1-.1.1h-.1v.1c-.1 0-.4 0-.5.1l-.8.8c-.1.3-.3.6-.3.8 0 .1.2 0 .1 0 0 .3.5.7.5.7.1 0 .3.1.6 0h.6c.7-.2 1.4-.5 1.6-.5.1 0 .1 0 .1.2.1 0 .3-.3.4-.3h.2v-.1h.1l.1-.1c.7-.2 1.1-.5 1.5-.5h.1s.7-.4 1-.5c.3-.2.3-.6.9-.6.4-.3.9-.3 1.3-.9h.1c.1 0 .2-.2.3-.2h.1v-.1c.1 0 .6-.5.8-.5h.1c.2 0 1.2-1.1 1.2-1.1h.2v-.1h.1-.2c.1 0 1.5-1.2 1.5-1.2h.1v-.2h.1s.6-.4.8-.9c.6 0 1.1-.9 1-.8.1 0 .2.1.3.1.1 0 .3-.1.4-.1 0 .1.1.1.1.1.3.1-1 1-.6 1 0 0-.2.4-.2.3 0 0-.4.4-.5.4-1 .3-.2.4-.6.4-.1.1-.4.7-.6.7h-.1s-.7.5-.8.5v.2c0 .2-.3.3-.5.4-.3.2-.7.5-.7.5-.3 0-.5.4-.7.8-.4 0-.5.3-.9.5H33c-.3 0-.4.6-.7.6-.2 0-.5.3-.6.5-.5 0-1.4.7-1.4.8-.5.1-.3 0-.7.4h-.1c-.2 0-.4.4-.6.4h.1v.1h-.2c-.1 0 0 .1-.1.1h-.1v.1h-.2v.1h-.1s-.6.1-.6.2v.1h-.2c-.2 0-.4.2-.6.3h-.2v.1H26c-.2 0-.4.3-.6.3h-.1c-.1 0-.4.1-.6.1-.1 0-.2 0-.3-.2-.1.2-.4.2-.5.3-.3-.2-.8-.1-1.1-.2 0-.1-.1-.1-.2-.1s-.2 0-.2.1c-.2-.1-.2-.3-.5-.4-.4-.1-.3-.6-.7-.6-.2 0-.1-.8-.2-1-.1-.1-.2 0-.2-.3.4-.4.2-.6.3-1.7zm8.5-8.4c-.1.1-.1.3-.2.4-.1 0-.2 0-.3.1-.2.1-.3.4-.5.4s-.1-.2-.3-.2c-.3 0-.9.9-1.2 1.1-.4 0-.4.3-.8.3-.1.1-.3.5-.4.6v.5c-.1.3-.3.2-.3.3v.2c0 .2-.3.3-.5.4-.1 0-.1-.1-.2-.1-.3 0-.6 1-.6 1.2 0 .2-.4.6-.4.8-.1.4-.3.7-.4 1.3h.2c.6 0 1.7-1.2 2-1.4.9-.6 1.8-1.4 1.8-1.5.2-.2.6-.6.9-.6h.2c.3-.9 1.4-1.1 1.5-1.5.1-.4.4-.5.5-.6v-.3c0-.2.2-.3.2-.5.1-.3-.4-.5-.7-.6-.1.2 0-.4 0-.3H30c-.3.3-.2-.1-.4 0zM35 26z"/></g><g class="st0"><path class="st1" d="M44.3 12.7c.5-.3.2-1.2.8-1.4V11c0-.2 1.1-1.1 1.2-1.6v-.3c.3-.1.4-.4.7-.5v-.1c0-.2.4-.5.5-.7.5.2.9.3 1.3.3 0 .3.2 1.5.2 1.5 0 .2-.2.2-.2.2v.3c0 .2-.3.2-.4.5v.2c-.3 0-.3.3-.5.3v.3c-.1.3-.3.6-.4.9 0 0-.5.7-.4.7-.1.1-.2.7-.3.7-.2 0-.1.4-.2.4h-.1s0 .1-.1.1c.2 0 .4-.1.7-.1l.8-.2c0 .1 1.3 0 1.4 0 .1-.2.4.1.5.1 0 0 .1-.1.2-.1.3-.2.8.1.9.1h.1c.1 0 .6 0 .6-.2.1.2.3.1.4.2.2 0 .2-.1.4-.1 0 0 0 .1.2.1.1 0 .1-.1.3-.1h.1c.1 0 .1-.1.2-.1v.1c.1 0 .5-.1.5-.1s0 .2.1.2.1-.1.1-.1c.1 0 .1.2.1.3-.1.3-.3.5-.5.7H53c-.4 0-.6.1-1.4.2h-.3c-.1 0-.7-.1-.8-.1-.3 0-.6.3-1 .3h-.3c-.2 0-.7.2-.8.2l-.6.1c.1-.2-1.3.2-1.4.1-.6-.1-1 0-1.3.1v.4c0 .2-1.2 2-1.3 2v.2c-.1.5-.5.6-.5 1.1v.1c-.1.1-.2.2-.3.2h-.2c0 .1-.1.1-.1.2v.4h-.2c-.1 0-.1.4-.2.4H42v.3l-.1.1v.3s-.2.2-.2.5v.1c-.3.1-.6.7-.7 1v.2h-.5v.2c0 .3-.1.5-.2.7v.2c0 .2-.3.2-.5.4v.2c-.1.1-.6 1.3-.8 1.5v.3c0 .2-.2.3-.3.5v.3c0 .2-.1.3-.1.5v.2c-.6.6-.8 1.4-.9 1.9v.7c0 .2-.2.1-.3.2v.2c0 .3 0 .4-.1.6-.1.1.1.1.1.1.3 0 .3-.5.7-.4h.1c.1-.2.5 0 .6-.2 0 0 .1-.1 0-.1.3 0 .9-.3 1-.7.7-.3 1.5-1.2 1.8-1.1h.1v-.2c.1-.3.8-.3.8-.6v-.2c0-.1.8-.5.8-.6 0-.2 1.1-.8 1.2-.8.1-.2.4-.5.6-.5h.1v-.3s1.6-1.3 1.7-1.3c.6-.8.8-.8 1.4-1.5 0 0 1-.8.9-.8.1 0 .1 0 .2.1.1 0 .4-.7.5-.8.3-.2.6-.1.8-.8.5-.1.7-.5.8-.4h.2c.1 0 .4.5.5.5-.1.1-.2.5-.3.6-.4.5-.2.4-.6.6-.1.2-.1.1-.2.2l-.4.2-.3.1c0 .1-.1.2-.2.2.1 0-.3.3-.5.4-.1 0-.1.2-.1.2-.4 0-1.3 1.2-1.3 1.2-.9-.2-1.2 1.3-1.5 1.3-.1 0-1.4 1.1-1.4 1.1-.1 0-.2 0-.2.2-.1.2 0 .2-.1.3-.1.3-.8-.2-1 .5-.4.1-.6.8-1.1.9 0 0 0 .1-.1.1-.1.2-.2.3-.2.4-.1.2-.3 0-.3.2 0 0-.4.5-.6.4h-.1c-.1.3-1 .9-.9.9l-.1-.1v.1c-.1.2-.4.1-.4.3h-.1c-.3-.1-.4.5-.8.5 0 .1 0 .1-.1.1 0 .2-.2 0-.2.2-.4 0-.8.7-1.1.6-.1.2-.2.5-.4.4h-.1c-.2 0-.3.2-.4.1h-.3c-.3-.1-.7.2-1.1.2-.4 0-.7-.3-.6-1 0-.2.1-.2.1-.2 0-.1-.1-.1 0-.2.1-.5.5-.8.7-1.8.1-.5.3-.9.6-1.4v-.5c.1 0 .8-2.4.9-2.5.2-.2 1-1.8 1-1.9v-.3c.3-.1.3-.6.7-.6v-.1c0-.2-.1-.3 0-.5.1 0 .6-1.1.6-.9.2-.6.1-.8.7-1.3.2-.4.5-1 .6-1.4h.1c.2 0 1.5-2.9 1.5-2.9l.1-.4c-.1.2-.1 0-.2 0H42v.1c0 .1-.7.2-.7.2l-.1.1c-.4.1-.8.2-1.6.3l-.1-.1c0 .1-.1.2-.2.2s0-.2 0-.2c-.4 0-1.6.6-1.7.7h-.7c-.3.1-.6.8-1.2 1-.2.6-.4.7-.8.7-.1 0-.1.3-.3.3-.1 0-.2-.2-.2-.4v-.2l-.1-.4v-.2c0-.1 0-.4-.1-.6v-.1c0-.1-.1-.2 0-.4.1-.3.3-.6.3-.5v-.1c.5-.5.9-.5 1.1-.4h.2c.2 0 .3-.3.5-.3.4-.1 1 0 1.4-.4h.2c.5 0 .8-.3 1-.3.1 0 0 .1 0 .1s0-.1.1-.1h.8c.2 0 1.1-.1 1-.2 0 0 .1.1.2.1.4-.3 1-.1 1.4-.4h.2s.1 0 0 .1c.2-.1.5 0 .6-.2 0 .1.1.1.1.1h.3c.1 0 .2-.1.3-.1.1-.2.3-.5.2-.7-.1.1.2-.8.2-.8z"/></g><g class="st0"><path class="st1" d="M61.7 11.8c-.7 0-1.1.5-1.3.9 0 0-.1 0-.2.2v.1l-.7.5v.2c-.1.6-.9 1.2-.9 1.3-.2 1.1-.8 1-1.5 1.7-.1.1-.1.3-.2.3h-.1v.1c0 .2-.8.3-.8.6v.1h-.3s-.3.3-.6.3c-.2 0-.3 0-.4-.1v-.2c0-.2-.1-.2-.1-.3.1-.5 1-.7 1.2-.9.3 0 1.2-1.7 1.7-1.8 0-.3.3-.3.3-.6v-.1c.3-.1.4-.5.7-.6v-.1c.1-.4.8-1.4 1.1-1.6.2-.2.3-.6.8-1.1v-.2c0-.2.2-.5.4-.7v-.1c.2 0 .2-.9.6-1.2 0-.4-.1-.9 0-1.4-.1 0-.1-.2-.2-.2s-.3.2-.5.2c-.2-.1-.5-.3-.5-.6 0-.1.1-.1.1-.2v-.2c.1-.4.9-1.3 1.2-1.3.4 0 .6.1 1 .1 0 .3.2.3.6.8.1.1.2.6.2.7v.1c0 .1.1 0 .1 0 .1.3 0 .8.1.9 0 .2.1.6 0 1-.1.5-.3.6-.4 1v.2c-.4.2-.5.9-.8 1.2v.2l-.3.9h-.3z"/></g><g class="st0"><path class="st1" d="M62.6 21.9v-.3c.2-.2.6-.1.7-.6.6-.2 1.2-.2 1.5-.8.2-.1.7-.5.8-.5h.1c-.1 0 .7-.3.8-.5.1 0 .1-.2.2-.2h.1c.4 0 1.2-.6 1.2-.6h.2c.1 0 .1-.2.3-.2h.2c.1 0 .1-.1.2-.2.3-.1.9-.4 1-.4h.3c.4 0 .2-.2.5-.2h.2c.1 0 .2-.1.3-.3 0 .1.3.1.4.2.2-.1.5 0 .6-.2.2.2.6.3.7.6 0 0 .3 0 .3.2 0 0 0 .1-.1.1v.1h.1s-.1.1-.1.2.2.2.2.5c-.2.2-.4.7-.4.7 0 .2.1.2.1.3s-.2.3-.5.4v-.1s0-.1-.1-.1c0 0-.1.2-.3.2-.1 0-.3-.1-.4-.1-.4 0-.9.1-1.2.5-.1-.1-.2-.2-.4-.2-.3 0-.5.3-.6.3-.2.2-1.7.5-1.8 1h-.1c-.1 0-.2-.1-.2-.1-.2.2-.3.2-.5.3h.1c-.1 0-.1 0-.1.1-.7.3-.7.2-1 .6h-.2c-.4 0-.6.3-.9.4 0 .3-.1.7-.1 1 0 .2.1.3.1.5 0 0 0 .1-.1.1.3.1.8.4 1 1 0 .1 0 .3.1.3h.2c.1 0 .1.3.2.3s.1 0 .2-.1c0 .2.2.2.2.4h.1c.2 0 .3.2.5.2h.1c.2.5.5.7.9.8.1.4.3.4.3.5v.2c0 .1.2.2.3.2.1.6.3 1 .6 1.2v.2c-.1.5.1.6.2.9-.2.4-.4.7-.7.8-.2 0-.2.3-.4.5-.4 0-.6-.1-1 .3l-.7.3c-.2 0-.2-.2-.4-.2-.3.1-.5.2-.7.2-.1 0-.2-.2-.3-.2-.2 0-.4.2-.6.2.1-.3-.2-.5-.4-.5s-.4.1-.6.2c-.2-.2-.6 0-.6-.5 0 .1-.1.1-.2.1-.5 0-.8-.4-1-.4-.2 0-.2.2-.4.2 0-.2-.3-.1-.3-.3h-.1c-.4 0-.6-.3-.6-.3h-.1c-.1 0-.2-.3-.3-.3h-.1c-.1 0-.2-.2-.2-.3-.3-.2-.4-.2-.4-.2-.4 0-.8-.5-.8-1 .5.1.8.3 1 .6.1 0 .2-.1.3-.1.1.2.6.4.6.4h.1c.2 0 .2.2.7.2.2 0 .5 0 .7.3h.3c.3 0 .4.3.7.3h1.8c.1 0 .2-.2.2-.2s.1.1.2.1.5-.2.7-.2c0 0 .2-.1.4-.1 0 0 0 .1.1.1.3 0 .6-.5.9-.5V30c0-.2.1-.2.1-.4 0-.7-.7-.9-.8-.9 0-.4-.7-1-1-1h-.1c-.2-.6-1-.6-1.2-1.3-.2 0-.3-.2-.4-.2.1-.3-.3-.3-.2-.6 0-.1-.1-.2-.2-.2h-.2c0-.3 0-.5-.3-.5 0-.3-.2-.5-.5-.5-.5 0-.4-1.3-.4-1.2.1-.2.2-.7.4-1.3zm41-7.2c-.2 0-.3-.1-.5-.2-.1-.1-.3-.2-.5-.2h-.2c.1-.2.1-.2.2-.2.2-.1.3-.2.4-.4-.1-.2-.1-.4 0-.5 0-.1 0-.2.1-.3.1-.1.1-.2.1-.4.1-.8-.3-1-.8-1.3l-.3-.3c-.5.2-.8.1-1.2.3h-.3c-.7 0-1.2.2-1.7.3l-.3.1-.2-.2h-.1l.1-.3c-.7 0-.8.5-1 .6l-.2.2c-.1 0-.2 0-.2-.2-.1-.1-.2-.2-.5-.2-.3.1-.4.5-.4.5-.3 0-.4.1-.6.2 0 .1-.1.2-.2.2h-.2l-.2.1c-.1.1-.6.2-.6.4h-.1c-.1 0-1.7.7-2.1 1.4h-.5c-.7 0-.8.4-.8.6 0 .1 0 .2-.1.2h-.2c-.2 0-.4.5-.4.6l-.1.1c-.1 0-.1 0-.2.3v.1c0 .3-.8 1-1.2 1.4l-.5.6-.3.1c-.3.1-.4.2-.8 1.1 0 .1-.5.5-.6.5l-.1.3c-.1.3-.2.5-.3.6-.1.1-.2.1-.2.2v.5l-.1.1s-.1.2-.1.4l-.1.4c-.1.2.1.6-.1 1.1-.4.6.5 2.2.9 2.4.2-.1.5-.1.8-.1h.6c.2 0 .4 0 .7-.1l1-.2c.1 0 .2.1.3.1.4 0 .4 0 .5-.1l.2-.2c.1.1.2.1.2.1.4 0 .2-.2.3-.3l.7-.2c.6-.1 1.4-.3 2.6-.9 0 0 .1-.2.2-.3h.2c.1 0 .2-.1.3-.2 0 0 .1-.1.3-.1h.2c.2 0 .4-.3.7-.4 0 0 .1-.2.2-.2h.1l.2-.1.3-.1h.3v-.2c.1-.2.1-.1.1-.1s.2.1.3.1c.3-.1.6-.5.8-.6.3-.3.6-.6 1.1-.8.2-.3.4-.5.6-.8h.1c.2 0 .3 0 .4-.1h.3s.3 0 .4.1c0 .2.1.2.3.2.1 0 .1 0 .2.1.2.2.5.5.5.6 0 .2-.3.5-.4.5-.1 0-.2.2-.2.2v.2s-.2.1-.1.1c-.2.2-.3.1-.3.3v.2c-.1 0-.2.2-.3.4 0 .1-.1.2-.1.3-.1.1-.2.2-.3.5v.2l-.3.6c-.1.3-.2.6-.3.8v.3c-.2 0-.3 0-.4.2 0 .1-.3.5-.3.5-.1.2-.4.6-.9 1.8 0 0-.1 0-.1.1-.1.2-.2.3-.3.6v.3c0 .1-.1.2-.1.4-.1.1-.3.4-.7 1.9l-.1.3c0 .1-.1.2-.1.2 0 .1-.1.2-.1.3v.5s-.2.4-.2.6.3.8.5 1c-.4.9-1.8 1.3-1.8 1.3-.2-.1-.6-.5-.7-.6V35c0-.2-.1-.3-.2-.3l.1-.3c.1-.2.1 0 .2-.6-.1 0-.1-.2-.1-.3.2-.9.3-1.6.4-1.7.3-.6.6-1.3.7-1.4.4-.3.7-1.2.9-1.9.1-.3.1-.5.2-.5.3-1.2 1-1.9 1.2-2.2.2-.1.2-.2.2-.2 0-.1 0-.2.1-.3.1-.1.1-.2.1-.3v-.5c0-.1.2-.3.3-.5-.2-.1-.3-.1-.4-.1-.2 0-.3.2-.4.3-.1.1-.1.2-.2.2-.2 0-.3 0-.3.1h-.3c-.2 0-.3.2-.3.3h-.1c-.2 0-.3 0-.6.1 0 .2-.2.2-.4.3-.4.1-.7.2-.8.5-.1 0-.3.1-.4.1-.4 0-.8.2-1.2.5h-.2c-.2 0-.3.1-.4.1-.1 0-.2.1-.3.1 0 0-.1 0-.1-.1-.3 0-.4.2-.4.4-.7 0-1.4.3-1.9.5l-.6.2c-.1 0-.3 0-.5-.2 0 0-.3.2-.4.2-.2.1-.3.2-.3.2l-.1-.1H88c-.2 0-.4.1-.6.1-.1 0-.1 0-.2-.1 0 0-.1-.1-.2-.1 0 0-.2.1-.2.2h-.1c-.4-.1-.9.1-.9-.2 0 0-.6-.5-1.1-.6-.1-.4-.6-1.1-.8-1.4v-.1s0-.4-.1-.6c0 0 .2-.1.2-.3l-.1-.1c-.1-.5-.1-.6.1-1.9.3-1.9 1.2-3.2 1.3-3.2.2-.3.5-.5.8-.8.6-.8 2-2.8 2.9-2.9 0-.2.1-.3.2-.5l.2-.2c.2-.1.4-.3.5-.4 0-.1.1-.2.2-.2h.2c.2 0 .2-.1.2-.2V14h.1c.1 0 .2 0 .3-.1l.1-.2.2-.2.4-.2c.5-.2 1.1-.5 1.2-.9v-.1c.2 0 .3-.2.5-.3l.2-.2c-.1 0 .2-.1.4-.2s.3-.1.5-.2v-.1c.1 0 .2-.2.3-.3.1 0 .2-.1.4-.2s.3-.2.6-.2c.3-.1.6-.3.8-.4.6-.3 1.5-.7 1.7-.7h.2c.1 0 .2 0 .2-.1h.2l.2-.1c.1 0 .3.1.4.1.3 0 .5-.2.8-.3.3-.2.5-.3.8-.3h1c.1 0 .3 0 .5-.2V9c.6 0 .8-.1.8-.1l.4-.1c0 .1.2.3.4.5.1.1.1.3.3.3l.1.2c.1 0 .2.1.3.1.1.1.1.2.3.2h.1c0 .2.2.3.3.5.1.1.1.2.1.2v.2c0 .1 0 .2.1.3.1.2.3.5.1 1.4-.1.4-.1.7-.2 1.1-.2 0-.6.4-.9.7l-1.1.2zm1.6 18.7h-.1s-.4-.3-.7-.3h-.1c.1-.4-.1-.7-.3-1 .1-.6.1-1.3.2-1.9.1-.4.2-.7.4-1V29c0-.1.1-.2.1-.3 0-.1-.1 0-.1-.1h.1c0-.1 0-.5.1-.8 0-.2 0-.3.1-.3h.1v-.2c.1-.5.2-.3.3-.7 0-.2.3-1.1.2-1.2.1 0 .3-.7.4-.7.2-.5.5-1 .6-1.6.2 0 .3-.1.3-.2v-.1s.1 0 .1-.2c0-.1 0-.2-.1-.2.1 0 .3-.7.5-1v-.1c0-.2.3-.3.3-.4v-.3c0-.2.1-.1.1-.2v-.2c0-.1.1-.1.1-.1.1-.1.2-.5.5-.8v-.2c.1-.5.8-1.6.8-1.5v-.5c0-.2.1.1.4-.8 0-.1.1-.3.2-.4 0 0 0-.1.1-.1.1-.2.3-1 .3-.9 0-.2.4-.6.5-.8.1-.5.8-1.9 1.1-2.1-.1 0-.1 0 0-.1 0-.3.4-1 .5-1v-.1c.1-.5.8-1 .8-1 0-.1-.1 0-.1-.1 0-.2.6-.8.5-.7.1-.4.3-.6.4-1 .2 0 .2-.3.3-.3h.2c.1 0 .2-.1.2-.1s.1.1.2.1l.2-.1c.2 0 .5 0 .5.3h.1c.1 0 .2 0 .3.1v.1c-.1.3.1.5.1.8 0 .3-.2.9-.6 1.2h-.2v.2c-.1.3-.5-.2-.7.8-.4 0-.2.9-.9 1-.2.5-.4 1.7-.7 1.7v.2h-.1v.1s-.4.6-.4.8v.2c0 .2-.1.2-.2.2s-.2 0-.1-.2V15c-.6 0-.4 0-.7.6 0 .1-.2.1-.2.2-.2.3-.3 1.2-.7 1.4l-.1.5c-.1.4-.2.4-.3.8l-.1.7c-.1.6-.7 0-.9 1.1v.1c-.1.3-.6 1.3-.6 1.3h-.1c-.1 0-.1.4-.3.5l-.1.3c-.1.5-.2.8-.5 1.1l-.3 1.9c-.2 0-.4 0-.5.1v1.3c0 .2-.1.5-.2.6v.2h-.2v.3c0 .2-.3.4-.4.5-.1.3.2.5.4.6l-.4.6c0 1.3 0 1.5.2 1.5.3.1.9.3 1.3 0 .1-.1.9-.5.8-.5.8-.3.4 0 1.3-.7.6-.4 1.1-.8 1.8-1.5h.1c.1 0 .1-.1.2-.2.4-.3.4 0 .8-.6h.1c.2 0 0-.5.2-.4.1 0 .2-.1.1.1.7-.5 1.6-1.4 1.8-1.4.2-.2.3-.5.5-.7.1-.1.8-.5.8-.5h.1v-.2c0-.2 1-1.2 1.5-1.5l.1-.1c0-.2.3.1.3-.1l.3.1c-.2.1-.3.9-.4 1-.1.2-.1 0-.2.1 0 0 0 .1-.1.1-.1.1 0 .5-.3.7-.2.2-.5.2-.4.2 0 0-.6 1-.9 1.3-.4.5-1 1-1 1-.3 0-.6.4-.7.7-.1 0-.6.3-.5.3-.4.5-.7.5-1 1v.1c0 .2-.3.1-.3.2v.1c-.1.2-.6.3-.6.6-.2.2-.6.4-.7.5-.8.5-1.7 1.4-1.5 1.3-.1.1-.1.1-.1.2 0 0-.5.3-.7.3h-.2c-.5.5-.8.4-1.2.8h-.1s-.4.1-1.1.2c-.6-.2-.6-.3-.9-.3.1 0 0 0 0 0z"/><path class="st1" d="M117.9 20.8h.1v-.1h.2c.2-.2.2-1.3.5-1.4 0 0 .1 0 .2-.1.1 0 .3-.4.4-.4h.3l.2-.2c.1 0 .2.2.3.2.3 0 .5-.3.7-.3.2 0 .3.3.6.3h.1c-.1.4.3.3.2.8h.1c1.3 0 1.4.7 2.2.7.5 0 .6.9 1.1.9h.3c0 .2.2.5.4.5.7 0 .8-.5 1 0 0 .2.4.2.2.3-.1 0 .6.9.7.8v.4c0 .1-.3.1-.4.4 0 .3.1 1.2-.4 1.6 0 .6-.5.5-.5 1h-.1c-.1 0-.2.4-.4.4s-.4.3-.3.1c-.2.2-.9.8-.7.8-.2.2-.5-.1-.7.6-.2 0-1.1 1.2-1 1-.1.1-.3 0-.3.2-.6.3-1.4 1.1-1.5 1.6 0 0 .1 0 .1.1 0 .2-.5.4-.6.4h-.1c-.3.2 0 .6-.8.6-.2 0-.4.5-.4.5-.6 0-.9.5-1.4.5-.3 0-.5-.1-.8-.1-.3 0-.5.3-.7.3-.3 0-.4-.3-.5-.3-.6-.3-.6 0-1.2-.8v-.3h-.1v-.2h-.1v-.3h-.1V31c0-.1-.1-.1-.1-.1 0-.1.1-.1.1-.2-.4-.5.1-1-.2-1.4.2-.3.2-.8.5-1-.1-.2-.1-.4-.1-.6 0 0 .1-.1.1-.2 0-.2 0-.2-.1-.2.1-.1.8-1.2.8-1.2v-.3c0-.2 1-1.2 1.1-1.3v-.3c0-.3.3-.3.7-1.3 0-.3.3-.3.3-.6 0-.2-.4-.9 0-.9-.2.1-.1-.5.1-.6zm5.8 1.1h-.7c-.5 0-.7-.1-.8-.1-.1 0-.2.1-.2.1h-.2c-.1.1-.3.1-.4.1-.1-.2-.3-.3-.5-.3s-1 1.4-1 1.4l-.2.2c-.3.1-.2.3-.5.5-.1.3-.2.5-.2.6 0 0-1.1 2.1-1.9 2.7v.5c-.3.1-.6.8-.6.7 0 .3 0 .3-.1.5-.1.3-.2.2-.2.6 0-.1-.1 2.4.4 2.4.3 0 .5-.3.6-.3h.2c.5 0 .4-.3.8-.3.1 0 .1.2.4.2v-.2c.1-.7 1-.7 1.2-.8 1-.6 1.2-1.6 2.6-2.2.2-.2.2-.4.3-.6v-.1c.7-.4 1.2-1.4 1.8-2-.1-.1.2-.5.3-.9.1-.5-.1-.8.1-1.1-.1-.2 0-.5-.2-.7-.8-1.2-1-.9-1-.9zm12.5 3.7c.1-.2.1-.3.1-.5.3-.1.4-.5.7-.7 0-.2.1-.3.1-.5.2-.2.4-.5.6-.6.4-.8 1-1.4 1.2-2.1 0-.2.1-.5.2-.6h.1c.2 0 .2-.2.6-.2.2 0 .2.1.3.2h.2c.1 0 .5.4.4.6v.1c.2.2.4.3.5.6-.1.3-.3.4-.3.7 0 .1-.1.2 0 .2v.1c-.1.3.3.1.1.8-.1.6-.2 1.2.1 1.5 0 .1-.1.2-.1.3-.1.5 0 .8.2 1.1l-.1.3c0 .2.2.8.2.8 0 .1.2-.1.1.2 0 .2-.1.2-.2.3 0 .3.2.5.4.7 0 .1-.1.2-.1.2-.1.3.1.5.4.5.2.2.1.5.5.6.2 0 .6-.6.6-.6l.1-.4c.3 0 .3-.3.5-.5v-.3c.1-.6.4-1 .7-1.3v-.7c.1-.5.3-.6.4-1l.1-.3c.1-.2.2-.3.2-.4 0 0-.1-.4 0-.7 0-.2.2-.2.2-.2s-.1-.1 0-.3c0-.2.1-.4.1-.5 0-.2.1-.4 0-.4 0 0 .1-.2.1-.3v-.2c.1-.1.1-.2.1-.3.1-.2.1-.3 0-.5v-.1c.1-.1 0-.2.1-.3l.1-.2s-.1-.3-.1-.5l.1-.3c.1-.3 0-.5 0-.8 0-.2.1-.2.2-.5-.1 0-.1-.2-.1-.2 0-.2.2-.4.5-.4h.2s.1 0 .2.1h.3s.1 0 .1.1c.4.1.5.1.5.5v.5c-.1.1-.1 1.2-.3 1.4-.1.3-.1.5-.1.8 0 .2-.1.3-.2.5v.3c0 .1-.1.2-.2.2.1.1.2.3.1.6v.4c-.1 0-.1.1-.1.1v.1c0 .1 0 .1-.1.2v.1c0 .2-.3 0-.5.3-.1.5.6.2.6.5-.1.4-.2.5-.3.7v.3c-.3.1-.3.4-.5.5 0 .2 0 .4.1.4h.1c-.1.1-.2.2-.2.3v.4c0 .2-.1.1-.1.2v.1s0 .2-.2.5v.2c0 .1-.2.1-.3.3 0 .1 0 .2-.1.3 0 .2-.2.4-.3.4l-.1.3c-.1.5-.7.8-.8 1.4v.1c-1 .6-.8.8-.9.8-.1.1-.1 0-.2 0h-.1c-.1 0-.4.1-.5.1-.6 0-1.1-1-1.7-1.3-.1-.2-.2-.5-.2-.8-.1-.3-.7-.6-.6-.8-.1-.2.1-.6 0-.9 0-.5-.1-.8-.4-1 .2-.7.2-1.4-.1-2v-.1c.1-.2 0-.8-.1-.8-.3 0-.5.5-.5.5-.3 0-.3.3-.6.3 0 .2 0 .4.1.5-.3.3-.7.5-1 .8v.3c0 .2-.3.9-.7.8v.3c-.2.9-1.3 1.7-1.2 1.7h-.1v.2c0 .2-.2.2-.3.5h-.2c-.3 0-.4.3-.6.5v.3c-.1.3-.3 1.1-.7 1-.1.3 0 .3 0 .3 0 .1-.6.9-1 1.2l-.3-.1h-.3s-.2 0-.3-.1c-.3 0-.4.3-.7.3-.6 0-.6-1.1-.6-1.1-.2-.5-.1-.6-.1-1.1 0-.2.1-.3.2-.5v-.8s0-.1.1-.1v-.3c0-.1.1-.1.2-.2 0-.1 0-.5.1-.8.1-.6.4-1.4.6-1.4V27c.1-.5.4-.7.4-1l.1-.3c0-.1.1-.1.1-.1s-.1-.1 0-.2c0 0 .1 0 .1-.1v-.2c.1-.2.1-.3.1-.4l.1-.4h.1c0-.1-.1-.1-.1-.2 0 0 0-.1.1-.2s.5-.9.5-.8c0-.3-.1-.4-.3-.6 0-.5 0-1 .1-1.4.2-1.2 1.1-1.8 1-1.8v-.2c.1-.4.4-.9.9-.9h.1c.1 0 .1-.2.3-.2.5.1.7.9.8 1.5 0 .2.2.2.3.3-.1.1-.1.2-.1.2l-.1.4c-.1.5-.4.3-.5.6 0 .1 0 .3-.1.4 0 .2 0 .3-.1.3v.1c-.1.3-.5-.2-.7.6-.1.3-.3.4-.3.6v.4c0 .2-.2.4-.2.6v.2c0 .2-.4.1-.4.3v.2c-.1.3-.2.5-.3.8-.3.1-.2.5-.5.6-.1.3-.1.7-.1 1-.1.2-.1.4-.3.6.1.2 0 .6.1.8-.1.2-.2.4-.3.5 0 .2 0 .3-.1.6l-.1.2v.2c0 .2-.2.2-.2.3 0 .2.2.3.2.3.4 0 1.2-1.4 1.1-1.1v-.2c.1-.2.3-.2.4-.2 0 0 .1-.3.2-.3h.1c.1 0 .1-.2.3-.2 0-.2.1-.2.1-.3l.1-.2h.1c.1 0 .1-.2.2-.3.2-.1.6-.7.9-.8v-.1c.1-.2.2-.5.3-.6v-.2c0-.1 0 0 .1 0-.1 0 0-.4.3-.5zm33.6 1.8c0-.2 0-.3-.1-.3.1-.3.4-.5.4-.7 0 0-.1.1-.1-.1-.4.3-.8 1.4-1.4 1.3 0 .2-.2.3-.2.4v.2c0 .1-.2 0-.3 0-.1 0-.1.2-.2.3l-.3.3v.2c0 .1 0 0 0 0h-.1c-.2 0-.7.5-.8.6v.2c-.4.4-.8.3-.9.9l-.3.3c-.3.2-1 .8-.9.7-.1.1-.3.3-.4.5 0 .2-1.5.8-1.4.6 0 .1.1.2.1.3h-.2l-.1.1c0 .1-.6.3-.7.2-.2-.1-.3-.2-.4-.2-.4.1-.9.3-1.2.3-.4-.3-.9-.6-.8-1.2-.4 0 .6-1.5.3-1.7.1-.7.3-.7.5-1.3.1-.4.3-.4.4-.9.2-.1.8-.9.5-1.2 0-.2.3-.6.5-1.3.1-.2.2-.1.3-.2v-.2c0-.2.4-.3.4-.6 0-.2.1-.3.2-.6.1 0 .1 0 .2-.2v-.2c.1-.3.2-.2.3-.3 0-.1.5-1 .5-1l.3-.3c0-.1-.1-.3 0-.4.1-.1.3-.3.4-.6 0-.2.1-.2.2-.4 0-.1.1-.1.1-.1l.4-.7c.1 0 0-.2 0-.2.2-.1.2-.3.3-.6.6-.1 0 0 .5-.2.2.1.3.2.7.2h.1c.2.6.8.8.6 2 0 .3-.3.3-.7 1.1 0 .1-.9 1-1 1-.5.3-1.1 1.7-.9 1.6-.3.2-.3.6-.7 1.1l-.1.5c0 .2-.3.4-.3.6v.2s-.1.2-.4.4c.1.1 0 .2 0 .3 0 .2-.1.3-.3.4.1 0-.2 1.1-.2 1.2 0 .2-.2.5-.2.6-.2.3-.3.7.2.7.2 0 .5 0 .6-.2v-.1c.2.1.4-.1.8-.3.1-.1.3-.1.5-.2.3-.2.2 0 .9-.5.8-.8 1.1-.8 1.3-1 .3-.3.8-.5.9-1v-.1c.4 0 1.2-.9 1.3-1.2 0-.2.6-.4.6-.6v-.1c.1-.2.6-.6.7-.8v-.1c.8-.3.5-.8.9-1.1v-.2c.2-.8.6-1 1.3-.9.1 0 .3.1.5.1 0 0 0 .1-.1.1 0 .2.3.2.2.4 0 .3.4.2.3.4 0 .2-.2.1-.2.3.1.1.1.2.1.4-.2.7-.5.3-.7.6 0 .2.2.4.2.5 0 .1-.1.1-.1.2s.1.1 0 .2c0 .2-.2.3-.4.4v.5c-.1.1-.2.1-.2.2v.3s0 .1-.1.2c0 .1-.2.1-.2.2v.7l-.1.3v.3c-.2.3-.4.7-.4 1 0 .1 0 .2.1.3-.1.1-.2.3-.2.4-.1.4.1.7.2 1 .4-.1.9 0 1.2-.2.1-.1.9-.4.8-.4.8-.3.3-.2 1.2-.7.6-.4 1.2-.8 1.9-1.4h.1l.2-.2c.4-.2.4.1.9-.6h.1c.2 0 .1-.5.3-.5.1 0 .1 0 .1.1.7-.5 1.5-1.3 1.7-1.3l.6-.6c.1-.1.8-.5.8-.5h.1v-.2c0-.2 1.1-1.1 1.6-1.4v-.1c0-.2.3.1.3-.1l.3.1c-.2.1-.3.7-.4.8-.2.1-.1 0-.2 0l-.1.1c-.1.1 0 .3-.3.5-.2.2-.4.2-.4.2s-.6.8-.9 1.1c-.4.5-1.2.9-1.1.9-.3 0-.6.5-.7.8-.1 0-.6.3-.5.3h-.1c-.4.4-.6.4-.9.8v.1c0 .2-.4.2-.4.2v.1c-.1.2-.6.3-.7.6-.1.2-.6.4-.7.5-.8.4-1.7 1.2-1.6 1.1-.1.1-.1.1-.1.2 0 0-.3.2-.5.2h-.2c-.6.5-1 .6-1.4.9h-.3s-.4.3-1.1.3c-.3 0-.1-.2-.3-.2h-.3l-.5-.4v-.2c0-.2-.4-.3-.3-.3h-.1V32s-.2 0-.2-.1v-.2c0-.1-.1-.1-.1-.1-.1-.1-.1-.7-.1-.6v-.1s-.1-.6-.1-1c0-.2.2-.3.2-.5s-.1-.4 0-.6c0-.2.2-.4.3-.6l.1-.4s.2 0 .3-.4z"/><path class="st1" d="M194.5 19.5v.2c0 .7.3 1.1.2 2-.1.5-.6.6-.6 1.1-.1.3 0 .7 0 1 0 .2 0 .2-.2.3.1.1.2.1.2.3l-.7 1.3c.1.1 0 .2 0 .4l-.1.3c.9-.2 1.7-1.5 2.3-1.5.3 0 .3-.3.5-.5.5 0 1.2-.6 1.2-.6.2 0 1.3-.7 1.4-1h.1c.1 0 .2-.1.3-.1.1 0 2.6-1.4 2.6-1.4.7 0 1.3-.7 1.5-.8.1 0 .3 0 .5-.1.1.2.5 0 .5.2.4.2.7.5.7.7-.1.4-.9 1-1.2 1 0-.1 0-.2-.1-.2-.9.3-.7.7-1.1.7-.2 0-.2-.2-.5-.2-.4 0-.2.5-.7.5h-.2c-.3 0-2.4 1.4-2.8 1.4-.6 1-1.9.8-2.4 1.7-.4 0-.7.4-1.1.6 0 .1-1.3.7-1.3.9l-.1.3c-.2.1-.5.1-.7.2-.2.4-.5.5-.7 1-.2.1-.4.1-.5.3v.4c-.1 0-.4.5-.4.7v.3c-.1.3-.8 1.1-.8 1.1 0 .2-.3.3-.3.5 0 0 0 .1-.1.2-.2.3-1.7.5-1.5.4-.3.2-.8.4-1.2.5 0-.1 0-.1-.1-.1h-.3s-.2-.5-.2-.6c-.2-.2.3-.8.7-1.2.3 0 .6-.2.7-.6v-.2c.5 0 1.6-1.5 1.6-1.4.8-.8.5-1.5 1-2.1.2-1 .5-.7.5-1V26l.4-.7c.2-.4.4-1.3.6-1.4v-.2c0-.2.1-.2.1-.3v-.2c0-.2.2-.3.3-.4 0-.3-.1-.5-.1-.8 0-.2.3-.3.3-.7 0-.3.1-.9 0-.9-.3 0-.5.2-.7.2-.1 0-.1 0-.2-.1-.1 0-.1.1-.1.2v.4c-.5 0-.8.7-.8.7v.1c-.7 0-.5.6-1.2.9-.2.5-.7.6-.8 1.1h-.1c-.1 0-.1.2-.1.2-.6.4-.1.1-.6.6l-.3.3v.4c-.1.5-.3.4-.4.5-.2.3-.1.3-.7 1.3 0 0-.5.7-.7.7 0 .2-.2.3-.2.5v.2c-.4.2-.5.6-.8.8v.2c-.1.5-.5.6-.6 1v.2h-.1c-.3 0-.4.7-.9.9v.2c0 .2-.2.3-.3.6v.1c-.2 0-.2.1-.4.1h-.1c-.1.3-.4.4-.5.6 0 .2-.1.3-.1.5-.1.5-.4.3-.5.5l-.1.2c0 .1-.2 0-.3.3l-.2.2c-.1.5-.2.3-.3.6-.1.2 0 .3-.1.5s-.7.8-.8 1c-.1.3-.3.4-.5.6v.3c-.1.3-.5.7-.6 1 0 .1-.1.2 0 .3-.2 0-.3 0-.4.2.1 0 .1.1.1.1-.1.2-.3.4-.3.5v.2h.1c-.1.2-.3.3-.3.5v.3c-.3 0-.2.4-.6.6.1.1.1.1 0 .2 0 .2-.2.3-.2.4 0 .2 0 .5-.1.6-.1.4-.5.7-.5 1.1v.1c-.3 0-.5.7-.5.7 0 .2.2.2.2.3-.1.3-.2.5-.4.7v.5c-.2 1-1.4 1.2-1.9 1.8-.4 0-.3-.4-.7-.4h-.3c-.1-.1 0-.2 0-.2 0-.1.1-.1.1-.3-.2 0-.3-.1-.4-.2.1-.4.7-.8.8-1.3v-.2c0-.3.3-.2.3-.5 0-.2-.1-.2 0-.3 0 0 0-.1.1-.1.2 0 .5-.7.5-.7s.3-.3.3-.4c1.3-2.7.6-1.9 1.1-2.5.1-.1.3-.3.5-1.1.1-.3.4-.3.4-.5v-.2c.1-.3.4-1 .5-1.3.5 0 .4-1.5 1-1.8.6-1.6.7-1.5.7-1.8 0 0 .4-1 .7-1.3v-.1c0-.2.2-.3.2-.5 0-.1-.1-.1-.1-.2 0-.3.4-1.2.7-1.4v-.2c0-.1.1-.2.1-.5s.3-.3.4-.6c.2-1.3.5-1 .7-1.5 0-.2-.1-.4 0-.6.1-.6.8-1 .9-2 0 0 .6-.7.8-1.9v-.2c.2-.2.4-.3.6-1 .5-.5.7-2 .8-2.2.1-.2.4 0 .5-.2.1.2.4.1.4.4.1-.1.2-.1.3-.1.5 0 .9.4.8 1 0 .2-.2 1-.3 1.1l-.1.2s0 .2-.1.2-.1-.1-.2-.1c0 0-.2.2-.2.3 0 .1.1.1.2.1-.2.2-.3.4-.4.8v.2c-.1 0-.1.2-.2.2s-.2.1-.2.1v.2c-.1.3-.3.5-.4.6 0 .1.1.2.1.3v.1c-.5.1-.7 1.1-.8 1.3-.3.1-.4.5-.5.7v.1c0 .2-.2.2-.2.2-.1.2-.1.7-.5.7v.2c0 .2-.1.3-.2.5v.1c-.4.4-.8.7-.9 1.3v.3c-.4.1-.4.7-.6 1.3 0 0-.1.1-.2.4-.2.3-.4.6-.5.8v.2c0 .2-.2.2-.3.5h.2c.2 0 .6-.5.6-.7v-.1c.3-.6.6-.9 1-1.1V32c.1-.3.4-.4.4-.6.2-.2.4-.6.5-.8.3-.4.4-.7.8-1.2 0 0 .5-.9.8-1v-.2c0-.2.1-.2.2-.4v-.1c.3-.3 1.1-1.3 1.1-1.3.1-.8 1.2-1.7 1.3-1.7v-.1c.2-.9 1.3-1.9 1.7-2.3 2.8-3.3 2.4-2 2.7-2.8.1-.1.2 0 .3-.1.5-.2.8-.9 1.7-.9.6 0 .8.5.8.6v.3h.1c.1 0 0 .2.1.2l.2-.1c0-.1.1 0 0 0zm12.6 10.6l.2-.1s-.1.3.1.3h.1c.4-.1.7 1 .7 1.8 0 0-.1 0-.2.1-.4.1-.5-.3-.8-.2 0 0-.1.1-.2.1.1.4.3.3.3.9-.1.1-.2.1-.3.1-.3.1-.7 0-1 0V33c0-.2-.2 0-.2-.2v-.1c-.1-.2-.5-.2-.6-.5.1-.3 0-1.2.6-1.3.2-.4.9-.6.9-1.1.1-.1.3.3.4.3zm10.4-22.9s0 .1 0 0c.5.1.6.5.7.5 0 .3-.1.5-.2.8h-.1c-.8.2-.9 1.7-1.2 1.8-.1 0-.2 0-.3.1-.3 0-.4.3-.7.5 0 .1.1.1 0 .2 0 .3-.2.4-.1.6 0 0 0 .1.1.1-.2.1-.2.2-.2.3-.5.2-.5.6-.8.8v.2c0 1-1 1.8-1 2.4 0 0-.4-.5-.3-.4-.6.2-.8 1.3-.8 1.4-.6.2-.5 1.5-.9 1.6h-.1v.2c0 .2-.1.8-.4.8h-.2c0 .3-.1.5-.1.7v.2c-.2.2-.1.7-.4.9v.2c0 .2-.1.4-.1.6v.2c-.5.3-.2 1.3-.9 1.4-.5.2-.7.3-.7-.5 0 0 .1 0 .1-.1s0 .1-.1-.2c0-.2.1-.3.1-.4V22c.3-.7.7-2.2 1-2.4v-.5c.5-.4.4-1.3.9-1.8 0 0 .2-.8.2-.6.2-.5.9-1.1.8-1.8.4-.2.5-.9.5-1 .5-.3.5-1 1-1.3 0-.8 1-1.5 1-2.2.2-.1.3-.3.5-.4v-.1s.3-.7.6-.8l-.1-.1c0-.8.6-1.9.7-2h.1c.1 0 .2-.1.3-.1.2-.1.4.1.7 0h.2c.1 0 .2.1.2.3z"/></g></g></g></svg>