<svg xmlns="http://www.w3.org/2000/svg" viewBox="0 0 300.08 79.57"><defs><style>.cls-1{fill:#231815}</style></defs><g id="レイヤー_2" data-name="レイヤー 2"><g id="レイヤー_1-2" data-name="レイヤー 1"><path class="cls-1" d="M97.39 33.1h.72a3.67 3.67 0 013.65 3.68V72.2h20.57a3.67 3.67 0 013.67 3.69 3.67 3.67 0 01-3.65 3.68H98.5a4.78 4.78 0 01-4.76-4.8v-38a3.67 3.67 0 013.65-3.67zm65.12-.33a5.73 5.73 0 015.25 3.47l16.38 37.82a3.93 3.93 0 01-3.58 5.51 3.9 3.9 0 01-3.6-2.41l-3.67-8.81h-21.77l-3.76 8.9a3.79 3.79 0 01-3.49 2.32 3.82 3.82 0 01-3.47-5.35l16.45-38a5.73 5.73 0 015.26-3.45zm7.83 28.35l-8-18.59-7.9 18.59zM206.2 33.1a5.57 5.57 0 014.69 2.58l12.37 19.39 12.37-19.39a5.57 5.57 0 014.69-2.58 5.6 5.6 0 015.58 5.63v36.79a4 4 0 01-4 4 4 4 0 01-4-4V46.25l-11.59 17.42a3.59 3.59 0 01-6 0l-11.65-17.29v29.14a4 4 0 01-4 4 4 4 0 01-4-4V38.73a5.6 5.6 0 015.54-5.63zm58.21 4.05a4 4 0 014-4h14.15a22.73 22.73 0 017.27 1.1 15.45 15.45 0 015.53 3.15 13.93 13.93 0 013.49 4.91 16.1 16.1 0 011.22 6.37v.13a15.39 15.39 0 01-1.45 6.87 14.25 14.25 0 01-4 4.95 17.61 17.61 0 01-5.87 3 24.46 24.46 0 01-7.19 1h-9.17v10.89a4 4 0 01-4 4 4 4 0 01-4-4zm17.47 20.11a10.72 10.72 0 007.3-2.33 7.6 7.6 0 002.67-6v-.13a7.4 7.4 0 00-2.71-6.23 11.55 11.55 0 00-7.26-2.1h-9.44v16.8z"/><circle cx="14.94" cy="36.93" r="8.06" fill="#f7b200"/><path class="cls-1" d="M73 30.61a30.61 30.61 0 10-61.22 0h5.73a24.88 24.88 0 1149.76 0v2.85H48.11V54H27.92v19.73H11.21v5.73h22.45v-19.7h20.19V39.19h19.23z"/><path class="cls-1" d="M20.78 22.66H10.65L0 41.31h31.43L20.78 22.66z"/></g></g></svg>