<svg xmlns="http://www.w3.org/2000/svg" width="59.922" height="52.1"><g data-name="グループ 224"><g data-name="グループ 220"><g data-name="グループ 215"><path data-name="パス 116" d="M5.975 45.946a26.681 26.681 0 01-5.022-.468 1.2 1.2 0 01-.111-2.316c.277-.089 6.708-2.21 6.925-8.93a20.235 20.235 0 01-2.2-23.874 1.2 1.2 0 012.056 1.233A17.846 17.846 0 009.857 32.97a1.2 1.2 0 01.315.8 11.592 11.592 0 01-5.006 9.752c3.688.111 9.061-.512 10.99-4.794a1.2 1.2 0 011.49-.64 19.624 19.624 0 006.5 1.121c10.523 0 19.083-8.258 19.083-18.407a17.88 17.88 0 00-2.277-8.723 1.2 1.2 0 012.094-1.171 20.333 20.333 0 012.58 9.894c0 11.471-9.636 20.8-21.48 20.8a21.916 21.916 0 01-6.3-.933c-2.588 4.364-7.889 5.277-11.871 5.277z" fill="#222"/></g><g data-name="グループ 216"><path data-name="パス 117" d="M8.034 9.812a1.229 1.229 0 01-1.2-1.2 1.2 1.2 0 012.049-.851 1.205 1.205 0 01.348.851 1.159 1.159 0 01-.348.839 1.18 1.18 0 01-.849.361z" fill="#222"/></g><g data-name="グループ 217"><path data-name="パス 118" d="M10.062 7.895a1.2 1.2 0 01-.818-2.075 22.055 22.055 0 0122.913-4.323 1.2 1.2 0 11-.87 2.233 19.607 19.607 0 00-7.141-1.332 19.359 19.359 0 00-13.265 5.174 1.2 1.2 0 01-.819.323z" fill="#222"/></g><g data-name="グループ 218"><path data-name="パス 119" d="M41.999 12.692a1.2 1.2 0 01-1.048-.613 18.934 18.934 0 00-9.665-8.35 1.2 1.2 0 01.87-2.233 21.354 21.354 0 0110.889 9.412 1.2 1.2 0 01-1.046 1.784z" fill="#222"/></g><g data-name="グループ 219"><path data-name="パス 120" d="M37.412 17.227a1.2 1.2 0 01-1.048-.615 18.933 18.933 0 00-9.665-8.348 1.2 1.2 0 11.87-2.232 21.345 21.345 0 0110.889 9.411 1.2 1.2 0 01-1.046 1.784z" fill="#222"/></g></g><g data-name="グループ 223"><g data-name="グループ 221"><path data-name="パス 121" d="M55.581 52.1c-2.652 0-6.189-.6-8.047-3.417a14.846 14.846 0 01-3.989.55 14.6 14.6 0 01-13.813-9.531 1.2 1.2 0 012.257-.806 12.2 12.2 0 0011.557 7.941 12.592 12.592 0 004.167-.719 1.2 1.2 0 011.49.638c1.005 2.229 3.575 2.846 5.758 2.933a8.048 8.048 0 01-2.573-6.049 1.191 1.191 0 01.315-.8 11.4 11.4 0 001.43-13.661 1.2 1.2 0 112.054-1.234 13.789 13.789 0 01-1.392 16.147c.229 4.027 4.123 5.325 4.294 5.379a1.2 1.2 0 01-.116 2.315 17.929 17.929 0 01-3.392.314z" fill="#222"/></g><g data-name="グループ 222"><path data-name="パス 122" d="M52.863 26.928a1.193 1.193 0 01-.817-.322 12.444 12.444 0 00-7.737-3.292 1.2 1.2 0 01-1.125-1.267 1.185 1.185 0 011.267-1.125 14.836 14.836 0 019.228 3.931 1.2 1.2 0 01-.816 2.075z" fill="#222"/></g></g></g></svg>