<svg xmlns="http://www.w3.org/2000/svg" width="61.41" height="71.344"><g data-name="グループ 383"><g data-name="グループ 360"><g data-name="グループ 359"><g data-name="グループ 358"><path data-name="パス 194" d="M54.138 52.973L29.041 64.15a1.19 1.19 0 01-1.57-.604l-15.729-35.32a1.19 1.19 0 01.603-1.572L37.44 15.477a1.19 1.19 0 011.572.604L54.741 51.4a1.192 1.192 0 01-.603 1.572zM29.161 61.49l22.922-10.207-14.76-33.146L14.4 28.345z" fill="#222"/></g></g></g><g data-name="グループ 370"><g data-name="グループ 363"><g data-name="グループ 362"><g data-name="グループ 361"><path data-name="パス 195" d="M27.7 35.31l-4.942 2.2a1.19 1.19 0 01-1.571-.603l-2.21-4.963a1.19 1.19 0 01.604-1.57l4.94-2.201a1.19 1.19 0 011.572.602l2.21 4.963a1.19 1.19 0 01-.604 1.572zm-4.822-.459l2.765-1.231-1.243-2.791-2.764 1.23z" fill="#222"/></g></g></g><g data-name="グループ 366"><g data-name="グループ 365"><g data-name="グループ 364"><path data-name="パス 196" d="M31.88 44.696l-4.942 2.2a1.19 1.19 0 01-1.572-.603l-2.21-4.963a1.19 1.19 0 01.604-1.572l4.94-2.2a1.19 1.19 0 011.573.603l2.21 4.963a1.19 1.19 0 01-.604 1.572zm-4.822-.458l2.765-1.231-1.242-2.789-2.764 1.23z" fill="#222"/></g></g></g><g data-name="グループ 369"><g data-name="グループ 368"><g data-name="グループ 367"><path data-name="パス 197" d="M36.06 54.083l-4.942 2.2a1.19 1.19 0 01-1.572-.603l-2.21-4.962a1.19 1.19 0 01.604-1.572l4.941-2.2a1.19 1.19 0 011.572.603l2.21 4.962a1.19 1.19 0 01-.604 1.572zm-4.822-.458l2.764-1.232-1.241-2.788-2.764 1.23z" fill="#222"/></g></g></g></g><g data-name="グループ 373"><g data-name="グループ 372"><g data-name="グループ 371"><path data-name="パス 198" d="M37.654 27.903l-8.108 3.61a1.19 1.19 0 11-.968-2.172l8.108-3.61a1.19 1.19 0 11.968 2.172z" fill="#222"/></g></g></g><g data-name="グループ 376"><g data-name="グループ 375"><g data-name="グループ 374"><path data-name="パス 199" d="M41.833 37.29l-8.108 3.61a1.19 1.19 0 01-.968-2.175l8.108-3.61a1.19 1.19 0 11.968 2.174z" fill="#222"/></g></g></g><g data-name="グループ 379"><g data-name="グループ 378"><g data-name="グループ 377"><path data-name="パス 200" d="M46.013 46.676l-8.108 3.61a1.19 1.19 0 01-.968-2.174l8.108-3.61a1.19 1.19 0 11.968 2.174z" fill="#222"/></g></g></g><g data-name="グループ 382"><g data-name="グループ 381"><g data-name="グループ 380"><path data-name="パス 201" d="M61.172 55.69L26.353 71.194a1.19 1.19 0 01-1.572-.604L4.703 25.5a1.19 1.19 0 01.603-1.571l12.125-5.4a6.114 6.114 0 01-1.246-1.814 6.181 6.181 0 1111.293-5.028 6.114 6.114 0 01.514 2.14l12.126-5.4a1.19 1.19 0 011.57.604l20.079 45.09a1.19 1.19 0 01-.595 1.569zm-34.7 12.846l32.644-14.537-19.11-42.915-12.956 5.769a1.19 1.19 0 01-1.616-1.455 3.802 3.802 0 10-5.118 2.28 1.19 1.19 0 010 2.174L7.36 25.62z" fill="#222"/></g></g></g></g></svg>