<svg xmlns="http://www.w3.org/2000/svg" width="69.461" height="58.959"><g data-name="グループ 400"><g data-name="グループ 393"><g data-name="グループ 384"><path data-name="パス 202" d="M13.023 43.332a1.327 1.327 0 01-.409-.063 1.391 1.391 0 01-.963-1.105l-1.49-9.262C3.784 29.466 0 24.043 0 18.279 0 11.801 4.6 5.947 12.295 2.617a1.39 1.39 0 011.1 2.552C6.747 8.043 2.777 12.945 2.777 18.279c0 4.882 3.465 9.546 9.268 12.475a1.38 1.38 0 01.746 1.018l1.157 7.174 4.926-5.2a1.416 1.416 0 011.237-.417 32.629 32.629 0 003.852.409 1.389 1.389 0 11-.125 2.775 36.305 36.305 0 01-3.449-.327l-6.359 6.708a1.384 1.384 0 01-1.007.438z" fill="#222"/></g><g data-name="グループ 385"><path data-name="パス 203" d="M19.147 2.785a1.4 1.4 0 01-1.389-1.389 1.37 1.37 0 01.415-.986 1.437 1.437 0 011.959 0 1.391 1.391 0 01.4.986 1.358 1.358 0 01-.4.972 1.388 1.388 0 01-.985.417z" fill="#222"/></g><g data-name="グループ 386"><path data-name="パス 204" d="M46.684 27.628a1.388 1.388 0 01-1.1-2.231 11.593 11.593 0 002.552-7.119c0-8.546-10.171-15.5-22.676-15.5a1.389 1.389 0 110-2.778c14.035 0 25.455 8.2 25.455 18.278a14.488 14.488 0 01-3.122 8.8 1.387 1.387 0 01-1.109.55z" fill="#222"/></g><g data-name="グループ 387"><path data-name="パス 205" d="M31.047 36.094a1.389 1.389 0 01-.224-2.759c.411-.068.814-.143 1.212-.228a1.39 1.39 0 01.574 2.719q-.661.14-1.336.25a1.241 1.241 0 01-.226.018z" fill="#222"/></g><g data-name="グループ 388"><path data-name="パス 206" d="M25.457 36.554c-.544 0-1.084-.014-1.618-.038a1.39 1.39 0 01-1.326-1.451 1.37 1.37 0 011.451-1.324 33.411 33.411 0 006.855-.407 1.39 1.39 0 01.458 2.741 35.362 35.362 0 01-5.82.479z" fill="#222"/></g><g data-name="グループ 392"><g data-name="グループ 389"><path data-name="パス 207" d="M12.845 23.331a5.053 5.053 0 115.073-5.053 5.069 5.069 0 01-5.073 5.053zm0-7.329a2.275 2.275 0 102.294 2.276 2.287 2.287 0 00-2.294-2.277z" fill="#222"/></g><g data-name="グループ 390"><path data-name="パス 208" d="M25.457 23.331a5.053 5.053 0 115.069-5.053 5.069 5.069 0 01-5.069 5.053zm0-7.329a2.275 2.275 0 102.29 2.276 2.287 2.287 0 00-2.29-2.277z" fill="#222"/></g><g data-name="グループ 391"><path data-name="パス 209" d="M38.07 23.331a5.053 5.053 0 115.071-5.053 5.068 5.068 0 01-5.071 5.053zm0-7.329a2.275 2.275 0 102.292 2.276 2.288 2.288 0 00-2.292-2.277z" fill="#222"/></g></g></g><g data-name="グループ 399"><g data-name="グループ 394"><path data-name="パス 210" d="M59.104 58.959a1.38 1.38 0 01-1.008-.435l-4.787-5.051a27.69 27.69 0 01-2.524.234 1.375 1.375 0 01-1.453-1.324 1.391 1.391 0 011.326-1.453 24.823 24.823 0 002.933-.31 1.4 1.4 0 011.234.415l3.354 3.539.788-4.894a1.384 1.384 0 01.746-1.018c4.364-2.205 6.97-5.694 6.97-9.332a8.874 8.874 0 00-2.2-5.668 1.389 1.389 0 012.135-1.776 11.6 11.6 0 012.842 7.444c0 4.519-2.925 8.766-7.861 11.477l-1.125 6.984a1.386 1.386 0 01-1.371 1.167z" fill="#222"/></g><g data-name="グループ 395"><path data-name="パス 211" d="M49.523 53.736c-10.995 0-19.939-6.462-19.939-14.4s8.945-14.4 19.939-14.4a26.2 26.2 0 019.9 1.885 1.389 1.389 0 11-1.058 2.568 23.417 23.417 0 00-8.844-1.675c-9.463 0-17.161 5.214-17.161 11.626s7.7 11.626 17.161 11.626c.383 0 .762-.008 1.135-.026a1.362 1.362 0 011.451 1.326 1.391 1.391 0 01-1.326 1.451c-.415.009-.836.019-1.258.019z" fill="#222"/></g><g data-name="グループ 396"><path data-name="パス 212" d="M60.692 40.721h-2.9a1.39 1.39 0 010-2.779h2.9a1.39 1.39 0 010 2.779z" fill="#222"/></g><g data-name="グループ 397"><path data-name="パス 213" d="M50.971 40.721h-2.9a1.39 1.39 0 110-2.779h2.9a1.39 1.39 0 110 2.779z" fill="#222"/></g><g data-name="グループ 398"><path data-name="パス 214" d="M41.253 40.721h-2.9a1.39 1.39 0 110-2.779h2.9a1.39 1.39 0 010 2.779z" fill="#222"/></g></g></g></svg>