<svg xmlns="http://www.w3.org/2000/svg" width="64.902" height="44.407"><g data-name="グループ 123"><g data-name="グループ 102"><g data-name="グループ 101"><path data-name="パス 71" d="M29.41 36.643a1.353 1.353 0 01-.375-.054L.923 28.113A1.3 1.3 0 010 26.871v-7.058a1.3 1.3 0 011.673-1.243l8.7 2.622a1.3 1.3 0 01-.749 2.487L2.6 21.563v4.347l25.515 7.692v-4.349l-7.864-2.372A1.3 1.3 0 0121 24.394l8.788 2.65a1.3 1.3 0 01.923 1.242v7.058a1.3 1.3 0 01-1.3 1.3z" fill="#222"/></g></g><g data-name="グループ 104"><g data-name="グループ 103"><path data-name="パス 72" d="M15.256 25.31a1.255 1.255 0 01-.909-.377 1.27 1.27 0 010-1.83 1.329 1.329 0 011.83 0 1.255 1.255 0 01.376.909 1.286 1.286 0 01-1.3 1.3z" fill="#222"/></g></g><g data-name="グループ 106"><g data-name="グループ 105"><path data-name="パス 73" d="M29.41 36.643a1.3 1.3 0 01-1.3-1.3v-7.058a1.3 1.3 0 012.6 0v4.9l20.242-10.687a1.3 1.3 0 111.213 2.3l-22.152 11.7a1.3 1.3 0 01-.603.145z" fill="#222"/></g></g><g data-name="グループ 108"><g data-name="グループ 107"><path data-name="パス 74" d="M57.47 21.878a1.3 1.3 0 01-.6-2.446l5.441-2.863v-6.275a1.3 1.3 0 012.6 0v7.058a1.3 1.3 0 01-.693 1.148l-6.134 3.228a1.292 1.292 0 01-.614.15z" fill="#222"/></g></g><g data-name="グループ 110"><g data-name="グループ 109"><path data-name="パス 75" d="M29.41 44.406a1.351 1.351 0 01-.375-.054L.923 35.876A1.3 1.3 0 010 34.634v-7.058a1.3 1.3 0 011.673-1.242l28.112 8.474a1.3 1.3 0 01.923 1.242v7.058a1.3 1.3 0 01-1.3 1.3zM2.6 33.669l25.515 7.692v-4.345L2.6 29.323z" fill="#222"/></g></g><g data-name="グループ 112"><g data-name="グループ 111"><path data-name="パス 76" d="M29.41 44.407a1.3 1.3 0 01-1.3-1.3v-7.052a1.3 1.3 0 012.6 0v4.9l31.6-16.628v-6.272a1.3 1.3 0 012.6 0v7.058a1.3 1.3 0 01-.694 1.148L30.015 44.255a1.288 1.288 0 01-.605.152z" fill="#222"/></g></g><g data-name="グループ 114"><g data-name="グループ 113"><path data-name="パス 77" d="M1.3 20.59a1.3 1.3 0 01-.606-2.446L34.888.15a1.3 1.3 0 011.209 2.3L1.9 20.439a1.289 1.289 0 01-.6.151z" fill="#222"/></g></g><g data-name="グループ 116"><g data-name="グループ 115"><path data-name="パス 78" d="M29.412 29.585a1.3 1.3 0 01-.606-2.446l31.455-16.552-25.164-8.054a1.3 1.3 0 11.79-2.474l28.112 9a1.3 1.3 0 01.21 2.387L30.014 29.433a1.31 1.31 0 01-.602.152z" fill="#222"/></g></g><g data-name="グループ 118"><g data-name="グループ 117"><path data-name="パス 79" d="M55.711 9.068a1.338 1.338 0 01-.395-.061L42.171 4.799a1.3 1.3 0 11.792-2.474l13.145 4.207a1.3 1.3 0 01-.4 2.535z" fill="#222"/></g></g><g data-name="グループ 120"><g data-name="グループ 119"><path data-name="パス 80" d="M45.853 13.275a1.272 1.272 0 01-.395-.063L32.311 9.006a1.3 1.3 0 01.792-2.474l13.145 4.208a1.3 1.3 0 01-.395 2.535z" fill="#222"/></g></g><g data-name="グループ 122"><g data-name="グループ 121"><path data-name="パス 81" d="M37.723 18.196a1.284 1.284 0 01-.395-.063l-13.145-4.208a1.3 1.3 0 11.79-2.472l13.147 4.206a1.3 1.3 0 01-.4 2.537z" fill="#222"/></g></g></g></svg>