<svg xmlns="http://www.w3.org/2000/svg" width="51.02" height="59.667"><g data-name="グループ 201"><g data-name="グループ 190"><g data-name="グループ 171"><g data-name="グループ 170"><g data-name="グループ 169"><path data-name="パス 96" d="M25.51 10.401c-6.834 0-14.19-1.628-14.19-5.2s7.356-5.2 14.19-5.2 14.192 1.626 14.192 5.2-7.358 5.2-14.192 5.2zm0-8.014c-7.668 0-11.8 2-11.8 2.813s4.136 2.814 11.8 2.814 11.805-2 11.805-2.814-4.137-2.813-11.805-2.813z" fill="#222"/></g></g></g><g data-name="グループ 174"><g data-name="グループ 173"><g data-name="グループ 172"><path data-name="パス 97" d="M25.511 32.406a1.194 1.194 0 01-.486-2.285c.525-.237 12.292-5.794 12.292-24.922a1.193 1.193 0 112.386 0c0 20.767-13.147 26.853-13.708 27.1a1.19 1.19 0 01-.484.107z" fill="#222"/></g></g></g><g data-name="グループ 177"><g data-name="グループ 176"><g data-name="グループ 175"><path data-name="パス 98" d="M25.51 39.518a1.192 1.192 0 01-1.193-1.194v-7.112a1.193 1.193 0 112.386 0v7.112a1.192 1.192 0 01-1.193 1.194z" fill="#222"/></g></g></g><g data-name="グループ 180"><g data-name="グループ 179"><g data-name="グループ 178"><path data-name="パス 99" d="M25.51 32.406a1.19 1.19 0 01-.484-.1c-.257-.114-6.35-2.9-10.344-11.1a1.193 1.193 0 012.146-1.043c3.617 7.431 9.112 9.942 9.167 9.967a1.194 1.194 0 01-.484 2.285z" fill="#222"/></g></g></g><g data-name="グループ 183"><g data-name="グループ 182"><g data-name="グループ 181"><path data-name="パス 100" d="M14.257 18.134a1.175 1.175 0 01-.847-.346 1.2 1.2 0 01-.346-.847 1.157 1.157 0 01.346-.835 1.211 1.211 0 011.683 0 1.168 1.168 0 01.358.835 1.187 1.187 0 01-.358.847 1.148 1.148 0 01-.836.346z" fill="#222"/></g></g></g><g data-name="グループ 186"><g data-name="グループ 185"><g data-name="グループ 184"><path data-name="パス 101" d="M13.272 14.408a1.2 1.2 0 01-1.169-.958 42.043 42.043 0 01-.782-8.251 1.193 1.193 0 112.386 0 39.473 39.473 0 00.737 7.781 1.193 1.193 0 01-.934 1.4 1.127 1.127 0 01-.238.028z" fill="#222"/></g></g></g><g data-name="グループ 189"><g data-name="グループ 188"><g data-name="グループ 187"><path data-name="パス 102" d="M21.74 40.984a1.194 1.194 0 01-.622-2.213 8.409 8.409 0 018.786 0 1.193 1.193 0 11-1.241 2.037 6.039 6.039 0 00-6.3 0 1.18 1.18 0 01-.623.176z" fill="#222"/></g></g></g></g><g data-name="グループ 200"><g data-name="グループ 193"><g data-name="グループ 192"><g data-name="グループ 191"><path data-name="パス 103" d="M39.336 55.129H11.792a1.192 1.192 0 01-1.192-1.193v-8.783a1.192 1.192 0 011.192-1.193h27.544a1.192 1.192 0 011.193 1.193v8.783a1.193 1.193 0 01-1.193 1.193zm-26.349-2.387h25.16v-6.4H12.992z" fill="#222"/></g></g></g><g data-name="グループ 196"><g data-name="グループ 195"><g data-name="グループ 194"><path data-name="パス 104" d="M49.826 59.668H35.034a1.194 1.194 0 01-1.193-1.193v-2.039a1.193 1.193 0 012.387 0v.846h10.257l-2.2-1.805a1.192 1.192 0 01-.049-1.8l2.528-2.318h-4.966a1.193 1.193 0 010-2.387h8.033a1.193 1.193 0 01.806 2.073l-3.774 3.461 3.725 3.048a1.194 1.194 0 01-.757 2.117z" fill="#222"/></g></g></g><g data-name="グループ 199"><g data-name="グループ 198"><g data-name="グループ 197"><path data-name="パス 105" d="M15.984 59.668H1.193a1.194 1.194 0 01-.757-2.117l3.723-3.048-3.773-3.461a1.193 1.193 0 01.807-2.073h8.033a1.193 1.193 0 010 2.387H4.264l2.528 2.318a1.194 1.194 0 01-.051 1.8l-2.2 1.805h10.258v-.846a1.193 1.193 0 012.387 0v2.039a1.193 1.193 0 01-1.202 1.196z" fill="#222"/></g></g></g></g></g></svg>