<svg xmlns="http://www.w3.org/2000/svg" width="54.072" height="51.032"><g data-name="グループ 168"><g data-name="グループ 154"><g data-name="グループ 126"><g data-name="グループ 125"><g data-name="グループ 124"><path data-name="パス 82" d="M52.99 51.032h-33.7a1.08 1.08 0 01-1.08-1.081V29.982a1.081 1.081 0 112.163 0v18.887h31.532V11.862l-9.764-9.7H20.373v18.333a1.081 1.081 0 11-2.163 0V1.08A1.08 1.08 0 0119.29 0h23.3a1.078 1.078 0 01.762.313l10.4 10.331a1.08 1.08 0 01.32.766v38.54a1.082 1.082 0 01-1.082 1.082z" fill="#222"/></g></g></g><g data-name="グループ 129"><g data-name="グループ 128"><g data-name="グループ 127"><path data-name="パス 83" d="M19.293 26.317a1.089 1.089 0 01-1.082-1.081 1.082 1.082 0 011.849-.768 1.1 1.1 0 010 1.536 1.136 1.136 0 01-.767.313z" fill="#222"/></g></g></g><g data-name="グループ 132"><g data-name="グループ 131"><g data-name="グループ 130"><path data-name="パス 84" d="M52.99 12.492h-10.4a1.081 1.081 0 010-2.163h10.4a1.081 1.081 0 110 2.163z" fill="#222"/></g></g></g><g data-name="グループ 135"><g data-name="グループ 134"><g data-name="グループ 133"><path data-name="パス 85" d="M42.589 12.492a1.081 1.081 0 01-1.081-1.081V1.08a1.081 1.081 0 012.163 0v10.331a1.081 1.081 0 01-1.082 1.081z" fill="#222"/></g></g></g><g data-name="グループ 138"><g data-name="グループ 137"><g data-name="グループ 136"><path data-name="パス 86" d="M36.142 13.654h-11.21a1.081 1.081 0 110-2.163h11.21a1.081 1.081 0 010 2.163z" fill="#222"/></g></g></g><g data-name="グループ 141"><g data-name="グループ 140"><g data-name="グループ 139"><path data-name="パス 87" d="M44.912 20.841h-19.98a1.081 1.081 0 110-2.163h19.98a1.081 1.081 0 110 2.163z" fill="#222"/></g></g></g><g data-name="グループ 144"><g data-name="グループ 143"><g data-name="グループ 142"><path data-name="パス 88" d="M44.912 28.026h-19.98a1.081 1.081 0 110-2.163h19.98a1.081 1.081 0 110 2.163z" fill="#222"/></g></g></g><g data-name="グループ 147"><g data-name="グループ 146"><g data-name="グループ 145"><path data-name="パス 89" d="M44.912 35.221h-19.98a1.081 1.081 0 110-2.163h19.98a1.081 1.081 0 110 2.163z" fill="#222"/></g></g></g><g data-name="グループ 150"><g data-name="グループ 149"><g data-name="グループ 148"><path data-name="パス 90" d="M30.537 42.411h-5.6a1.081 1.081 0 110-2.163h5.6a1.081 1.081 0 110 2.163z" fill="#222"/></g></g></g><g data-name="グループ 153"><g data-name="グループ 152"><g data-name="グループ 151"><path data-name="パス 91" d="M44.913 42.411h-3.212a1.081 1.081 0 110-2.163h3.212a1.081 1.081 0 110 2.163z" fill="#222"/></g></g></g></g><g data-name="グループ 167"><g data-name="グループ 157"><g data-name="グループ 156"><g data-name="グループ 155"><path data-name="パス 92" d="M8.829 47.458a1.081 1.081 0 01-.882-.456 23.972 23.972 0 01-4.428-13.96V9.694a5.312 5.312 0 1110.621 0v11.008a1.081 1.081 0 11-2.163 0V9.694a3.15 3.15 0 10-6.3 0v23.348a21.842 21.842 0 003.147 11.365 21.839 21.839 0 003.149-11.365v-7.94a1.081 1.081 0 112.163 0v7.942a23.972 23.972 0 01-4.429 13.96 1.081 1.081 0 01-.878.454z" fill="#222"/></g></g></g><g data-name="グループ 160"><g data-name="グループ 159"><g data-name="グループ 158"><path data-name="パス 93" d="M8.833 51.031a1.081 1.081 0 01-1.081-1.081v-3.572a1.081 1.081 0 012.163 0v3.573a1.081 1.081 0 01-1.082 1.08z" fill="#222"/></g></g></g><g data-name="グループ 163"><g data-name="グループ 162"><g data-name="グループ 161"><path data-name="パス 94" d="M8.833 6.416a1.082 1.082 0 01-1.081-1.081V1.08a1.081 1.081 0 012.163 0v4.255a1.082 1.082 0 01-1.082 1.081z" fill="#222"/></g></g></g><g data-name="グループ 166"><g data-name="グループ 165"><g data-name="グループ 164"><path data-name="パス 95" d="M1.081 25.127A1.082 1.082 0 010 24.046v-11.27a1.081 1.081 0 011.081-1.081h11.976a1.081 1.081 0 110 2.163H2.162v10.19a1.082 1.082 0 01-1.081 1.079z" fill="#222"/></g></g></g></g></g></svg>