<svg xmlns="http://www.w3.org/2000/svg" width="236" height="115"><g data-name="グループ 355"><path data-name="長方形 102" fill="#fff" d="M0 0h236v115H0z"/><g data-name="グループ 79" fill="#5d5d5d"><path data-name="パス 52" d="M118.992 48.889c8.1 0 14.629-9.979 14.629-18.239a14.63 14.63 0 10-29.26 0c0 8.26 6.528 18.239 14.631 18.239zm0-3.587c-4.937 0-9.405-5.852-10.673-11.563l6-7.542 9.085-.149 5.229 8.129a1.633 1.633 0 00.766.607c-1.55 5.358-5.769 10.518-10.407 10.518zm0-25.715a11.038 11.038 0 0110.989 10.53l-4.276-6.651a1.67 1.67 0 00-1.4-.763h-.028l-10.8.177a1.682 1.682 0 00-1.276.627l-4.045 5.086a11.053 11.053 0 0110.836-9.006z"/><path data-name="パス 53" d="M129.102 89.791h-32.1v-6.562a21.938 21.938 0 011.78-8.7 1.793 1.793 0 00-3.295-1.414 25.463 25.463 0 00-2.073 10.115v8.354a1.792 1.792 0 001.793 1.793h33.9a1.793 1.793 0 100-3.586z"/><path data-name="パス 54" d="M100.098 69.415a1.807 1.807 0 001.794-1.793 1.794 1.794 0 00-3.067-1.276 1.777 1.777 0 00-.52 1.276 1.776 1.776 0 001.793 1.793z"/><path data-name="パス 55" d="M130.332 60.3c-.023-.015-.039-.041-.064-.053s-.082-.018-.12-.036a25.424 25.424 0 00-25.29 1.661 1.793 1.793 0 101.986 2.987c.568-.376 1.173-.676 1.77-1a13.226 13.226 0 0010.778 5.7c.262 0 .528-.008.795-.025a13.331 13.331 0 009.682-5.429 22.043 22.043 0 0111.119 19.125v8.354a1.793 1.793 0 103.587 0V83.23a25.629 25.629 0 00-14.243-22.93zm-10.356 5.91a9.878 9.878 0 01-8.232-3.738 21.4 21.4 0 0115.024.174 9.881 9.881 0 01-6.792 3.564z"/><path data-name="パス 56" d="M186.076 89.791h-32.1v-6.562a21.894 21.894 0 011.783-8.7 1.795 1.795 0 00-3.3-1.414 25.467 25.467 0 00-2.073 10.115v8.354a1.792 1.792 0 001.793 1.793h33.9a1.793 1.793 0 100-3.586z"/><path data-name="パス 57" d="M157.072 69.415a1.806 1.806 0 001.793-1.793 1.793 1.793 0 00-3.067-1.276 1.787 1.787 0 00-.52 1.276 1.776 1.776 0 001.793 1.793z"/><path data-name="パス 58" d="M175.97 57.61a25.442 25.442 0 00-14.137 4.261 1.794 1.794 0 101.988 2.987 21.991 21.991 0 0134.141 18.372v8.354a1.794 1.794 0 103.587 0V83.23a25.629 25.629 0 00-25.579-25.62z"/><path data-name="パス 59" d="M60.584 48.889c8.1 0 14.629-9.979 14.629-18.239a14.63 14.63 0 10-29.261 0c0 8.26 6.525 18.239 14.632 18.239zm0-3.587c-4.763 0-9.1-5.442-10.538-10.952q3.686-1.519 7.494-3.195 3.174-1.411 6.208-2.831l7.33 6.174c-1.481 5.459-5.778 10.804-10.494 10.804zm0-25.715a11.063 11.063 0 0111.037 11.014l-6.541-5.513a1.67 1.67 0 00-1.788-.233q-3.455 1.637-7.1 3.253c-2.252 1-4.453 1.922-6.641 2.831 0-.1-.013-.194-.013-.289a11.067 11.067 0 0111.046-11.063z"/><path data-name="パス 60" d="M70.691 89.791h-32.1v-6.562a21.892 21.892 0 011.783-8.7 1.795 1.795 0 00-3.3-1.414 25.467 25.467 0 00-2.073 10.115v8.354a1.792 1.792 0 001.793 1.793h33.9a1.793 1.793 0 100-3.586z"/><path data-name="パス 61" d="M41.687 69.415a1.806 1.806 0 001.793-1.793 1.794 1.794 0 00-3.067-1.276 1.787 1.787 0 00-.52 1.276 1.776 1.776 0 001.793 1.793z"/><path data-name="パス 62" d="M60.585 57.61a25.444 25.444 0 00-14.137 4.261 1.8 1.8 0 00-.5 2.488 1.776 1.776 0 002.293.579l11.1 11.1a1.671 1.671 0 002.357 0l11.111-11.112a22.038 22.038 0 019.764 18.3v8.354a1.793 1.793 0 103.587 0v-8.354A25.629 25.629 0 0060.585 57.61zm-.062 14.9l-9.243-9.247a21.843 21.843 0 0118.5-.018z"/><path data-name="パス 63" d="M158.863 58.883a1.648 1.648 0 00.372-.043c.692-.156 3.195-1.14 6.3-7.212a16.66 16.66 0 001.711-6.882 11.287 11.287 0 0017.606-.161 22.631 22.631 0 001.145 6.833c2.009 5.762 3.735 7.1 4.583 7.378a1.631 1.631 0 00.525.087 1.667 1.667 0 00.761-3.149c-.174-.154-1.263-1.227-2.726-5.414-1.545-4.438-.84-9.62-.556-11.258a20.177 20.177 0 002.016-8.413 14.63 14.63 0 10-29.26 0 20.1 20.1 0 001.932 8.244c.287.992 1.7 6.5-.707 11.216-2.4 4.694-4.109 5.48-4.071 5.48a1.667 1.667 0 00.369 3.292zm17.107-13.581c-4.765 0-9.1-5.442-10.538-10.952a333.807 333.807 0 007.494-3.195q3.174-1.411 6.208-2.831l7.327 6.177c-1.478 5.456-5.775 10.801-10.492 10.801zm0-25.715a11.063 11.063 0 0111.037 11.014l-6.541-5.513a1.67 1.67 0 00-1.788-.233q-3.455 1.637-7.1 3.253c-2.252 1-4.453 1.922-6.641 2.829 0-.095-.013-.192-.013-.286a11.067 11.067 0 0111.045-11.064z"/></g></g></svg>