<svg xmlns="http://www.w3.org/2000/svg" width="236" height="115"><g data-name="グループ 357"><path data-name="長方形 100" fill="#fff" d="M0 0h236v115H0z"/><g data-name="グループ 75" fill="#5d5d5d"><path data-name="パス 42" d="M125.62 90.181a38.52 38.52 0 01-8.47 0 1.218 1.218 0 00-1.323 1.061 1.2 1.2 0 001.061 1.321 40.909 40.909 0 008.993 0 1.2 1.2 0 001.061-1.32 1.22 1.22 0 00-1.322-1.062z"/><path data-name="パス 43" d="M135.983 72.312c-1.538 2.792-2.608 3.314-2.582 3.314a1.2 1.2 0 00.267 2.365 1.289 1.289 0 00.266-.029c.5-.114 2.3-.824 4.527-5.189a11.942 11.942 0 001.233-4.946 8.115 8.115 0 0012.657-.115 16.255 16.255 0 00.822 4.911c1.444 4.145 2.684 5.106 3.3 5.309a1.176 1.176 0 00.378.061 1.2 1.2 0 00.547-2.262c-.127-.11-.908-.884-1.958-3.9a17.576 17.576 0 01-.4-8.092 14.509 14.509 0 001.448-6.049 10.519 10.519 0 10-21.038 0 14.433 14.433 0 001.393 5.929 13.1 13.1 0 01.188 6.035l-12.073-16.866V14.412c19.1.676 34.45 17.458 34.45 37.989a40.093 40.093 0 01-2.469 13.928 1.2 1.2 0 002.245.831 42.467 42.467 0 002.618-14.759c0-22.28-17.065-40.406-38.042-40.406a1.2 1.2 0 00-1.2 1.2v39.98a1.2 1.2 0 00.225.7zm9.982-4.086c-3.424 0-6.539-3.913-7.575-7.875a213.024 213.024 0 005.388-2.3q2.28-1.012 4.464-2.034l5.268 4.44c-1.059 3.93-4.151 7.772-7.544 7.772zm0-18.49a7.956 7.956 0 017.938 7.921l-4.7-3.964a1.2 1.2 0 00-1.286-.167q-2.482 1.177-5.1 2.339c-1.618.716-3.2 1.382-4.773 2.036 0-.07-.009-.14-.009-.208a7.956 7.956 0 017.931-7.954z"/><path data-name="パス 44" d="M83.378 62.497a1.2 1.2 0 00.919-1.422 41.359 41.359 0 01-.912-8.669c0-20.523 15.015-37.3 33.712-37.987v40.669a1.2 1.2 0 00.208.674l12.557 18.448a1.2 1.2 0 00.993.525 1.183 1.183 0 00.672-.21 1.2 1.2 0 00.315-1.663l-12.349-18.143V13.197a1.2 1.2 0 00-1.2-1.2c-20.57 0-37.305 18.126-37.305 40.406a43.765 43.765 0 00.967 9.172 1.2 1.2 0 001.423.922z"/><path data-name="パス 45" d="M86.542 57.694c0 5.939 4.692 13.114 10.52 13.114s10.519-7.175 10.519-13.114a10.519 10.519 0 10-21.038 0zm10.52 10.535c-3.551 0-6.762-4.207-7.674-8.313l4.314-5.425 6.532-.105 3.76 5.845a1.153 1.153 0 00.551.435c-1.115 3.853-4.151 7.563-7.483 7.563zm7.9-10.92l-3.077-4.78a1.433 1.433 0 00-1.028-.551l-7.761.129a1.2 1.2 0 00-.919.451l-2.909 3.658a7.916 7.916 0 0115.693 1.092z"/><path data-name="パス 46" d="M104.329 100.217H81.246v-4.716a15.767 15.767 0 011.28-6.256 1.289 1.289 0 00-2.369-1.017 18.311 18.311 0 00-1.49 7.272v6.007a1.289 1.289 0 001.29 1.289h24.373a1.29 1.29 0 000-2.579z"/><path data-name="パス 47" d="M82.559 83.36a1.285 1.285 0 00-.374.916 1.29 1.29 0 002.579 0 1.29 1.29 0 00-2.205-.916z"/><path data-name="パス 48" d="M97.061 77.078a18.3 18.3 0 00-10.164 3.063 1.29 1.29 0 001.428 2.148 15.813 15.813 0 0124.549 13.209v6.007a1.29 1.29 0 002.579 0v-6.007a18.427 18.427 0 00-18.392-18.42z"/><path data-name="パス 49" d="M153.234 100.217h-23.083v-4.716a15.763 15.763 0 011.28-6.256 1.289 1.289 0 00-2.369-1.017 18.307 18.307 0 00-1.49 7.272v6.007a1.288 1.288 0 001.289 1.289h24.372a1.29 1.29 0 100-2.579z"/><path data-name="パス 50" d="M131.464 83.36a1.285 1.285 0 00-.374.916 1.29 1.29 0 002.579 0 1.29 1.29 0 00-2.2-.916z"/><path data-name="パス 51" d="M145.966 77.078a18.3 18.3 0 00-10.163 3.063 1.29 1.29 0 001.428 2.148 15.813 15.813 0 0124.549 13.209v6.007a1.29 1.29 0 002.579 0v-6.007a18.427 18.427 0 00-18.393-18.42z"/></g></g></svg>