<svg xmlns="http://www.w3.org/2000/svg" width="236" height="115"><g data-name="グループ 356"><path data-name="長方形 101" fill="#fff" d="M0 0h236v115H0z"/><g data-name="グループ 80"><g data-name="グループ 82"><g data-name="グループ 81"><g data-name="グループ 80"><path data-name="パス 64" d="M147.508 66.99a1.7 1.7 0 01-1.712-1.713 1.767 1.767 0 01.5-1.216 1.72 1.72 0 111.216 2.929z" fill="#5d5d5d"/></g></g></g><g data-name="グループ 85"><g data-name="グループ 84"><g data-name="グループ 83"><path data-name="パス 65" d="M117.817 88.498a32.81 32.81 0 1132.917-32.81 32.438 32.438 0 01-.171 3.347 1.712 1.712 0 11-3.406-.35 29.5 29.5 0 10-29.341 26.39 29.314 29.314 0 0025.292-14.261 1.712 1.712 0 112.931 1.769 32.7 32.7 0 01-28.222 15.915z" fill="#5d5d5d"/></g></g></g><g data-name="グループ 88"><g data-name="グループ 87"><g data-name="グループ 86"><path data-name="パス 66" d="M81.201 44.459a1.716 1.716 0 01-1.209-.5 16.95 16.95 0 018.717-28.651 17.132 17.132 0 0115.347 4.656 1.71 1.71 0 01-.617 2.818l-.259.1a34.247 34.247 0 00-20.37 20.453 1.71 1.71 0 01-1.235 1.089 1.787 1.787 0 01-.374.035zm10.823-26.038a14.654 14.654 0 00-2.679.252 13.533 13.533 0 00-8.651 20.783 37.645 37.645 0 0118.843-18.784 13.533 13.533 0 00-7.516-2.251z" fill="#5d5d5d"/></g></g></g><g data-name="グループ 91"><g data-name="グループ 90"><g data-name="グループ 89"><path data-name="パス 67" d="M154.437 44.459a1.787 1.787 0 01-.375-.039 1.71 1.71 0 01-1.235-1.089 34.245 34.245 0 00-20.369-20.452l-.257-.1a1.71 1.71 0 01-.617-2.818 17.128 17.128 0 0115.347-4.656 16.95 16.95 0 018.717 28.651 1.715 1.715 0 01-1.211.503zm-18.336-23.787a37.647 37.647 0 0118.843 18.784 13.533 13.533 0 00-8.651-20.783 13.767 13.767 0 00-10.192 1.998z" fill="#5d5d5d"/></g></g></g><g data-name="グループ 94"><g data-name="グループ 93"><g data-name="グループ 92"><path data-name="パス 68" d="M92.35 94.299a1.712 1.712 0 01-1.209-2.926l9.95-9.918a1.714 1.714 0 012.42 2.427L93.559 93.8a1.71 1.71 0 01-1.209.499z" fill="#5d5d5d"/></g></g></g><g data-name="グループ 97"><g data-name="グループ 96"><g data-name="グループ 95"><path data-name="パス 69" d="M145.911 94.298a1.714 1.714 0 01-1.211-.5l-9.95-9.918a1.713 1.713 0 112.417-2.427l9.952 9.918a1.712 1.712 0 01-1.208 2.926z" fill="#5d5d5d"/></g></g></g><g data-name="グループ 100"><g data-name="グループ 99"><g data-name="グループ 98"><path data-name="パス 70" d="M131.727 57.401h-13.908a1.711 1.711 0 01-1.712-1.713V34.152a1.713 1.713 0 113.425 0v19.824h12.2a1.713 1.713 0 010 3.425z" fill="#5d5d5d"/></g></g></g></g></g></svg>