<svg xmlns="http://www.w3.org/2000/svg" width="236" height="115"><g data-name="グループ 354"><path data-name="長方形 103" fill="#fff" d="M0 0h236v115H0z"/><g data-name="グループ 271"><g data-name="グループ 262"><g data-name="グループ 256"><path data-name="パス 134" d="M146.367 70.517H127.81a1.6 1.6 0 01-1.6-1.6v-12.5a1.6 1.6 0 011.6-1.6h18.557a1.6 1.6 0 011.6 1.6v12.5a1.6 1.6 0 01-1.6 1.6zm-16.959-3.2h15.361v-9.3h-15.361z" fill="#5d5d5d"/></g><g data-name="グループ 257"><path data-name="パス 135" d="M127.811 70.517h-18.557a1.6 1.6 0 01-1.6-1.6v-12.5a1.6 1.6 0 011.6-1.6h18.557a1.6 1.6 0 011.6 1.6v12.5a1.6 1.6 0 01-1.6 1.6zm-16.959-3.2h15.361v-9.3h-15.361z" fill="#5d5d5d"/></g><g data-name="グループ 258"><path data-name="パス 136" d="M109.254 70.517H90.697a1.6 1.6 0 01-1.6-1.6v-12.5a1.6 1.6 0 011.6-1.6h18.557a1.6 1.6 0 011.6 1.6v12.5a1.6 1.6 0 01-1.6 1.6zm-16.959-3.2h15.361v-9.3H92.295z" fill="#5d5d5d"/></g><g data-name="グループ 259"><path data-name="パス 137" d="M146.367 83.018H127.81a1.6 1.6 0 01-1.6-1.6v-12.5a1.6 1.6 0 113.2 0v10.9h15.361v-10.9a1.6 1.6 0 113.2 0v12.5a1.6 1.6 0 01-1.604 1.6z" fill="#5d5d5d"/></g><g data-name="グループ 260"><path data-name="パス 138" d="M127.811 83.018h-18.557a1.6 1.6 0 01-1.6-1.6v-12.5a1.6 1.6 0 113.2 0v10.9h15.361v-10.9a1.6 1.6 0 113.2 0v12.5a1.6 1.6 0 01-1.604 1.6z" fill="#5d5d5d"/></g><g data-name="グループ 261"><path data-name="パス 139" d="M109.254 83.018H90.697a1.6 1.6 0 01-1.6-1.6v-12.5a1.6 1.6 0 113.2 0v10.9h15.361v-10.9a1.6 1.6 0 113.2 0v12.5a1.6 1.6 0 01-1.604 1.6z" fill="#5d5d5d"/></g></g><g data-name="グループ 263"><path data-name="パス 140" d="M156.39 47.035a1.6 1.6 0 01-1.6-1.6V29.562h-10.113a1.6 1.6 0 110-3.2h11.713a1.6 1.6 0 011.6 1.6v17.47a1.6 1.6 0 01-1.6 1.603z" fill="#5d5d5d"/></g><g data-name="グループ 264"><path data-name="パス 141" d="M156.391 94h-76.7a1.6 1.6 0 01-1.6-1.6V66.8a1.6 1.6 0 113.2 0v24h73.5V47.03h-75.1a1.6 1.6 0 010-3.2h76.7a1.6 1.6 0 011.6 1.6v46.966a1.6 1.6 0 01-1.6 1.604z" fill="#5d5d5d"/></g><g data-name="グループ 265"><path data-name="パス 142" d="M79.695 60.888a1.569 1.569 0 01-1.135-.479 1.547 1.547 0 01-.463-1.121 1.564 1.564 0 01.463-1.135 1.653 1.653 0 012.253 0 1.63 1.63 0 01.479 1.135 1.638 1.638 0 01-1.6 1.6z" fill="#5d5d5d"/></g><g data-name="グループ 266"><path data-name="パス 143" d="M79.691 53.362a1.6 1.6 0 01-1.6-1.6v-23.8a1.6 1.6 0 011.6-1.6h11.713a1.6 1.6 0 110 3.2H81.291v22.2a1.6 1.6 0 01-1.6 1.6z" fill="#5d5d5d"/></g><g data-name="グループ 269"><g data-name="グループ 267"><path data-name="パス 144" d="M97.52 38.931a5.733 5.733 0 01-5.727-5.725V22.727a5.726 5.726 0 1111.453 0v10.478a5.731 5.731 0 01-5.726 5.726zm0-18.735a2.533 2.533 0 00-2.532 2.531v10.478a2.53 2.53 0 005.061 0V22.727a2.532 2.532 0 00-2.529-2.53z" fill="#5d5d5d"/></g><g data-name="グループ 268"><path data-name="パス 145" d="M138.561 38.931a5.731 5.731 0 01-5.725-5.725V22.727a5.725 5.725 0 1111.45 0v10.478a5.731 5.731 0 01-5.725 5.726zm0-18.735a2.533 2.533 0 00-2.529 2.531v10.478a2.53 2.53 0 105.059 0V22.727a2.532 2.532 0 00-2.53-2.53z" fill="#5d5d5d"/></g></g><g data-name="グループ 270"><path data-name="パス 146" d="M132.752 29.562h-29.423a1.6 1.6 0 110-3.2h29.423a1.6 1.6 0 110 3.2z" fill="#5d5d5d"/></g></g></g></svg>