<svg xmlns="http://www.w3.org/2000/svg" viewBox="0 0 1165.27 212.1"><defs><style>.cls-6{fill:#fff}.cls-3{stroke:#231815}.cls-6{stroke-linecap:round}.cls-3,.cls-6{stroke-miterlimit:10;stroke-width:9px}.cls-3{fill:none}.cls-6{stroke:#dc6734}.cls-7{fill:#dc6734}</style></defs><g id="レイヤー_2" data-name="レイヤー 2"><g id="レイヤー_1-2" data-name="レイヤー 1"><path d="M323.59 204.29V10q0-3.74 3.75-3.75h67.16q28.54 0 45.4 15t16.86 40.64v90.51q0 25.66-16.86 40.64t-45.4 15h-67.16q-3.75-.04-3.75-3.75zm21.91-14.12h49.87q18.73 0 29.83-11t11.1-29.4v-85q0-18.73-11-29.69t-30-11h-49.8a1.27 1.27 0 00-1.44 1.44v163.2a1.27 1.27 0 001.44 1.44zM624.38 73.13q14.27 13.26 14.27 35.17v96q0 3.75-3.75 3.75h-13q-3.75 0-3.75-3.75v-10.39a1.17 1.17 0 00-.58-1.15c-.39-.19-.77 0-1.15.58A49.63 49.63 0 01597 206a72.87 72.87 0 01-25.51 4.33q-20.18 0-33.87-10.38t-13.69-31.71q0-21.62 15.71-34.16t43.67-12.54h33.44a1.27 1.27 0 001.44-1.44v-10.65q0-14.7-8.22-23.2t-25.51-8.5q-13.55 0-22.2 5.19a22.8 22.8 0 00-11 14.41q-.86 3.46-4.32 2.88l-14.08-1.73q-3.75-.57-3.46-3.17 2.88-15.85 17.73-25.65t37-9.8q25.98 0 40.25 13.25zm-18.74 111.12q12.54-8.5 12.54-22.91v-22.2a1.27 1.27 0 00-1.44-1.44h-30.27q-19 0-30.55 7.78t-11.53 21.62q0 12.69 8.94 19.17t22.77 6.48q17 .01 29.54-8.5zM814 73.71q13.73 13.56 13.73 36.29v94.26q0 3.75-3.75 3.75H811q-3.75 0-3.75-3.75v-90.19q0-16.14-9.51-26.09T773 78q-14.7 0-24.36 8.36t-11.1 21.91v96q0 3.75-3.75 3.75h-13q-3.75 0-3.75-3.75V65.93q0-3.74 3.75-3.75h13q3.74 0 3.75 3.75V76.6a1.51 1.51 0 00.58 1.3q.57.43.86-.43 12.68-17.29 38.63-17.29 22.73-.02 36.39 13.53zm169.09-9.51q2.88 1.15 2 4.61l-2.88 12.68q-.86 3.46-4.61 2.31a43.13 43.13 0 00-14.12-1.44q-15 .58-24.79 11.1t-9.8 26.66v84.17q0 3.75-3.75 3.75h-13q-3.75 0-3.75-3.75V65.93q0-3.74 3.75-3.75h13q3.74 0 3.75 3.75v16.14q0 1.15.43 1.3c.29.1.62-.14 1-.72a45.32 45.32 0 0115.42-16.14 40.15 40.15 0 0121.47-5.76q9.54-.01 15.88 3.45zm86.33 135.48q-14.85-10.66-20.61-29.4-4-13.26-4-35.45 0-21.9 3.75-35.17 5.76-18.44 20.61-29.11t36.17-10.67q20.75 0 35.6 10.67a53.44 53.44 0 0120.32 28.82q4 13.83 4 35.45 0 22.2-4 35.45-5.77 18.74-20.61 29.4t-35.31 10.67q-21.07 0-35.92-10.66zm59.52-14.84a37.56 37.56 0 0013.26-20.61q2.3-9.22 2.31-29.11 0-20.75-2.31-29.11a35.86 35.86 0 00-13.12-20.61q-9.94-7.63-24.36-7.64-13.84 0-23.64 7.64a37.54 37.54 0 00-13.24 20.6q-2.31 8.36-2.31 29.11t2.31 29.11a35.84 35.84 0 0013.16 20.61q9.94 7.64 24.36 7.64 13.79 0 23.59-7.64z" fill="#231815"/><path d="M4.5 4.5h214.53M4.5 45.12h214.53M4.5 85.74h214.53m0 40.62H4.5m0 40.62h214.53M4.5 207.6h214.53M16.61 4.5v40.62M111.77 4.5v40.62M206.88 4.5v40.62m-139.59 0v40.62m86.33-40.62v40.62m-137.01 0v40.62m95.16-40.62v40.62m95.11-40.62v40.62m-139.59 0v40.62m86.33-40.62v40.62m-137.01 0v40.62m95.16-40.62v40.62m95.11-40.62v40.62" stroke-miterlimit="10" stroke-width="9" stroke-linecap="round" stroke="#231815" fill="#fff"/><path class="cls-3" d="M178.77 210.38v-98.47c0-29.63-30-53.66-67-53.66s-67 24-67 53.66v98.47"/><path d="M178.77 212.1v-99.58c0-30-30-54.27-67-54.27s-67 24.3-67 54.27v99.58" fill="#fff"/><path class="cls-6" d="M44.76 207.6h43.69V167h43.68v-40.64H178"/><path class="cls-3" d="M178.77 212.1v-99.59c0-30-30-54.26-67-54.26s-67 24.29-67 54.26v99.59"/><path class="cls-6" d="M219.03 126.36h-48.88M53.39 207.6H4.5"/><circle class="cls-7" cx="89.53" cy="166.98" r="10.12"/><circle class="cls-7" cx="132.69" cy="126.36" r="10.12"/></g></g></svg>