<svg xmlns="http://www.w3.org/2000/svg" width="114" height="114"><g transform="translate(-787 -5968)"><circle data-name="楕円形 4" cx="57" cy="57" r="57" transform="translate(787 5968)" fill="#fff"/><g data-name="グループ 58"><g data-name="グループ 12"><g data-name="グループ 7"><path data-name="パス 8" d="M818.793 6046.137a29.121 29.121 0 01-5.48-.51 1.307 1.307 0 01-.121-2.528c.3-.1 7.32-2.412 7.557-9.745a22.081 22.081 0 01-2.4-26.051 1.308 1.308 0 012.244 1.345 19.474 19.474 0 002.438 23.329 1.305 1.305 0 01.342.872 12.644 12.644 0 01-5.461 10.642c4.024.121 9.887-.559 11.993-5.231a1.314 1.314 0 011.625-.7 21.414 21.414 0 007.1 1.223c11.483 0 20.824-9.011 20.824-20.086a19.51 19.51 0 00-2.485-9.519 1.31 1.31 0 012.285-1.278 22.187 22.187 0 012.815 10.8c0 12.517-10.515 22.7-23.439 22.7a23.915 23.915 0 01-6.879-1.018c-2.83 4.759-8.614 5.755-12.958 5.755z" fill="#222"/></g><g data-name="グループ 8"><path data-name="パス 9" d="M821.033 6006.704a1.341 1.341 0 01-1.308-1.308 1.307 1.307 0 012.236-.928 1.323 1.323 0 01.379.928 1.272 1.272 0 01-.379.915 1.289 1.289 0 01-.928.393z" fill="#222"/></g><g data-name="グループ 9"><path data-name="パス 10" d="M823.25 6004.614a1.309 1.309 0 01-.893-2.265 24.067 24.067 0 0125-4.717 1.307 1.307 0 01-.949 2.436 21.392 21.392 0 00-7.792-1.454 21.124 21.124 0 00-14.475 5.646 1.306 1.306 0 01-.891.354z" fill="#222"/></g><g data-name="グループ 10"><path data-name="パス 11" d="M858.101 6009.852a1.311 1.311 0 01-1.143-.669 20.661 20.661 0 00-10.547-9.112 1.307 1.307 0 01.949-2.436 23.306 23.306 0 0111.882 10.27 1.309 1.309 0 01-1.142 1.947z" fill="#222"/></g><g data-name="グループ 11"><path data-name="パス 12" d="M853.096 6014.799a1.31 1.31 0 01-1.144-.671 20.674 20.674 0 00-10.546-9.11 1.307 1.307 0 01.949-2.436 23.3 23.3 0 0111.882 10.27 1.309 1.309 0 01-1.141 1.947z" fill="#222"/></g></g><g data-name="グループ 15"><g data-name="グループ 13"><path data-name="パス 13" d="M872.921 6052.852c-2.894 0-6.754-.65-8.781-3.729a16.2 16.2 0 01-4.353.6 15.931 15.931 0 01-15.073-10.4 1.307 1.307 0 012.462-.88 13.311 13.311 0 0012.611 8.665 13.756 13.756 0 004.547-.785 1.311 1.311 0 011.625.7c1.095 2.432 3.9 3.105 6.283 3.2a8.782 8.782 0 01-2.808-6.6 1.3 1.3 0 01.344-.873 12.442 12.442 0 001.56-14.906 1.308 1.308 0 112.242-1.347 15.047 15.047 0 01-1.519 17.62c.249 4.394 4.5 5.81 4.686 5.87a1.308 1.308 0 01-.127 2.526 19.54 19.54 0 01-3.699.339z" fill="#222"/></g><g data-name="グループ 14"><path data-name="パス 14" d="M869.954 6025.384a1.3 1.3 0 01-.891-.351 13.584 13.584 0 00-8.443-3.593 1.307 1.307 0 01-1.228-1.383 1.292 1.292 0 011.383-1.227 16.187 16.187 0 0110.07 4.29 1.307 1.307 0 01-.891 2.264z" fill="#222"/></g></g></g></g></svg>