<svg xmlns="http://www.w3.org/2000/svg" width="114" height="114"><g transform="translate(-538 -5968)"><circle data-name="楕円形 3" cx="57" cy="57" r="57" transform="translate(538 5968)" fill="#fff"/><g data-name="グループ 59"><g data-name="グループ 26"><path data-name="パス 22" d="M571.572 6014.582a1.185 1.185 0 01-1.185-1.184v-8.974a1.184 1.184 0 011.185-1.185h39.4a1.185 1.185 0 010 2.369h-38.218v7.791a1.185 1.185 0 01-1.182 1.183z" fill="#222"/></g><g data-name="グループ 27"><path data-name="パス 23" d="M571.568 6019.386a1.189 1.189 0 01-.841-2.025 1.226 1.226 0 011.682 0 1.186 1.186 0 010 1.67 1.177 1.177 0 01-.841.355z" fill="#222"/></g><g data-name="グループ 28"><path data-name="パス 24" d="M619.396 6029.701h-47.824a1.184 1.184 0 01-1.185-1.184V6023a1.185 1.185 0 012.369 0v4.333h45.455v-22.909a1.183 1.183 0 112.367 0v24.095a1.182 1.182 0 01-1.182 1.182z" fill="#222"/></g><g data-name="グループ 29"><path data-name="パス 25" d="M619.396 6005.606a1.185 1.185 0 01-1.184-1.185v-7.053h-45.458v7.053a1.185 1.185 0 01-2.369 0v-8.237a1.185 1.185 0 011.185-1.185h47.824a1.183 1.183 0 011.182 1.185v8.237a1.183 1.183 0 01-1.18 1.185z" fill="#222"/></g><g data-name="グループ 30"><path data-name="パス 26" d="M595.483 6054.222a1.185 1.185 0 01-1.184-1.184v-24.517a1.185 1.185 0 012.369 0v24.517a1.185 1.185 0 01-1.185 1.184z" fill="#222"/></g><g data-name="グループ 31"><path data-name="パス 27" d="M577.652 6054.218a1.184 1.184 0 01-.708-2.134l17.831-13.283a1.184 1.184 0 111.414 1.9l-17.831 13.281a1.179 1.179 0 01-.706.236z" fill="#222"/></g><g data-name="グループ 32"><path data-name="パス 28" d="M613.314 6054.218a1.175 1.175 0 01-.706-.235l-17.832-13.281a1.184 1.184 0 011.414-1.9l17.833 13.283a1.184 1.184 0 01-.708 2.134z" fill="#222"/></g></g></g></svg>