<svg xmlns="http://www.w3.org/2000/svg" width="114" height="114"><g transform="translate(-282 -5968)"><circle data-name="楕円形 2" cx="57" cy="57" r="57" transform="translate(282 5968)" fill="#fff"/><g data-name="グループ 56"><g data-name="グループ 55"><g data-name="グループ 48"><g data-name="グループ 35"><g data-name="グループ 34"><path data-name="パス 29" d="M321.896 6005.608a1.3 1.3 0 01-1.308-1.308 1.287 1.287 0 01.379-.916 1.341 1.341 0 011.844 0 1.3 1.3 0 01.392.916 1.285 1.285 0 01-.392.929 1.266 1.266 0 01-.915.379z" fill="#222"/></g></g><g data-name="グループ 37"><g data-name="グループ 36"><path data-name="パス 30" d="M346.835 6039.986h-31.518a9.3 9.3 0 01-9.317-9.261v-18.462a9.3 9.3 0 019.317-9.263h1.913a1.308 1.308 0 010 2.615h-1.913a6.682 6.682 0 00-6.7 6.647v18.462a6.681 6.681 0 006.7 6.645h31.518a1.308 1.308 0 110 2.616z" fill="#222"/></g></g><g data-name="グループ 39"><g data-name="グループ 38"><path data-name="パス 31" d="M356.858 6027.549a1.307 1.307 0 01-1.308-1.308v-13.978a6.682 6.682 0 00-6.7-6.647h-22.3a1.308 1.308 0 010-2.615h22.3a9.3 9.3 0 019.317 9.263v13.978a1.308 1.308 0 01-1.309 1.307z" fill="#222"/></g></g><g data-name="グループ 41"><g data-name="グループ 40"><path data-name="パス 32" d="M332.083 6045.856a1.308 1.308 0 01-1.308-1.308v-5.87a1.308 1.308 0 012.616 0v5.87a1.307 1.307 0 01-1.308 1.308z" fill="#222"/></g></g><g data-name="グループ 43"><g data-name="グループ 42"><path data-name="パス 33" d="M343.246 6045.856h-22.32a1.308 1.308 0 110-2.616h22.32a1.308 1.308 0 010 2.616z" fill="#222"/></g></g><g data-name="グループ 45"><g data-name="グループ 44"><path data-name="パス 34" d="M346.835 6031.965h-39.527a1.308 1.308 0 010-2.616h39.527a1.308 1.308 0 110 2.616z" fill="#222"/></g></g><g data-name="グループ 47"><g data-name="グループ 46"><path data-name="パス 35" d="M332.083 6035.939a1.309 1.309 0 01-1.308-1.307v-3.976a1.308 1.308 0 012.616 0v3.976a1.308 1.308 0 01-1.308 1.307z" fill="#222"/></g></g></g><g data-name="グループ 50"><g data-name="グループ 49"><path data-name="パス 36" d="M370.736 6045.857h-23.9a1.307 1.307 0 01-1.308-1.308v-5.87a1.308 1.308 0 012.616 0v4.563h21.285v-14.504h-12.568a1.308 1.308 0 110-2.615h13.876a1.308 1.308 0 011.308 1.308v17.123a1.308 1.308 0 01-1.309 1.303z" fill="#222"/></g></g><g data-name="グループ 52"><g data-name="グループ 51"><path data-name="パス 37" d="M346.835 6039.986a1.307 1.307 0 01-1.308-1.308v-11.252a1.307 1.307 0 011.308-1.308h10.025a1.308 1.308 0 110 2.615h-8.717v9.945a1.308 1.308 0 01-1.308 1.308z" fill="#222"/></g></g><g data-name="グループ 54"><g data-name="グループ 53"><path data-name="パス 38" d="M358.786 6037.293a1.3 1.3 0 01-.76-.245l-11.951-8.56a1.308 1.308 0 011.523-2.126l11.189 8.015 11.189-8.015a1.308 1.308 0 111.525 2.126l-11.951 8.56a1.3 1.3 0 01-.764.245z" fill="#222"/></g></g></g></g></g></svg>