<svg xmlns="http://www.w3.org/2000/svg" width="114" height="114"><g transform="translate(-1034 -5968)"><circle data-name="楕円形 5" cx="57" cy="57" r="57" transform="translate(1034 5968)" fill="#fff"/><g data-name="グループ 57"><g data-name="グループ 21"><g data-name="グループ 17"><path data-name="パス 15" d="M1077.09 6057.389a1.307 1.307 0 01-1.308-1.308v-39.054a1.308 1.308 0 112.615 0v39.054a1.307 1.307 0 01-1.307 1.308z" fill="#222"/></g><g data-name="グループ 18"><path data-name="パス 16" d="M1077.09 6012.887a1.307 1.307 0 01-1.308-1.308v-8.448a1.308 1.308 0 112.615 0v8.448a1.307 1.307 0 01-1.307 1.308z" fill="#222"/></g><g data-name="グループ 19"><path data-name="パス 17" d="M1077.09 6004.438a6.219 6.219 0 116.216-6.219 6.227 6.227 0 01-6.216 6.219zm0-9.823a3.6 3.6 0 103.6 3.6 3.607 3.607 0 00-3.6-3.6z" fill="#222"/></g><g data-name="グループ 20"><path data-name="パス 18" d="M1083.776 6057.39h-13.375a1.308 1.308 0 110-2.615h13.375a1.308 1.308 0 110 2.615z" fill="#222"/></g></g><g data-name="グループ 22"><path data-name="パス 19" d="M1087.952 6034.129h-10.862a1.308 1.308 0 010-2.615h10.862a1.308 1.308 0 110 2.615z" fill="#222"/></g><g data-name="グループ 23"><path data-name="パス 20" d="M1093.697 6034.131a1.282 1.282 0 01-.929-.394 1.26 1.26 0 01-.379-.913 1.31 1.31 0 01.379-.929 1.308 1.308 0 012.236.929 1.321 1.321 0 01-1.308 1.308z" fill="#222"/></g><g data-name="グループ 24"><path data-name="パス 21" d="M1112.325 6034.129h-12.88a1.308 1.308 0 010-2.616h9.943l-9.3-10.337a1.309 1.309 0 010-1.749l9.3-10.339h-32.3a1.308 1.308 0 010-2.615h35.236a1.308 1.308 0 01.971 2.182l-10.477 11.647 10.477 11.645a1.308 1.308 0 01-.971 2.182z" fill="#222"/></g></g></g></svg>