<svg xmlns="http://www.w3.org/2000/svg" viewBox="0 0 127.64 53.35"><defs><style>.cls-1{fill:#231815}</style></defs><g id="レイヤー_2" data-name="レイヤー 2"><g id="制作レイヤー"><path class="cls-1" d="M13.44 49.77H11a3.77 3.77 0 01-1.91 3.59 4.76 4.76 0 00-.66-.5 2.86 2.86 0 001.9-2.86v-.19c-1.19 0-2.4.06-2.8.1v-.67H8.9c1.59 0 4 0 4.54-.11zm-1.22-1.63h-1.26c-.92 0-2 0-2.4.08v-.66h1.13c.94 0 2.13 0 2.54-.09zm.9.67a7.36 7.36 0 00-.62-.74l.34-.24a8.42 8.42 0 01.64.7zm.58-.38a4.85 4.85 0 00-.63-.72l.34-.24a7 7 0 01.65.68zm3.3 1.79a11.7 11.7 0 00-1.54-.84l.36-.5a13.08 13.08 0 011.56.75zm-.12 2.61a1.22 1.22 0 00-.41.24c-.05.06-.08.09-.12.09s-.12 0-.5-.75c0-.06.12 0 .36-.07a11.43 11.43 0 004.94-3.07 5.88 5.88 0 00.4.52 15.11 15.11 0 01-4.66 3.04zm1-4.18a7.9 7.9 0 00-1.53-.94l.42-.46a8.92 8.92 0 011.54.86zm2.3.32a6.23 6.23 0 00-.69-.67l.31-.28a8.22 8.22 0 01.71.63zm.54-.45a7.18 7.18 0 00-.7-.65l.3-.27a4.57 4.57 0 01.72.61zm5.18.97a15.27 15.27 0 011.35.86 5.75 5.75 0 001-1.76c-.59 0-1.55 0-2.49.06a11.88 11.88 0 01-1.67 1.65 3.48 3.48 0 00-.58-.43 6.6 6.6 0 002.42-2.66c.07-.16 0-.28.08-.28.12 0 .78.24.78.32s0 .07-.1.12a.88.88 0 00-.22.26l-.29.42c.7 0 1.35 0 2.11-.06.16 0 .16-.08.22-.08a2.49 2.49 0 01.67.53c0 .09-.19.13-.34.44a8.05 8.05 0 01-4.63 4.34 3.49 3.49 0 00-.52-.56 6.43 6.43 0 003.08-1.82 8.61 8.61 0 00-1.37-1zm5.84-1.7c.77.09.78.09.78.15a.21.21 0 01-.05.13.49.49 0 00-.06.27c-.06 1.4 0 3.12-1.31 4.52a3.8 3.8 0 00-.73-.36 4.19 4.19 0 001.38-3.5v-.94a1.78 1.78 0 000-.2zm1.6-.24c.76 0 .82 0 .82.1a.21.21 0 010 .11C34 47.9 34 48 34 50.44v1.33a12.09 12.09 0 002.7-2.33 3.57 3.57 0 00.4.46 17.5 17.5 0 01-2.89 2.55c-.22.16-.26.3-.34.3s-.59-.56-.59-.56.08-.07.08-.22v-2.24c0-.74 0-1.53-.07-2v-.14c0-.03 0 0 0 0zm8.53 4.63a2.13 2.13 0 002.33-2.12A2.08 2.08 0 0042.26 48C42 50.12 41 52.69 40 52.69c-.55 0-1.26-.88-1.26-2.09a3.07 3.07 0 013.14-3.16 2.68 2.68 0 013 2.65 2.78 2.78 0 01-2.65 2.76 2.37 2.37 0 00-.37-.67zm-2.57-1.61c0 .79.36 1.43.69 1.43.15 0 .29-.1.43-.31a10 10 0 001.26-3.75 2.56 2.56 0 00-2.38 2.63zm10.13-1.87a4.88 4.88 0 01-2.94 4.65 2.27 2.27 0 00-.34-.57 4.15 4.15 0 002.69-4.07h-2.29v-.63h2.32v-.57a5.28 5.28 0 000-.66 1.35 1.35 0 010-.18.07.07 0 01.07-.07c.76 0 .76.15.76.17a.48.48 0 01-.07.15.66.66 0 00-.1.26v.9h2.88a21.33 21.33 0 01-.41 4.18c-.13.69-.32 1-1.43 1h-.75a2 2 0 00-.18-.66h.88c.65 0 .81-.14.88-.45a17.31 17.31 0 00.33-3.49zM59 52.88c-1.78 0-2.9-1-2.9-2.27a3 3 0 011.53-2.47 14.86 14.86 0 00-3 .58l-.13.05-.07-.1c-.07-.1-.13-.67-.13-.67h.26a37.85 37.85 0 004.58-.57c.26-.06.38-.13.45-.13s.08 0 .28.6c0 .06-.11 0-.39.06-1.65.28-2.83 1.4-2.83 2.61 0 1.38 1.4 1.66 2.2 1.66h.34a5.43 5.43 0 00-.15.69zm.74-3.4a7 7 0 00-.56-.78l.35-.21a7.43 7.43 0 01.6.74zm.61-.34a6.85 6.85 0 00-.57-.76l.35-.21a4.76 4.76 0 01.6.73zm4.25 2.14c-.53.32-1.37.75-1.75.92a.69.69 0 00-.26.17c-.06.07-.1.11-.15.11s-.27-.65-.27-.68 0 0 .13 0a3.22 3.22 0 00.8-.26v-2.42h-.85v-.59l.85.05a10.66 10.66 0 000-1.46 1.86 1.86 0 010-.19h.07c.67.05.68.1.68.14a.27.27 0 01-.06.14 4.64 4.64 0 00-.09 1.41c.28 0 .58 0 .89-.05v.59h-.89v2.17a10.88 10.88 0 001-.51zm1.8.56v-2.72l-.91.28v2.82c0 .37.22.39 1.32.39h.9c.39 0 .55-.18.7-1.27a3.57 3.57 0 00.53.34c-.26 1.18-.5 1.44-1.15 1.48h-2.05a.78.78 0 01-.81-.84v-2.65c-.17.05-.35.1-.61.2l-.19-.55A7.18 7.18 0 0065 49v-1.36a1.06 1.06 0 010-.19h.07a5.26 5.26 0 01.6.08s.07 0 .07.07a.39.39 0 010 .14.57.57 0 00-.08.28v.88l.89-.26a16.08 16.08 0 000-1.7 1.64 1.64 0 010-.19h.06c.67.06.69.11.69.15a.39.39 0 01-.06.14.7.7 0 00-.06.35v1.14c.55-.16 1.1-.35 1.67-.53 0 .82-.05 1.85-.12 2.45a.84.84 0 01-1 .86h-.25a1.91 1.91 0 00-.14-.57h.35c.33 0 .43-.11.46-.39.06-.54.09-1.24.09-1.69L67 49v2.89zm6.39-.53c-.56.33-1.27.68-1.65.86a.68.68 0 00-.26.16c-.06.07-.1.12-.15.12s-.27-.68-.27-.68l.13-.05a2.92 2.92 0 00.73-.22v-2.33h-.77v-.58h.77v-.39a9.93 9.93 0 000-1.22.93.93 0 01-.06-.19h.07c.67.05.68.1.68.14a.29.29 0 01-.06.15c-.07.12-.08.24-.08 1.56.27 0 .53 0 .81-.06v.58h-.82v2.1a10.17 10.17 0 00.93-.5zm2.2.3c-.69.27-1.44.51-1.95.65a.58.58 0 00-.26.13.26.26 0 01-.14.09s-.11 0-.22-.59c0-.05 0 0 .14-.05a13.28 13.28 0 002.44-.72zm1.48-2.75v-.09s.62.08.62.2a.26.26 0 01-.07.12.54.54 0 00-.14.27 6 6 0 01-.88 2.15c.21.7.51 1.14.61 1.14s.19 0 .19-1.39a1.73 1.73 0 00.49.34c-.07 1.3-.25 1.74-.59 1.74s-.86-.71-1.1-1.37a7.29 7.29 0 01-1.6 1.22 1.23 1.23 0 00-.34-.45 5.51 5.51 0 001.82-1.31 14.18 14.18 0 01-.36-3.09H72.7v-.58c.73 0 1.59.06 2.39.06a5.89 5.89 0 000-1 1.17 1.17 0 010-.16h.07c.61 0 .61.11.61.14a.63.63 0 010 .14c-.05.11-.08.17-.08.9h1.74v.58h-1.71a13.77 13.77 0 00.25 2.51 4.49 4.49 0 00.5-1.93zM73 51v-2.14h1.7V51zm1.22-1.62h-.73v1.15h.73zm2.3-1.53a3.12 3.12 0 00-.64-.87l.38-.23a4 4 0 01.68.85zm3.48 5.5v-3a8.81 8.81 0 01-1 1 1.6 1.6 0 00-.27-.55 6.62 6.62 0 002.11-2.33h-1.9v-.56h1.09v-.26a6.32 6.32 0 000-.72c0-.1-.05-.17-.05-.21s0 0 .06 0c.63.06.65.1.65.14a.42.42 0 01-.06.15 1.32 1.32 0 00-.06.53v.41h.32a.26.26 0 00.19-.07h.07c.06 0 .47.27.47.36s-.14.16-.18.24a10.1 10.1 0 01-.81 1.24 8 8 0 001.31 1 1.52 1.52 0 00-.32.5 9.22 9.22 0 01-1-.92v3.1zm5.57-.29h-4.29v-.61h1.83v-3.14h-1.48v-.61c.48 0 1 0 1.48.06 0-1 0-1.78-.06-1.93a1.86 1.86 0 010-.19h.06c.72.06.74.11.74.15a.33.33 0 01-.07.15c-.07.11-.07.23-.07 1.87.54 0 1.06 0 1.64-.06v.61h-1.64v3.14h1.9zm6.37-3.58h-3.32V49a9.48 9.48 0 01-1.39.7 1.85 1.85 0 00-.38-.53 5 5 0 003-2.28c0-.12 0-.18.11-.18.61.15.68.17.68.25s0 .08-.09.12l-.08.05a6.73 6.73 0 003.21 1.95 1.67 1.67 0 00-.36.56 8.3 8.3 0 01-1.38-.64zm.78 3.85c-.17-.25-.36-.49-.54-.72a35.94 35.94 0 01-4.1.48.67.67 0 00-.27.07.42.42 0 01-.15.06c-.1 0-.22-.58-.24-.65h.78a8.16 8.16 0 001-1.64h-2.08v-.62c1.09 0 2.13.05 3.18.05s2 0 3.07-.05v.62c-1.21 0-2.36-.05-3.51-.05a9.57 9.57 0 01-.93 1.61c.92 0 2-.15 2.84-.27a10.51 10.51 0 00-.74-.75l.43-.33a18.25 18.25 0 011.75 1.82zm-2.59-5.79a5.7 5.7 0 01-1.38 1.34h3.03a10 10 0 01-1.65-1.34zm8.26 4.31v-1c-.67.29-1.19.64-1.19 1.06s.24.61 1.36.61a6 6 0 001.84-.29 2.7 2.7 0 000 .48 2.11 2.11 0 000 .26c-.52 0-1.14.1-1.72.1-.76 0-2-.11-2-1.16 0-.74.8-1.21 1.77-1.62 0-.31-.13-.67-.59-.67-.71 0-1.32.77-1.88 1.84l-.67-.46A9.63 9.63 0 0097 48.4l-1.33.06-.07-.67a3.87 3.87 0 00.87.07h.74a5 5 0 00.19-.79 1 1 0 000-.12c.73.09.75.15.75.17a.15.15 0 010 .08.56.56 0 00-.13.26c-.06.15-.11.29-.16.43a6 6 0 001.76-.36v.67a16.14 16.14 0 01-2 .26 8.26 8.26 0 01-.54 1.07 1.47 1.47 0 01.89-.3.94.94 0 01.92.91 11.78 11.78 0 001.51-.74c.1 0 .13-.11.16-.11a4.67 4.67 0 01.39.63.06.06 0 010 .05s0 .06-.13.07a8.3 8.3 0 00-1.82.56v1.21zm5.66-5.17c.68 0 .69.12.69.17a.32.32 0 01-.06.15.49.49 0 00-.07.28v1.51a3 3 0 00.64-.93c0-.06 0-.12.06-.12.21.1.5.27.5.34s0 .07-.09.1-.12.1-.17.16a7.94 7.94 0 01-1 1.06 8.88 8.88 0 01-.07 1 4.46 4.46 0 001.38 1.6 1.94 1.94 0 00-.37.46 5.87 5.87 0 01-1.1-1.33 4.5 4.5 0 01-1.27 2.18 1.56 1.56 0 00-.37-.48 4.07 4.07 0 001.25-2.74v-1.88a10 10 0 000-1.29 1 1 0 010-.18s0-.06.07-.06zm-.86 1.32c.49.06.55.11.55.17a.31.31 0 010 .11.61.61 0 00-.09.28 9.32 9.32 0 01-.36 1.54 1.92 1.92 0 00-.47-.23 5.54 5.54 0 00.36-1.66v-.17c0-.03 0 0 0 0zm4.35-.44h-2V47h4v.61h-1.48v4.81c0 .79-.41 1-1.28 1h-.43a2.25 2.25 0 00-.18-.62h.66c.59 0 .65-.14.65-.44zm9.73.92a9.7 9.7 0 00-1.71-.09h-.68v1.24a1.7 1.7 0 01.27 1 3.09 3.09 0 01-1.74 2.71 1.8 1.8 0 00-.6-.51 2.32 2.32 0 001.72-1.83 1 1 0 01-.84.41 1 1 0 01-1-1.13 1.1 1.1 0 011.12-1.23 1.18 1.18 0 01.55.14v-.8a26.75 26.75 0 00-2.71.18 2.21 2.21 0 00-.35.1s-.08-.49-.1-.68a2 2 0 00.36.06h.16c.52 0 1.58 0 2.62-.07v-.79c0-.17-.06-.1-.06-.13s0 0 .06 0c.08 0 .74 0 .74.13a.16.16 0 010 .1c-.07.12-.08.22-.08.7h2.38zm-3 1.65a.51.51 0 00-.52-.56.65.65 0 00-.59.72c0 .31.15.61.53.61s.63-.62.63-.77zm3.67 1.97a1.08 1.08 0 111.06 1.08 1.08 1.08 0 01-1.06-1.08zm1.82 0a.75.75 0 00-.74-.75.75.75 0 100 1.5.74.74 0 00.74-.75z"/><path d="M0 50.07h3.89m119.87 0h3.88" fill="none" stroke="#231815" stroke-miterlimit="10" stroke-width=".5"/><path class="cls-1" d="M39.15 13.11h.29a1.45 1.45 0 011.45 1.46v14.07h8.17a1.45 1.45 0 011.45 1.46 1.45 1.45 0 01-1.45 1.46h-9.47a1.89 1.89 0 01-1.89-1.9V14.57a1.45 1.45 0 011.45-1.46zM65 13a2.28 2.28 0 012.08 1.38l6.51 15a1.56 1.56 0 01-1.42 2.19 1.55 1.55 0 01-1.43-.95l-1.46-3.5h-8.63l-1.49 3.53a1.51 1.51 0 01-1.39.92 1.51 1.51 0 01-1.37-2.12l6.53-15.09A2.29 2.29 0 0165 13zm3.11 11.26L65 16.85l-3.13 7.38zm14.26-11.15a2.19 2.19 0 011.86 1l4.92 7.7 4.91-7.7a2.21 2.21 0 011.86-1 2.22 2.22 0 012.22 2.23V30a1.6 1.6 0 01-1.59 1.6A1.6 1.6 0 0195 30V18.33l-4.59 6.92a1.43 1.43 0 01-2.38 0l-4.64-6.88V30a1.6 1.6 0 01-1.59 1.6 1.6 1.6 0 01-1.64-1.6V15.34a2.22 2.22 0 012.21-2.23zm23.12 1.6a1.6 1.6 0 011.59-1.6h5.62a9 9 0 012.89.43 6.23 6.23 0 012.2 1.25 5.54 5.54 0 011.38 2 6.24 6.24 0 01.49 2.53 6.17 6.17 0 01-.58 2.73 5.59 5.59 0 01-1.57 2 7 7 0 01-2.33 1.2 9.51 9.51 0 01-2.86.41h-3.64V30a1.6 1.6 0 01-1.6 1.6 1.6 1.6 0 01-1.59-1.6zm6.94 8a4.26 4.26 0 002.9-.92 3 3 0 001.06-2.38v-.06a2.92 2.92 0 00-1.08-2.47 4.53 4.53 0 00-2.88-.84h-3.75v6.66z"/><circle cx="6.4" cy="14.67" r="3.2" fill="#edad19"/><path class="cls-1" d="M29.48 12.16a12.16 12.16 0 00-24.32 0h2.28a9.88 9.88 0 0119.76 0v1.13h-7.62v8.17h-8v7.83H4.92v2.27h8.91v-7.82h8v-8.17h7.67z"/><path class="cls-1" d="M8.72 9H4.7L.47 16.41h12.48L8.72 9z"/></g></g></svg>