<svg xmlns="http://www.w3.org/2000/svg" width="173.772" height="72.727"><defs><style>.a{fill:#fff}</style></defs><path class="a" d="M18.298 67.757h-3.322a5.133 5.133 0 01-2.6 4.888 6.48 6.48 0 00-.9-.681 3.894 3.894 0 002.587-3.894v-.259c-1.62 0-3.267.082-3.812.136v-.91h1.871c2.165 0 5.446 0 6.181-.15zm-1.661-2.219h-1.715a26.224 26.224 0 00-3.267.109v-.9h1.538a26.345 26.345 0 003.458-.123zm1.225.912a10.019 10.019 0 00-.844-1.007l.463-.327a11.462 11.462 0 01.871.953zm.79-.517a6.6 6.6 0 00-.858-.98l.463-.327a9.53 9.53 0 01.885.926zm4.493 2.437a15.928 15.928 0 00-2.1-1.144l.49-.681a17.807 17.807 0 012.124 1.021zm-.163 3.553a1.661 1.661 0 00-.558.327c-.068.082-.109.123-.163.123s-.163 0-.681-1.021c0-.082.163 0 .49-.1a15.561 15.561 0 006.725-4.175 8.006 8.006 0 00.545.708 20.571 20.571 0 01-6.344 4.139zm1.361-5.691a10.755 10.755 0 00-2.083-1.28l.572-.626a12.144 12.144 0 012.1 1.171zm3.131.436a8.482 8.482 0 00-.939-.912l.422-.381a11.191 11.191 0 01.967.858zm.735-.613a9.775 9.775 0 00-.953-.885l.408-.368a6.222 6.222 0 01.98.83zm7.052 1.322a20.787 20.787 0 011.836 1.171 7.828 7.828 0 001.361-2.4c-.8 0-2.11 0-3.39.082a16.174 16.174 0 01-2.271 2.25 4.738 4.738 0 00-.79-.585 8.985 8.985 0 003.29-3.622c.1-.218 0-.381.109-.381a2.715 2.715 0 011.062.436c0 .109 0 .1-.136.163a1.2 1.2 0 00-.3.354l-.395.572c.953 0 1.838 0 2.873-.082.218 0 .218-.109.3-.109a3.39 3.39 0 01.912.722c0 .123-.259.177-.463.6a10.96 10.96 0 01-6.3 5.909 4.751 4.751 0 00-.708-.762 8.754 8.754 0 004.193-2.478 11.722 11.722 0 00-1.865-1.361zm7.95-2.314c1.048.123 1.062.123 1.062.2a.286.286 0 01-.068.177.667.667 0 00-.082.368c-.082 1.906 0 4.248-1.783 6.154a5.173 5.173 0 00-.994-.49 5.7 5.7 0 001.879-4.765v-1.28a2.425 2.425 0 000-.272zm2.178-.327c1.035 0 1.116 0 1.116.136a.286.286 0 010 .15c-.218.191-.218.327-.218 3.649v1.815a16.46 16.46 0 003.676-3.172 4.86 4.86 0 00.545.626 23.825 23.825 0 01-3.932 3.467c-.3.218-.354.408-.463.408a5.451 5.451 0 01-.8-.762.406.406 0 00.109-.3v-3.05a22.679 22.679 0 00-.1-2.723v-.194zm11.612 6.303a2.9 2.9 0 003.172-2.886 2.832 2.832 0 00-2.641-2.8c-.354 2.886-1.715 6.385-3.077 6.385-.749 0-1.715-1.2-1.715-2.845a4.18 4.18 0 014.275-4.3 3.649 3.649 0 014.086 3.601 3.785 3.785 0 01-3.608 3.758 3.226 3.226 0 00-.5-.912zm-3.5-2.192c0 1.076.49 1.947.939 1.947.2 0 .395-.136.585-.422a13.614 13.614 0 001.715-5.105 3.485 3.485 0 00-3.24 3.581zm13.794-2.546a6.644 6.644 0 01-4 6.331 3.09 3.09 0 00-.463-.776 5.65 5.65 0 003.662-5.541h-3.119v-.858h3.159v-.776a7.186 7.186 0 000-.9 1.836 1.836 0 010-.245.1.1 0 01.1-.1c1.035 0 1.035.2 1.035.231a.653.653 0 01-.1.2.9.9 0 00-.136.354v1.225h3.921a29.039 29.039 0 01-.558 5.691c-.177.939-.436 1.361-1.947 1.361h-1.023a2.723 2.723 0 00-.245-.9h1.2c.885 0 1.1-.191 1.2-.613a23.566 23.566 0 00.449-4.751zm13.03 5.694c-2.423 0-3.948-1.361-3.948-3.09a4.084 4.084 0 012.083-3.363 20.23 20.23 0 00-4.084.79l-.177.068-.1-.136a4.205 4.205 0 01-.177-.912h.354a51.529 51.529 0 006.235-.776c.354-.082.517-.177.613-.177s.109 0 .381.817c0 .082-.15 0-.531.082-2.243.377-3.849 1.897-3.849 3.549 0 1.879 1.906 2.26 3 2.26h.463a7.391 7.391 0 00-.2.939zm1.007-4.629a9.53 9.53 0 00-.762-1.062l.476-.286a10.115 10.115 0 01.817 1.007zm.83-.463a9.326 9.326 0 00-.776-1.035l.476-.286a6.481 6.481 0 01.817.994zm5.786 2.911a28.22 28.22 0 01-2.382 1.253.939.939 0 00-.354.231c-.082.1-.136.15-.2.15a4.236 4.236 0 01-.368-.926c0-.041 0 0 .177 0a4.384 4.384 0 001.089-.354v-3.294h-1.161v-.8l1.157.068a14.512 14.512 0 000-1.988 2.53 2.53 0 010-.259h.1c.912.068.926.136.926.191a.368.368 0 01-.082.191 6.317 6.317 0 00-.123 1.92 7.482 7.482 0 001.212-.068v.8h-1.216v2.954a14.811 14.811 0 001.361-.694zm2.451.762v-3.7l-1.239.381v3.84c0 .5.3.531 1.8.531h1.225c.531 0 .749-.245.953-1.729a4.86 4.86 0 00.722.463c-.354 1.606-.681 1.96-1.566 2.015H89.5a1.062 1.062 0 01-1.1-1.144v-3.611c-.231.068-.476.136-.83.272l-.259-.749a9.775 9.775 0 001.184-.436v-1.85a1.442 1.442 0 010-.259h.1a7.163 7.163 0 01.817.109.093.093 0 01.1.1.531.531 0 010 .191.776.776 0 00-.109.381v1.2l1.212-.354a21.891 21.891 0 000-2.314 2.233 2.233 0 010-.259h.082c.912.082.939.15.939.2a.531.531 0 01-.082.191.953.953 0 00-.082.476v1.552c.749-.218 1.5-.476 2.274-.722 0 1.116-.068 2.519-.163 3.335a1.144 1.144 0 01-1.361 1.171h-.352a2.6 2.6 0 00-.191-.776h.477c.449 0 .585-.15.626-.531.082-.735.123-1.688.123-2.3l-1.688.463v3.935zm8.699-.721c-.762.449-1.729.926-2.246 1.171a.926.926 0 00-.354.218c-.082.1-.136.163-.2.163a5.238 5.238 0 01-.368-.926l.177-.068a3.975 3.975 0 00.994-.3v-3.172h-1.052v-.79h1.048v-.531a13.516 13.516 0 000-1.661 1.266 1.266 0 01-.082-.259h.1c.912.068.926.136.926.191a.4.4 0 01-.082.2c-.1.163-.109.327-.109 2.124a5.08 5.08 0 001.1-.082v.79h-1.118v2.859a13.844 13.844 0 001.266-.681zm3 .408c-.939.368-1.96.694-2.655.885a.79.79 0 00-.354.177.354.354 0 01-.191.123s-.15 0-.3-.8c0-.068 0 0 .191-.068a18.079 18.079 0 003.322-.98zm2.015-3.744v-.123s.844.109.844.272a.354.354 0 01-.1.163.735.735 0 00-.191.368 8.168 8.168 0 01-1.2 2.928c.286.953.694 1.552.83 1.552s.259 0 .259-1.892a2.355 2.355 0 00.667.463c-.1 1.77-.34 2.369-.8 2.369s-1.171-.967-1.5-1.865a9.925 9.925 0 01-2.178 1.661 1.674 1.674 0 00-.463-.613 7.5 7.5 0 002.478-1.783 19.305 19.305 0 01-.49-4.207h-3.293v-.79c.994 0 2.165.082 3.254.082a8.02 8.02 0 000-1.361 1.589 1.589 0 010-.218h.1c.83 0 .83.15.83.191a.858.858 0 010 .191c-.068.15-.109.231-.109 1.225h2.369v.79h-2.333a18.746 18.746 0 00.34 3.417 6.113 6.113 0 00.681-2.628zm-4.724 2.913v-2.913h2.314v2.913zm1.661-2.206h-.994v1.566h.994zm3.126-2.082a4.248 4.248 0 00-.871-1.184l.517-.313a5.445 5.445 0 01.926 1.157zm4.738 7.488v-4.084a11.994 11.994 0 01-1.359 1.361 2.178 2.178 0 00-.368-.749 9.013 9.013 0 002.868-3.172h-2.584v-.762h1.484v-.354a8.609 8.609 0 000-.98 1.463 1.463 0 00-.068-.286c0-.054 0 0 .082 0 .858.082.885.136.885.191a.572.572 0 01-.082.2 1.8 1.8 0 00-.082.722v.558h.436a.354.354 0 00.259-.1h.1c.082 0 .64.368.64.49s-.191.218-.245.327a13.753 13.753 0 01-1.1 1.688 10.891 10.891 0 001.775 1.37 2.069 2.069 0 00-.436.681 12.553 12.553 0 01-1.364-1.253v4.22zm7.583-.395h-5.842v-.83h2.491v-4.275h-2.013v-.83a16.623 16.623 0 012.015.082 17.492 17.492 0 00-.082-2.628 2.53 2.53 0 010-.259h.082c.98.082 1.007.15 1.007.2a.449.449 0 01-.1.2c-.1.15-.1.313-.1 2.546a20.9 20.9 0 002.233-.082v.83h-2.223v4.275h2.59zm8.673-4.874h-4.52v-.653a12.907 12.907 0 01-1.892.953 2.519 2.519 0 00-.517-.722 6.807 6.807 0 004.084-3.1c0-.163 0-.245.15-.245.83.2.926.231.926.34s0 .109-.123.163l-.109.068a9.162 9.162 0 004.37 2.655 2.273 2.273 0 00-.49.762 11.3 11.3 0 01-1.879-.871zm1.062 5.241c-.231-.34-.49-.667-.735-.98a48.93 48.93 0 01-5.582.653.912.912 0 00-.368.1.572.572 0 01-.2.082c-.136 0-.3-.79-.327-.885h1.062a11.108 11.108 0 001.361-2.233h-2.835v-.844c1.484 0 2.9.068 4.329.068s2.723 0 4.18-.068v.844c-1.647 0-3.213-.068-4.779-.068a13.028 13.028 0 01-1.266 2.192 29.1 29.1 0 003.866-.368 14.306 14.306 0 00-1.007-1.021l.585-.449a24.846 24.846 0 012.382 2.478zm-3.527-7.882a7.76 7.76 0 01-1.879 1.824h4.125a13.615 13.615 0 01-2.246-1.824zm11.242 5.868v-1.361c-.912.395-1.62.871-1.62 1.443s.327.83 1.852.83a8.168 8.168 0 002.505-.395 3.674 3.674 0 000 .653 2.873 2.873 0 000 .354c-.708 0-1.552.136-2.342.136-1.035 0-2.723-.15-2.723-1.579 0-1.007 1.089-1.647 2.41-2.206 0-.422-.177-.912-.8-.912-.967 0-1.8 1.048-2.559 2.505l-.912-.626a13.11 13.11 0 002.3-3.54l-1.811.082-.1-.912a5.269 5.269 0 001.184.1h1.016a6.808 6.808 0 00.259-1.076 1.363 1.363 0 000-.163c.994.123 1.021.2 1.021.231a.2.2 0 010 .109.763.763 0 00-.177.354c-.082.2-.15.395-.218.585a8.168 8.168 0 002.4-.49v.912a21.973 21.973 0 01-2.723.354 11.244 11.244 0 01-.735 1.457 2 2 0 011.212-.408 1.28 1.28 0 011.253 1.239 16.038 16.038 0 002.056-1.007c.136 0 .177-.15.218-.15a6.356 6.356 0 01.531.858.082.082 0 010 .068s0 .082-.177.1a11.3 11.3 0 00-2.478.762v1.647zm7.709-7.039c.926 0 .939.163.939.231a.436.436 0 01-.082.2.667.667 0 00-.1.381v2.056a4.084 4.084 0 00.871-1.266c0-.082 0-.163.082-.163.286.136.681.368.681.463s0 .1-.123.136-.163.136-.231.218a10.81 10.81 0 01-1.361 1.443 12.088 12.088 0 01-.1 1.361 6.072 6.072 0 001.879 2.178 2.641 2.641 0 00-.5.626 7.992 7.992 0 01-1.5-1.811 6.126 6.126 0 01-1.729 2.968 2.124 2.124 0 00-.5-.653 5.541 5.541 0 001.7-3.73v-2.555a13.611 13.611 0 000-1.756 1.362 1.362 0 010-.245.085.085 0 01.1-.082zm-1.171 1.8c.667.082.749.15.749.231a.422.422 0 010 .15.83.83 0 00-.123.381 12.689 12.689 0 01-.49 2.1 2.614 2.614 0 00-.64-.313 7.542 7.542 0 00.49-2.26v-.231zm5.922-.6h-2.723v-.762h5.446v.83h-2.015v6.548c0 1.076-.558 1.361-1.743 1.361h-.585a3.063 3.063 0 00-.245-.844h.9c.8 0 .885-.191.885-.6zm13.247 1.253a13.206 13.206 0 00-2.328-.123h-.926v1.688a2.315 2.315 0 01.368 1.361 4.207 4.207 0 01-2.369 3.689 2.45 2.45 0 00-.817-.694 3.159 3.159 0 002.342-2.491 1.389 1.389 0 01-2.505-.98 1.5 1.5 0 011.525-1.675 1.606 1.606 0 01.749.191v-1.089a36.418 36.418 0 00-3.689.245 3.009 3.009 0 00-.476.136s-.109-.667-.136-.926a2.723 2.723 0 00.49.082h.218c.708 0 2.151 0 3.567-.1v-1.072c0-.231-.082-.136-.082-.177s0 0 .082 0c.109 0 1.007 0 1.007.177a.218.218 0 010 .136c-.1.163-.109.3-.109.953h3.24zm-4.084 2.246a.694.694 0 00-.708-.762.885.885 0 00-.8.98c0 .422.2.83.722.83s.858-.844.858-1.048zm4.996 2.68a1.47 1.47 0 111.443 1.47 1.47 1.47 0 01-1.443-1.47zm2.478 0a1.014 1.014 0 10-1.007 1.021 1.007 1.007 0 001.007-1.021z"/><path d="M0 68.167h5.296m163.194 0h5.282" fill="none" stroke="#fff" stroke-miterlimit="10" stroke-width=".5"/><path class="a" d="M53.3 17.848h.395a1.974 1.974 0 011.974 1.99v19.153h11.123a1.974 1.974 0 011.974 1.988 1.974 1.974 0 01-1.974 1.988H53.899a2.573 2.573 0 01-2.573-2.587V19.838A1.974 1.974 0 0153.3 17.85zm35.193-.149a3.1 3.1 0 012.832 1.879l8.862 20.421a2.124 2.124 0 01-1.933 2.982 2.11 2.11 0 01-1.947-1.293l-1.988-4.765H82.571l-2.033 4.805a2.056 2.056 0 01-1.892 1.253 2.056 2.056 0 01-1.861-2.882l8.89-20.544a3.118 3.118 0 012.818-1.856zm4.234 15.33L88.493 22.94l-4.261 10.048zm19.414-15.181a2.982 2.982 0 012.531 1.361l6.7 10.483 6.685-10.483a3.009 3.009 0 012.532-1.361 3.022 3.022 0 013.022 3.036v19.954a2.178 2.178 0 01-2.165 2.178 2.178 2.178 0 01-2.11-2.178V24.955l-6.249 9.421a1.947 1.947 0 01-3.24 0l-6.317-9.367v15.829a2.178 2.178 0 01-2.165 2.178 2.178 2.178 0 01-2.233-2.178V20.884a3.022 3.022 0 013.009-3.036zm31.476 2.179a2.178 2.178 0 012.165-2.178h7.651a12.253 12.253 0 013.935.585 8.482 8.482 0 013 1.7 7.542 7.542 0 011.879 2.723 8.5 8.5 0 01.667 3.444 8.4 8.4 0 01-.79 3.717 7.611 7.611 0 01-2.143 2.72 9.53 9.53 0 01-3.172 1.634 12.947 12.947 0 01-3.894.558h-4.956v5.908a2.178 2.178 0 01-2.178 2.178 2.178 2.178 0 01-2.164-2.178zm9.448 10.891a5.8 5.8 0 003.948-1.253 4.084 4.084 0 001.443-3.24v-.082a3.975 3.975 0 00-1.47-3.363 6.167 6.167 0 00-3.921-1.144h-5.105v9.067z"/><circle class="a" cx="4.357" cy="4.357" r="4.357" transform="translate(4.357 15.616)"/><path class="a" d="M40.135 16.555a16.555 16.555 0 10-33.11 0h3.1a13.451 13.451 0 1126.9 0v1.538H26.656v11.123H15.765v10.66H6.698v3.09h12.13V32.32H29.72V21.2h10.442z"/><path class="a" d="M11.87 12.253H6.399L.64 22.341h16.991z"/></svg>