<svg viewBox="0 0 2043.5 500" xmlns="http://www.w3.org/2000/svg"><path d="M237.799 366.283l.964-1.484 87.7 56.953-.965 1.484zm-51.224 31.81l.964-1.484 87.7 56.953-.964 1.484z"/><path d="M236.062 453.544l87.69-56.968.964 1.484-87.69 56.968zm-51.248-31.8l87.69-56.968.964 1.484-87.69 56.968z"/><path d="M358.44 500h-208l-.29-.51L0 346.34v-208h.32L150.47 0h208.29L502 138.36v208l-.32.51zm-207.26-2h206.5L500 345.63V139.11L357.7 1H151.16L2 139.12v206.5z"/><path d="M334.66 497.73H173.43a53.87 53.87 0 01-38-15.8L17.38 363.07a53.18 53.18 0 01-15.55-37.72V164.12A53.7 53.7 0 0118.8 125L135.75 15.69A53.35 53.35 0 01172.3 1.27h163.5a53.22 53.22 0 0137.47 15.3L484 125.17a53.84 53.84 0 0116 38.21v162.7a53.31 53.31 0 01-14.66 36.8L373.51 481a53.74 53.74 0 01-38.85 16.73zM172.3 3A51.58 51.58 0 00137 17L20 126.32a51.93 51.93 0 00-16.4 37.8v161.23a51.43 51.43 0 0015 36.47l118.12 118.87A52.09 52.09 0 00173.43 496h161.23a52 52 0 0037.57-16.16l111.89-118.17a51.55 51.55 0 0014.18-35.59v-162.7a52.06 52.06 0 00-15.52-36.95L372 17.83A51.47 51.47 0 00335.8 3z"/><path d="M269.35 497.73h-32.74a206.68 206.68 0 01-145.67-60.61l-29.45-29.65a204 204 0 01-59.66-144.7V230a206 206 0 0165.1-150L92 56.61A204.64 204.64 0 01232.21 1.27h41.58A204.18 204.18 0 01417.55 60l20.95 20.53a206.54 206.54 0 0161.57 146.6v38.47a204.52 204.52 0 01-56.25 141.19l-25.4 26.81a206.17 206.17 0 01-149.07 64.13zM232.21 3a202.88 202.88 0 00-139 54.86L68.14 81.32A204.26 204.26 0 003.6 230v32.75a202.29 202.29 0 0059.14 143.47l29.45 29.65A204.9 204.9 0 00236.61 496h32.74a204.4 204.4 0 00147.79-63.58l25.39-26.81a202.75 202.75 0 0055.77-140v-38.48a204.77 204.77 0 00-61-145.34l-20.99-20.54A202.43 202.43 0 00273.79 3z"/><path d="M55.12 183.65a5.54 5.54 0 01-1.63 4 5.35 5.35 0 01-4 1.7 5.8 5.8 0 01-5.65-5.65 5.35 5.35 0 011.7-4 5.54 5.54 0 014-1.63 5.55 5.55 0 015.65 5.65zM51 275.8a.63.63 0 01-.71.71h-1.7a.62.62 0 01-.71-.71v-80.56a.63.63 0 01.71-.71h1.7a.63.63 0 01.71.71zm116.91-79.01a.62.62 0 01-.71.71h-27.7l-49.75 19.4a.65.65 0 00-.42.71v58.2a.63.63 0 01-.71.71h-1.7a.62.62 0 01-.71-.71v-80.57a.62.62 0 01.71-.71h1.7a.63.63 0 01.71.71v17.66q0 1 .85.71l49.19-19.08h27.83c.47 0 .71.19.71.57zm134.98 79.01a.63.63 0 01-.71.71H199.71a.62.62 0 01-.71-.71v-80.7c0-.38.23-.57.71-.57h102.48c.47 0 .71.19.71.57zm-3-3v-74.59a.63.63 0 00-.71-.71h-96.5a.63.63 0 00-.71.71v74.63c0 .38.23.57.71.57h96.54q.7-.01.71-.58zm115.79-76.01a.63.63 0 01-.71.71h-27.7l-49.75 19.4a.65.65 0 00-.42.71v58.2a.63.63 0 01-.71.71h-1.7a.62.62 0 01-.71-.71v-80.57a.63.63 0 01.71-.71h1.7a.63.63 0 01.71.71v17.66q0 1 .85.71l49.19-19.08H415c.47 0 .71.19.71.57z"/><path d="M458.09 183.65a5.54 5.54 0 01-1.63 4 5.36 5.36 0 01-4 1.7 5.8 5.8 0 01-5.65-5.65 5.36 5.36 0 011.7-4 5.55 5.55 0 014-1.63 5.55 5.55 0 015.65 5.65z" fill="#ff1d25"/><rect height="81.98" rx=".71" width="3.11" x="450.88" y="194.53"/><path d="M755 110.08a17.72 17.72 0 01-5.2 12.65 17.1 17.1 0 01-12.88 5.42 18.53 18.53 0 01-18.08-18.07 17.12 17.12 0 015.42-12.88 17.73 17.73 0 0112.68-5.2A17.75 17.75 0 01755 110.08zm-13.1 294.66a2 2 0 01-2.26 2.26h-5.42a2 2 0 01-2.26-2.26v-257.6a2 2 0 012.26-2.26h5.42a2 2 0 012.26 2.26zm373.76-252.63a2 2 0 01-2.26 2.26h-88.58l-159.08 62a2.09 2.09 0 00-1.36 2.26v186.1a2 2 0 01-2.26 2.27h-5.42a2 2 0 01-2.26-2.26v-257.6a2 2 0 012.26-2.26h5.42a2 2 0 012.26 2.26v56.49q0 3.17 2.71 2.26l157.28-61h89c1.5 0 2.26.61 2.26 1.81zm431.61 252.62A2 2 0 011545 407h-327.65a2 2 0 01-2.26-2.27v-258c0-1.2.74-1.81 2.26-1.81H1545c1.51 0 2.26.61 2.26 1.81zm-9.49-9.48V156.64a2 2 0 00-2.26-2.27h-308.68a2 2 0 00-2.26 2.27v238.61c0 1.21.75 1.81 2.26 1.81h308.67q2.27 0 2.27-1.81zm370.13-243.14a2 2 0 01-2.26 2.26h-88.58L1658 216.4a2.09 2.09 0 00-1.36 2.26v186.07a2 2 0 01-2.26 2.27H1649a2 2 0 01-2.26-2.26v-257.6a2 2 0 012.26-2.26h5.42a2 2 0 012.26 2.26v56.49q0 3.17 2.71 2.26l157.27-61h89c1.51 0 2.26.61 2.26 1.81z"/><path d="M2043.5 110.08a17.72 17.72 0 01-5.2 12.65 17.12 17.12 0 01-12.88 5.42 18.53 18.53 0 01-18.08-18.07 17.14 17.14 0 015.42-12.88 17.75 17.75 0 0112.66-5.2 17.75 17.75 0 0118.08 18.08z" fill="#ff1d25"/><path d="M2030.39 404.74a2 2 0 01-2.26 2.26h-5.42a2 2 0 01-2.26-2.26v-257.6a2 2 0 012.26-2.26h5.42a2 2 0 012.26 2.26z"/></svg>