<svg xmlns="http://www.w3.org/2000/svg" xmlns:xlink="http://www.w3.org/1999/xlink" viewBox="0 0 159.9 23.8"><defs><path id="a" d="M0 .1h159.9v23.7H0z"/></defs><clipPath id="b"><use xlink:href="#a" overflow="visible"/></clipPath><path d="M4.9 10.9C7.5 9 10 6.7 12.3 4.4c.5-.5.5-1.1 0-1.5C12 2.7 9.5.4 9.2.1c-.6-.3-1.3.3-.9.9.5.8 1.1 1.8 1.5 2.5-.3.5-5.2 5.9-5.7 6.6-.6.6.1 1.5.8.8zm11.6-3c.6-.8 0-1.5-.9-.9-.6.3-9.2 8.2-10.8 9.9-1.5-1.4-3.2-2.8-3.7-3.1-.3-.2-.6-.2-.9 0-.2.3-.2.6 0 .8 1.2 1.7 2.5 3.2 3.9 4.6.3.5.9.6 1.4.2l.2-.2c4-3.1 7.7-7 10.8-11.3zm4.1 4.3c-3.2 4.3-7.1 8.2-11.4 11.2-.9.6-1.4-.2-.9-.9 3.4-4.2 7.2-8 11.6-11.2.6-.4 1.2.3.7.9z" clip-path="url(#b)" fill="#ff6200"/><defs><path id="c" d="M0 .1h159.9v23.7H0z"/></defs><clipPath id="d"><use xlink:href="#c" overflow="visible"/></clipPath><path d="M100.6 5.5h2.8v12.9h-2.8V5.5zm-8.7 6.3c1.4 0 2.2-.8 2.2-1.8 0-1.2-.8-1.8-2.2-1.8h-2.8v3.7h2.8zm-5.7-6.3h5.9c1.4-.2 2.8.5 3.7 1.4.8.7 1.2 1.8 1.2 2.9.2 1.8-1.1 3.5-2.8 4l3.1 4.6h-3.2l-2.8-4.2h-2.2v4.2h-2.9V5.5zm-8 7.5l-1.7-4.2-1.7 4.2h3.4zm-2.9-7.5h2.6l5.5 13.1h-2.9l-1.2-2.9h-5.4l-1.2 2.9h-2.9l5.5-13.1zM55 12.1c0-3.7 2.9-6.6 6.5-6.8h.2c1.8-.2 3.7.6 5.1 1.8L65 9.3c-.9-.9-2.2-1.4-3.4-1.4-2.2.2-3.9 1.8-3.7 4-.2 2.2 1.5 4 3.5 4.2h.3c.9 0 1.8-.3 2.6-.8v-1.8h-2.6V11h5.5v5.7c-1.5 1.4-3.4 2-5.5 2-3.5.2-6.6-2.6-6.8-6.2.1-.1.1-.3.1-.4zm-6.6.9l-1.7-4.2L45 13h3.4zm-3-7.5H48l5.5 13.1h-2.9l-1.2-2.9H44l-1.2 2.9h-2.9l5.5-13.1zm-18.3 0h2.8v5.7l5.2-5.7h3.4L33.3 11l5.4 7.5h-3.4l-4-5.5-1.5 1.5v4H27v-13h.1z" clip-path="url(#d)" fill="#233241"/><defs><path id="e" d="M0 .1h159.9v23.7H0z"/></defs><clipPath id="f"><use xlink:href="#e" overflow="visible"/></clipPath><path d="M157.2 6.9v2.5h2.3v1.2h-2.3v4.8c0 1.1.3 1.7 1.2 1.7.3 0 .6 0 .9-.2l.2 1.2c-.5.2-.9.2-1.4.2-.6 0-1.2-.2-1.7-.6-.5-.6-.8-1.5-.6-2.3v-4.8h-1.4V9.3h1.4V7.2l1.4-.3zm-8.3 5.2V9.3h1.4V11c.3-1.1 1.2-1.8 2.5-2h.5v1.5h-.6c-1.1 0-2 .9-2.2 2v5.6H149v-6zm-8.9 1.7c0 2 1.1 3.4 2.6 3.4s2.6-1.4 2.6-3.4c0-1.5-.8-3.4-2.6-3.4s-2.6 1.7-2.6 3.4zm6.9-.2c.2 1.2-.3 2.5-1.1 3.4-.8.9-2 1.4-3.2 1.4s-2.3-.5-3.1-1.4c-.8-.9-1.2-2-1.1-3.2-.2-1.2.3-2.5 1.1-3.4.8-.9 2-1.4 3.2-1.4 2.5.2 4.2 2 4.2 4.6zm-16.8 1v.6c.3 1.1 1.2 1.8 2.5 1.8 1.7 0 2.6-1.4 2.6-3.4.2-1.7-.8-3.2-2.5-3.2-1.2 0-2.2.8-2.5 2 0 .2-.2.5-.2.6v1.6zm-1.5-2.4c0-1.1 0-2-.2-2.9h1.4l.2 1.5c.6-1.1 1.8-1.7 3.1-1.7 2.2 0 3.7 1.8 3.7 4.5 0 3.2-2 4.8-4 4.8-1.1 0-2.2-.5-2.8-1.4v4.8h-1.5v-9.5h.1zm-3.5.7c0-.9-.5-2.6-2.2-2.6-1.4.2-2.5 1.2-2.5 2.6h4.7zm-4.7 1.2c-.2.8.2 1.7.8 2.3.6.6 1.4.9 2.3.8.8 0 1.7-.2 2.5-.5l.3 1.1c-.9.5-2 .6-2.9.6-1.2 0-2.3-.3-3.2-1.2-.8-.9-1.2-2-1.1-3.2 0-2.6 1.5-4.8 4.2-4.8 2.9 0 3.7 2.5 3.7 4.2v.8h-6.6zm-9.2-2.5h1.7c1.7 0 2.8-.9 2.8-2.3 0-1.5-1.1-2.3-2.8-2.3-.5 0-1.1 0-1.5.2v4.5h-.2zm-1.5-5.5c1.1-.2 2-.3 3.1-.3 1.2-.2 2.5.2 3.5.9.6.6 1.1 1.4.9 2.3 0 1.4-.9 2.8-2.3 3.1 1.1.5 1.7 1.4 1.8 2.6.2 1.1.6 2.3.9 3.4H116c-.3-.9-.6-2-.8-2.9-.3-1.7-.9-2.3-2.5-2.3h-1.5v5.2h-1.7v-12h.2z" clip-path="url(#f)" fill="#233241"/></svg>