<svg xmlns="http://www.w3.org/2000/svg" xmlns:xlink="http://www.w3.org/1999/xlink" viewBox="0 0 277 60.3"><defs><path id="a" d="M36.9 12.5h203.3v34.8H36.9z"/></defs><clipPath id="b"><use xlink:href="#a" overflow="visible"/></clipPath><path d="M43.9 28.5c3.9-2.9 7.6-6.1 11-9.6.3-.3.5-.7.5-1.1 0-.4-.2-.8-.5-1.1l-.1-.1c-.4-.3-4.2-3.6-4.6-3.9-.9-.6-1.9.2-1.3 1.3.6 1 1.6 2.7 2.3 3.7-.5.5-7.7 8.6-8.5 9.6-.8 1 0 2.2 1.2 1.2zm17-4.3c.8-1.1.1-2.3-1.3-1.3-.8.6-13.6 11.9-16 14.4-2.3-2-4.8-4.1-5.4-4.6-.2-.2-.4-.2-.7-.2-.2 0-.5.1-.6.3-.1.2-.2.4-.2.6 0 .2.1.4.2.6 1.7 2.4 3.6 4.7 5.6 6.8.2.3.6.5 1 .6.4.1.8 0 1.1-.3l.4-.1c6-5 11.3-10.6 15.9-16.8zm6.1 6.3c-4.7 6.4-10.4 12-16.9 16.5-1.3.9-2.1-.3-1.3-1.3 4.9-6.2 10.6-11.7 16.9-16.5 1.1-.8 2 .3 1.3 1.3z" clip-path="url(#b)" fill="#ff6200"/><path d="M184.5 20.6h4.1v19h-4.1v-19zm-12.6 9.3c2 0 3.2-1.1 3.2-2.7 0-1.8-1.2-2.7-3.3-2.7h-4.1v5.4h4.2zm-8.4-9.4h8.6c1-.1 2 .1 3 .4.9.3 1.8.9 2.6 1.5.5.6 1 1.3 1.2 2 .3.7.4 1.5.4 2.3.1 1.3-.3 2.6-1 3.7s-1.8 1.9-3 2.3l4.6 6.8H175l-4-6.1h-3.3v6.1h-4.1l-.1-19zm-11.8 11.1l-2.5-6.2-2.5 6.2h5zm-4.4-11.2h3.8l8.1 19.2h-4.4l-1.7-4.3h-8l-1.7 4.3h-4.2l8.1-19.2zm-29.8 9.8c0-1.3.2-2.6.7-3.7.5-1.2 1.2-2.3 2.1-3.2.9-.9 2-1.6 3.1-2.2 1.2-.5 2.4-.8 3.7-.8h.3c1.3-.1 2.7.1 4 .6 1.3.5 2.4 1.1 3.5 2.1l-2.6 3.2c-1.3-1.3-3.1-2-4.9-2-1.5.1-2.9.7-3.9 1.9-1 1.1-1.6 2.6-1.5 4.1-.1 1.5.4 3 1.4 4.1 1 1.1 2.4 1.8 3.9 1.9h.4c1.4 0 2.8-.4 3.9-1.1v-2.7h-4.2v-3.6h8.2v8.3c-2.2 2-5.1 3-8.1 3-1.2.1-2.5-.1-3.7-.6-1.2-.4-2.3-1.1-3.2-1.9-.9-.8-1.7-1.9-2.2-3-.5-1.1-.8-2.4-.9-3.6v-.8zm-9.8 1.4l-2.5-6.2-2.5 6.2h5zm-4.3-11.2h3.8l8.1 19.2h-4.4l-1.7-4.3h-8l-1.7 4.3h-4.2l8.1-19.2zm-27 .1h4.2v8.4l7.6-8.4h5l-7.7 8.1 8 11h-5l-5.8-8.1-2.2 2.3v5.8h-4.1V20.5zm149.3 9.7c0 3.9 2.1 7.3 5.8 7.3s5.8-3.4 5.8-7.5c0-3.6-1.9-7.4-5.8-7.4s-5.8 3.7-5.8 7.6zm14.1-.3c0 6.2-3.8 9.5-8.4 9.5-4.6 0-8.1-3.7-8.1-9.2 0-5.7 3.5-9.5 8.4-9.5s8.1 3.9 8.1 9.2zm-19.3.8h-7v6.5h7.8v1.9h-10.2v-18h9.8V23h-7.4v5.7h7v2zm-22.9 5.6c1.3.8 2.7 1.2 4.2 1.2 2.4 0 3.8-1.2 3.8-3.1s-1-2.7-3.4-3.6c-2.9-1-4.8-2.6-4.8-5.1 0-2.8 2.3-4.9 5.8-4.9 1.4 0 2.8.3 4 .9l-.6 1.9c-1-.6-2.2-.9-3.4-.9-2.5 0-3.4 1.5-3.4 2.7 0 1.7 1.1 2.5 3.6 3.5 3.1 1.2 4.6 2.7 4.6 5.3 0 2.6-2 5.2-6.3 5.2-1.6 0-3.2-.4-4.6-1.2l.5-1.9z" clip-path="url(#b)" fill="#233241"/></svg>