<svg xmlns="http://www.w3.org/2000/svg" viewBox="0 0 103.75 17.89"><g data-name="レイヤー 2"><g data-name="レイヤー 1"><path d="M82.06 13.29l.6-.7a3.16 3.16 0 002.23 1c1.06 0 1.7-.53 1.7-1.33s-.58-1.08-1.34-1.43l-1.17-.5a2.28 2.28 0 01-1.64-2.07A2.29 2.29 0 0185 6.13a3.28 3.28 0 012.38 1l-.54.65A2.59 2.59 0 0085 7c-.91 0-1.5.46-1.5 1.18s.7 1.08 1.33 1.35L86 10a2.25 2.25 0 011.66 2.16c0 1.27-1.05 2.29-2.74 2.29a3.86 3.86 0 01-2.86-1.16zM90 6.28h4.66v.86h-3.61v2.53h3.06v.87h-3.06v2.93h3.76v.87H90zm6.86 4c0-2.58 1.42-4.15 3.45-4.15s3.44 1.57 3.44 4.15-1.42 4.21-3.44 4.21-3.45-1.62-3.45-4.21zm5.84 0c0-2-1-3.26-2.39-3.26s-2.4 1.24-2.4 3.26.94 3.32 2.4 3.32 2.39-1.3 2.39-3.32z" fill="#6f7579"/><path d="M14.94 8.44a50.77 50.77 0 00-8.61 8.61c-.4.51 0 1.14.68.68a36.41 36.41 0 008.6-8.62c.39-.49-.11-1.06-.67-.67zm-2.52-2.52c.41-.59 0-1.17-.68-.67-.41.3-6.93 6.23-8.13 7.51-1.21-1-2.49-2.07-2.8-2.3a.46.46 0 00-.67 0 .46.46 0 000 .67 32.31 32.31 0 002.91 3.48.79.79 0 001.21.06 49.87 49.87 0 008.16-8.75zM3.64 8.31a47.32 47.32 0 005.61-5 .85.85 0 00.22-.61.85.85 0 00-.3-.57C9 1.94 7 .26 6.76.1c-.45-.31-1 .14-.67.68s.85 1.36 1.19 1.87C7 2.9 3.36 7.12 3 7.64s0 1.13.64.67z" fill="#ff8700"/><path d="M19.87 5.27h2.05v4.07l3.78-4.07h2.47l-3.79 3.96 3.96 5.36h-2.46L23 10.63l-1.08 1.12v2.84h-2.05V5.27zm15.45 5.42l-1.23-3-1.24 3zM33.17 5.2h1.89l4 9.38h-2.15l-.85-2.08h-3.94l-.85 2.08h-2.09zm7.72 4.8a4.8 4.8 0 014.89-4.82 5.08 5.08 0 013.65 1.28L48.14 8a3.43 3.43 0 00-2.44-1A2.79 2.79 0 0043 9.91a2.79 2.79 0 002.82 3 3.3 3.3 0 001.93-.56V11h-2.03V9.22h4v4a6 6 0 01-4 1.47A4.65 4.65 0 0140.89 10zm16.86.69l-1.24-3-1.24 3zM55.59 5.2h1.89l4 9.38h-2.15l-.85-2.08h-3.94l-.85 2.08h-2.08zm11.85 4.59c1 0 1.57-.53 1.57-1.31 0-.88-.61-1.33-1.61-1.33h-2v2.64zm-4.12-4.52h4.26a3.63 3.63 0 012.7 1 2.89 2.89 0 01.8 2.12 2.88 2.88 0 01-2 2.88l2.27 3.34H69l-2-3h-1.63v3h-2.05zm10.88 0h2.05v9.31H74.2z" fill="#666"/></g></g></svg>