<svg xmlns="http://www.w3.org/2000/svg" viewBox="0 0 104.6 24"><path d="M20.8 12.4c-3.2 4.4-7.1 8.2-11.6 11.3-.9.6-1.4-.2-.9-.9 3.4-4.3 7.2-8 11.6-11.3.7-.5 1.3.2.9.9zm-4.2-4.3c.6-.8.1-1.6-.9-.9-.6.3-9.3 8.1-10.9 9.8-1.6-1.3-3.3-2.8-3.7-3.1-.3-.2-.6-.2-.9.1-.2.2-.2.6 0 .8C1.4 16.4 2.7 18 4 19.5c.4.5 1 .6 1.5.2l.1-.1c4.1-3.4 7.8-7.3 11-11.5zM4.9 11c2.7-2 5.2-4.2 7.5-6.6.4-.4.4-1.1 0-1.6l-.1-.1C12 2.5 9.5.2 9.2 0c-.5-.3-1.2.2-.9 1 .4.7 1.1 1.8 1.6 2.6-.4.3-5.3 5.8-5.8 6.4-.5.8 0 1.7.8 1z" fill="#ff6200"/><path d="M27.2 5.6H30v5.8l5.3-5.8h3.4l-5.3 5.5 5.5 7.5h-3.4l-4-5.5-1.5 1.6v4h-2.8V5.6zm18.5-.2h2.6l5.5 13.2h-3l-1.2-2.9h-5.5L43 18.6h-2.9l5.6-13.2zm3 7.8L47 8.9l-1.7 4.3h3.4zm6.6-1c-.1-3.7 2.9-6.7 6.6-6.7h.2c1.9-.1 3.7.5 5.2 1.7l-1.8 2.2c-.9-.9-2.1-1.4-3.3-1.4-2.1.1-3.8 1.9-3.7 4-.1 2.1 1.5 4 3.6 4.1h.3c.9 0 1.9-.2 2.7-.8v-1.8h-2.8V11h5.6v5.7c-1.5 1.3-3.5 2.1-5.5 2.1-3.6.1-6.6-2.6-6.8-6.2-.3-.1-.3-.3-.3-.4zm20.4-6.8h2.6l5.5 13.1h-3l-1.2-2.9h-5.5l-1.1 3h-2.8l5.5-13.2zm3 7.8L77 8.9l-1.7 4.3h3.4zm8.1-7.6h5.9c1.4-.1 2.8.4 3.8 1.3.8.8 1.1 1.8 1.1 3 .1 1.8-1 3.5-2.8 4l3.1 4.7h-3.3l-2.8-4.2h-2.2v4.2h-2.8v-13zm5.7 6.4c1.3 0 2.2-.7 2.2-1.8 0-1.2-.9-1.8-2.2-1.8h-2.8V12h2.8zm8.7-6.4h2.8v13.1h-2.8V5.6z" fill="#233241"/></svg>5 26.31l-5.94-14.5-5.94 14.5zm27.97-25.99h20.43c5.68 0 10.09 1.59 13 4.53a14 14 0 013.83 10.22V46c0 7.21-3.9 11.75-9.58 13.85l10.92 16H357l-9.58-14.31h-7.73v14.3h-9.83zm19.79 21.71c4.79 0 7.54-2.56 7.54-6.32v-.13c0-4.22-2.94-6.39-7.73-6.39h-9.77v12.84zm30.01-21.71h9.84v44.7h-9.84z" fill="#666"/></g></g></svg>