<svg xmlns="http://www.w3.org/2000/svg" viewBox="0 0 389.49 106.22"><g data-name="レイヤー 2"><g data-name="レイヤー 1"><path d="M88.49 50.16c-15.46 11-37.41 33.6-51.12 51.12-2.37 3 0 6.71 4 4C61.28 91.5 80.59 71.33 92.46 54.14c2.04-2.96-.67-6.32-3.97-3.98zm-15-14.99c2.43-3.47.1-6.93-4-4-2.46 1.79-41.18 37-48.27 44.59C14 69.79 6.4 63.51 4.6 62.13a2.82 2.82 0 00-4 4 197.31 197.31 0 0017.29 20.65c2.15 2.15 4.5 2.63 7.2.35 18.36-15.46 37.02-35.71 48.4-51.96zM21.36 49.35c8.53-6.09 23.5-19.28 33.32-29.8a4.8 4.8 0 00-.46-7c-1.17-1-13-11-14.3-11.91-2.68-1.86-5.83.84-4 4C37.65 7.46 41 12.73 43 15.79c-1.6 1.48-23.28 26.49-25.66 29.59s.14 6.74 4.02 3.97z" fill="#fc8c06"/><path d="M123.66 31.14h9.83v19.54l18.14-19.54h11.88l-18.2 19 19 25.74h-11.79l-13.85-19-5.18 5.36v13.6h-9.83zm63.86-.32h9.06l19.16 45h-10.28l-4.09-10h-18.9l-4.09 10h-10zm10.34 26.31l-5.94-14.5-5.92 14.5zM221 53.62v-.13a22.94 22.94 0 0123.43-23.12c8.05 0 12.9 2.17 17.56 6.13l-6.21 7.5c-3.45-2.87-6.52-4.53-11.69-4.53-7.15 0-12.83 6.32-12.83 13.92v.13c0 8.17 5.62 14.17 13.53 14.17a15.67 15.67 0 009.26-2.69v-6.4h-9.89v-8.5h19.41v19.42a29 29 0 01-19.1 7.08c-13.92 0-23.47-9.77-23.47-22.98zm70.53-22.8h9.07l19.16 45h-10.28l-4.09-10h-18.9l-4.09 10h-10zm10.35 26.31l-5.94-14.5-5.94 14.5zm27.97-25.99h20.43c5.68 0 10.09 1.59 13 4.53a14 14 0 013.83 10.22V46c0 7.21-3.9 11.75-9.58 13.85l10.92 16H357l-9.58-14.31h-7.73v14.3h-9.83zm19.79 21.71c4.79 0 7.54-2.56 7.54-6.32v-.13c0-4.22-2.94-6.39-7.73-6.39h-9.77v12.84zm30.01-21.71h9.84v44.7h-9.84z" fill="#666"/></g></g></svg>