<svg xmlns="http://www.w3.org/2000/svg" viewBox="0 0 277 60.3"><path d="M94.4 33.2c-4.5 6.2-10 11.6-16.3 15.9-1.3.9-2-.3-1.2-1.3 4.8-6 10.2-11.3 16.3-15.9 1-.7 1.9.3 1.2 1.3zm-5.9-6.1c.8-1.1.1-2.2-1.2-1.3-.8.5-13.1 11.5-15.4 13.9-2.2-1.9-4.6-3.9-5.2-4.4-.4-.3-.9-.3-1.3.1-.3.3-.3.8 0 1.1 1.7 2.3 3.5 4.5 5.4 6.6.5.7 1.4.8 2.1.3l.2-.2c5.8-4.7 11-10.1 15.4-16.1zm-16.4 4.2c3.8-2.8 7.3-5.9 10.6-9.3.6-.6.6-1.6 0-2.2l-.1-.1c-.4-.3-4-3.5-4.4-3.8-.8-.6-1.8.2-1.3 1.2.6 1 1.6 2.6 2.2 3.6-.5.5-7.4 8.3-8.2 9.2-.7 1.1 0 2.3 1.2 1.4z" fill="#ff6200"/><path d="M103.5 23.6h4v8.1l7.4-8.1h4.8l-7.4 7.8L120 42h-4.8l-5.6-7.8-2.2 2.2V42h-4V23.6zm26-.2h3.7L141 42h-4.2l-1.7-4.1h-7.7l-1.7 4.1h-4.1l7.9-18.6zm4.2 10.9l-2.4-6-2.4 6h4.8zm9.4-1.4c-.1-5.2 4.1-9.5 9.3-9.5h.3c2.6-.1 5.2.8 7.2 2.5l-2.5 3.1c-1.3-1.3-3-2-4.7-2-3 .2-5.4 2.7-5.2 5.7-.2 3 2.1 5.6 5.1 5.8h.4c1.3 0 2.7-.3 3.8-1.1v-2.6h-4v-3.5h7.9v8c-2.1 1.9-4.9 2.9-7.8 2.9-5.1.2-9.3-3.7-9.6-8.7-.2-.2-.2-.4-.2-.6zm28.7-9.5h3.7l7.8 18.5h-4.2l-1.7-4.1h-7.7l-1.7 4.1h-4l7.8-18.5zm4.2 10.9l-2.4-6-2.4 6h4.8zm11.4-10.7h8.3c2-.1 3.9.6 5.3 1.9 1.1 1.1 1.6 2.6 1.6 4.2.1 2.6-1.4 4.9-3.9 5.7l4.4 6.6h-4.7l-3.9-5.9h-3.1V42h-4V23.6zm8.1 9c1.9 0 3.1-1 3.1-2.6 0-1.7-1.2-2.6-3.1-2.6h-4v5.2h4zm12.2-9h4V42h-4V23.6z" fill="#233241"/></svg>