<svg xmlns="http://www.w3.org/2000/svg" xmlns:xlink="http://www.w3.org/1999/xlink" viewBox="0 0 140.1 24"><defs><path id="a" d="M0 0h140.1v24H0z"/></defs><clipPath id="b"><use xlink:href="#a" overflow="visible"/></clipPath><path d="M4.8 11.1c2.7-2 5.2-4.2 7.6-6.6.2-.2.3-.5.3-.8 0-.3-.1-.6-.3-.8l-.1-.1C12 2.6 9.4.3 9.1.1c-.5-.4-1.2.2-.8.9.4.7 1.1 1.9 1.6 2.6-.4.3-5.4 5.9-5.9 6.6-.5.7 0 1.5.8.9zm11.8-3c.6-.8 0-1.6-.9-.9-.6.4-9.4 8.2-11 9.9C3.1 15.7 1.4 14.3 1 14c-.1-.1-.3-.2-.5-.2s-.3.1-.4.2c-.1.1-.1.3-.1.4 0 .1.1.3.1.4C1.3 16.5 2.6 18 4 19.5c.2.2.4.4.7.4.3 0 .6 0 .8-.2l.1-.1c4.1-3.4 7.8-7.3 11-11.5zm4.2 4.3c-3.2 4.4-7.1 8.3-11.6 11.4-.9.6-1.4-.2-.9-.9 3.4-4.3 7.3-8.1 11.6-11.4.8-.5 1.4.2.9.9z" clip-path="url(#b)" fill="#ff6200"/><path d="M101.8 5.6h2.9v13.1h-2.9V5.6zM93.1 12c1.4 0 2.2-.8 2.2-1.9 0-1.2-.8-1.9-2.2-1.9h-2.8V12h2.8zm-5.8-6.5h5.9c.7 0 1.4.1 2 .3.7.2 1.3.6 1.8 1.1.4.4.7.9.9 1.4.2.5.3 1.1.3 1.6.1.9-.2 1.8-.7 2.5-.5.7-1.2 1.3-2.1 1.6l3.2 4.7h-3.3l-2.8-4.2h-2.2v4.2h-2.9l-.1-13.2zm-8.1 7.7l-1.7-4.3-1.7 4.3h3.4zm-3-7.7h2.6l5.6 13.3h-3l-1.2-2.9h-5.5l-1.2 2.9h-2.9l5.6-13.3zm-20.6 6.7c0-.9.2-1.8.5-2.6s.8-1.6 1.4-2.2c.6-.6 1.3-1.1 2.2-1.5.8-.3 1.7-.5 2.6-.5h.2c.9 0 1.9.1 2.7.4.9.3 1.7.8 2.4 1.4l-1.8 2.2c-1-.9-2.2-1.4-3.5-1.4-1 .1-2 .5-2.7 1.3-.7.8-1.1 1.8-1 2.8-.1 1 .3 2.1 1 2.8.7.8 1.7 1.3 2.7 1.3h.3c1 0 1.9-.2 2.7-.8v-1.9h-2.9V11H68v5.7c-1.5 1.4-3.5 2.1-5.6 2.1-.9 0-1.7-.1-2.5-.4-.8-.3-1.6-.7-2.2-1.3-.6-.6-1.2-1.3-1.5-2.1-.4-.8-.6-1.6-.6-2.5v-.3zm-6.7 1l-1.7-4.3-1.7 4.3h3.4zm-3-7.7h2.6l5.6 13.3h-3l-1.2-2.9h-5.5l-1.2 2.9h-2.9l5.6-13.3zm-18.6 0h2.9v5.8l5.3-5.8H39l-5.3 5.6 5.5 7.6h-3.4l-4-5.6-1.5 1.6v4h-2.9V5.5zm102.9 6.7c0 2.7 1.4 5 4 5s4-2.3 4-5.2c0-2.5-1.3-5.1-4-5.1-2.7.1-4 2.6-4 5.3zm9.7-.2c0 4.3-2.6 6.6-5.8 6.6-3.2 0-5.6-2.5-5.6-6.3 0-3.9 2.4-6.5 5.8-6.5s5.6 2.5 5.6 6.2zm-13.3.6h-4.8V17h5.4v1.3h-7V5.9h6.7v1.3h-5.1v3.9h4.8v1.5zm-15.8 3.8c.9.5 1.9.8 2.9.8 1.6 0 2.6-.9 2.6-2.1s-.7-1.8-2.4-2.5c-2-.7-3.3-1.8-3.3-3.5 0-1.9 1.6-3.4 4-3.4 1 0 1.9.2 2.8.6l-.4 1.4c-.7-.4-1.5-.6-2.3-.6-1.7 0-2.4 1-2.4 1.9 0 1.2.8 1.7 2.5 2.4 2.1.8 3.2 1.9 3.2 3.7s-1.4 3.6-4.4 3.6c-1.1 0-2.2-.3-3.2-.8l.4-1.5z" clip-path="url(#b)" fill="#233241"/></svg>