<svg xmlns="http://www.w3.org/2000/svg" viewBox="0 0 277 60.3"><path d="M52.4 30.7C47.8 37.1 42.2 42.6 35.7 47c-1.3.9-2-.3-1.3-1.3 4.9-6.1 10.5-11.6 16.7-16.3 1.1-.7 2 .4 1.3 1.3zm-6-6.2c.8-1.1.1-2.3-1.3-1.3-.8.5-13.4 11.8-15.8 14.2-2.3-2-4.7-4-5.3-4.5-.4-.3-1-.3-1.3.1-.3.3-.3.8 0 1.2 1.7 2.4 3.6 4.6 5.6 6.8.5.7 1.4.8 2.1.3l.2-.2c5.9-4.9 11.2-10.5 15.8-16.6zm-16.9 4.3c3.9-2.9 7.5-6.1 10.9-9.5.6-.6.6-1.6 0-2.2l-.1-.1c-.4-.3-4.1-3.6-4.6-3.9-.9-.6-1.9.2-1.3 1.3.6 1 1.6 2.7 2.2 3.7-.5.5-7.6 8.5-8.4 9.5-.6.9.1 2.1 1.3 1.2z" fill="#ff6200"/><path d="M61.7 20.9h4.1v8.3l7.6-8.3h5l-7.6 8 7.9 10.9h-4.9l-5.7-8-2.3 2.2v5.7h-4.1V20.9zm26.7-.2h3.8l8 19h-4.3l-1.7-4.2h-7.9l-1.7 4.2h-4.2l8-19zm4.3 11.2l-2.5-6.1-2.5 6.1h5zm9.6-1.5c-.1-5.3 4.2-9.7 9.5-9.8h.3c2.7-.1 5.3.8 7.3 2.6l-2.6 3.2c-1.3-1.3-3-2-4.9-2-3.1.2-5.5 2.8-5.4 5.9-.2 3.1 2.2 5.8 5.2 6h.4c1.4 0 2.7-.4 3.9-1.1v-2.7h-4v-3.6h8.1v8.2c-2.2 1.9-5 3-8 3-5.2.2-9.6-3.8-9.8-8.9v-.8zm29.5-9.7h3.8l8 19h-4.3l-1.7-4.2h-7.9l-1.7 4.2h-4.2l8-19zm4.3 11.2l-2.5-6.1-2.5 6.1h5zm11.7-11h8.5c2-.1 4 .6 5.4 1.9 1.1 1.2 1.7 2.7 1.6 4.3.2 2.6-1.5 5.1-4 5.9l4.6 6.7h-4.8l-4-6h-3.2v6.1h-4.1V20.9zm8.3 9.2c2 0 3.1-1.1 3.1-2.7 0-1.8-1.2-2.7-3.2-2.7h-4.1v5.4h4.2zm12.5-9.1h4.1v18.8h-4.1V21zm13.2.7c1.5-.3 3-.4 4.4-.4 1.8-.2 3.7.3 5.2 1.4.9.9 1.5 2.1 1.4 3.4 0 2.1-1.4 4-3.4 4.5 1.5.7 2.5 2.1 2.6 3.8.3 1.7.8 3.3 1.4 4.9H191c-.5-1.4-.9-2.8-1.2-4.3-.5-2.5-1.4-3.4-3.6-3.5H184v7.7h-2.4V21.7zm2.3 8.1h2.4c2.5 0 4-1.3 4-3.4 0-2.3-1.7-3.3-4.1-3.3-.8 0-1.5 0-2.3.2v6.5zm13.3 3.5c-.2 2.3 1.5 4.3 3.7 4.5h.8c1.2 0 2.4-.2 3.5-.7l.4 1.6c-1.4.6-2.8.9-4.3.8-3.3.2-6.1-2.3-6.3-5.6v-.8c0-3.9 2.3-6.9 6-6.9 4.2 0 5.3 3.7 5.3 6 0 .4 0 .7-.1 1.1h-9zm6.8-1.7c0-1.4-.6-3.8-3.2-3.8-2 .1-3.6 1.8-3.6 3.8h6.8zm5.2-1c0-1.6 0-3-.1-4.2h2.1l.1 2.2c.9-1.6 2.7-2.6 4.5-2.5 3.1 0 5.4 2.6 5.4 6.5 0 4.6-2.9 6.9-5.8 6.9-1.6.1-3.1-.7-3.9-2v7h-2.3V30.6zm2.3 3.5c0 .3 0 .6.1.9.4 1.6 1.8 2.7 3.5 2.7 2.5 0 3.9-2 3.9-5 0-2.6-1.3-4.8-3.8-4.8-1.7 0-3.1 1.2-3.5 2.9-.1.3-.1.6-.1.9l-.1 2.4zm24.4-1.3c.3 3.4-2.2 6.5-5.7 6.8h-.7c-3.4 0-6.1-2.7-6.2-6V33c-.3-3.4 2.3-6.5 5.7-6.8h.7c3.7 0 6.2 2.7 6.2 6.6zm-10.2.1c0 2.9 1.6 4.9 3.9 4.9s3.9-2.1 3.9-5c0-2.2-1.1-4.9-3.9-4.9s-3.9 2.6-3.9 5zm13.1-2.4c0-1.5 0-2.9-.1-4h2l.1 2.5h.1c.4-1.6 1.9-2.8 3.6-2.9.2 0 .4 0 .6.1v2.2h-.8c-1.6.1-3 1.3-3.1 3-.1.4-.1.7-.1 1.1v6.8H239v-8.8zm12.1-7.7v3.7h3.4v1.8h-3.4v6.9c0 1.6.5 2.5 1.8 2.5.5 0 .9 0 1.3-.2l.1 1.8c-.7.2-1.4.3-2.1.3-.9.1-1.9-.3-2.5-1-.7-1-1-2.2-.9-3.4v-7h-2v-1.8h2v-3.1l2.3-.5z" fill="#233241"/></svg>