<svg xmlns="http://www.w3.org/2000/svg" xmlns:xlink="http://www.w3.org/1999/xlink" viewBox="0 0 103.8 17.9"><defs><path id="a" d="M0 1.3h103.8v15.4H0z"/></defs><clipPath id="b"><use xlink:href="#a" overflow="visible"/></clipPath><path d="M3.2 8.3C4.9 7.1 6.5 5.6 8 4.1c.3-.3.3-.7 0-1-.2-.1-1.8-1.6-2-1.8-.4-.2-.9.2-.6.6.3.5.7 1.2 1 1.6-.2.3-3.4 3.8-3.7 4.3-.4.4 0 1 .5.5zm7.5-1.9c.4-.5 0-1-.6-.6-.4.2-6 5.3-7 6.4-1-.9-2.1-1.8-2.4-2-.2-.1-.4-.1-.6 0-.1.2-.1.4 0 .5.8 1.1 1.6 2.1 2.5 3 .2.3.6.4.9.1l.1-.1c2.7-2 5.1-4.5 7.1-7.3zm2.7 2.8C11.3 12 8.8 14.5 6 16.5c-.6.4-.9-.1-.6-.6 2.2-2.7 4.7-5.2 7.5-7.3.4-.3.8.2.5.6z" clip-path="url(#b)" fill="#ff6200"/><path d="M65.3 4.8h1.8v8.4h-1.8V4.8zm-5.6 4.1c.9 0 1.4-.5 1.4-1.2 0-.8-.5-1.2-1.4-1.2h-1.8v2.4h1.8zM56 4.8h3.8c.9-.1 1.8.3 2.4.9.5.5.8 1.2.8 1.9.1 1.2-.7 2.3-1.8 2.6l2 3h-2.1l-1.8-2.7h-1.4v2.7H56V4.8zm-5.2 4.9L49.7 7l-1.1 2.7h2.2zm-1.9-4.9h1.7l3.6 8.5h-1.9l-.8-1.9H48l-.8 1.9h-1.9l3.6-8.5zM35.7 9.1c0-2.4 1.9-4.3 4.2-4.4h.1c1.2-.1 2.4.4 3.3 1.2l-1.2 1.4c-.6-.6-1.4-.9-2.2-.9-1.4.1-2.5 1.2-2.4 2.6-.1 1.4 1 2.6 2.3 2.7h.2c.6 0 1.2-.2 1.7-.5V10H40V8.4h3.6v3.7c-1 .9-2.2 1.3-3.6 1.3-2.3.1-4.3-1.7-4.4-4 .1-.1.1-.2.1-.3zm-4.3.6L30.3 7l-1.1 2.7h2.2zm-1.9-4.9h1.7l3.6 8.5h-1.9l-.8-1.9h-3.5l-.8 1.9h-1.9l3.6-8.5zm-11.9 0h1.8v3.7l3.4-3.7H25l-3.4 3.6 3.5 4.9h-2.2l-2.6-3.6-1 1v2.6h-1.8V4.8zm84.5.9v1.6h1.5v.8h-1.5v3.1c0 .7.2 1.1.8 1.1.2 0 .4 0 .6-.1l.1.8c-.3.1-.6.1-.9.1-.4 0-.8-.1-1.1-.4-.3-.4-.5-1-.4-1.5V8.1h-.9v-.8h.9V5.9l.9-.2zm-5.4 3.4V7.3h.9v1.1c.2-.7.8-1.2 1.6-1.3h.3v1h-.4c-.7 0-1.3.6-1.4 1.3V13h-1V9.1zm-5.8 1.1c0 1.3.7 2.2 1.7 2.2s1.7-.9 1.7-2.2c0-1-.5-2.2-1.7-2.2s-1.7 1.1-1.7 2.2zm4.5-.1c.1.8-.2 1.6-.7 2.2-.5.6-1.3.9-2.1.9s-1.5-.3-2-.9c-.5-.6-.8-1.3-.7-2.1-.1-.8.2-1.6.7-2.2.5-.6 1.3-.9 2.1-.9 1.6.1 2.7 1.3 2.7 3zm-10.9.6v.4c.2.7.8 1.2 1.6 1.2 1.1 0 1.7-.9 1.7-2.2.1-1.1-.5-2.1-1.6-2.1-.8 0-1.4.5-1.6 1.3 0 .1-.1.3-.1.4v1zm-1-1.5c0-.7 0-1.3-.1-1.9h.9l.1 1c.4-.7 1.2-1.1 2-1.1 1.4 0 2.4 1.2 2.4 2.9 0 2.1-1.3 3.1-2.6 3.1-.7 0-1.4-.3-1.8-.9v3.1h-1V9.2zm-2.3.4c0-.6-.3-1.7-1.4-1.7-.9.1-1.6.8-1.6 1.7h3zm-3 .8c-.1.5.1 1.1.5 1.5.4.4.9.6 1.5.5.5 0 1.1-.1 1.6-.3l.2.7c-.6.3-1.3.4-1.9.4-.8 0-1.5-.2-2.1-.8-.5-.6-.8-1.3-.7-2.1 0-1.7 1-3.1 2.7-3.1 1.9 0 2.4 1.6 2.4 2.7v.5h-4.2zm-6-1.6h1.1c1.1 0 1.8-.6 1.8-1.5 0-1-.7-1.5-1.8-1.5-.3 0-.7 0-1 .1v2.9zm-1-3.6c.7-.1 1.3-.2 2-.2.8-.1 1.6.1 2.3.6.4.4.7.9.6 1.5 0 .9-.6 1.8-1.5 2 .7.3 1.1.9 1.2 1.7.1.7.4 1.5.6 2.2h-1.1c-.2-.6-.4-1.3-.5-1.9-.2-1.1-.6-1.5-1.6-1.5h-1V13h-1.1V5.2z" clip-path="url(#b)" fill="#233241"/></svg>