<svg viewBox="0 0 589.37 80" xmlns="http://www.w3.org/2000/svg"><clipPath id="a"><path d="M0 0h80v80H0z"/></clipPath><path d="M133.65 64.21l-17.43-19.92v19.92h-6.88v-44h6.88v18.16l14.11-18.14H139l-16.14 21.16 19.38 22.82zm33.67-23v23h-6.88v-23L145 20.23h8l10.91 15.06 10.91-15.06h7.94z" fill="#373c38"/><g fill-rule="evenodd"><path d="M231.39 42.22a22.46 22.46 0 00-1.72-8.59A21.67 21.67 0 00218 21.95a22.47 22.47 0 00-8.6-1.72 22 22 0 00-8.54 1.72 21.64 21.64 0 00-7 4.68 23.18 23.18 0 00-4.74 7 22.46 22.46 0 00-1.72 8.59 22 22 0 0022 22 22.48 22.48 0 008.6-1.72 21.92 21.92 0 002.24-1.13 8.34 8.34 0 01-3.4-3 5.44 5.44 0 01-.32-.56 5.63 5.63 0 01-.34.72c-1.58 2.8-3.7 3.13-5.63 3.76-.33-1.23-.74-2.63-.74-2.63l-2.4.57a6.85 6.85 0 01-.13-3.08 15.16 15.16 0 1117.14-13.25 9.37 9.37 0 013.86.82c-.54 1.15-1.13 2.49-1.13 2.49l2.21 1.1a8 8 0 01-5.78 4.11 6.75 6.75 0 01-1.11.11 5.55 5.55 0 01.81.73 9 9 0 012.2 4 21.68 21.68 0 004.19-6.48 22 22 0 001.72-8.56z" fill="#fb7b3b"/><path d="M220.07 52.89a15 15 0 004.35-9 10.09 10.09 0 00-3 .57 4.64 4.64 0 00-1.1.55 6.53 6.53 0 00.21-1.08 8 8 0 00-2.27-6.72l-1.7 1.79s-1.11-1-2.06-1.8a8.85 8.85 0 00-2.22 6.51 5.2 5.2 0 00.34 1.61c-.21-.14-.42-.27-.65-.4a8.83 8.83 0 00-7.53-.3l1.28 2.2s-1.52.8-2.66 1.36c1 1.77 2.58 3.16 5.6 4.29a3.9 3.9 0 001.11.22 9.91 9.91 0 00-.71.75 7.7 7.7 0 00-1.78 3.7 14.78 14.78 0 0012.8-4.28zm-7.83-4.48a.41.41 0 01.41.41.42.42 0 010 .07L215 50a1.55 1.55 0 01.38-.52l-1.84-1.94a.52.52 0 01-.26.07.53.53 0 11.53-.53.52.52 0 01-.1.31l1.85 1.95a1.53 1.53 0 01.69-.25l.05-2a.45.45 0 11.22 0q0 1-.05 2a1.53 1.53 0 01.65.17l.85-1.43a.36.36 0 01-.09-.24.36.36 0 11.36.36h-.08l-.85 1.43a1.55 1.55 0 01.36.36l1.49-1.37a.42.42 0 11.15.16l-1.52 1.4a1.53 1.53 0 01.13.36l2-.3a.36.36 0 01.35-.31.36.36 0 11-.32.52l-2 .3v.22l2 .14a.38.38 0 110 .22l-2-.14a1.53 1.53 0 01-.08.28l1.49.75a.3.3 0 11-.1.22l-1.48-.75a1.54 1.54 0 01-.32.39l.86 1.35h.05a.3.3 0 11-.3.3.29.29 0 01.06-.17l-.85-1.34a1.53 1.53 0 01-.34.17l.66 1.86a.28.28 0 11-.21.07l-.66-1.91h-.97v2.17s.5.15.5.27 0 .29-.13.29-.42-.13-.42-.29a1.58 1.58 0 01.05-.27v-2.17s-.13-.09-.28-.17c-.46.5-.81 1-1.27 1.5 0 0 .1.1.1.16a.32.32 0 01-.31.35.33.33 0 01-.33-.34.35.35 0 01.35-.34.36.36 0 01.14 0l1.35-1.47a1.54 1.54 0 01-.27-.27l-1.79.86a.35.35 0 11-.1-.24l1.75-.84a1.53 1.53 0 01-.17-.42l-2.44-.07a.29.29 0 110-.22l2.4.07v-.14a1.53 1.53 0 01.06-.43l-2.41-1.12a.41.41 0 11-.32-.68z" fill="#fb7b3b"/><path d="M220.24 61.36a7.22 7.22 0 002.65.72l.14-2.46s1.46 0 2.73.05a11.38 11.38 0 00-.27-2.44l-.49.52a24 24 0 01-4.76 3.61z" fill="#ffa3cc"/></g><path d="M267.43 26.39h-12.09v37.82h-6.94V26.39h-12.09v-6.16h31.12zm18.38 36.1a22 22 0 01-13.46-20.27 22.46 22.46 0 011.72-8.59 23.18 23.18 0 014.74-7 21.64 21.64 0 017-4.68 22 22 0 018.54-1.72 22.47 22.47 0 018.6 1.72 21.67 21.67 0 0111.68 11.68 22.46 22.46 0 011.72 8.59 22 22 0 01-1.72 8.54 21.65 21.65 0 01-4.68 7 23.21 23.21 0 01-7 4.74 22.48 22.48 0 01-8.6 1.72 22 22 0 01-8.54-1.73zm-2.13-30.94a15 15 0 1010.67-4.45 15 15 0 00-10.68 4.45zm86.26 32.66V40.86l-13.75 20.51-13.81-20.51v23.35h-6.88v-46L356.19 49l20.69-30.82v46zm39.95-9.42h-15.65l-3.73 9.43h-7.59l19.15-46 19.09 46h-7.53zm-2.49-6.16l-5.34-13.4-5.33 13.4zm43.15 6.75a12.74 12.74 0 01-9.9 8.6 13.56 13.56 0 01-2.67.24 14.25 14.25 0 01-5.22-.95 17.4 17.4 0 01-7.29-5.63l5.45-4.27a9.82 9.82 0 004.33 3.44 6.76 6.76 0 004 .36 5.82 5.82 0 004.62-3.68c.59-2-.77-3.79-2-5-2-1.84-5.16-5-5.39-5.22l-5.39-5.1a12.55 12.55 0 01-3.38-5.28 9.41 9.41 0 01-.12-5.57 10 10 0 013.26-4.92 11.47 11.47 0 015.28-2.49 11.71 11.71 0 016.52.47 14.83 14.83 0 016 4.45l-5.39 4.33c-2.25-2.73-4.56-2.73-5.81-2.49a4 4 0 00-3.2 2.55c-.24.83-.18 2.19 1.66 4l7.35 7.05c1.07 1.07 2.37 2.31 3.32 3.2a13.16 13.16 0 013.85 5.75 10.41 10.41 0 01.12 6.16zm36.28-28.99h-12.09v37.82h-6.94V26.39h-12.09v-6.16h31.12zM500 38.13h16.06v6.22H500V58h19.5v6.22h-26.33v-44h26.38v6.16H500zm58.44 26.08h-7.77l-11.08-14.88h-5v14.88h-6.88v-44h13c5.81 0 9.19 2.37 11 4.39a14.92 14.92 0 013.56 10.2 14.87 14.87 0 01-3.56 10.14 12.31 12.31 0 01-5.1 3.38zm-17.72-21c2.85 0 5-.83 6.34-2.37a8.73 8.73 0 002-6 8.79 8.79 0 00-2-6c-1.36-1.54-3.5-2.31-6.34-2.31h-6.16v16.64zM589 55.38a12.74 12.74 0 01-9.9 8.6 13.56 13.56 0 01-2.67.24 14.25 14.25 0 01-5.22-.95 17.4 17.4 0 01-7.29-5.63l5.45-4.27a9.82 9.82 0 004.33 3.44 6.76 6.76 0 004 .36 5.82 5.82 0 004.62-3.68c.59-2-.77-3.79-2-5-2-1.84-5.16-5-5.39-5.22l-5.39-5.1a12.55 12.55 0 01-3.38-5.28 9.41 9.41 0 01-.12-5.57 10 10 0 013.26-4.92 11.47 11.47 0 015.28-2.49 11.71 11.71 0 016.52.47 14.83 14.83 0 016 4.45l-5.39 4.33c-2.25-2.73-4.56-2.73-5.81-2.49a4 4 0 00-3.2 2.55c-.24.83-.18 2.19 1.66 4l7.35 7.05c1.07 1.07 2.37 2.31 3.32 3.2a13.16 13.16 0 013.85 5.75 10.41 10.41 0 01.12 6.16z" fill="#373c38"/><g clip-path="url(#a)"><path d="M73.66 18.43h-8.18v-7.58L63.15 9v9.44h-18.6v1.86h30.23q-.54-.95-1.12-1.86m5.43 29.76H65.48V37.5h14.39a39.94 39.94 0 00-1.37-8.2v6.35h-27V25.41h25.71q-.37-.94-.78-1.86H49.66v14h14V48.2H24.55v8.37h33v4.65H6.08q.6.95 1.25 1.86h52.1v-8.37h-33v-4.65h37.19v20.47h1.86V50.06h13.18q.24-.92.44-1.86M8.45 16.94L7.91 16c-.46.62-.91 1.26-1.33 1.91l1.88-1" fill="#333"/><path d="M27.2 19.31a.57.57 0 10-.57-.57.57.57 0 00.07.27l-2 1.86a2.11 2.11 0 00-.49-.49l1.15-1.94h.11a.5.5 0 10-.36-.17l-1.14 1.93A2.08 2.08 0 0023 20q0-1.38.07-2.75a.62.62 0 10-.3 0q0 1.38-.07 2.77a2.07 2.07 0 00-.93.34l-2.45-2.66a.7.7 0 00.14-.41.71.71 0 10-.71.71.7.7 0 00.36-.1l2.49 2.62a2.09 2.09 0 00-.51.7l-3.24-1.51a.59.59 0 000-.09.57.57 0 10-.13.36L21 21.5a2.08 2.08 0 00-.08.58v.19l-3.25-.1a.39.39 0 100 .29l3.31.1a2.08 2.08 0 00.23.57l-2.37 1.14a.46.46 0 10.13.32.38.38 0 000-.06l2.42-1.16a2.11 2.11 0 00.37.36l-1.83 2a.47.47 0 00-.19 0 .46.46 0 10.47.46.44.44 0 00-.06-.22l1.88-2a1.14 1.14 0 00.69.23v3c0 .06-.25.2-.25.37a.39.39 0 00.39.39.45.45 0 00.45-.39c0-.17-.13-.31-.13-.37v-3.03a1.29 1.29 0 00.22 0l.89 2.58a.38.38 0 00-.13.28.38.38 0 10.41-.38l-.88-2.56a2.07 2.07 0 00.46-.23l1.15 1.81a.39.39 0 00-.08.23.41.41 0 10.41-.41h-.07l-1.17-1.83a2.09 2.09 0 00.43-.53l2 1a.41.41 0 10.14-.3l-2-1a2.06 2.06 0 00.11-.38l2.71.19a.5.5 0 00.48.39.51.51 0 10-.47-.68l-2.69-.19v-.28l2.73-.4a.5.5 0 100-.29l-2.73.4a2.06 2.06 0 00-.18-.49l2.06-1.89a.57.57 0 00.31.09m-3.77 2.85a.47.47 0 010 .09v.05a.48.48 0 01-.1.12h-.59l-.08-.08v-.05a.45.45 0 010-.12v-.11a.45.45 0 010-.13v-.06a.47.47 0 01.11-.15h.05a.45.45 0 01.2-.07H23a.45.45 0 01.19 0h.06a.47.47 0 01.11.11v.05a.45.45 0 010 .11v.19z" fill="#fb7b3b"/><g fill="#333"><path d="M8.84 14.81v.06zm-3.31 4.77q.42-.72.88-1.41-.45.69-.88 1.41m4.4-6.05l-.26.3zm29.66 3.14c.26-.59.58-1.28.88-1.93l.72-1.56-1.59-.64a14.46 14.46 0 00-5.6-1.22 14.24 14.24 0 00-3.83.55 12.35 12.35 0 00-3.71-9.18l-.34-.29c-.85.31-1.68.66-2.5 1l-.62.7-.29-.26c-.68.33-1.35.68-2 1l.44-.24 2 1.71 2.29-2.43A10.86 10.86 0 0128.49 13a8.89 8.89 0 01-.29 1.46 6.3 6.3 0 011.49-.75 12 12 0 019.3.33c-.73 1.56-1.52 3.37-1.52 3.37l3 1.49a10.85 10.85 0 01-7.82 5.57 9.18 9.18 0 01-1.5.15 7.54 7.54 0 011.1 1 12 12 0 013.35 8.68c-1.72-.05-3.7-.07-3.7-.07l-.19 3.33a10.86 10.86 0 01-8.2-5 7.28 7.28 0 01-.44-.76 7.62 7.62 0 01-.46 1c-2.15 3.8-5 4.24-7.62 5.09-.45-1.66-1-3.56-1-3.56l-3.25.78A10 10 0 0113 25.9a13.47 13.47 0 011-1 5.27 5.27 0 01-1.5-.3c-3.53-1.31-5.62-2.9-7-4.85-.3.51-.59 1-.87 1.55A15.21 15.21 0 0011 25.78a11.46 11.46 0 00-1.8 9.83L9.67 37l3.17-.76c.17.62.38 1.35.56 2l.45 1.66 1.63-.53.92-.28c2.12-.64 4.71-1.43 6.8-4.28a12.31 12.31 0 008.47 4.34h1.57l.19-3.34h3.83V34.1a13.46 13.46 0 00-2.79-8.55 12.32 12.32 0 007.52-6.14l.64-1.43z"/><path d="M16.91 14.37c.31.17.6.35.88.54a7 7 0 01-.46-2.18 11.82 11.82 0 011.58-6.79C18 6.48 17.19 7 16.36 7.65a14.44 14.44 0 00-.66 4.42 12.9 12.9 0 00-3.76-.67c-.55.54-1.08 1.1-1.59 1.66a11.39 11.39 0 016.56 1.31m2.79-8.91l-.47.28z"/><path d="M40 0a40 40 0 1040 40A40 40 0 0040 0m0 78.14A38.14 38.14 0 1178.14 40 38.14 38.14 0 0140 78.14"/></g></g></svg>