<svg xmlns="http://www.w3.org/2000/svg" viewBox="0 0 277 60.26"><defs><clipPath id="clip-path"><path fill="none" d="M5.99 12.14h35.97v35.97H5.99z"/></clipPath><style>.cls-3{fill:#373c38}.cls-4{fill:#fb7b3b;fill-rule:evenodd}.cls-6{clip-path:url(#clip-path)}.cls-7{fill:#333}</style></defs><g id="レイヤー_2" data-name="レイヤー 2"><g id="レイヤー_1-2" data-name="レイヤー 1"><path fill="#fff" d="M0 0h277v60.26H0z"/><path class="cls-3" d="M66.08 41l-7.83-8.95V41h-3.1V21.23h3.1v8.16l6.34-8.15h3.9l-7.26 9.51L70 41zm15.14-10.33V41h-3.09V30.67l-6.94-9.43h3.59L79.69 28l4.91-6.77h3.57z"/><path class="cls-4" d="M110 31.13a10.08 10.08 0 00-.77-3.87A9.78 9.78 0 00104 22a10 10 0 00-7.71 0 9.81 9.81 0 00-3.14 2.11A10.33 10.33 0 0091 27.26a10.09 10.09 0 00-.78 3.87 9.89 9.89 0 009.92 9.87 10.06 10.06 0 003.87-.78c.35-.15.68-.32 1-.5a3.7 3.7 0 01-1.53-1.35l-.14-.25a3.18 3.18 0 01-.16.32 3.55 3.55 0 01-2.53 1.69c-.15-.55-.33-1.18-.33-1.18l-1.08.25a2.93 2.93 0 01-.06-1.38 6.81 6.81 0 117.71-6 4.27 4.27 0 011.73.37l-.51 1.12 1 .49a3.59 3.59 0 01-2.6 1.85 2.73 2.73 0 01-.5 0 2.82 2.82 0 01.36.33 4 4 0 011 1.8 9.71 9.71 0 001.89-2.78 9.9 9.9 0 00.74-3.87z"/><path class="cls-4" d="M104.94 35.92a6.7 6.7 0 002-4 4.42 4.42 0 00-1.35.25 2.34 2.34 0 00-.5.25 2.66 2.66 0 00.1-.49 3.61 3.61 0 00-1-3l-.77.81-.92-.81a3.94 3.94 0 00-1 2.93 2.26 2.26 0 00.15.72l-.29-.18a4 4 0 00-3.39-.14l.58 1-1.2.62a4.36 4.36 0 002.52 1.92 1.71 1.71 0 00.5.1c-.11.11-.22.22-.32.34a3.48 3.48 0 00-.8 1.66 6.64 6.64 0 005.75-1.99zm-3.52-2a.19.19 0 01.19.18l1 .5a.76.76 0 01.17-.23l-.82-.87h-.12a.24.24 0 11.24-.24.24.24 0 010 .14l.83.88a.91.91 0 01.31-.12v-.89a.21.21 0 01-.15-.25.21.21 0 01.25-.15.21.21 0 01.14.25.21.21 0 01-.14.15v.89a.84.84 0 01.3.08l.38-.64a.15.15 0 010-.11.16.16 0 11.16.16l-.38.65a.49.49 0 01.16.16l.67-.62a.18.18 0 01.08-.25.19.19 0 01.26.07.2.2 0 01-.08.26.19.19 0 01-.19 0l-.68.63a1 1 0 010 .16l.9-.13a.17.17 0 01.16-.14.16.16 0 01.16.16.16.16 0 01-.3.07l-.9.14V35l.9.06a.17.17 0 11.11.21.15.15 0 01-.11-.11l-.9-.06a.56.56 0 010 .12l.67.34a.13.13 0 110 .19.14.14 0 010-.09l-.67-.34a.62.62 0 01-.14.18l.38.6a.13.13 0 01.13.14.13.13 0 01-.13.13.13.13 0 01-.14-.13.11.11 0 010-.08l-.38-.6-.16.08.3.83a.14.14 0 01.12.14.13.13 0 01-.26 0 .2.2 0 010-.09l-.3-.85H103v1s.23.07.23.12 0 .13-.06.13-.19-.06-.19-.13v-1.12a.43.43 0 00-.12-.08c-.21.22-.37.45-.57.67a.19.19 0 010 .08.14.14 0 01-.13.15.15.15 0 01-.15-.15.16.16 0 01.16-.15h.06l.61-.66-.12-.13-.81.39a.14.14 0 01-.15.16.16.16 0 01-.16-.15.16.16 0 01.16-.16.15.15 0 01.11 0l.79-.37a.77.77 0 01-.08-.19h-1.1a.14.14 0 01-.17.07.14.14 0 01-.07-.17.13.13 0 01.17-.07.1.1 0 01.07.07h1.08v-.07a.63.63 0 010-.19l-1.08-.5a.2.2 0 01-.26 0 .19.19 0 010-.27.2.2 0 01.13-.06z"/><path d="M105 39.73a3.3 3.3 0 001.19.33l.06-1.11h1.23a5.15 5.15 0 00-.12-1.1l-.22.24a10.57 10.57 0 01-2.14 1.64z" fill="#ffa3cc" fill-rule="evenodd"/><path class="cls-3" d="M126.24 24h-5.44v17h-3.12V24h-5.44v-2.76h14zm8.26 16.24a9.88 9.88 0 01-6.05-9.11 10.08 10.08 0 01.77-3.87 10.51 10.51 0 012.13-3.14A9.74 9.74 0 01134.5 22a9.94 9.94 0 013.84-.77 10.08 10.08 0 013.87.77 9.78 9.78 0 015.25 5.25 10.08 10.08 0 01.77 3.87 10 10 0 01-.77 3.84 9.78 9.78 0 01-2.1 3.14 10.37 10.37 0 01-3.15 2.13 10.09 10.09 0 01-3.87.78 10 10 0 01-3.84-.77zm-1-13.91a6.75 6.75 0 104.8-2 6.75 6.75 0 00-4.8 2zM172.33 41V30.51l-6.18 9.23-6.21-9.23V41h-3.1V20.33l9.31 13.84 9.3-13.85V41zm17.96-4.22h-7L181.58 41h-3.41l8.61-20.69L195.36 41H192zM189.17 34l-2.4-6-2.4 6zm19.4 3a5.7 5.7 0 01-4.45 3.87 6 6 0 01-1.2.11 6.43 6.43 0 01-2.34-.43 7.79 7.79 0 01-3.28-2.53l2.45-1.92a4.43 4.43 0 001.95 1.55 3 3 0 001.79.16 2.62 2.62 0 002.08-1.66 2.34 2.34 0 00-.9-2.24c-.9-.83-2.32-2.25-2.42-2.35l-2.43-2.3a5.73 5.73 0 01-1.52-2.37 4.26 4.26 0 01-.05-2.5 4.58 4.58 0 011.47-2.22 5.26 5.26 0 012.37-1.12 5.31 5.31 0 012.93.22 6.53 6.53 0 012.7 2l-2.42 1.94a2.67 2.67 0 00-2.62-1.12 1.79 1.79 0 00-1.43 1.15c-.11.37-.09 1 .74 1.8l3.31 3.17c.48.48 1.06 1 1.49 1.44a5.9 5.9 0 011.73 2.58 4.6 4.6 0 010 2.77zm16.32-13h-5.44v17h-3.12V24h-5.44v-2.76h14zm5.92 5.29H238v2.79h-7.22v6.14h8.77V41h-11.81V21.23h11.86V24h-8.79zM257.09 41h-3.5l-5-6.69h-2.25V41h-3.09V21.23h5.84a6.33 6.33 0 014.95 2 6.7 6.7 0 011.6 4.59 6.72 6.72 0 01-1.6 4.56 5.56 5.56 0 01-2.29 1.52zm-8-9.44a3.62 3.62 0 002.91-1.05 3.91 3.91 0 00.9-2.7 4 4 0 00-.9-2.7 3.63 3.63 0 00-2.85-1h-2.77v7.48zM270.83 37a5.73 5.73 0 01-4.45 3.87 6.09 6.09 0 01-1.2.11 6.48 6.48 0 01-2.35-.43 7.85 7.85 0 01-3.28-2.53l2.45-1.88a4.43 4.43 0 002 1.55 3.07 3.07 0 001.8.16 2.62 2.62 0 002.07-1.66 2.32 2.32 0 00-.9-2.24c-.89-.83-2.32-2.25-2.42-2.35l-2.42-2.3a5.63 5.63 0 01-1.52-2.37 4.26 4.26 0 01-.06-2.5 4.58 4.58 0 011.45-2.22 5.26 5.26 0 012.37-1.12 5.36 5.36 0 012.94.22 6.57 6.57 0 012.69 2l-2.42 1.94a2.66 2.66 0 00-2.61-1.12 1.79 1.79 0 00-1.44 1.15c-.11.37-.08 1 .74 1.8l3.31 3.17c.48.48 1.07 1 1.49 1.44a5.82 5.82 0 011.73 2.58 4.68 4.68 0 01.03 2.73z"/><g class="cls-6"><g class="cls-6"><path class="cls-7" d="M39.11 20.43h-3.68V17l-1-.83v4.24H26v.84h13.61c-.16-.29-.33-.56-.5-.84m2.44 13.4h-6.12V29h6.47a17.68 17.68 0 00-.61-3.68v2.85H29.15v-4.6h11.56c-.11-.28-.23-.56-.35-.84h-12V29h6.29v4.78H17v3.77h14.87v2.09H8.72q.27.42.57.84h23.42v-3.74H17.87v-2.09H34.6v9.21h.83v-9.21h5.93c.07-.27.14-.55.2-.84M9.79 19.76l-.24-.42c-.21.27-.41.56-.6.86l.84-.45"/><path d="M18.22 20.82a.26.26 0 00.26-.25.26.26 0 00-.52 0 .27.27 0 000 .12l-.89.84a1.14 1.14 0 00-.22-.22l.51-.88h.05a.21.21 0 00.23-.21.22.22 0 00-.21-.24.24.24 0 00-.24.22.25.25 0 00.06.16l-.51.86a1.12 1.12 0 00-.44-.09V19.9a.29.29 0 00.21-.34.28.28 0 00-.34-.2.29.29 0 00-.21.34.3.3 0 00.21.2v1.24a.9.9 0 00-.42.16l-1.1-1.2a.3.3 0 00.06-.18.32.32 0 00-.64 0 .32.32 0 00.32.32.3.3 0 00.16 0l1.12 1.18a1 1 0 00-.23.31L14 21a.26.26 0 00-.52 0 .26.26 0 00.46.17l1.47.68a1.09 1.09 0 000 .26v.09l-1.47-.05a.17.17 0 00-.22-.1.18.18 0 00-.1.23.18.18 0 00.23.1.15.15 0 00.09-.1l1.49.05a.8.8 0 00.11.25l-1.07.51a.21.21 0 00-.3.29.22.22 0 00.3 0 .22.22 0 00.06-.15l1.09-.52a1.21 1.21 0 00.16.16l-.82.9h-.08a.21.21 0 00-.21.21.21.21 0 00.42 0 .17.17 0 000-.1l.84-.9a.51.51 0 00.32.1v1.35s-.12.09-.12.17a.17.17 0 00.18.17.2.2 0 00.2-.17c0-.08-.06-.14-.06-.17V23h.1l.4 1.16a.16.16 0 00-.06.13.18.18 0 00.17.17.18.18 0 000-.35L16.64 23a1 1 0 00.21-.1l.52.81a.15.15 0 000 .11.18.18 0 00.18.18.18.18 0 00.19-.18.19.19 0 00-.19-.19l-.55-.85a1.12 1.12 0 00.19-.24l.9.45a.19.19 0 10.19-.18.21.21 0 00-.13.05l-.9-.45a1.54 1.54 0 00.05-.17l1.22.08a.23.23 0 00.22.18.23.23 0 000-.46.25.25 0 00-.23.15l-1.2-.08V22l1.22-.18a.22.22 0 10.43-.13.22.22 0 00-.28-.15.23.23 0 00-.15.15l-1.22.18a.85.85 0 00-.09-.22l.93-.85a.23.23 0 00.14 0m-1.7 1.28a.21.21 0 010 .06h-.27V22l.05-.07h.15v.21z" fill="#fb7b3b"/><path class="cls-7" d="M10 18.8zM8.48 21c.12-.22.25-.43.39-.64-.13.21-.27.42-.39.64m1.97-2.77l-.11.13z"/><path class="cls-7" d="M23.79 19.64c.12-.27.26-.58.4-.87l.32-.7-.72-.29a6.41 6.41 0 00-2.51-.55 6.7 6.7 0 00-1.73.25 5.55 5.55 0 00-1.66-4.13l-.16-.13c-.38.14-.75.3-1.12.45l-.28.32-.13-.12-.9.45.2-.11.9.77 1-1.09A4.87 4.87 0 0118.8 18a4.67 4.67 0 01-.13.65 2.78 2.78 0 01.67-.33 5.37 5.37 0 014.18.14c-.33.71-.68 1.52-.68 1.52l1.35.67a4.86 4.86 0 01-3.52 2.5 3.05 3.05 0 01-.67.07 5.23 5.23 0 01.49.45A5.4 5.4 0 0122 27.56h-1.67L20.25 29a4.91 4.91 0 01-3.69-2.25 3.79 3.79 0 01-.2-.34 3.07 3.07 0 01-.2.45c-1 1.71-2.25 1.91-3.43 2.29-.2-.75-.45-1.6-.45-1.6l-1.46.35a4.5 4.5 0 011-4.14q.22-.24.45-.45a2.23 2.23 0 01-.67-.14A6.25 6.25 0 018.46 21c-.13.23-.26.45-.39.7a6.76 6.76 0 002.87 2 5.13 5.13 0 00-.81 4.42l.21.63 1.42-.34c.08.28.17.6.25.9l.21.74.73-.24.41-.12a5.2 5.2 0 003.06-1.93 5.56 5.56 0 003.81 2h.71l.06-1.52h1.72v-.77a6.06 6.06 0 00-1.25-3.84 5.54 5.54 0 003.38-2.76l.29-.64z"/><path class="cls-7" d="M13.59 18.6l.4.25a3.37 3.37 0 01-.21-1 5.37 5.37 0 01.71-3.06 11.37 11.37 0 00-1.14.77 6.12 6.12 0 00-.3 2 5.78 5.78 0 00-1.69-.3c-.25.24-.49.49-.72.74a5.2 5.2 0 012.95.59m1.26-3.99l-.21.12z"/><path class="cls-7" d="M24 12.14a18 18 0 1018 18 18 18 0 00-18-18m0 35.14a17.15 17.15 0 1117.12-17.15A17.14 17.14 0 0124 47.28"/></g></g></g></g></svg>