<svg xmlns="http://www.w3.org/2000/svg" viewBox="0 0 555.47 79.85"><defs><style>.cls-1{fill:#231815}</style></defs><g id="レイヤー_2" data-name="レイヤー 2"><g id="レイヤー_1-2" data-name="レイヤー 1"><path class="cls-1" d="M97.39 33.38h.72a3.66 3.66 0 013.65 3.68v35.42h20.57a3.66 3.66 0 013.67 3.68 3.67 3.67 0 01-3.65 3.69H98.5A4.79 4.79 0 0193.73 75V37a3.67 3.67 0 013.66-3.62zm65.12-.33a5.75 5.75 0 015.26 3.46l16.38 37.82a3.94 3.94 0 01-3.58 5.52 3.88 3.88 0 01-3.57-2.42l-3.67-8.8h-21.81l-3.75 8.89a3.8 3.8 0 01-3.49 2.33 3.82 3.82 0 01-3.47-5.35l16.45-38a5.74 5.74 0 015.25-3.45zm7.84 28.34l-8-18.59-7.9 18.59zm35.85-28.01a5.58 5.58 0 014.7 2.62l12.37 19.39L235.64 36a5.55 5.55 0 014.69-2.58 5.6 5.6 0 015.58 5.58v36.8a4 4 0 01-4 4 4 4 0 01-4-4V46.52l-11.6 17.42a3.59 3.59 0 01-6 0l-11.65-17.29V75.8a4 4 0 01-4 4 4 4 0 01-4-4V39a5.6 5.6 0 015.54-5.62zm58.21 4.05a4 4 0 014-4h14.15a22.7 22.7 0 017.27 1.09 15.23 15.23 0 015.53 3.16 13.82 13.82 0 013.49 4.91 16.11 16.11 0 011.22 6.37V49a15.45 15.45 0 01-1.45 6.87 14.33 14.33 0 01-4 5 17.47 17.47 0 01-5.87 3 24.36 24.36 0 01-7.19 1h-9.17V75.8a4 4 0 01-4 4 4 4 0 01-4-4zm17.47 20.11a10.77 10.77 0 007.3-2.33 7.62 7.62 0 002.67-6v-.13a7.38 7.38 0 00-2.71-6.23 11.52 11.52 0 00-7.26-2.1h-9.44v16.79zM352 70.36c-3.13 4.75-8.55 7.22-15 7.22-10.53 0-17.57-7.58-17.57-16.49 0-9.39 7.34-17.09 17.88-17.09 6.13 0 11.73 2.53 14.68 7.46l-3.31 2A13.76 13.76 0 00337.15 48c-8.12 0-13.48 6-13.48 12.82s5.3 13.06 13.54 13.06a14.14 14.14 0 0011.5-5.6zm10.61-20.88C365 46 367.6 44 370.85 44a6.46 6.46 0 013.67 1.08l-2.17 3.5a4.74 4.74 0 00-2.16-.61c-3 0-5.72 2.59-6.92 7-.54 2-.66 5.36-.66 9.69V76.8h-4.34v-32h4.34zm18.11 11.67c.18 7.35 5.17 12.7 12 12.7 6.68 0 9.87-3.79 12.22-7.64L408.4 68c-3.25 6.38-8.24 9.57-15.22 9.57-10.6 0-16.67-8.12-16.67-16.67 0-8.72 6.43-16.91 16.42-16.91 9.09 0 16.43 6.56 16.55 17.15zM405 57.54c-1.68-6.62-6.44-9.57-12-9.57-5.71 0-10 3.07-11.85 9.57zm39.93-12.7h4v32h-4v-5.52a16.18 16.18 0 01-12.88 6.26 16.79 16.79 0 01.12-33.58 15.13 15.13 0 0112.76 6.68zm-25 16a12.82 12.82 0 0012.58 13A12.59 12.59 0 00445.23 61a12.67 12.67 0 10-25.34-.12zm41.96-27.91H466v11.91h6.56v3.61H466V76.8h-4.09V48.45h-5.65v-3.61h5.65zm21.6 2.07a3.46 3.46 0 01-3.43 3.43 3.42 3.42 0 01-3.37-3.43 3.37 3.37 0 013.37-3.37 3.42 3.42 0 013.43 3.37zm-5.41 9.81h4.09v32h-4.09zm9.57.03H492l10.71 23.23 10.59-23.23h4.4l-14.63 32h-.72zm39.05 16.31c.18 7.35 5.17 12.7 12 12.7 6.68 0 9.86-3.79 12.21-7.64l3.43 1.8c-3.25 6.38-8.24 9.57-15.22 9.57-10.6 0-16.67-8.12-16.67-16.67 0-8.72 6.44-16.91 16.43-16.91 9.08 0 16.43 6.56 16.55 17.15zm24.3-3.61c-1.68-6.62-6.44-9.57-12-9.57-5.72 0-10 3.07-11.86 9.57z"/><circle cx="14.94" cy="36.93" r="8.06" fill="#f7b200"/><path class="cls-1" d="M73 30.61a30.61 30.61 0 00-61.22 0h5.73a24.88 24.88 0 0149.76 0v2.85H48.11V54H27.92v19.7H11.21v5.74h22.45V59.76h20.19V39.19h19.23z"/><path class="cls-1" d="M20.78 22.66H10.65L0 41.31h31.43L20.78 22.66z"/></g></g></svg>