<svg xmlns="http://www.w3.org/2000/svg" viewBox="0 0 277 60.26"><defs><style>.cls-2{fill:#231815}</style></defs><g id="レイヤー_2" data-name="レイヤー 2"><g id="レイヤー_1-2" data-name="レイヤー 1"><path fill="#fff" d="M0 0h277v60.26H0z"/><path class="cls-2" d="M58.7 22.55h.3a1.67 1.67 0 011.67 1.68v16.19h9.41a1.68 1.68 0 011.67 1.69 1.68 1.68 0 01-1.67 1.68H59.21A2.19 2.19 0 0157 41.6V24.23a1.68 1.68 0 011.7-1.68zm29.78-.15a2.62 2.62 0 012.4 1.6l7.49 17.29a1.8 1.8 0 01-1.64 2.52 1.77 1.77 0 01-1.64-1.1l-1.68-4h-10l-1.72 4.07a1.72 1.72 0 01-1.59 1.06 1.74 1.74 0 01-1.59-2.44L86.08 24a2.61 2.61 0 012.4-1.6zm3.58 13l-3.64-8.5-3.61 8.5zm16.39-12.85a2.54 2.54 0 012.15 1.18l5.65 8.86 5.66-8.86a2.52 2.52 0 012.14-1.18 2.56 2.56 0 012.55 2.57v16.82a1.84 1.84 0 01-1.83 1.85 1.84 1.84 0 01-1.84-1.85V28.56l-5.29 8a1.64 1.64 0 01-2.73 0l-5.34-7.91v13.29a1.84 1.84 0 01-1.83 1.85 1.84 1.84 0 01-1.84-1.85V25.12a2.56 2.56 0 012.55-2.57zm26.61 1.85a1.84 1.84 0 011.83-1.85h6.47a10.54 10.54 0 013.33.5 6.93 6.93 0 012.52 1.44 6.3 6.3 0 011.6 2.25 7.37 7.37 0 01.56 2.91v.06a7 7 0 01-.67 3.14 6.36 6.36 0 01-1.81 2.26 7.92 7.92 0 01-2.68 1.38 11 11 0 01-3.29.47h-4.19v5a1.84 1.84 0 01-1.84 1.85 1.84 1.84 0 01-1.83-1.85zm8 9.2a4.88 4.88 0 003.33-1.07 3.47 3.47 0 001.23-2.74v-.06a3.4 3.4 0 00-1.24-2.85 5.28 5.28 0 00-3.32-1h-4.32v7.72zm19.71-7.6h3.36l2.52 12.31L171.26 26h3.27l.33 17.77h-2.41l-.26-12.35-2.53 12.35h-1.95l-2.57-12.39-.24 12.39h-2.43zm16.64 17.5a3 3 0 01-1-1.13 3.16 3.16 0 01-.34-1.43 4.06 4.06 0 01.69-2.43 4.76 4.76 0 011.75-1.51 25.39 25.39 0 012.71-1.16v-1.1a2.94 2.94 0 00-.21-1.28.81.81 0 00-.8-.41q-1 0-1.05 1.41v.76l-2.83-.11a4.69 4.69 0 011.09-3.23 4.11 4.11 0 013.08-1 3.5 3.5 0 012.77 1 4.21 4.21 0 01.9 2.88v5.86a24.6 24.6 0 00.22 3.11h-2.68c-.15-.79-.25-1.39-.31-1.82a3.17 3.17 0 01-.89 1.44 2.24 2.24 0 01-1.61.58 2.48 2.48 0 01-1.49-.43zm3.25-2a2.52 2.52 0 00.56-.57v-3.59a7.65 7.65 0 00-1.73 1.3 2.25 2.25 0 00-.57 1.57 2 2 0 00.27 1.11.87.87 0 00.76.4 1.11 1.11 0 00.71-.26zm6.81-10.44h3v2a5.14 5.14 0 011.29-1.62 2.39 2.39 0 011.47-.49 2 2 0 01.46 0v3.1a3.52 3.52 0 00-1.23-.27 2.35 2.35 0 00-2 1.23v8.73h-3zm8.82-5.06h3v10.17l3.25-5.11h3.27l-3.18 5.09 3.11 7.59h-3.13l-2.31-6.25-1 1.4v4.83h-3zm12.49 16.77a5.29 5.29 0 01-1-3.48v-3.77a5.21 5.21 0 011-3.49 3.81 3.81 0 013.08-1.16 3.55 3.55 0 013 1.2 6.16 6.16 0 01.89 3.64v1.82h-5.05V40a2.5 2.5 0 00.27 1.33 1 1 0 00.87.42.89.89 0 00.82-.4 2.41 2.41 0 00.26-1.24v-1.04h2.8V40a4.14 4.14 0 01-1 3 3.88 3.88 0 01-2.92 1 3.8 3.8 0 01-3.02-1.23zm4.22-6.71v-1.2a3.07 3.07 0 00-.25-1.42 1.07 1.07 0 00-1.73 0 4.09 4.09 0 00-.24 1.71v.87zm7.13 7a3.69 3.69 0 01-.72-2.48V33h-1.27v-2h1.27v-3.73h3v3.79h1.91v2h-1.91v7.3a1.3 1.3 0 00.27.92 1.18 1.18 0 00.87.29 4 4 0 00.92-.09v2.3a10.31 10.31 0 01-1.91.16 3 3 0 01-2.43-.88zm7.25-16.49h3v2.48h-3zm0 4.49h3v12.68h-3zm6.45 0h3v1.25a4.48 4.48 0 013.07-1.44 1.8 1.8 0 011.61.79 3.43 3.43 0 01.54 2v10.08h-3v-9.5a1.65 1.65 0 00-.19-.9.76.76 0 00-.67-.28 2.62 2.62 0 00-1.38.61v10.07h-3zm12.02 16.23a2 2 0 01-1.18-1.88 2.2 2.2 0 01.52-1.46 4 4 0 011.38-1 2.25 2.25 0 01-1.1-.65 1.48 1.48 0 01-.39-1 2.29 2.29 0 01.34-1.23 6 6 0 011.07-1.16 3.24 3.24 0 01-1-1.39 5.71 5.71 0 01-.34-2.14 4.71 4.71 0 011-3.31 3.91 3.91 0 013-1.14 3.25 3.25 0 012.8 1.18 3.84 3.84 0 01.64-.68 4.55 4.55 0 011-.64l.41-.17.71 1.6a9.75 9.75 0 00-1.08.38 6.59 6.59 0 00-1 .48 4.27 4.27 0 01.33 1.09 6.3 6.3 0 01.14 1.25 4.93 4.93 0 01-1 3.24 3.66 3.66 0 01-3 1.15 5.76 5.76 0 01-1.71-.26 1.74 1.74 0 00-.38.88.44.44 0 00.27.4 2.27 2.27 0 00.87.21l2.66.26q3.08.33 3.07 3.21a3 3 0 01-1.2 2.59 6.39 6.39 0 01-3.74.87 7 7 0 01-3.09-.68zm5.39-1.87a.89.89 0 00.6-.87.85.85 0 00-.38-.77 3.63 3.63 0 00-1.44-.37l-2.17-.19a3.28 3.28 0 00-.64.67 1.19 1.19 0 00-.22.71.86.86 0 00.55.81 4.52 4.52 0 001.84.26 5.11 5.11 0 001.86-.25zm-1.05-8.13a5.55 5.55 0 00.25-2 5.77 5.77 0 00-.25-2 1 1 0 00-1-.59 1 1 0 00-1 .58 5.18 5.18 0 00-.27 2 5.1 5.1 0 00.27 1.93 1 1 0 001 .61 1 1 0 001-.53z"/><circle cx="21.01" cy="24.17" r="3.68" fill="#f7b200"/><path class="cls-2" d="M47.57 21.28a14 14 0 00-28 0h2.63a11.38 11.38 0 0122.75 0v1.31h-8.77V32H27v9h-7.69v2.62h10.26v-9h9.23v-9.4h8.79z"/><path class="cls-2" d="M23.68 17.65h-4.63l-4.87 8.53h14.37l-4.87-8.53z"/></g></g></svg>