<svg xmlns="http://www.w3.org/2000/svg" viewBox="0 0 625.71 158.68"><defs><clipPath id="clip-path" transform="translate(-.09 -.38)"><path fill="none" d="M0 0h626v159H0z"/></clipPath><style>.cls-3{fill:#231815}</style></defs><g id="レイヤー_2" data-name="レイヤー 2"><g clip-path="url(#clip-path)" id="レイヤー_1-2" data-name="レイヤー 1"><path class="cls-3" d="M3 122.15h.57a2.91 2.91 0 012.9 2.92v28.14H22.8a2.91 2.91 0 012.9 2.92 2.92 2.92 0 01-2.9 2.93H3.87a3.8 3.8 0 01-3.78-3.82v-30.17A2.91 2.91 0 013 122.15zm51.72-.27a4.58 4.58 0 014.18 2.76l13 30a3.13 3.13 0 01-2.84 4.38 3.09 3.09 0 01-2.86-1.91l-2.91-7H46l-3 7.07a3 3 0 01-2.77 1.84 3 3 0 01-2.76-4.25l13.07-30.17a4.55 4.55 0 014.18-2.72zm6.22 22.52l-6.32-14.76-6.28 14.76zm28.49-22.25a4.43 4.43 0 013.73 2L103 139.6l9.83-15.4a4.43 4.43 0 013.73-2 4.45 4.45 0 014.43 4.47v29.22a3.21 3.21 0 01-3.19 3.22 3.21 3.21 0 01-3.19-3.22v-23.3l-9.19 13.84a2.85 2.85 0 01-4.75 0l-9.27-13.75v23.15a3.21 3.21 0 01-3.19 3.22 3.21 3.21 0 01-3.21-3.21v-29.22a4.45 4.45 0 014.43-4.47zm46.23 3.21a3.2 3.2 0 013.19-3.21h11.24a18 18 0 015.78.87 12.18 12.18 0 014.39 2.5 11 11 0 012.77 3.9 12.73 12.73 0 011 5.07v.1a12.19 12.19 0 01-1.15 5.46 11.33 11.33 0 01-3.18 3.95 14.19 14.19 0 01-4.66 2.4 19.6 19.6 0 01-5.71.82H142v8.64a3.21 3.21 0 01-3.19 3.22 3.21 3.21 0 01-3.19-3.22zm13.88 16a8.5 8.5 0 005.8-1.85 6 6 0 002.12-4.77v-.1a5.86 5.86 0 00-2.15-5 9.16 9.16 0 00-5.77-1.67H142v13.34z" transform="translate(-.09 -.38)"/><circle cx="52.77" cy="45.71" r="9.98" fill="#f7b200"/><path class="cls-3" d="M124.76 38.27a37.89 37.89 0 00-75.78 0h7.1a30.8 30.8 0 1161.59 0v3.52H93.91v25.46h-25v24.39H48.23v7.1H76V74.35h25V48.88h23.81z" transform="translate(-.09 -.38)"/><path class="cls-3" d="M60 28.04H47.46L34.27 51.13h38.91L60 28.04z"/><path class="cls-3" d="M239.84 57.43a1.62 1.62 0 011.23.55l3.45 3.74a18.77 18.77 0 01-7 5.43 24.28 24.28 0 01-10 1.89 23.62 23.62 0 01-9.52-1.79 20.6 20.6 0 01-7.14-5 21.61 21.61 0 01-4.54-7.61 28.62 28.62 0 01-1.56-9.64 26.07 26.07 0 011.76-9.72 21.91 21.91 0 0112.57-12.55A26.15 26.15 0 01228.9 21a23.07 23.07 0 019.16 1.68 21.22 21.22 0 016.72 4.44l-2.93 4.07a2.66 2.66 0 01-.66.68 2 2 0 01-1.13.29 2.55 2.55 0 01-1.52-.58 19.51 19.51 0 00-2-1.27 15.91 15.91 0 00-3-1.27 17.48 17.48 0 00-10.77.57 13.48 13.48 0 00-4.78 3.3 15.11 15.11 0 00-3.13 5.22 20.05 20.05 0 00-1.15 6.87 20.59 20.59 0 001.12 7.06 15.52 15.52 0 003 5.2 13 13 0 004.53 3.24 13.92 13.92 0 005.64 1.12 24.37 24.37 0 003.24-.19 13.76 13.76 0 002.67-.62 11.61 11.61 0 002.31-1.09 13.69 13.69 0 002.16-1.64 3.07 3.07 0 01.69-.48 1.79 1.79 0 01.77-.17zm25.21-7.29v18.38h-8.75v-47h14.35a30.06 30.06 0 018.25 1 15.79 15.79 0 015.63 2.79 10.82 10.82 0 013.22 4.28 14.26 14.26 0 011 5.48 14.12 14.12 0 01-.7 4.49 13 13 0 01-2 3.84 13.48 13.48 0 01-3.26 3 17 17 0 01-4.41 2.09 8.75 8.75 0 012.87 2.7L293 68.52h-7.88a3.85 3.85 0 01-1.93-.45 4 4 0 01-1.36-1.31L272 51.7a3.39 3.39 0 00-1.22-1.2 4.24 4.24 0 00-2-.36zm0-6.28h5.47a13.61 13.61 0 004.31-.62 8.31 8.31 0 003-1.71 6.81 6.81 0 001.77-2.59 8.9 8.9 0 00.59-3.28 6.69 6.69 0 00-2.36-5.5q-2.37-1.92-7.21-1.92h-5.6zm68.14-22.39v7h-20.86v13h16.43v6.74h-16.43v13.32h20.86v7h-29.68v-47zM387 68.52h-6.77a3 3 0 01-1.87-.57 3.24 3.24 0 01-1.05-1.41l-3.52-9.6H354.3l-3.51 9.6a3.11 3.11 0 01-1 1.36 2.83 2.83 0 01-1.87.62h-6.8l18.48-47h8.95zm-30.45-17.76h15l-5.73-15.65a68.897 68.897 0 01-1.79-5.54c-.3 1.11-.6 2.14-.89 3.1s-.58 1.78-.87 2.5zm73.34-29.29v7.19h-14.16v39.86H407V28.66h-14.24v-7.19zm20.3 47.05h-8.79v-47h8.79zM461 21.47h7.06a3 3 0 011.86.56 3.28 3.28 0 011.08 1.43l11.07 28.7c.36.93.72 2 1.05 3.07s.66 2.29 1 3.53a40 40 0 011.86-6.6l11-28.7a3.32 3.32 0 011-1.37 2.83 2.83 0 011.85-.62h7.06l-19 47.05H480zm85.4 0v7h-20.86v13H542v6.74h-16.46v13.32h20.86v7h-29.67v-47z" transform="translate(-.09 -.38)"/><path d="M593.12 21a14 14 0 015.13.88 12.42 12.42 0 013.87 2.34 11.39 11.39 0 012.54 3.35 10.75 10.75 0 011.09 3.91l-5.11 1.07a.71.71 0 01-.21 0h-.21a1.77 1.77 0 01-1-.31 2.1 2.1 0 01-.69-1 9.09 9.09 0 00-.75-1.61 5.79 5.79 0 00-1.11-1.34 5 5 0 00-1.53-.91 5.48 5.48 0 00-2-.34 6.1 6.1 0 00-2.44.47 5.52 5.52 0 00-1.82 1.27 5.42 5.42 0 00-1.14 1.85 6.42 6.42 0 00-.39 2.23 8.42 8.42 0 00.21 1.89 8.19 8.19 0 00.67 1.82 11.36 11.36 0 001.19 1.87 24.91 24.91 0 001.8 2.07l12.5 13a22.08 22.08 0 001.72-4.33 23.36 23.36 0 00.85-4.62 2 2 0 01.49-1.2 1.53 1.53 0 011.17-.46h5a28.39 28.39 0 01-1.23 8.2 26.82 26.82 0 01-3.45 7.19l9.86 10.22h-7.88a8.83 8.83 0 01-1.09-.06 3.79 3.79 0 01-.89-.25 3.55 3.55 0 01-.82-.47 5.45 5.45 0 01-.81-.75l-3.25-3.35a24.69 24.69 0 01-6.95 4 23.53 23.53 0 01-8.26 1.37 15.8 15.8 0 01-5.34-.93 14.56 14.56 0 01-4.65-2.68 13.41 13.41 0 01-3.3-4.25 12.25 12.25 0 01-1.26-5.61 12 12 0 01.72-4.15 14.42 14.42 0 012-3.66 16.74 16.74 0 013-3.06 19.71 19.71 0 013.83-2.34 18.87 18.87 0 01-2.52-4.77 14 14 0 01-.8-4.63 12.32 12.32 0 01.89-4.64 10.93 10.93 0 012.61-3.82 12.49 12.49 0 014.18-2.59 15.35 15.35 0 015.58-.87zM581.8 55a8.07 8.07 0 00.62 3.22 7.17 7.17 0 001.69 2.43 7.75 7.75 0 002.49 1.53 8.59 8.59 0 003 .53 14.74 14.74 0 005.22-.89 15.44 15.44 0 004.31-2.49l-12.35-12.77a11.17 11.17 0 00-3.78 3.81 9.15 9.15 0 00-1.2 4.55z" transform="translate(-.09 -.38)" fill="#fdc82f"/><path class="cls-3" d="M232.14 129.77c.32.75.63 1.5.93 2.26.3-.78.62-1.55.94-2.31s.67-1.48 1-2.18L249 101.48a3.32 3.32 0 01.54-.78 1.53 1.53 0 01.61-.42 3 3 0 01.77-.17h7.6v47.05h-7.72v-32.27c0-.67.08-1.36.15-2l-14.22 26.68a3.79 3.79 0 01-1.27 1.41 3.26 3.26 0 01-1.82.51h-1.21a3.26 3.26 0 01-1.82-.51 3.79 3.79 0 01-1.27-1.41L215 112.74c.08.72.14 1.41.18 2.1s.05 1.32.05 1.9v30.39h-7.72v-47h7.61a2.83 2.83 0 01.76.17 1.69 1.69 0 01.64.42 3.33 3.33 0 01.55.78l14.06 26.13a23.83 23.83 0 011.01 2.14zm82.11 17.36h-6.77a3 3 0 01-1.87-.57 3.26 3.26 0 01-1.06-1.41l-3.51-9.6h-19.49l-3.51 9.6a3.11 3.11 0 01-1 1.36 2.89 2.89 0 01-1.87.62h-6.8l18.48-47h8.95zm-30.46-17.76h15l-5.72-15.66c-.26-.69-.55-1.51-.86-2.45s-.63-2-.93-3.08c-.31 1.11-.6 2.14-.9 3.09s-.58 1.79-.86 2.51zm49.21-.62v18.38h-8.75v-47h14.35a30.06 30.06 0 018.25 1 15.79 15.79 0 015.63 2.79 10.69 10.69 0 013.22 4.27 14.35 14.35 0 011 5.49 14.12 14.12 0 01-.7 4.49 13 13 0 01-2 3.84 13.48 13.48 0 01-3.26 3 16.62 16.62 0 01-4.41 2.08 8.68 8.68 0 012.87 2.71l11.8 17.33h-7.88a3.85 3.85 0 01-1.93-.45 4 4 0 01-1.36-1.31L340 130.31a3.39 3.39 0 00-1.22-1.2 4.24 4.24 0 00-2-.36zm0-6.28h5.47a13.61 13.61 0 004.31-.62 8.31 8.31 0 003-1.71 6.89 6.89 0 001.77-2.59 8.9 8.9 0 00.59-3.28 6.69 6.69 0 00-2.36-5.5q-2.37-1.92-7.21-1.92H333zm47.53-2.67h2.05a5.33 5.33 0 002.05-.34 3.49 3.49 0 001.4-1.09l13-16.43a4.61 4.61 0 011.71-1.45 5.47 5.47 0 012.26-.41h7.55l-15.85 19.56a15.57 15.57 0 01-1.43 1.53 6.65 6.65 0 01-1.46 1 6.61 6.61 0 011.93 1.11 10.29 10.29 0 011.68 1.82l16.33 22H404a4.86 4.86 0 01-2.33-.44 3.57 3.57 0 01-1.28-1.28L387.07 128a4 4 0 00-1.47-1.22 5.67 5.67 0 00-2.31-.37h-2.76v20.69h-8.75v-47.05h8.75zm70.93-19.72v7H430.6v13H447v6.74h-16.4v13.3h20.86v7h-29.68v-47zm45.62 0v7.19h-14.16v39.86h-8.75v-39.86H460v-7.19zm20.3 47.05h-8.79v-47h8.79zm21.02-47a2.21 2.21 0 011.3.62 7.44 7.44 0 01.65.73l24.7 31.46c-.09-.75-.15-1.5-.18-2.22s0-1.41 0-2v-28.6h7.71v47.05H568a4.14 4.14 0 01-1.73-.32 3.85 3.85 0 01-1.33-1.18l-24.6-31.33c.07.7.11 1.38.15 2.07s0 1.3 0 1.87v28.89h-7.71v-47h4.59a8.7 8.7 0 011.03-.04zm70.12 40.56a20.43 20.43 0 009.33-2v-8.56H612a1.82 1.82 0 01-1.33-.47 1.52 1.52 0 01-.49-1.15v-5h15.65v19a26.36 26.36 0 01-3.72 2.26 24.53 24.53 0 01-4.13 1.58 31.43 31.43 0 01-4.71.92 43.42 43.42 0 01-5.4.31 24.61 24.61 0 01-9.47-1.79 22.38 22.38 0 01-7.48-5 22.62 22.62 0 01-4.93-7.61 25.78 25.78 0 01-1.77-9.66 26.56 26.56 0 011.72-9.73 21.41 21.41 0 0112.59-12.56 27.91 27.91 0 0110.16-1.76 26.43 26.43 0 0110 1.71 23 23 0 017.14 4.44l-2.54 4a2.26 2.26 0 01-2 1.2 3 3 0 01-1.6-.52q-1-.61-2.13-1.23a14 14 0 00-2.41-1.08 20.24 20.24 0 00-3-.75 22.31 22.31 0 00-3.79-.29 16.21 16.21 0 00-6.29 1.17 13.19 13.19 0 00-4.8 3.36 15 15 0 00-3.06 5.23 20.46 20.46 0 00-1.07 6.84 21.37 21.37 0 001.13 7.24 15.3 15.3 0 003.19 5.35 13.86 13.86 0 004.88 3.33 16.24 16.24 0 006.18 1.22z" transform="translate(-.09 -.38)"/></g></g></svg>