<svg viewBox="0 0 383.97 94.52" xmlns="http://www.w3.org/2000/svg"><path d="M42 82.66v-41.2h10.33l-23-19.95V3.17a3.17 3.17 0 10-6.34 0v18.34L0 41.46h10.31v41.2A7.3 7.3 0 008 86.35H4.31v8.18H48v-8.18h-3.69A7.3 7.3 0 0042 82.66zm-27.51-41.2h23.36V80a26.78 26.78 0 00-7.49-2l.7-12.56a1.73 1.73 0 00-1.74-1.84H23a1.73 1.73 0 00-1.74 1.84L22 78a26.78 26.78 0 00-7.49 2z"/><path d="M26.17 62.63c2.35 0 4.26-1.12 4.26-4.62S26.48 50 26.17 50s-4.26 4.51-4.26 8 1.91 4.63 4.26 4.63zm0-5.47a4.65 4.65 0 011.41 2.67c0 1.16-.63 1.53-1.41 1.53s-1.41-.37-1.41-1.53a4.76 4.76 0 011.41-2.66z" fill="#f15a29"/><path d="M97.45 45.74V26h4.25v19.74h9.45V50h-9.45v42.16h-4.25V50H88v-4.26zm48.17-4.2a25.94 25.94 0 0125.95 26 25.93 25.93 0 01-44.29 18.34 25 25 0 01-7.61-18.34 26 26 0 0125.95-26zm-15.18 10.82a21.42 21.42 0 000 30.32 21.46 21.46 0 0036.63-15.15 21.46 21.46 0 00-36.63-15.17zm52.47-6.62h4.25v1.09a13.75 13.75 0 0119.24.17 13.59 13.59 0 011.89 2.36 14.82 14.82 0 011.94-2.36 13.81 13.81 0 0119.47 0 13.48 13.48 0 014 9.31v35.85h-4.25V56.33A9.55 9.55 0 00213.23 50a9.39 9.39 0 00-2.81 7v35.16h-4.25V56.33a9.54 9.54 0 00-9.55-9.07 9.59 9.59 0 00-9.5 8.7v36.2h-4.25z"/><path d="M271 41.54a25.94 25.94 0 0125.95 26 25.95 25.95 0 01-51.9 0 26 26 0 0125.95-26zm-15.16 10.82a21.42 21.42 0 000 30.32 21.46 21.46 0 0036.63-15.15 21.46 21.46 0 00-36.63-15.17z" fill="#f7941e"/><path d="M321.06 68.29a34.36 34.36 0 01-7.52-5 10.7 10.7 0 01-3.26-7.85 10.83 10.83 0 013.26-7.92 10.66 10.66 0 017.85-3.28 10.38 10.38 0 017.66 3A9.39 9.39 0 01332 54v.24l-3.69 1.47a9.16 9.16 0 00-2.31-5.38 6.25 6.25 0 00-4.66-1.8 6.88 6.88 0 00-4.87 11.77 33.07 33.07 0 005 3.59 39.45 39.45 0 018.6 5.86 13.78 13.78 0 11-19.47 19.5 12.36 12.36 0 01-4-8.86l4.21-1.09a9.39 9.39 0 002.81 6.95 9.55 9.55 0 0013.49-13.52 41.07 41.07 0 00-6.05-4.44zm44.29 24.53q-8.7 0-13.85-5.15a18.11 18.11 0 01-5.29-13V45.74h4.25v28.55a13.49 13.49 0 004.3 10.07 14.4 14.4 0 0010.54 4.21 14 14 0 0010.14-4.18 13.6 13.6 0 004.28-10.09V45.74H384v28.93a18.12 18.12 0 01-5.29 13q-5.18 5.15-13.36 5.15z"/></svg>