<svg xmlns="http://www.w3.org/2000/svg" width="114" height="114"><g data-name="グループ 350"><g data-name="グループ 71"><g data-name="楕円形 6" fill="none" stroke="#707070"><circle cx="57" cy="57" r="57" stroke="none"/><circle cx="57" cy="57" r="56.5"/></g></g><g data-name="グループ 332"><g data-name="グループ 321"><g data-name="グループ 316"><g data-name="グループ 315"><path data-name="パス 163" d="M56.871 52.111a5.216 5.216 0 115.134-5.215 5.181 5.181 0 01-5.134 5.215zm0-8.2a2.984 2.984 0 102.9 2.983 2.947 2.947 0 00-2.9-2.982z" fill="#222"/></g></g><g data-name="グループ 318"><g data-name="グループ 317"><path data-name="パス 164" d="M53.641 76.75a1.15 1.15 0 01-.792-.323 1.122 1.122 0 01-.323-.792 1.1 1.1 0 01.323-.793 1.153 1.153 0 011.573 0 1.1 1.1 0 010 1.585 1.122 1.122 0 01-.781.323z" fill="#222"/></g></g><g data-name="グループ 320"><g data-name="グループ 319"><path data-name="パス 165" d="M60.152 82.148h-6.515a1.116 1.116 0 01-1.115-1.116v-1.187a1.115 1.115 0 012.231 0v.071h4.283V69.778a1.115 1.115 0 011.115-1.115h3.27v-4.752a6.528 6.528 0 10-13.053 0v4.752h3.269a1.116 1.116 0 011.116 1.115v1.644a1.115 1.115 0 11-2.231 0v-.528h-3.27a1.116 1.116 0 01-1.115-1.116v-5.867a8.759 8.759 0 1117.515 0v5.867a1.115 1.115 0 01-1.115 1.116h-3.27v10.138a1.117 1.117 0 01-1.115 1.116z" fill="#222"/></g></g></g><g data-name="グループ 326"><g data-name="グループ 323"><g data-name="グループ 322"><path data-name="パス 166" d="M76.009 42.429a5.215 5.215 0 115.133-5.214 5.181 5.181 0 01-5.133 5.214zm0-8.2a2.985 2.985 0 102.9 2.984 2.948 2.948 0 00-2.9-2.982z" fill="#222"/></g></g><g data-name="グループ 325"><g data-name="グループ 324"><path data-name="パス 167" d="M79.288 72.466h-6.514a1.115 1.115 0 01-1.116-1.115V61.212h-3.269a1.117 1.117 0 01-1.116-1.116v-5.867a8.76 8.76 0 1117.516 0v5.867a1.116 1.116 0 01-1.116 1.116h-3.27v10.139a1.115 1.115 0 01-1.115 1.115zm-5.4-2.231h4.283V60.096a1.116 1.116 0 011.115-1.116h3.269v-4.751a6.528 6.528 0 10-13.053 0v4.751h3.27a1.115 1.115 0 011.115 1.116z" fill="#222"/></g></g></g><g data-name="グループ 331"><g data-name="グループ 328"><g data-name="グループ 327"><path data-name="パス 168" d="M37.735 42.429a5.215 5.215 0 115.133-5.214 5.18 5.18 0 01-5.133 5.214zm0-8.2a2.985 2.985 0 102.9 2.984 2.947 2.947 0 00-2.9-2.982z" fill="#222"/></g></g><g data-name="グループ 330"><g data-name="グループ 329"><path data-name="パス 169" d="M41.016 72.466h-6.515a1.114 1.114 0 01-1.115-1.115V61.212h-3.27A1.116 1.116 0 0129 60.096v-5.867a8.76 8.76 0 1117.516 0v5.867a1.116 1.116 0 01-1.115 1.116h-3.27v10.139a1.115 1.115 0 01-1.115 1.115zm-5.4-2.231h4.282V60.096a1.116 1.116 0 011.116-1.116h3.269v-4.751a6.528 6.528 0 10-13.052 0v4.751H34.5a1.116 1.116 0 011.116 1.116z" fill="#222"/></g></g></g></g></g></svg>