<svg xmlns="http://www.w3.org/2000/svg" width="114" height="114"><g data-name="グループ 348"><g data-name="グループ 69"><g data-name="楕円形 6" fill="none" stroke="#707070"><circle cx="57" cy="57" r="57" stroke="none"/><circle cx="57" cy="57" r="56.5"/></g></g><g data-name="グループ 314"><g data-name="グループ 293"><g data-name="グループ 288"><g data-name="グループ 287"><g data-name="グループ 286"><g data-name="グループ 285"><path data-name="パス 156" d="M44.471 86.49a4.188 4.188 0 01-3.128-1.41L30.984 73.404a7.9 7.9 0 01-1.4-8.239 7.285 7.285 0 016.236-4.682 8.68 8.68 0 01.725-.029 8.835 8.835 0 017.924 4.984 8.835 8.835 0 017.924-4.984q.366 0 .725.029a7.284 7.284 0 016.235 4.682 7.9 7.9 0 01-1.4 8.239l-1.606 1.811a.908.908 0 01-1.358-1.206l1.607-1.811a6.1 6.1 0 001.069-6.359 5.5 5.5 0 00-4.7-3.547 6.855 6.855 0 00-.575-.024 7.069 7.069 0 00-7.016 7.106.908.908 0 11-1.815 0 7.069 7.069 0 00-7.016-7.106q-.29 0-.575.024a5.5 5.5 0 00-4.7 3.547 6.1 6.1 0 001.069 6.358l10.359 11.676a2.409 2.409 0 003.54 0l2.473-2.786a.908.908 0 011.358 1.206l-2.473 2.786a4.188 4.188 0 01-3.123 1.411z" fill="#222"/></g></g></g></g><g data-name="グループ 292"><g data-name="グループ 291"><g data-name="グループ 290"><g data-name="グループ 289"><path data-name="パス 157" d="M69.8 84.259a.935.935 0 01-.175-.016.907.907 0 01-.7-.656l-2.929-10.923-3.581 5.629a.91.91 0 01-.766.42h-13.52a.908.908 0 110-1.815h13.02l4.422-6.949a.908.908 0 011.642.253l2.982 11.125 3.137-4.141a.908.908 0 01.724-.36h4.925a.908.908 0 010 1.815h-4.473L70.524 83.9a.908.908 0 01-.724.359z" fill="#222"/></g></g></g></g></g><g data-name="グループ 297"><g data-name="グループ 296"><g data-name="グループ 295"><g data-name="グループ 294"><path data-name="パス 158" d="M73.917 34.216a.907.907 0 01-.662-1.528l5.063-5.4a.907.907 0 111.324 1.241l-5.063 5.4a.906.906 0 01-.662.287z" fill="#222"/></g></g></g></g><g data-name="グループ 301"><g data-name="グループ 300"><g data-name="グループ 299"><g data-name="グループ 298"><path data-name="パス 159" d="M84.092 34.216a.906.906 0 01-.662-.287l-5.063-5.4a.907.907 0 111.324-1.241l5.063 5.4a.907.907 0 01-.663 1.528z" fill="#222"/></g></g></g></g><g data-name="グループ 305"><g data-name="グループ 304"><g data-name="グループ 303"><g data-name="グループ 302"><path data-name="パス 160" d="M78.982 43.982a.907.907 0 01-.908-.908V27.907a.908.908 0 011.815 0v15.167a.907.907 0 01-.907.908z" fill="#222"/></g></g></g></g><g data-name="グループ 309"><g data-name="グループ 308"><g data-name="グループ 307"><g data-name="グループ 306"><path data-name="パス 161" d="M78.982 48.156a.9.9 0 01-.645-.264.91.91 0 010-1.28.933.933 0 011.289 0 .9.9 0 01-.645 1.543z" fill="#222"/></g></g></g></g><g data-name="グループ 313"><g data-name="グループ 312"><g data-name="グループ 311"><g data-name="グループ 310"><path data-name="パス 162" d="M78.982 78.64a.908.908 0 01-.908-.908v-26.31a.908.908 0 011.815 0v26.31a.907.907 0 01-.907.908z" fill="#222"/></g></g></g></g></g></g></svg>