<svg xmlns="http://www.w3.org/2000/svg" width="114" height="114"><g data-name="グループ 352"><g data-name="グループ 69"><g data-name="楕円形 6" fill="none" stroke="#707070"><circle cx="57" cy="57" r="57" stroke="none"/><circle cx="57" cy="57" r="56.5"/></g></g><g data-name="グループ 280"><g data-name="グループ 274"><path data-name="パス 147" d="M68.331 89.173a8.226 8.226 0 01-2.134-.3 7.884 7.884 0 01-.7-.243 11.122 11.122 0 01-6.83-13.239 14.256 14.256 0 011.467-3.286 8 8 0 001.322-3.618 37.078 37.078 0 00-.969-8.434c-.288-1.5-.537-2.8-.615-3.795a5.86 5.86 0 014.553-6.191c3.456-.744 12.115-1.709 17.821 5.452 3.146 3.949-.7 12.933-3.8 20.153-.8 1.874-1.562 3.643-2.06 5.025-.1.272-.268.71-.385.976-1.41 3.223-3.283 7.5-7.67 7.5zm.838-37.3a20.325 20.325 0 00-4.249.458 3.528 3.528 0 00-2.732 3.74c.069.866.308 2.106.581 3.541a38.649 38.649 0 011.007 9.015 10.083 10.083 0 01-1.617 4.613 11.978 11.978 0 00-1.226 2.67 8.827 8.827 0 005.416 10.555c.189.074.342.135.441.161 3.474.929 4.937-.973 7.1-5.893.1-.224.243-.6.325-.826.523-1.449 1.294-3.249 2.113-5.156 2.546-5.944 6.4-14.926 4.114-17.79a13.876 13.876 0 00-11.271-5.088z" fill="#222"/></g><g data-name="グループ 275"><path data-name="パス 148" d="M64.67 47.212h-.114c-2.418-.077-4.306-2.55-4.212-5.513a6.074 6.074 0 011.3-3.646 4.141 4.141 0 013.255-1.585c2.418.079 4.308 2.55 4.212 5.514a6.081 6.081 0 01-1.3 3.643 4.089 4.089 0 01-3.141 1.587zm.111-8.427a1.82 1.82 0 00-1.341.738 3.789 3.789 0 00-.779 2.25c-.053 1.656.847 3.085 1.969 3.119a1.66 1.66 0 001.384-.734 3.808 3.808 0 00.779-2.251c.052-1.656-.847-3.083-1.967-3.119zm3.17 3.157z" fill="#222"/></g><g data-name="グループ 276"><path data-name="パス 149" d="M83.466 51.189a2.412 2.412 0 01-1.624-.634c-2.887-2.643-7.248-3.507-9.59-3.788a2.291 2.291 0 01-1.637-1.007 2.386 2.386 0 01-.3-1.989 4.853 4.853 0 00.169-1.395 3.63 3.63 0 011.053-2.6 3.554 3.554 0 012.436-1 19.448 19.448 0 018.976 2.715 6.353 6.353 0 012.59 8.414 2.319 2.319 0 01-2.074 1.286zm-9.538-10.1a1.051 1.051 0 00-.75.322 1.3 1.3 0 00-.374.931 7.123 7.123 0 01-.26 2.063l-.017.054c2.619.315 7.515 1.3 10.879 4.381a3.94 3.94 0 00-1.577-5.321 17.431 17.431 0 00-7.888-2.429z" fill="#222"/></g><g data-name="グループ 277"><path data-name="パス 150" d="M43.884 77.702c-4.385 0-6.26-4.272-7.677-7.5-.116-.264-.285-.7-.384-.974-.5-1.383-1.257-3.152-2.06-5.025-3.094-7.22-6.946-16.2-3.8-20.153 5.706-7.161 14.363-6.2 17.821-5.452a5.857 5.857 0 014.552 6.19c-.077 1-.328 2.293-.615 3.8a37.049 37.049 0 00-.968 8.434 8 8 0 001.322 3.618 14.183 14.183 0 011.438 3.176 11.153 11.153 0 01-6.8 13.349 7.36 7.36 0 01-.7.244 8.178 8.178 0 01-2.129.293zm-.836-37.3a13.881 13.881 0 00-11.27 5.089c-2.282 2.864 1.57 11.846 4.116 17.79.818 1.907 1.59 3.706 2.111 5.155.083.23.226.6.325.824 2.158 4.92 3.628 6.831 7.088 5.9.108-.028.26-.088.451-.162a8.81 8.81 0 005.44-10.465 11.975 11.975 0 00-1.252-2.76 10.09 10.09 0 01-1.616-4.612 38.661 38.661 0 011-9.015c.275-1.435.513-2.675.582-3.542a3.527 3.527 0 00-2.731-3.739 20.349 20.349 0 00-4.24-.46zm-12.176 4.365z" fill="#222"/></g><g data-name="グループ 278"><path data-name="パス 151" d="M47.546 35.745c-2.369 0-4.35-2.319-4.442-5.233-.1-2.963 1.794-5.434 4.21-5.513a4.256 4.256 0 013.255 1.585 6.088 6.088 0 011.3 3.648c.094 2.961-1.8 5.434-4.212 5.511zm-2.125-5.307c.052 1.633 1.019 2.987 2.122 2.987h.043c1.118-.034 2.019-1.463 1.967-3.117a3.8 3.8 0 00-.78-2.251 1.747 1.747 0 00-1.386-.736c-1.119.036-2.019 1.463-1.967 3.119z" fill="#222"/></g><g data-name="グループ 279"><path data-name="パス 152" d="M28.75 39.72a2.207 2.207 0 01-.426-.04 2.3 2.3 0 01-1.647-1.245 6.353 6.353 0 012.588-8.413 19.431 19.431 0 018.976-2.715 3.505 3.505 0 012.434 1 3.626 3.626 0 011.055 2.6 4.861 4.861 0 00.172 1.4 2.4 2.4 0 01-.3 1.989 2.287 2.287 0 01-1.639 1.007c-2.342.281-6.7 1.146-9.588 3.787a2.412 2.412 0 01-1.625.63zm9.538-10.094h-.014a17.4 17.4 0 00-7.887 2.429 4.032 4.032 0 00-1.632 5.349c3.416-3.106 8.313-4.093 10.933-4.409l.138 1.152-.136-1.152a7.136 7.136 0 01-.28-2.118 1.3 1.3 0 00-.374-.931 1.056 1.056 0 00-.749-.32z" fill="#222"/></g></g></g></svg>