<svg xmlns="http://www.w3.org/2000/svg" width="114" height="114"><g data-name="グループ 351"><g data-name="グループ 70"><g data-name="楕円形 6" fill="none" stroke="#707070"><circle cx="57" cy="57" r="57" stroke="none"/><circle cx="57" cy="57" r="56.5"/></g></g><g data-name="グループ 284"><g data-name="グループ 281"><path data-name="パス 153" d="M67.182 84.926a1.058 1.058 0 01-.671-.241l-4.826-3.965-4.839 3.966a1.056 1.056 0 01-1.34 0l-4.826-3.963-4.827 3.963a1.056 1.056 0 01-1.726-.816V63.075a1.055 1.055 0 011.214-1.043l1.881.285a1.048 1.048 0 01.744.5l1.671 2.761 3.127-.766a1.048 1.048 0 01.876.174l2.6 1.909 2.6-1.909a1.046 1.046 0 01.877-.174l3.126.766 1.671-2.761a1.051 1.051 0 01.747-.5l1.764-.263a1.081 1.081 0 01.846.244 1.059 1.059 0 01.367.8V83.87a1.057 1.057 0 01-.6.955 1.042 1.042 0 01-.456.101zm-16.5-6.628a1.055 1.055 0 01.67.241l4.828 3.965 4.837-3.966a1.058 1.058 0 011.341 0l3.771 3.095V64.322l-.062.008-1.815 3a1.054 1.054 0 01-1.155.479l-3.4-.833-2.825 2.075a1.053 1.053 0 01-1.25 0l-2.826-2.075-3.4.833a1.054 1.054 0 01-1.155-.479l-1.815-3-.178-.027v17.332l3.77-3.095a1.06 1.06 0 01.662-.239z" fill="#222"/></g><g data-name="グループ 282"><path data-name="パス 154" d="M56.241 69.259a1.047 1.047 0 01-.625-.205l-2.826-2.075-3.4.833a1.054 1.054 0 01-1.155-.478l-1.816-3-3.469-.517a1.057 1.057 0 01-.892-.889l-.518-3.474-3-1.814a1.055 1.055 0 01-.478-1.155l.834-3.4-2.076-2.827a1.057 1.057 0 010-1.25l2.076-2.827-.834-3.4a1.055 1.055 0 01.478-1.155l3-1.816.518-3.474a1.057 1.057 0 01.889-.889l3.474-.519 1.814-3a1.064 1.064 0 011.155-.48l3.4.834 2.826-2.074a1.053 1.053 0 011.25 0l2.825 2.074 3.4-.834a1.061 1.061 0 011.155.48l1.814 3 3.464.517a1.058 1.058 0 01.888.886l.528 3.475 3 1.817a1.055 1.055 0 01.478 1.155l-.834 3.4 2.076 2.827a1.056 1.056 0 010 1.25l-2.076 2.827.834 3.4a1.056 1.056 0 01-.478 1.155l-3 1.816-.528 3.475a1.058 1.058 0 01-.888.886l-3.463.518-1.815 3a1.054 1.054 0 01-1.155.478l-3.4-.833-2.825 2.075a1.048 1.048 0 01-.625.207zm-3.224-4.48a1.046 1.046 0 01.624.2l2.6 1.909 2.6-1.909a1.046 1.046 0 01.877-.174l3.126.766 1.671-2.761a1.05 1.05 0 01.747-.5l3.183-.476.486-3.194a1.05 1.05 0 01.5-.744l2.761-1.671-.766-3.126a1.057 1.057 0 01.173-.877l1.909-2.6-1.909-2.6a1.057 1.057 0 01-.173-.877l.766-3.125-2.761-1.672a1.05 1.05 0 01-.5-.745l-.486-3.194-3.183-.476a1.051 1.051 0 01-.747-.5l-1.671-2.76-3.126.766a1.069 1.069 0 01-.877-.175l-2.6-1.909-2.6 1.909a1.071 1.071 0 01-.876.175l-3.126-.766-1.671 2.76a1.049 1.049 0 01-.747.5l-3.191.476-.476 3.191a1.052 1.052 0 01-.5.747l-2.761 1.672.766 3.125a1.056 1.056 0 01-.173.877l-1.909 2.6 1.909 2.6a1.056 1.056 0 01.173.877l-.766 3.126 2.761 1.671a1.052 1.052 0 01.5.747l.476 3.188 3.194.48a1.048 1.048 0 01.744.5l1.671 2.761 3.126-.766a1.038 1.038 0 01.252-.026z" fill="#222"/></g><g data-name="グループ 283"><path data-name="パス 155" d="M56.243 61.278A11.648 11.648 0 1167.89 49.63a11.661 11.661 0 01-11.647 11.648zm0-21.183a9.535 9.535 0 109.535 9.535 9.546 9.546 0 00-9.535-9.535z" fill="#222"/></g></g></g></svg>