<svg xmlns="http://www.w3.org/2000/svg" width="114" height="114"><g data-name="グループ 349"><g data-name="グループ 70"><g data-name="楕円形 6" fill="none" stroke="#707070"><circle cx="57" cy="57" r="57" stroke="none"/><circle cx="57" cy="57" r="56.5"/></g></g><g data-name="グループ 346" fill="none" stroke="#222" stroke-miterlimit="10" stroke-width="2"><path data-name="パス 189" d="M49.548 74.49a6.05 6.05 0 00-.6 4.024c.86 4.05 8.103 5.146 15.144 3.649a21.485 21.485 0 009.858-4.732"/><path data-name="パス 190" d="M46.423 62.133a10.162 10.162 0 00-.003 4.499c.5 2.347 2.413 4.099 4.98 5.29 7.842 3.649 21.82 2.075 20.544-3.92-1.023-4.815-11.277-2.917-17.781 1.591"/><path data-name="パス 191" d="M43.918 48.9a6.365 6.365 0 00-.45 3.85c2.974 13.985 26.784 7.622 25.615 1.8-.852-3.793-11.494-3.426-17.971 1.154"/><path data-name="パス 192" d="M64.22 31.683a20.455 20.455 0 00-10.967-.485c-7.04 1.498-13.176 5.607-12.315 9.657.496 2.333 2.387 3.977 4.937 5.02 7.747 3.203 21.535.803 20.352-4.763-1.1-5.166-11.204-2.726-17.608 2.214"/></g></g></svg>