<svg xmlns="http://www.w3.org/2000/svg" width="114" height="114"><g data-name="グループ 347"><g data-name="グループ 67"><g data-name="楕円形 6" fill="none" stroke="#707070"><circle cx="57" cy="57" r="57" stroke="none"/><circle cx="57" cy="57" r="56.5"/></g></g><g data-name="グループ 345" fill="#201600"><path data-name="パス 181" d="M35.293 79.87a.863.863 0 01-.591-.232.879.879 0 01-.214-.974l.085-.2a38.072 38.072 0 002.14-16.708l-.045-.431a.868.868 0 01.491-.872l14.393-6.808c-.733-2.26-.475-4.214.738-5.427 1.163-1.164 3-1.456 5.175-.819a14.344 14.344 0 015.877 3.688c3.9 3.9 5.158 8.753 2.864 11.046-1.249 1.249-3.258 1.486-5.585.686l-6.774 14.322a.86.86 0 01-.883.489l-.445-.052A38.107 38.107 0 0035.8 79.741l-.2.077a.862.862 0 01-.307.052zm3.16-18.118a39.9 39.9 0 01-1.752 15.845 39.974 39.974 0 0115.847-1.757l6.706-14.18a.854.854 0 01.171-.241l.261-.262a.866.866 0 01.946-.187c1.9.792 3.521.768 4.352-.062 1.384-1.385.563-5.169-2.865-8.6a12.6 12.6 0 00-5.139-3.251c-1.514-.443-2.779-.3-3.465.382-.8.8-.849 2.367-.127 4.189a.869.869 0 01-.193.932l-.314.313a.884.884 0 01-.242.17zm14.45-12.924z"/><path data-name="パス 182" d="M69.526 58.454a.865.865 0 01-.612-1.477c.87-.871.664-2.35.464-3.156a.866.866 0 011.68-.417 4.885 4.885 0 01-.921 4.8.862.862 0 01-.611.25z"/><path data-name="パス 183" d="M56.833 45.762a.865.865 0 01-.612-1.477 4.882 4.882 0 014.8-.923.866.866 0 01-.416 1.681c-.808-.2-2.287-.406-3.156.465a.862.862 0 01-.616.254z"/><path data-name="パス 184" d="M52.582 54.812a.865.865 0 01-.612-1.477l2.72-2.721a.865.865 0 011.223 1.224l-2.719 2.721a.867.867 0 01-.612.253z"/><path data-name="パス 185" d="M60.298 62.632a.865.865 0 01-.611-1.478l2.773-2.772a.865.865 0 011.223 1.223l-2.773 2.774a.866.866 0 01-.612.253z"/><path data-name="パス 186" d="M47.684 71.06a4.45 4.45 0 113.147-1.3 4.435 4.435 0 01-3.147 1.3zm0-7.169a2.721 2.721 0 00-1.925 4.644 2.786 2.786 0 003.848 0 2.72 2.72 0 00-1.923-4.644z"/><path data-name="パス 187" d="M35.499 79.793a.865.865 0 01-.612-1.477l9.716-9.716a.865.865 0 011.223 1.223L36.11 79.54a.862.862 0 01-.611.253z"/><path data-name="パス 188" d="M70.219 54.478a.832.832 0 01-.234-.033.867.867 0 01-.607-.629 13.63 13.63 0 00-8.774-8.773.866.866 0 01-.406-1.453l8.337-8.337a.865.865 0 011.223 1.224l-7.342 7.342a15.038 15.038 0 014.857 3.335 15.235 15.235 0 013.327 4.853l7.344-7.344a.865.865 0 011.224 1.223l-8.338 8.338a.862.862 0 01-.611.254z"/></g></g></svg>