<svg xmlns="http://www.w3.org/2000/svg" width="114" height="114"><g data-name="グループ 353"><g data-name="グループ 67"><g data-name="楕円形 6" fill="none" stroke="#707070"><circle cx="57" cy="57" r="57" stroke="none"/><circle cx="57" cy="57" r="56.5"/></g></g><g data-name="グループ 344"><g data-name="グループ 333"><path data-name="パス 170" d="M58.359 43.763a1.056 1.056 0 01-1.055-1.055v-6.477a1.056 1.056 0 012.111 0v6.477a1.056 1.056 0 01-1.056 1.055z" fill="#222"/></g><g data-name="グループ 334"><path data-name="パス 171" d="M52.395 43.763a1.056 1.056 0 01-1.056-1.055v-6.477a1.056 1.056 0 112.111 0v6.477a1.056 1.056 0 01-1.055 1.055z" fill="#222"/></g><g data-name="グループ 335"><path data-name="パス 172" d="M61.206 36.627H49.548a3.874 3.874 0 01-3.87-3.87v-.886a3.874 3.874 0 013.87-3.87h11.658a3.873 3.873 0 013.87 3.87v.886a3.873 3.873 0 01-3.87 3.87zm-11.658-6.516a1.762 1.762 0 00-1.759 1.759v.886a1.762 1.762 0 001.759 1.759h11.658a1.761 1.761 0 001.759-1.759v-.886a1.761 1.761 0 00-1.759-1.759z" fill="#222"/></g><g data-name="グループ 336"><path data-name="パス 173" d="M55.374 86.406a22.368 22.368 0 1122.374-22.373 22.4 22.4 0 01-22.374 22.373zm0-42.636a20.275 20.275 0 1017.392 9.874 20.269 20.269 0 00-17.392-9.874z" fill="#222"/></g><g data-name="グループ 337"><path data-name="パス 174" d="M73.673 54.152a.986.986 0 01-.131-.009 1.057 1.057 0 01-.777-.507 20.081 20.081 0 00-5.475-5.992 1.056 1.056 0 01-.126-1.6l4.332-4.346a2.537 2.537 0 013.586 0l3.95 3.964a2.528 2.528 0 010 3.569l-4.612 4.611a1.055 1.055 0 01-.747.31zm-4.167-7.466a22.157 22.157 0 014.35 4.734l3.682-3.681a.414.414 0 000-.586l-3.95-3.963a.432.432 0 00-.6 0zm8.778 1.8z" fill="#222"/></g><g data-name="グループ 338"><path data-name="パス 175" d="M55.375 49.108a1.056 1.056 0 01-1.055-1.055v-5.338a1.056 1.056 0 012.111 0v5.338a1.056 1.056 0 01-1.056 1.055z" fill="#222"/></g><g data-name="グループ 339"><path data-name="パス 176" d="M55.375 86.406a1.056 1.056 0 01-1.055-1.056v-5.339a1.056 1.056 0 112.111 0v5.339a1.056 1.056 0 01-1.056 1.056z" fill="#222"/></g><g data-name="グループ 340"><path data-name="パス 177" d="M76.693 65.088h-5.339a1.056 1.056 0 010-2.111h5.339a1.056 1.056 0 110 2.111z" fill="#222"/></g><g data-name="グループ 341"><path data-name="パス 178" d="M39.395 65.088h-5.34a1.056 1.056 0 010-2.111h5.34a1.056 1.056 0 010 2.111z" fill="#222"/></g><g data-name="グループ 342"><path data-name="パス 179" d="M54.866 69.628a5.779 5.779 0 115.78-5.779 5.785 5.785 0 01-5.78 5.779zm0-9.448a3.668 3.668 0 103.669 3.669 3.672 3.672 0 00-3.669-3.668z" fill="#222"/></g><g data-name="グループ 343"><path data-name="パス 180" d="M51.524 61.564a1.059 1.059 0 01-.747-.31l-6.319-6.319a1.056 1.056 0 011.493-1.493l6.319 6.319a1.056 1.056 0 01-.746 1.8z" fill="#222"/></g></g></g></svg>