<svg xmlns="http://www.w3.org/2000/svg" viewBox="0 0 1165.27 212.1"><defs><style>.cls-1,.cls-5{fill:#231815;}.cls-2,.cls-4,.cls-6{fill:#fff;}.cls-2,.cls-3{stroke:#231815;}.cls-2,.cls-6{stroke-linecap:round;}.cls-2,.cls-3,.cls-5,.cls-6{stroke-miterlimit:10;stroke-width:9px;}.cls-3{fill:none;}.cls-5{stroke:#fff;}.cls-6{stroke:#dc6734;}.cls-7{fill:#dc6734;}</style></defs><title>danro</title><g id="レイヤー_2" data-name="レイヤー 2"><g id="レイヤー_1-2" data-name="レイヤー 1"><path class="cls-1" d="M323.59,204.29V10q0-3.74,3.75-3.75H394.5q28.54,0,45.4,15t16.86,40.64V152.4q0,25.66-16.86,40.64t-45.4,15H327.34Q323.59,208,323.59,204.29Zm21.91-14.12h49.87q18.73,0,29.83-11t11.1-29.4v-85q0-18.73-11-29.69t-30-11H345.5a1.27,1.27,0,0,0-1.44,1.44V188.72A1.27,1.27,0,0,0,345.5,190.16Z"/><path class="cls-1" d="M624.38,73.13q14.27,13.26,14.27,35.17v96q0,3.75-3.75,3.75h-13q-3.75,0-3.75-3.75V193.91a1.17,1.17,0,0,0-.58-1.15c-.39-.19-.77,0-1.15.58A49.63,49.63,0,0,1,597,206a72.87,72.87,0,0,1-25.51,4.33q-20.18,0-33.87-10.38t-13.69-31.71q0-21.62,15.71-34.16t43.67-12.54h33.44a1.27,1.27,0,0,0,1.44-1.44V109.45q0-14.7-8.22-23.2t-25.51-8.5q-13.55,0-22.2,5.19a22.8,22.8,0,0,0-11,14.41q-.86,3.46-4.32,2.88L532.86,98.5q-3.75-.57-3.46-3.17,2.88-15.85,17.73-25.65t37-9.8Q610.11,59.88,624.38,73.13ZM605.64,184.25q12.54-8.5,12.54-22.91v-22.2a1.27,1.27,0,0,0-1.44-1.44H586.47q-19,0-30.55,7.78T544.39,167.1q0,12.69,8.94,19.17t22.77,6.48Q593.1,192.76,605.64,184.25Z"/><path class="cls-1" d="M814,73.71Q827.73,87.27,827.73,110v94.26q0,3.75-3.75,3.75H811q-3.75,0-3.75-3.75V114.07q0-16.14-9.51-26.09T773,78q-14.7,0-24.36,8.36t-11.1,21.91v96q0,3.75-3.75,3.75h-13q-3.75,0-3.75-3.75V65.93q0-3.74,3.75-3.75h13q3.74,0,3.75,3.75V76.6a1.51,1.51,0,0,0,.58,1.3q.57.43.86-.43,12.68-17.29,38.63-17.29Q800.34,60.16,814,73.71Z"/><path class="cls-1" d="M983.09,64.2q2.88,1.15,2,4.61l-2.88,12.68q-.86,3.46-4.61,2.31a43.13,43.13,0,0,0-14.12-1.44q-15,.58-24.79,11.1t-9.8,26.66v84.17q0,3.75-3.75,3.75h-13q-3.75,0-3.75-3.75V65.93q0-3.74,3.75-3.75h13q3.74,0,3.75,3.75V82.07q0,1.15.43,1.3c.29.1.62-.14,1-.72a45.32,45.32,0,0,1,15.42-16.14,40.15,40.15,0,0,1,21.47-5.76Q976.75,60.74,983.09,64.2Z"/><path class="cls-1" d="M1069.42,199.68q-14.85-10.66-20.61-29.4-4-13.26-4-35.45,0-21.9,3.75-35.17,5.76-18.44,20.61-29.11t36.17-10.67q20.75,0,35.6,10.67a53.44,53.44,0,0,1,20.32,28.82q4,13.83,4,35.45,0,22.2-4,35.45-5.77,18.74-20.61,29.4t-35.31,10.67Q1084.27,210.34,1069.42,199.68Zm59.52-14.84a37.56,37.56,0,0,0,13.26-20.61q2.3-9.22,2.31-29.11,0-20.75-2.31-29.11a35.86,35.86,0,0,0-13.12-20.61q-9.94-7.63-24.36-7.64-13.84,0-23.64,7.64A37.54,37.54,0,0,0,1067.84,106q-2.31,8.36-2.31,29.11t2.31,29.11A35.84,35.84,0,0,0,1081,184.83q9.94,7.64,24.36,7.64Q1119.15,192.47,1128.95,184.83Z"/><line class="cls-2" x1="4.5" y1="4.5" x2="219.03" y2="4.5"/><line class="cls-2" x1="4.5" y1="45.12" x2="219.03" y2="45.12"/><line class="cls-2" x1="4.5" y1="85.74" x2="219.03" y2="85.74"/><line class="cls-2" x1="219.03" y1="126.36" x2="4.5" y2="126.36"/><line class="cls-2" x1="4.5" y1="166.98" x2="219.03" y2="166.98"/><line class="cls-2" x1="4.5" y1="207.6" x2="219.03" y2="207.6"/><line class="cls-2" x1="16.61" y1="4.5" x2="16.61" y2="45.12"/><line class="cls-2" x1="111.77" y1="4.5" x2="111.77" y2="45.12"/><line class="cls-2" x1="206.88" y1="4.5" x2="206.88" y2="45.12"/><line class="cls-2" x1="67.29" y1="45.12" x2="67.29" y2="85.74"/><line class="cls-2" x1="153.62" y1="45.12" x2="153.62" y2="85.74"/><line class="cls-2" x1="16.61" y1="85.74" x2="16.61" y2="126.36"/><line class="cls-2" x1="111.77" y1="85.74" x2="111.77" y2="126.36"/><line class="cls-2" x1="206.88" y1="85.74" x2="206.88" y2="126.36"/><line class="cls-2" x1="67.29" y1="126.36" x2="67.29" y2="166.98"/><line class="cls-2" x1="153.62" y1="126.36" x2="153.62" y2="166.98"/><line class="cls-2" x1="16.61" y1="166.98" x2="16.61" y2="207.6"/><line class="cls-2" x1="111.77" y1="166.98" x2="111.77" y2="207.6"/><line class="cls-2" x1="206.88" y1="166.98" x2="206.88" y2="207.6"/><path class="cls-3" d="M178.77,210.38V111.91c0-29.63-30-53.66-67-53.66h0c-37,0-67,24-67,53.66v98.47"/><path class="cls-4" d="M178.77,212.1V112.52c0-30-30-54.27-67-54.27h0c-37,0-67,24.3-67,54.27V212.1"/><path class="cls-5" d="M44.76,207.6"/><path class="cls-6" d="M44.76,207.6H88.45V167h43.68V126.36H178"/><path class="cls-3" d="M178.77,212.1V112.51c0-30-30-54.26-67-54.26h0c-37,0-67,24.29-67,54.26V212.1"/><line class="cls-6" x1="219.03" y1="126.36" x2="170.15" y2="126.36"/><line class="cls-6" x1="53.39" y1="207.6" x2="4.5" y2="207.6"/><circle class="cls-7" cx="89.53" cy="166.98" r="10.12"/><circle class="cls-7" cx="132.69" cy="126.36" r="10.12"/></g></g></svg>