<svg viewBox="0 0 2043.5 500" xmlns="http://www.w3.org/2000/svg"><path d="m281.25 341.73h1.77v104.57h-1.77z" transform="matrix(.54463904 -.83867057 .83867057 .54463904 -201.98 416.04)"/><path d="m230.02 373.54h1.77v104.57h-1.77z" transform="matrix(.54463904 -.83867057 .83867057 .54463904 -251.98 387.56)"/><path d="m228.09 424.94h104.57v1.77h-104.57z" transform="matrix(.8385755 -.5447854 .5447854 .8385755 -186.71 221.46)"/><path d="m176.85 393.13h104.57v1.77h-104.57z" transform="matrix(.8385755 -.5447854 .5447854 .8385755 -177.66 188.42)"/><path d="m358.44 500h-208l-.29-.51-150.15-153.15v-208h.32l150.15-138.34h208.29l143.24 138.36v208l-.32.51zm-207.26-2h206.5l142.32-152.37v-206.52l-142.3-138.11h-206.54l-149.16 138.12v206.5z"/><path d="m334.66 497.73h-161.23a53.87 53.87 0 0 1 -38-15.8l-118.05-118.86a53.18 53.18 0 0 1 -15.55-37.72v-161.23a53.7 53.7 0 0 1 16.97-39.12l116.95-109.31a53.35 53.35 0 0 1 36.55-14.42h163.5a53.22 53.22 0 0 1 37.47 15.3l110.73 108.6a53.84 53.84 0 0 1 16 38.21v162.7a53.31 53.31 0 0 1 -14.66 36.8l-111.83 118.12a53.74 53.74 0 0 1 -38.85 16.73zm-162.36-494.73a51.58 51.58 0 0 0 -35.3 14l-117 109.32a51.93 51.93 0 0 0 -16.4 37.8v161.23a51.43 51.43 0 0 0 15 36.47l118.12 118.87a52.09 52.09 0 0 0 36.71 15.31h161.23a52 52 0 0 0 37.57-16.16l111.89-118.17a51.55 51.55 0 0 0 14.18-35.59v-162.7a52.06 52.06 0 0 0 -15.52-36.95l-110.78-108.6a51.47 51.47 0 0 0 -36.2-14.83z"/><path d="m269.35 497.73h-32.74a206.68 206.68 0 0 1 -145.67-60.61l-29.45-29.65a204 204 0 0 1 -59.66-144.7v-32.77a206 206 0 0 1 65.1-150l25.07-23.39a204.64 204.64 0 0 1 140.21-55.34h41.58a204.18 204.18 0 0 1 143.76 58.73l20.95 20.53a206.54 206.54 0 0 1 61.57 146.6v38.47a204.52 204.52 0 0 1 -56.25 141.19l-25.4 26.81a206.17 206.17 0 0 1 -149.07 64.13zm-37.14-494.73a202.88 202.88 0 0 0 -139 54.86l-25.07 23.46a204.26 204.26 0 0 0 -64.54 148.68v32.75a202.29 202.29 0 0 0 59.14 143.47l29.45 29.65a204.9 204.9 0 0 0 144.42 60.13h32.74a204.4 204.4 0 0 0 147.79-63.58l25.39-26.81a202.75 202.75 0 0 0 55.77-140v-38.48a204.77 204.77 0 0 0 -61-145.34l-20.99-20.54a202.43 202.43 0 0 0 -142.52-58.25z"/><path d="m55.12 183.65a5.54 5.54 0 0 1 -1.63 4 5.35 5.35 0 0 1 -4 1.7 5.8 5.8 0 0 1 -5.65-5.65 5.35 5.35 0 0 1 1.7-4 5.54 5.54 0 0 1 4-1.63 5.55 5.55 0 0 1 5.65 5.65zm-4.12 92.15a.63.63 0 0 1 -.71.71h-1.7a.62.62 0 0 1 -.71-.71v-80.56a.63.63 0 0 1 .71-.71h1.7a.63.63 0 0 1 .71.71z"/><path d="m167.91 196.79a.62.62 0 0 1 -.71.71h-27.7l-49.75 19.4a.65.65 0 0 0 -.42.71v58.2a.63.63 0 0 1 -.71.71h-1.7a.62.62 0 0 1 -.71-.71v-80.57a.62.62 0 0 1 .71-.71h1.7a.63.63 0 0 1 .71.71v17.66q0 1 .85.71l49.19-19.08h27.83c.47 0 .71.19.71.57z"/><path d="m302.89 275.8a.63.63 0 0 1 -.71.71h-102.47a.62.62 0 0 1 -.71-.71v-80.7c0-.38.23-.57.71-.57h102.48c.47 0 .71.19.71.57zm-3-3v-74.59a.63.63 0 0 0 -.71-.71h-96.5a.63.63 0 0 0 -.71.71v74.63c0 .38.23.57.71.57h96.54q.7-.01.71-.58z"/><path d="m415.68 196.79a.63.63 0 0 1 -.71.71h-27.7l-49.75 19.4a.65.65 0 0 0 -.42.71v58.2a.63.63 0 0 1 -.71.71h-1.7a.62.62 0 0 1 -.71-.71v-80.57a.63.63 0 0 1 .71-.71h1.7a.63.63 0 0 1 .71.71v17.66q0 1 .85.71l49.19-19.08h27.86c.47 0 .71.19.71.57z"/><path d="m458.09 183.65a5.54 5.54 0 0 1 -1.63 4 5.36 5.36 0 0 1 -4 1.7 5.8 5.8 0 0 1 -5.65-5.65 5.36 5.36 0 0 1 1.7-4 5.55 5.55 0 0 1 4-1.63 5.55 5.55 0 0 1 5.65 5.65z" fill="#ff1d25"/><rect height="81.98" rx=".71" width="3.11" x="450.88" y="194.53"/><path d="m755 110.08a17.72 17.72 0 0 1 -5.2 12.65 17.1 17.1 0 0 1 -12.88 5.42 18.53 18.53 0 0 1 -18.08-18.07 17.12 17.12 0 0 1 5.42-12.88 17.73 17.73 0 0 1 12.68-5.2 17.75 17.75 0 0 1 18.06 18.08zm-13.1 294.66a2 2 0 0 1 -2.26 2.26h-5.42a2 2 0 0 1 -2.26-2.26v-257.6a2 2 0 0 1 2.26-2.26h5.42a2 2 0 0 1 2.26 2.26z"/><path d="m1115.66 152.11a2 2 0 0 1 -2.26 2.26h-88.58l-159.08 62a2.09 2.09 0 0 0 -1.36 2.26v186.1a2 2 0 0 1 -2.26 2.27h-5.42a2 2 0 0 1 -2.26-2.26v-257.6a2 2 0 0 1 2.26-2.26h5.42a2 2 0 0 1 2.26 2.26v56.49q0 3.17 2.71 2.26l157.28-61h89c1.5 0 2.26.61 2.26 1.81z"/><path d="m1547.27 404.73a2 2 0 0 1 -2.27 2.27h-327.65a2 2 0 0 1 -2.26-2.27v-258c0-1.2.74-1.81 2.26-1.81h327.65c1.51 0 2.26.61 2.26 1.81zm-9.49-9.48v-238.61a2 2 0 0 0 -2.26-2.27h-308.68a2 2 0 0 0 -2.26 2.27v238.61c0 1.21.75 1.81 2.26 1.81h308.67q2.27 0 2.27-1.81z"/><path d="m1907.91 152.11a2 2 0 0 1 -2.26 2.26h-88.58l-159.07 62.03a2.09 2.09 0 0 0 -1.36 2.26v186.07a2 2 0 0 1 -2.26 2.27h-5.38a2 2 0 0 1 -2.26-2.26v-257.6a2 2 0 0 1 2.26-2.26h5.42a2 2 0 0 1 2.26 2.26v56.49q0 3.17 2.71 2.26l157.27-61h89c1.51 0 2.26.61 2.26 1.81z"/><path d="m2043.5 110.08a17.72 17.72 0 0 1 -5.2 12.65 17.12 17.12 0 0 1 -12.88 5.42 18.53 18.53 0 0 1 -18.08-18.07 17.14 17.14 0 0 1 5.42-12.88 17.75 17.75 0 0 1 12.66-5.2 17.75 17.75 0 0 1 18.08 18.08z" fill="#ff1d25"/><path d="m2030.39 404.74a2 2 0 0 1 -2.26 2.26h-5.42a2 2 0 0 1 -2.26-2.26v-257.6a2 2 0 0 1 2.26-2.26h5.42a2 2 0 0 1 2.26 2.26z"/></svg>