<svg xmlns="http://www.w3.org/2000/svg" viewBox="0 0 389.49 106.22"><defs><style>.cls-1{fill:#fc8c06;}.cls-2{fill:#666;}</style></defs><title>アセット 4</title><g id="レイヤー_2" data-name="レイヤー 2"><g id="レイヤー_1-2" data-name="レイヤー 1"><path class="cls-1" d="M88.49,50.16c-15.46,11-37.41,33.6-51.12,51.12-2.37,3,0,6.71,4,4C61.28,91.5,80.59,71.33,92.46,54.14,94.5,51.18,91.79,47.82,88.49,50.16Z"/><path class="cls-1" d="M73.49,35.17c2.43-3.47.1-6.93-4-4-2.46,1.79-41.18,37-48.27,44.59C14,69.79,6.4,63.51,4.6,62.13a2.82,2.82,0,0,0-4,4A197.31,197.31,0,0,0,17.89,86.78c2.15,2.15,4.5,2.63,7.2.35C43.45,71.67,62.11,51.42,73.49,35.17Z"/><path class="cls-1" d="M21.36,49.35c8.53-6.09,23.5-19.28,33.32-29.8a4.8,4.8,0,0,0-.46-7c-1.17-1-13-11-14.3-11.91-2.68-1.86-5.83.84-4,4C37.65,7.46,41,12.73,43,15.79c-1.6,1.48-23.28,26.49-25.66,29.59S17.48,52.12,21.36,49.35Z"/><path class="cls-2" d="M123.66,31.14h9.83V50.68l18.14-19.54h11.88l-18.2,19,19,25.74H152.52l-13.85-19-5.18,5.36V75.84h-9.83Z"/><path class="cls-2" d="M187.52,30.82h9.06l19.16,45H205.46l-4.09-10h-18.9l-4.09,10h-10Zm10.34,26.31-5.94-14.5L186,57.13Z"/><path class="cls-2" d="M221,53.62v-.13a22.94,22.94,0,0,1,23.43-23.12c8.05,0,12.9,2.17,17.56,6.13L255.78,44c-3.45-2.87-6.52-4.53-11.69-4.53-7.15,0-12.83,6.32-12.83,13.92v.13c0,8.17,5.62,14.17,13.53,14.17A15.67,15.67,0,0,0,254.05,65V58.6h-9.89V50.1h19.41V69.52a29,29,0,0,1-19.1,7.08C230.55,76.6,221,66.83,221,53.62Z"/><path class="cls-2" d="M291.53,30.82h9.07l19.16,45H309.48l-4.09-10h-18.9l-4.09,10h-10Zm10.35,26.31-5.94-14.5L290,57.13Z"/><path class="cls-2" d="M329.85,31.14h20.43c5.68,0,10.09,1.59,13,4.53a14,14,0,0,1,3.83,10.22V46c0,7.21-3.9,11.75-9.58,13.85l10.92,16H357l-9.58-14.31h-7.73V75.84h-9.83Zm19.79,21.71c4.79,0,7.54-2.56,7.54-6.32V46.4c0-4.22-2.94-6.39-7.73-6.39h-9.77V52.85Z"/><path class="cls-2" d="M379.65,31.14h9.84v44.7h-9.84Z"/></g></g></svg>