<svg xmlns="http://www.w3.org/2000/svg" viewBox="0 0 300.08 79.57"><defs><style>.cls-1{fill:#231815;}.cls-2{fill:#f7b200;}</style></defs><title>b_logo</title><g id="レイヤー_2" data-name="レイヤー 2"><g id="レイヤー_1-2" data-name="レイヤー 1"><path class="cls-1" d="M97.39,33.1h.72a3.67,3.67,0,0,1,3.65,3.68V72.2h20.57A3.67,3.67,0,0,1,126,75.89h0a3.67,3.67,0,0,1-3.65,3.68H98.5a4.78,4.78,0,0,1-4.76-4.8v-38A3.67,3.67,0,0,1,97.39,33.1Z"/><path class="cls-1" d="M162.51,32.77h0a5.73,5.73,0,0,1,5.25,3.47l16.38,37.82a3.93,3.93,0,0,1-3.58,5.51h0a3.9,3.9,0,0,1-3.6-2.41l-3.67-8.81H151.52l-3.76,8.9a3.79,3.79,0,0,1-3.49,2.32h0a3.82,3.82,0,0,1-3.47-5.35l16.45-38A5.73,5.73,0,0,1,162.51,32.77Zm7.83,28.35-8-18.59-7.9,18.59Z"/><path class="cls-1" d="M206.2,33.1h0a5.57,5.57,0,0,1,4.69,2.58l12.37,19.39,12.37-19.39a5.57,5.57,0,0,1,4.69-2.58h0a5.6,5.6,0,0,1,5.58,5.63V75.52a4,4,0,0,1-4,4h0a4,4,0,0,1-4-4V46.25L226.31,63.67a3.59,3.59,0,0,1-6,0L208.66,46.38V75.52a4,4,0,0,1-4,4h0a4,4,0,0,1-4-4V38.73A5.6,5.6,0,0,1,206.2,33.1Z"/><path class="cls-1" d="M264.41,37.15a4,4,0,0,1,4-4h14.15a22.73,22.73,0,0,1,7.27,1.1,15.45,15.45,0,0,1,5.53,3.15,13.93,13.93,0,0,1,3.49,4.91,16.1,16.1,0,0,1,1.22,6.37v.13a15.39,15.39,0,0,1-1.45,6.87,14.25,14.25,0,0,1-4,4.95,17.61,17.61,0,0,1-5.87,3,24.46,24.46,0,0,1-7.19,1h-9.17V75.52a4,4,0,0,1-4,4h0a4,4,0,0,1-4-4Zm17.47,20.11a10.72,10.72,0,0,0,7.3-2.33,7.6,7.6,0,0,0,2.67-6V48.8a7.4,7.4,0,0,0-2.71-6.23,11.55,11.55,0,0,0-7.26-2.1h-9.44V57.27Z"/><circle class="cls-2" cx="14.94" cy="36.93" r="8.06"/><path class="cls-1" d="M73,30.61a30.61,30.61,0,1,0-61.22,0h5.73a24.88,24.88,0,1,1,49.76,0v2.85H48.11V54H27.92V73.73H11.21v5.73H33.66V59.76H53.85V39.19H73.08Z"/><polygon class="cls-1" points="20.78 22.66 15.72 22.66 10.65 22.66 0 41.31 15.72 41.31 31.43 41.31 20.78 22.66"/></g></g></svg>