<svg viewBox="0 0 192.99 34.79" xmlns="http://www.w3.org/2000/svg"><g fill="#323333"><path d="m23.91 28.56a12.86 12.86 0 0 1 -10.91 6.23c-7.63 0-13-6.78-13-14s5.38-13.97 13-13.97a13 13 0 0 1 9.43 4.18 5 5 0 0 1 1.79 3.27 2.46 2.46 0 0 1 -2.49 2.49 2.25 2.25 0 0 1 -1.87-.86 8.1 8.1 0 0 0 -6.86-4.17c-4.75 0-8.1 4.36-8.1 9s3.35 9.11 8.1 9.11a7.62 7.62 0 0 0 6.54-3.74v.08a2.41 2.41 0 0 1 2.26-1.48 2.53 2.53 0 0 1 2.57 2.49 2 2 0 0 1 -.46 1.37z"/><path d="m59.36 20.77c0 7.32-5.45 14-13.09 14s-13.09-6.7-13.09-14c0-7.17 5.45-13.94 13.09-13.94s13.09 6.77 13.09 13.94zm-5 0c0-4.6-3.27-9-8.1-9s-8.18 4.36-8.18 9c0 4.75 3.43 9.11 8.18 9.11s8.11-4.36 8.11-9.11z"/><path d="m91.21 19.36v12.86a2.56 2.56 0 0 1 -2.49 2.49 2.44 2.44 0 0 1 -2.41-2.49v-12.86c0-3.66-1.95-7.17-5.84-7.17-5.06 0-6.93 4.75-6.93 10v10a2.45 2.45 0 1 1 -4.91 0v-22a2.44 2.44 0 0 1 2.37-2.43 2.58 2.58 0 0 1 2.49 2.1 10.84 10.84 0 0 1 6.93-2.57c6.9 0 10.79 5.92 10.79 12.07z"/><path d="m140.91 19.36v12.93a2.55 2.55 0 0 1 -2.41 2.49 2.46 2.46 0 0 1 -2.5-2.49v-12.93c0-3.58-1.95-7.09-5.84-7.09-5.06 0-6.93 5.69-6.93 10v10a2.5 2.5 0 0 1 -2.42 2.49 2.46 2.46 0 0 1 -2.49-2.49v-12.91c0-3.58-1.95-7.09-5.84-7.09-5.06 0-7.17 4.21-7 9.89v10.13a2.42 2.42 0 1 1 -4.83 0v-22a2.42 2.42 0 0 1 4.83-.31 10.79 10.79 0 0 1 7-2.57 9.94 9.94 0 0 1 8.65 4.75 11.11 11.11 0 0 1 9-4.75c6.87-.04 10.78 5.8 10.78 11.95z"/><path d="m177.37 9.7v22a2.45 2.45 0 1 1 -4.91 0v-.31a13.53 13.53 0 0 1 -8.65 3.43c-7.63 0-13.09-6.78-13.09-14s5.45-13.94 13.09-13.94a13.12 13.12 0 0 1 8.65 3.43v-.61a2.45 2.45 0 1 1 4.91 0zm-5.45 11.06c0-4.67-3.27-9-8.1-9s-8.18 4.36-8.18 9 3.43 9.11 8.18 9.11 8.09-4.35 8.09-9.1z"/><path d="m192.87 31.6a3.16 3.16 0 0 1 -3 3.12 3.08 3.08 0 1 1 0-6.15 3.15 3.15 0 0 1 3 3.03zm-5.53-7.34v-22.58c0-.84 1.09-1.68 2.49-1.68 1.17 0 2.42.84 2.42 1.68v22.59c0 .94-1.25 1.73-2.42 1.73-1.4 0-2.5-.79-2.5-1.73z"/></g><circle cx="189.83" cy="31.63" fill="#c98420" r="3.16"/></svg>