<svg xmlns="http://www.w3.org/2000/svg" viewBox="0 0 328.11 146.61"><defs><style>.cls-1{fill:#231815;}.cls-2{fill:#f7b200;}</style></defs><title>foot_logo_1</title><g id="レイヤー_2" data-name="レイヤー 2"><g id="レイヤー_1-2" data-name="レイヤー 1"><path class="cls-1" d="M106.48,36.2h.79a4,4,0,0,1,4,4V78.95h22.49a4,4,0,0,1,4,4h0a4,4,0,0,1-4,4H107.7a5.23,5.23,0,0,1-5.21-5.25V40.22A4,4,0,0,1,106.48,36.2Z"/><path class="cls-1" d="M177.7,35.83h0a6.27,6.27,0,0,1,5.74,3.79L201.35,81a4.3,4.3,0,0,1-3.91,6h0a4.27,4.27,0,0,1-3.93-2.64l-4-9.63H165.68l-4.11,9.73A4.14,4.14,0,0,1,157.76,87h0a4.18,4.18,0,0,1-3.8-5.85l18-41.53A6.27,6.27,0,0,1,177.7,35.83Zm8.56,31L177.55,46.5l-8.64,20.32Z"/><path class="cls-1" d="M225.47,36.2h0A6.09,6.09,0,0,1,230.6,39l13.53,21.2L257.65,39a6.09,6.09,0,0,1,5.13-2.82h0a6.13,6.13,0,0,1,6.1,6.15V82.58A4.41,4.41,0,0,1,264.49,87h0a4.41,4.41,0,0,1-4.39-4.43v-32l-12.65,19a3.93,3.93,0,0,1-6.55,0L228.15,50.71V82.58A4.41,4.41,0,0,1,223.76,87h0a4.41,4.41,0,0,1-4.39-4.43V42.35A6.13,6.13,0,0,1,225.47,36.2Z"/><path class="cls-1" d="M289.11,40.62a4.41,4.41,0,0,1,4.39-4.43H309a24.85,24.85,0,0,1,8,1.2,16.89,16.89,0,0,1,6,3.45,15.24,15.24,0,0,1,3.81,5.37,17.6,17.6,0,0,1,1.33,7v.15a16.83,16.83,0,0,1-1.59,7.51,15.58,15.58,0,0,1-4.33,5.41,19.25,19.25,0,0,1-6.42,3.3,26.74,26.74,0,0,1-7.86,1.13h-10v11.9A4.41,4.41,0,0,1,293.5,87h0a4.41,4.41,0,0,1-4.39-4.43Zm19.1,22a11.72,11.72,0,0,0,8-2.55,8.31,8.31,0,0,0,2.92-6.56v-.15q0-4.52-3-6.81a12.63,12.63,0,0,0-7.94-2.3H297.89V62.62Z"/><circle class="cls-2" cx="16.34" cy="40.38" r="8.81"/><path class="cls-1" d="M79.86,33.47a33.47,33.47,0,0,0-66.94,0h6.27a27.2,27.2,0,1,1,54.41,0v3.11h-21V59.08H30.53V80.62H12.25v6.27H36.8V65.34H58.88V42.85h21Z"/><polygon class="cls-1" points="22.72 24.77 17.18 24.77 11.65 24.77 0 45.17 17.18 45.17 34.37 45.17 22.72 24.77"/><path d="M39.08,139.43h-5.6v-1.35h5.6Z"/><path d="M64.8,134.68c0,.12,0,.14-.14.14s-.73,0-2.56,0h-.73v2.8c0,2.28,0,3.26,0,3.36s0,.16-.16.16h-.91c-.14,0-.16,0-.16-.16V140H56.07v.95c0,.14,0,.16-.16.16H55c-.12,0-.14,0-.14-.16s0-1.07,0-3.32v-2.84H51v9h9.69c2.05,0,2.72,0,2.84,0s.16,0,.16.16v.93c0,.14,0,.16-.16.16s-.79,0-2.84,0H51v1c0,.14,0,.16-.18.16h-1c-.14,0-.16,0-.16-.16s0-.91,0-2.82v-8.36h-.38c-1.83,0-2.46,0-2.56,0s-.14,0-.14-.14v-.93c0-.14,0-.16.14-.16s.73,0,2.56,0h.38v-1.87a18.77,18.77,0,0,0-.14-2.72,12.16,12.16,0,0,1,1.37.12c.14,0,.22.1.22.18a2.1,2.1,0,0,1-.1.38,14.11,14.11,0,0,0-.08,2v1.91h3.87v-2.26a16.22,16.22,0,0,0-.14-2.42,11.92,11.92,0,0,1,1.31.12c.16,0,.24.1.24.16a1.11,1.11,0,0,1-.12.44,7.11,7.11,0,0,0-.1,1.71v2.24h4.11v-2.19A16.57,16.57,0,0,0,60,129a11.94,11.94,0,0,1,1.31.12c.16,0,.24.1.24.16a1.11,1.11,0,0,1-.12.44,7.42,7.42,0,0,0-.1,1.77v2.18h.73c1.83,0,2.44,0,2.56,0s.14,0,.14.16Zm-4.61.1H56.07v4.11h4.11Z"/><path d="M78.27,136.55c1.55,1.81,3.53,3,6.75,3.93a2.78,2.78,0,0,0-.58.81c-.18.38-.18.38-.56.24a13.79,13.79,0,0,1-6.93-5h-2.5a12.78,12.78,0,0,1-6.75,5c-.38.14-.4.14-.58-.24a2.31,2.31,0,0,0-.52-.73A11.81,11.81,0,0,0,73,136.55H72.2c-2.06,0-2.76,0-2.88,0s-.16,0-.16-.16,0-.6,0-2v-3.18c0-1.37,0-1.87,0-2s0-.16.16-.16.83,0,2.88,0h7.37c2.06,0,2.76,0,2.88,0s.16,0,.16.16,0,.6,0,2v3.18c0,1.37,0,1.87,0,2s0,.16-.16.16-.83,0-2.88,0Zm-4.09,3.28a5.29,5.29,0,0,0-.14.91c-.22,2.54-1.27,4.29-4.41,5.48-.36.14-.36.14-.6-.22a2.11,2.11,0,0,0-.68-.64c3.22-.93,4.25-2.34,4.45-4.53a6.43,6.43,0,0,0-.06-1.69,11.18,11.18,0,0,1,1.23.14c.2,0,.32.08.32.22A1.51,1.51,0,0,1,74.17,139.84Zm1-9.63H70.41v2.16h4.81Zm0,3.12H70.41v2.22h4.81Zm6.14-3.12h-5v2.16h5Zm0,3.12h-5v2.22h5Zm-3.59,8.46a14.38,14.38,0,0,0-.14-2.64,11.39,11.39,0,0,1,1.31.1c.14,0,.22.08.22.2a1.25,1.25,0,0,1-.1.36,10,10,0,0,0-.08,1.93v1.85c0,1.69,0,2.42,0,2.52s0,.18-.18.18H77.9c-.14,0-.16,0-.16-.18s0-.83,0-2.52Z"/><path d="M103.4,136.84c0,3.16,0,3.65,0,3.77s0,.16-.16.16h-.95c-.14,0-.16,0-.16-.16v-1H96.49v2.92c0,2.44,0,3.53,0,3.63s0,.16-.16.16h-1c-.14,0-.16,0-.16-.16s0-1.17,0-3.61v-2.94H89.9v1.13c0,.14,0,.16-.16.16h-.95c-.14,0-.16,0-.16-.16s0-.62,0-3.79V135c0-1.89,0-2.46,0-2.56s0-.16.16-.16.83,0,2.84,0h3.59v-1.61a13.75,13.75,0,0,0-.14-2.58c.5,0,1,.06,1.39.1.12,0,.24.1.24.18a.9.9,0,0,1-.1.36,7.8,7.8,0,0,0-.12,1.83v1.71h3.95c2,0,2.74,0,2.84,0s.16,0,.16.16,0,.64,0,2.28Zm-8.18-3.38H89.9v5h5.32Zm7,0H96.49v5h5.68Z"/><path d="M118,141.93c0,.16,0,.22-.22.24a5.62,5.62,0,0,1-.87.08c-.12,0-.18-.1-.18-.24,0-.89,0-1.87,0-2.9-2.22,1.11-3.3,2.14-3.3,3.34s1.11,1.67,3.44,1.67a35.44,35.44,0,0,0,4.79-.4.17.17,0,0,1,.22.14,5.71,5.71,0,0,1,.12,1c0,.18-.08.26-.16.28a40,40,0,0,1-5,.28c-2.82,0-4.65-.73-4.65-2.88,0-1.69,1.11-3.06,4.45-4.69,0-1.37-.5-1.91-1.69-1.89a5.72,5.72,0,0,0-3.3,1.63c-.73.69-1.21,1.21-1.91,2-.12.14-.2.14-.3,0a6.55,6.55,0,0,1-.7-.79c-.06-.12-.08-.16,0-.28a22.08,22.08,0,0,0,4.67-5.6c-1.25.08-2.48.08-3.75,0-.16,0-.2-.06-.22-.2s-.1-.69-.12-1a40.53,40.53,0,0,0,4.67,0,18,18,0,0,0,.73-2,3,3,0,0,0,.16-1.09,6.5,6.5,0,0,1,1.51.44.25.25,0,0,1,0,.44,1.83,1.83,0,0,0-.36.56c-.24.5-.42.93-.69,1.53a38.08,38.08,0,0,0,4.25-.66c.16,0,.2,0,.24.08,0,.28.1.56.12.89,0,.14,0,.2-.26.24-1.59.28-3.3.5-4.92.66a16.89,16.89,0,0,1-2.06,3l0,0a4.37,4.37,0,0,1,2.52-.87,2.33,2.33,0,0,1,2.54,2.36c1-.44,2.14-1,3.14-1.45a5.53,5.53,0,0,0,1.53-1,4.81,4.81,0,0,1,1,1.17c.16.3,0,.42-.2.46a5.9,5.9,0,0,0-1.11.32c-1.53.64-2.8,1.11-4.27,1.73Z"/><path d="M132.27,133.39c0,.56,0,1.15,0,1.73a11.69,11.69,0,0,0,1.83-2.18,3.5,3.5,0,0,0,.38-.83,6.88,6.88,0,0,1,.95.71c.1.1.14.16.14.24s-.08.16-.18.22a1.58,1.58,0,0,0-.46.44,18.55,18.55,0,0,1-2.74,2.78c0,.7-.1,1.39-.18,2a13.17,13.17,0,0,0,3.54,4.17,3.53,3.53,0,0,0-.66.66c-.12.16-.2.24-.26.24s-.14-.06-.28-.2a14.07,14.07,0,0,1-2.6-3.34,2.44,2.44,0,0,0-.08.36,12.29,12.29,0,0,1-3.08,5.26c-.12.12-.2.18-.26.18s-.14-.08-.26-.22a2.79,2.79,0,0,0-.69-.56,10.45,10.45,0,0,0,3.18-5,26.66,26.66,0,0,0,.56-6.65V132.1a23.84,23.84,0,0,0-.14-3.69c.48,0,.83,0,1.27.1.14,0,.26.08.26.16a1.39,1.39,0,0,1-.1.38,20,20,0,0,0-.12,3Zm-2.9-.77c.16,0,.18.06.18.2a18.72,18.72,0,0,1-.73,4.55c0,.16-.1.16-.28.08l-.58-.26c-.2-.08-.22-.12-.18-.26a15.62,15.62,0,0,0,.73-4.25c0-.16,0-.2.24-.16ZM145.6,131c0,.14,0,.16-.14.16s-.74,0-2.68,0h-.69v10.19c0,1,0,2,0,2.72,0,.93-.12,1.25-.54,1.59s-1,.38-2.74.38c-.38,0-.4,0-.5-.38a2.75,2.75,0,0,0-.4-.95,16.5,16.5,0,0,0,1.85.1c.83,0,1-.16,1-1V131.11h-2.94c-1.93,0-2.56,0-2.68,0s-.14,0-.14-.16v-.91c0-.14,0-.16.14-.16s.75,0,2.68,0h4.88c1.93,0,2.58,0,2.68,0s.14,0,.14.16Z"/><path d="M164.91,132.95c0,.18-.06.2-.26.2-2.16-.06-4.13-.08-6.41,0,0,1.27,0,2.66,0,4a8.52,8.52,0,0,1,.24,2.11,6.67,6.67,0,0,1-3.93,6.23,1.05,1.05,0,0,1-.46.18.58.58,0,0,1-.36-.16,3,3,0,0,0-.93-.56c2.88-1.19,4.21-3,4.39-5.08A2.5,2.5,0,0,1,155,141a2.6,2.6,0,0,1-2.66-2.84,2.7,2.7,0,0,1,2.76-2.8,2.55,2.55,0,0,1,1.89.68c0-1,0-1.89,0-2.84-2.88.16-5.6.36-7.51.6-.48.06-.73.2-.89.2a.24.24,0,0,1-.24-.2,6.6,6.6,0,0,1-.32-1.29,17.76,17.76,0,0,0,2.54-.12c1.63-.12,3.71-.26,6.39-.42,0-.83,0-1.23,0-1.87a5.31,5.31,0,0,0-.2-1.35,10.08,10.08,0,0,1,1.53.22c.22.06.36.16.36.3a.75.75,0,0,1-.14.36,1.16,1.16,0,0,0-.14.54c0,.44,0,.83,0,1.71,2.24-.06,4.21-.06,6.45-.06.18,0,.22,0,.22.22Zm-11.38,5.2a1.59,1.59,0,0,0,1.63,1.73,1.78,1.78,0,0,0,1.83-1.77,1.68,1.68,0,0,0-1.79-1.71A1.66,1.66,0,0,0,153.53,138.15Z"/><path d="M185.63,136.21c-.12.22-.16.32-.26.32a.72.72,0,0,1-.28-.12,19.66,19.66,0,0,1-8.46-6.69,20.24,20.24,0,0,1-8.1,6.73.74.74,0,0,1-.3.12c-.1,0-.14-.08-.26-.3a2.21,2.21,0,0,0-.62-.68,17.81,17.81,0,0,0,8.2-6.53,4.56,4.56,0,0,0,.52-1.13,7.53,7.53,0,0,1,1.27.26c.2.06.28.12.28.24a.22.22,0,0,1-.14.22,1,1,0,0,0-.22.14,18.78,18.78,0,0,0,9,6.61A2.87,2.87,0,0,0,185.63,136.21Zm-.95,3.22c0,.14,0,.16-.16.16s-.77,0-2.78,0h-6.16c-.61,1.51-1.29,3.08-2.1,4.65,2.42-.16,5.14-.42,7.46-.69-.59-.74-1.21-1.47-1.89-2.22-.12-.12-.08-.18.12-.28l.58-.32c.16-.08.22-.08.3,0a36,36,0,0,1,3.87,4.78c.08.1.08.18-.1.3l-.62.42a.6.6,0,0,1-.22.1c-.06,0-.1,0-.16-.12-.38-.59-.75-1.15-1.15-1.69-3.55.46-7.58.85-11.1,1.11a1.53,1.53,0,0,0-.77.18.36.36,0,0,1-.26.12c-.12,0-.18-.1-.22-.22a12.43,12.43,0,0,1-.3-1.35,20.27,20.27,0,0,0,2.2,0c.28,0,.56,0,.87,0a36.49,36.49,0,0,0,2.11-4.73h-2.42c-2,0-2.66,0-2.76,0s-.18,0-.18-.16v-.89c0-.14,0-.16.18-.16s.77,0,2.76,0h10c2,0,2.66,0,2.78,0s.16,0,.16.16Zm-3.81-3.69c0,.14,0,.16-.16.16s-.66,0-2.36,0H175.1c-1.69,0-2.26,0-2.36,0s-.16,0-.16-.16v-.87c0-.14,0-.16.16-.16s.66,0,2.36,0h3.26c1.69,0,2.26,0,2.36,0s.16,0,.16.16Z"/><path d="M193.64,131.6a.54.54,0,0,0,.36-.08.59.59,0,0,1,.18,0c.1,0,.24.08.5.34s.34.4.34.48,0,.16-.16.26a1.15,1.15,0,0,0-.4.48,20.51,20.51,0,0,1-1.93,3.24,12.71,12.71,0,0,0,3.06,2.48,3.05,3.05,0,0,0-.56.74c-.08.16-.14.22-.22.22a.48.48,0,0,1-.26-.14,14.09,14.09,0,0,1-2.28-2.24v6.29c0,1.61,0,2.42,0,2.52s0,.16-.16.16h-.95c-.14,0-.16,0-.16-.16s0-.91,0-2.52V138a21.42,21.42,0,0,1-2.64,2.36c-.14.1-.22.16-.3.16s-.12-.08-.2-.26a2.16,2.16,0,0,0-.48-.74,16,16,0,0,0,5.88-6.87h-2.92c-1.49,0-2,0-2.05,0s-.16,0-.16-.16v-.83c0-.14,0-.16.16-.16s.56,0,2.05,0h.67v-1.17a11.11,11.11,0,0,0-.14-2.28,11.92,11.92,0,0,1,1.31.12c.16,0,.26.1.26.16a.85.85,0,0,1-.12.38,4.5,4.5,0,0,0-.12,1.57v1.21Zm12.21,13.74c0,.14,0,.16-.16.16s-.77,0-2.76,0h-5.7c-2,0-2.66,0-2.76,0s-.18,0-.18-.16v-.89c0-.14,0-.16.18-.16s.79,0,2.76,0h2V136H198c-1.85,0-2.48,0-2.58,0s-.16,0-.16-.16V135c0-.14,0-.16.16-.16s.73,0,2.58,0h1.27V131a14.25,14.25,0,0,0-.14-2.76,11.79,11.79,0,0,1,1.35.12c.14,0,.24.08.24.16a1.33,1.33,0,0,1-.08.34,7.49,7.49,0,0,0-.14,2.09v4h1.71c1.85,0,2.48,0,2.58,0s.16,0,.16.16v.89c0,.14,0,.16-.16.16s-.73,0-2.58,0h-1.71v8.32h2.44c2,0,2.66,0,2.76,0s.16,0,.16.16Z"/><path d="M218.73,141.93c0,.16,0,.22-.22.24a5.62,5.62,0,0,1-.87.08c-.12,0-.18-.1-.18-.24,0-.89,0-1.87,0-2.9-2.22,1.11-3.3,2.14-3.3,3.34s1.11,1.67,3.44,1.67a35.44,35.44,0,0,0,4.79-.4.17.17,0,0,1,.22.14,5.71,5.71,0,0,1,.12,1c0,.18-.08.26-.16.28a40,40,0,0,1-5,.28c-2.82,0-4.65-.73-4.65-2.88,0-1.69,1.11-3.06,4.45-4.69,0-1.37-.5-1.91-1.69-1.89a5.72,5.72,0,0,0-3.3,1.63c-.73.69-1.21,1.21-1.91,2-.12.14-.2.14-.3,0a6.55,6.55,0,0,1-.7-.79c-.06-.12-.08-.16,0-.28a22.08,22.08,0,0,0,4.67-5.6c-1.25.08-2.48.08-3.75,0-.16,0-.2-.06-.22-.2s-.1-.69-.12-1a40.53,40.53,0,0,0,4.67,0,18,18,0,0,0,.73-2,3,3,0,0,0,.16-1.09,6.5,6.5,0,0,1,1.51.44.25.25,0,0,1,0,.44,1.83,1.83,0,0,0-.36.56c-.24.5-.42.93-.69,1.53a38.08,38.08,0,0,0,4.25-.66c.16,0,.2,0,.24.08,0,.28.1.56.12.89,0,.14,0,.2-.26.24-1.59.28-3.3.5-4.92.66a16.89,16.89,0,0,1-2.06,3l0,0a4.37,4.37,0,0,1,2.52-.87,2.33,2.33,0,0,1,2.54,2.36c1-.44,2.14-1,3.14-1.45a5.53,5.53,0,0,0,1.53-1,4.81,4.81,0,0,1,1,1.17c.16.3,0,.42-.2.46a5.9,5.9,0,0,0-1.11.32c-1.53.64-2.8,1.11-4.27,1.73Z"/><path d="M237.72,138c0,1.13,0,1.47,0,1.59s0,.16-.16.16-.62,0-2.26,0H231a16,16,0,0,1-.44,2.09,11.71,11.71,0,0,1-1.61,3.22c-.08.16-.14.24-.2.24s-.14-.08-.26-.24a2.58,2.58,0,0,0-.71-.58,9.38,9.38,0,0,0,1.79-3.43,14.39,14.39,0,0,0,.56-4.33c0-1.47,0-2,0-2.16s0-.16.16-.16.64,0,2.26,0h2.84c1.63,0,2.18,0,2.26,0s.16,0,.16.16,0,.44,0,1.59Zm-3.2-9.27a12.09,12.09,0,0,0,4.53,3.4,3.13,3.13,0,0,0-.46.69c-.1.22-.14.32-.22.32s-.16-.06-.3-.14a13.63,13.63,0,0,1-4.13-3.51,15.64,15.64,0,0,1-5,4.67.7.7,0,0,1-.28.12c-.1,0-.16-.08-.26-.26a2.75,2.75,0,0,0-.54-.67,13.14,13.14,0,0,0,5-4.35,2.83,2.83,0,0,0,.44-1,9,9,0,0,1,1.15.24c.16,0,.24.1.24.24a.24.24,0,0,1-.14.18Zm2.12,8.74h-5.4c0,.46-.06.91-.1,1.33h5.5Zm0-2.16h-5.38v1.29h5.38Zm1.57,8.46c0,1.59,0,2.08,0,2.18s0,.16-.16.16h-.87c-.14,0-.14,0-.14-.16v-.62h-4.59v.77c0,.12,0,.14-.16.14h-.83c-.14,0-.16,0-.16-.14s0-.58,0-2.22v-1.23c0-.91,0-1.27,0-1.39s0-.16.16-.16.58,0,2.12,0H236c1.53,0,2,0,2.14,0s.16,0,.16.16,0,.48,0,1.19Zm-2-10.7c0,.14,0,.16-.16.16s-.36,0-1.43,0h-1.17c-1.07,0-1.33,0-1.43,0s-.18,0-.18-.16v-.73c0-.14,0-.16.18-.16s.36,0,1.43,0h1.17c1.07,0,1.33,0,1.43,0s.16,0,.16.16Zm.89,9h-4.59v2.34h4.59Zm3-9.33a13.8,13.8,0,0,0-.14-2.74c.46,0,.89.06,1.29.1.14,0,.2.08.2.18a1.27,1.27,0,0,1-.1.34,9.09,9.09,0,0,0-.08,2.08v5.46c0,1.77,0,2.5,0,2.6s0,.18-.16.18h-.93c-.14,0-.16,0-.16-.18s0-.83,0-2.6Zm3.85-1.73a11.18,11.18,0,0,0-.16-2.46,12.23,12.23,0,0,1,1.35.12c.14,0,.24.08.24.16a.94.94,0,0,1-.12.4,5.55,5.55,0,0,0-.1,1.73v9.91c0,1.11,0,2.26,0,3s-.14,1.29-.58,1.61-.85.38-2.72.38c-.34,0-.38,0-.48-.42a2.39,2.39,0,0,0-.4-.89,14.45,14.45,0,0,0,1.93.1c.75,0,1-.16,1-1Z"/><path d="M254.72,137.3a7.85,7.85,0,0,1,4.33-1.43c2.9,0,4.69,1.79,4.69,4.41,0,3-2.38,5.18-6.65,5.18-2.42,0-3.51-1.09-3.51-2.38a2.2,2.2,0,0,1,2.36-2.05,3.41,3.41,0,0,1,3.43,2.88,3.72,3.72,0,0,0,2.94-3.67,3.27,3.27,0,0,0-3.49-3.31,9.29,9.29,0,0,0-5.54,2.28,19.58,19.58,0,0,0-1.77,1.65c-.16.16-.26.18-.4,0a9.26,9.26,0,0,1-.75-.81c-.08-.1-.06-.18.08-.3a54.51,54.51,0,0,0,4.55-4.49c1.17-1.27,2.38-2.56,3.93-4.39-1.67.26-3.24.56-5,.91a3.21,3.21,0,0,0-.7.18,1.24,1.24,0,0,1-.38.1.36.36,0,0,1-.32-.24,6.32,6.32,0,0,1-.48-1.39,7.51,7.51,0,0,0,1.77,0c1.59-.16,3.24-.38,5-.73a2.08,2.08,0,0,0,.62-.18.63.63,0,0,1,.28-.14.6.6,0,0,1,.36.16,5,5,0,0,1,.87.85.55.55,0,0,1,.14.34.42.42,0,0,1-.3.38,2.19,2.19,0,0,0-.95.71c-1.79,1.89-3.14,3.3-5.16,5.36Zm1.27,4.81c-.64,0-1.23.32-1.23.95s.73,1.23,2.08,1.23a7.34,7.34,0,0,0,1.31-.1A2.34,2.34,0,0,0,256,142.11Z"/><path d="M274,143.81a2.84,2.84,0,1,1-2.84-2.8A2.83,2.83,0,0,1,274,143.81Zm-4.63,0a1.79,1.79,0,1,0,1.79-1.79A1.8,1.8,0,0,0,269.41,143.81Z"/><path d="M294.63,139.43H289v-1.35h5.6Z"/></g></g></svg>