<svg xmlns="http://www.w3.org/2000/svg" viewBox="0 0 127.64 53.35"><defs><style>.cls-1{fill:#231815;}.cls-2{fill:none;stroke:#231815;stroke-miterlimit:10;stroke-width:0.5px;}.cls-3{fill:#edad19;}</style></defs><g id="レイヤー_2" data-name="レイヤー 2"><g id="制作レイヤー"><path class="cls-1" d="M13.44,49.77c-.23,0-.72,0-1.34,0H11a3.77,3.77,0,0,1-1.91,3.59,4.76,4.76,0,0,0-.66-.5A2.86,2.86,0,0,0,10.33,50v-.19c-1.19,0-2.4.06-2.8.1v-.67l1.37,0c1.59,0,4,0,4.54-.11Zm-1.22-1.63c-.23,0-.72,0-1.26,0-.92,0-2,0-2.4.08l0-.66c.22,0,.64,0,1.13,0,.94,0,2.13,0,2.54-.09Zm.9.67a7.36,7.36,0,0,0-.62-.74l.34-.24a8.42,8.42,0,0,1,.64.7Zm.58-.38a4.85,4.85,0,0,0-.63-.72l.34-.24a7,7,0,0,1,.65.68Z"/><path class="cls-1" d="M17,50.22a11.7,11.7,0,0,0-1.54-.84l.36-.5a13.08,13.08,0,0,1,1.56.75Zm-.12,2.61a1.22,1.22,0,0,0-.41.24c-.05.06-.08.09-.12.09s-.12,0-.5-.75l0,0c0-.06.12,0,.36-.07a11.43,11.43,0,0,0,4.94-3.07,5.88,5.88,0,0,0,.4.52A15.11,15.11,0,0,1,16.89,52.83Zm1-4.18a7.9,7.9,0,0,0-1.53-.94l.42-.46a8.92,8.92,0,0,1,1.54.86Zm2.3.32a6.23,6.23,0,0,0-.69-.67l.31-.28a8.22,8.22,0,0,1,.71.63Zm.54-.45a7.18,7.18,0,0,0-.7-.65l.3-.27a4.57,4.57,0,0,1,.72.61Z"/><path class="cls-1" d="M25.9,49.49a15.27,15.27,0,0,1,1.35.86,5.75,5.75,0,0,0,1-1.76c-.59,0-1.55,0-2.49.06a11.88,11.88,0,0,1-1.67,1.65,3.48,3.48,0,0,0-.58-.43,6.6,6.6,0,0,0,2.42-2.66c.07-.16,0-.28.08-.28h0c.12,0,.78.24.78.32s0,.07-.1.12a.88.88,0,0,0-.22.26l-.29.42c.7,0,1.35,0,2.11-.06.16,0,.16-.08.22-.08a2.49,2.49,0,0,1,.67.53c0,.09-.19.13-.34.44a8.05,8.05,0,0,1-4.63,4.34,3.49,3.49,0,0,0-.52-.56,6.43,6.43,0,0,0,3.08-1.82,8.61,8.61,0,0,0-1.37-1Z"/><path class="cls-1" d="M31.74,47.79c.77.09.78.09.78.15a.21.21,0,0,1-.05.13.49.49,0,0,0-.06.27c-.06,1.4,0,3.12-1.31,4.52a3.8,3.8,0,0,0-.73-.36A4.19,4.19,0,0,0,31.75,49c0-.36,0-.69,0-.94a1.78,1.78,0,0,0,0-.2s0,0,0,0Zm1.6-.24c.76,0,.82,0,.82.1a.21.21,0,0,1,0,.11C34,47.9,34,48,34,50.44c0,.53,0,1,0,1.33a12.09,12.09,0,0,0,2.7-2.33,3.57,3.57,0,0,0,.4.46,17.5,17.5,0,0,1-2.89,2.55c-.22.16-.26.3-.34.3s-.59-.56-.59-.56.08-.07.08-.22c0-.7,0-1.5,0-2.24s0-1.53-.07-2c0,0,0-.11,0-.14s0,0,0,0Z"/><path class="cls-1" d="M41.87,52.18a2.13,2.13,0,0,0,2.33-2.12A2.08,2.08,0,0,0,42.26,48C42,50.12,41,52.69,40,52.69c-.55,0-1.26-.88-1.26-2.09a3.07,3.07,0,0,1,3.14-3.16,2.68,2.68,0,0,1,3,2.65,2.78,2.78,0,0,1-2.65,2.76,2.37,2.37,0,0,0-.37-.67ZM39.3,50.57c0,.79.36,1.43.69,1.43.15,0,.29-.1.43-.31a10,10,0,0,0,1.26-3.75A2.56,2.56,0,0,0,39.3,50.57Z"/><path class="cls-1" d="M49.43,48.7a4.88,4.88,0,0,1-2.94,4.65,2.27,2.27,0,0,0-.34-.57,4.15,4.15,0,0,0,2.69-4.07c-.76,0-1.59,0-2.29,0v-.63l2.32,0c0-.2,0-.39,0-.57a5.28,5.28,0,0,0,0-.66,1.35,1.35,0,0,1,0-.18.07.07,0,0,1,.07-.07h0c.76,0,.76.15.76.17a.48.48,0,0,1-.07.15.66.66,0,0,0-.1.26c0,.23,0,.55,0,.9h2.88A21.33,21.33,0,0,1,52,52.26c-.13.69-.32,1-1.43,1l-.75,0a2,2,0,0,0-.18-.66c.36,0,.65,0,.88,0,.65,0,.81-.14.88-.45a17.31,17.31,0,0,0,.33-3.49Z"/><path class="cls-1" d="M59,52.88c-1.78,0-2.9-1-2.9-2.27a3,3,0,0,1,1.53-2.47,14.86,14.86,0,0,0-3,.58l-.13.05s0,0-.07-.1S54.3,48,54.3,48s0,0,0,0,.12,0,.26,0h0a37.85,37.85,0,0,0,4.58-.57c.26-.06.38-.13.45-.13s.08,0,.28.6v0c0,.06-.11,0-.39.06-1.65.28-2.83,1.4-2.83,2.61,0,1.38,1.4,1.66,2.2,1.66h.34a5.43,5.43,0,0,0-.15.69Zm.74-3.4a7,7,0,0,0-.56-.78l.35-.21a7.43,7.43,0,0,1,.6.74Zm.61-.34a6.85,6.85,0,0,0-.57-.76l.35-.21a4.76,4.76,0,0,1,.6.73Z"/><path class="cls-1" d="M64.6,51.28c-.53.32-1.37.75-1.75.92a.69.69,0,0,0-.26.17c-.06.07-.1.11-.15.11s-.27-.65-.27-.68,0,0,.13,0a3.22,3.22,0,0,0,.8-.26c0-.71,0-1.66,0-2.42l-.85,0v-.59l.85.05a10.66,10.66,0,0,0,0-1.46,1.86,1.86,0,0,1,0-.19s0,0,.07,0h0c.67.05.68.1.68.14a.27.27,0,0,1-.06.14,4.64,4.64,0,0,0-.09,1.41c.28,0,.58,0,.89-.05v.59l-.89,0v2.17a10.88,10.88,0,0,0,1-.51Zm1.8.56c0-.7,0-1.78,0-2.72l-.91.28v.82c0,.66,0,1.31,0,2,0,.37.22.39,1.32.39.35,0,.68,0,.9,0,.39,0,.55-.18.7-1.27a3.57,3.57,0,0,0,.53.34c-.26,1.18-.5,1.44-1.15,1.48-.2,0-.58,0-1,0s-.8,0-1.05,0a.78.78,0,0,1-.81-.84v0c0-.7,0-1.73,0-2.65-.17.05-.35.1-.61.2l-.19-.55A7.18,7.18,0,0,0,65,49c0-.69,0-1.29,0-1.36a1.06,1.06,0,0,1,0-.19s0,0,.07,0h0a5.26,5.26,0,0,1,.6.08s.07,0,.07.07a.39.39,0,0,1,0,.14.57.57,0,0,0-.08.28c0,.27,0,.6,0,.88l.89-.26a16.08,16.08,0,0,0,0-1.7,1.64,1.64,0,0,1,0-.19s0,0,.06,0h0c.67.06.69.11.69.15a.39.39,0,0,1-.06.14.7.7,0,0,0-.06.35c0,.15,0,.54,0,1.14.55-.16,1.1-.35,1.67-.53,0,.82-.05,1.85-.12,2.45a.84.84,0,0,1-1,.86h-.25a1.91,1.91,0,0,0-.14-.57l.35,0c.33,0,.43-.11.46-.39.06-.54.09-1.24.09-1.69L67,49c0,.93,0,2.09,0,2.89Z"/><path class="cls-1" d="M72.79,51.31c-.56.33-1.27.68-1.65.86a.68.68,0,0,0-.26.16c-.06.07-.1.12-.15.12s-.27-.68-.27-.68,0,0,.13-.05a2.92,2.92,0,0,0,.73-.22c0-.7,0-1.56,0-2.33l-.77,0v-.58l.39,0,.38,0v-.39a9.93,9.93,0,0,0,0-1.22.93.93,0,0,1-.06-.19s0,0,.07,0h0c.67.05.68.1.68.14a.29.29,0,0,1-.06.15c-.07.12-.08.24-.08,1.56.27,0,.53,0,.81-.06v.58c-.26,0-.54,0-.82,0,0,.67,0,1.43,0,2.1a10.17,10.17,0,0,0,.93-.5Zm2.2.3c-.69.27-1.44.51-1.95.65a.58.58,0,0,0-.26.13.26.26,0,0,1-.14.09s-.11,0-.22-.59a.11.11,0,0,1,0,0c0-.05,0,0,.14-.05A13.28,13.28,0,0,0,75,51.12Zm1.48-2.75c0-.06,0-.09,0-.09s.62.08.62.2a.26.26,0,0,1-.07.12.54.54,0,0,0-.14.27A6,6,0,0,1,76,51.51c.21.7.51,1.14.61,1.14s.19,0,.19-1.39a1.73,1.73,0,0,0,.49.34c-.07,1.3-.25,1.74-.59,1.74s-.86-.71-1.1-1.37A7.29,7.29,0,0,1,74,53.19a1.23,1.23,0,0,0-.34-.45,5.51,5.51,0,0,0,1.82-1.31,14.18,14.18,0,0,1-.36-3.09c-.83,0-1.69,0-2.42,0v-.58c.73,0,1.59.06,2.39.06a5.89,5.89,0,0,0,0-1,1.17,1.17,0,0,1,0-.16s0,0,.07,0h0c.61,0,.61.11.61.14a.63.63,0,0,1,0,.14c-.05.11-.08.17-.08.9.6,0,1.19,0,1.74,0v.58c-.54,0-1.13,0-1.71,0a13.77,13.77,0,0,0,.25,2.51A4.49,4.49,0,0,0,76.47,49ZM73,51V48.86H74.7V51Zm1.22-1.62h-.73v1.15h.73Zm2.3-1.53a3.12,3.12,0,0,0-.64-.87l.38-.23a4,4,0,0,1,.68.85Z"/><path class="cls-1" d="M80,53.35c0-.91,0-2.28,0-3a8.81,8.81,0,0,1-1,1,1.6,1.6,0,0,0-.27-.55,6.62,6.62,0,0,0,2.11-2.33h-.23c-.37,0-1.08,0-1.67,0v-.56c.33,0,.74,0,1.09,0v-.26a6.32,6.32,0,0,0,0-.72c0-.1-.05-.17-.05-.21s0,0,.06,0h0c.63.06.65.1.65.14a.42.42,0,0,1-.06.15,1.32,1.32,0,0,0-.06.53c0,.12,0,.27,0,.41h.32a.26.26,0,0,0,.19-.07l.07,0c.06,0,.47.27.47.36s-.14.16-.18.24a10.1,10.1,0,0,1-.81,1.24,8,8,0,0,0,1.31,1,1.52,1.52,0,0,0-.32.5,9.22,9.22,0,0,1-1-.92c0,.9,0,2.28,0,3.1Zm5.57-.29c-.74,0-1.52,0-2.29,0s-1.38,0-2,0v-.61c.29,0,.58,0,.9,0l.93,0c0-.89,0-2.09,0-3.14-.48,0-1,0-1.48,0v-.61c.48,0,1,0,1.48.06,0-1,0-1.78-.06-1.93a1.86,1.86,0,0,1,0-.19s0,0,.06,0h0c.72.06.74.11.74.15a.33.33,0,0,1-.07.15c-.07.11-.07.23-.07,1.87.54,0,1.06,0,1.64-.06v.61l-1.64,0V52.5c.65,0,1.29,0,1.9,0Z"/><path class="cls-1" d="M91.94,49.48c-.57,0-1.12,0-1.67,0s-1.1,0-1.65,0V49a9.48,9.48,0,0,1-1.39.7,1.85,1.85,0,0,0-.38-.53,5,5,0,0,0,3-2.28c0-.12,0-.18.11-.18h0c.61.15.68.17.68.25s0,.08-.09.12l-.08.05a6.73,6.73,0,0,0,3.21,1.95,1.67,1.67,0,0,0-.36.56A8.3,8.3,0,0,1,91.94,49Zm.78,3.85c-.17-.25-.36-.49-.54-.72a35.94,35.94,0,0,1-4.1.48.67.67,0,0,0-.27.07.42.42,0,0,1-.15.06c-.1,0-.22-.58-.24-.65a.11.11,0,0,1,0,0,0,0,0,0,1,0,0h.78a8.16,8.16,0,0,0,1-1.64l-2.08,0v-.62c1.09,0,2.13.05,3.18.05s2,0,3.07-.05v.62c-1.21,0-2.36-.05-3.51-.05a9.57,9.57,0,0,1-.93,1.61c.92,0,2-.15,2.84-.27a10.51,10.51,0,0,0-.74-.75l.43-.33a18.25,18.25,0,0,1,1.75,1.82Zm-2.59-5.79a5.7,5.7,0,0,1-1.38,1.34c.53,0,1,0,1.57,0s1,0,1.46,0A10,10,0,0,1,90.13,47.54Z"/><path class="cls-1" d="M98.39,51.85c0-.44,0-.76,0-1-.67.29-1.19.64-1.19,1.06s.24.61,1.36.61a6,6,0,0,0,1.84-.29,2.7,2.7,0,0,0,0,.48,2.11,2.11,0,0,0,0,.26c-.52,0-1.14.1-1.72.1-.76,0-2-.11-2-1.16,0-.74.8-1.21,1.77-1.62,0-.31-.13-.67-.59-.67-.71,0-1.32.77-1.88,1.84L95.31,51A9.63,9.63,0,0,0,97,48.4l-1.33.06-.07-.67a3.87,3.87,0,0,0,.87.07l.74,0a5,5,0,0,0,.19-.79.43.43,0,0,1,0,0,1,1,0,0,0,0-.12s0,0,0,0h0c.73.09.75.15.75.17a.15.15,0,0,1,0,.08.56.56,0,0,0-.13.26c-.06.15-.11.29-.16.43a6,6,0,0,0,1.76-.36v.67a16.14,16.14,0,0,1-2,.26,8.26,8.26,0,0,1-.54,1.07,1.47,1.47,0,0,1,.89-.3.94.94,0,0,1,.92.91,11.78,11.78,0,0,0,1.51-.74c.1,0,.13-.11.16-.11s0,0,0,0a4.67,4.67,0,0,1,.39.63.06.06,0,0,1,0,.05s0,.06-.13.07A8.3,8.3,0,0,0,99,50.6c0,.32,0,.74,0,1.21Z"/><path class="cls-1" d="M104.05,46.68c.68,0,.69.12.69.17a.32.32,0,0,1-.06.15.49.49,0,0,0-.07.28c0,.17,0,.87,0,1.51a3,3,0,0,0,.64-.93c0-.06,0-.12.06-.12l0,0c.21.1.5.27.5.34s0,.07-.09.1-.12.1-.17.16a7.94,7.94,0,0,1-1,1.06,8.88,8.88,0,0,1-.07,1A4.46,4.46,0,0,0,105.86,52a1.94,1.94,0,0,0-.37.46,5.87,5.87,0,0,1-1.1-1.33,4.5,4.5,0,0,1-1.27,2.18,1.56,1.56,0,0,0-.37-.48A4.07,4.07,0,0,0,104,50.09c0-.44,0-1.21,0-1.88a10,10,0,0,0,0-1.29,1,1,0,0,1,0-.18s0-.06.07-.06ZM103.19,48c.49.06.55.11.55.17a.31.31,0,0,1,0,.11.61.61,0,0,0-.09.28,9.32,9.32,0,0,1-.36,1.54,1.92,1.92,0,0,0-.47-.23,5.54,5.54,0,0,0,.36-1.66c0-.09,0-.14,0-.17s0,0,0,0Zm4.35-.44c-.68,0-1.35,0-2,0V47c.62,0,1.29,0,2,0s1.39,0,2,0v.61c-.48,0-1,0-1.48,0v4.81c0,.79-.41,1-1.28,1h-.43a2.25,2.25,0,0,0-.18-.62l.66,0c.59,0,.65-.14.65-.44Z"/><path class="cls-1" d="M117.27,48.48a9.7,9.7,0,0,0-1.71-.09h-.68c0,.16,0,.35,0,.52s0,.5,0,.72a1.7,1.7,0,0,1,.27,1,3.09,3.09,0,0,1-1.74,2.71,1.8,1.8,0,0,0-.6-.51A2.32,2.32,0,0,0,114.53,51a1,1,0,0,1-.84.41,1,1,0,0,1-1-1.13,1.1,1.1,0,0,1,1.12-1.23,1.18,1.18,0,0,1,.55.14c0-.16,0-.46,0-.8a26.75,26.75,0,0,0-2.71.18,2.21,2.21,0,0,0-.35.1s0,0,0,0-.08-.49-.1-.68v0s0,0,0,0a2,2,0,0,0,.36.06h.16c.52,0,1.58,0,2.62-.07,0-.33,0-.62,0-.79s-.06-.1-.06-.13,0,0,.06,0h0c.08,0,.74,0,.74.13a.16.16,0,0,1,0,.1c-.07.12-.08.22-.08.7l2.38,0Zm-3,1.65a.51.51,0,0,0-.52-.56.65.65,0,0,0-.59.72c0,.31.15.61.53.61S114.32,50.28,114.32,50.13Z"/><path class="cls-1" d="M117.94,52.1A1.08,1.08,0,1,1,119,53.18,1.08,1.08,0,0,1,117.94,52.1Zm1.82,0a.75.75,0,0,0-.74-.75.75.75,0,1,0,0,1.5A.74.74,0,0,0,119.76,52.1Z"/><line class="cls-2" y1="50.07" x2="3.89" y2="50.07"/><line class="cls-2" x1="123.76" y1="50.07" x2="127.64" y2="50.07"/><path class="cls-1" d="M39.15,13.11h.29a1.45,1.45,0,0,1,1.45,1.46V28.64h8.17a1.45,1.45,0,0,1,1.45,1.46h0a1.45,1.45,0,0,1-1.45,1.46H39.59a1.89,1.89,0,0,1-1.89-1.9V14.57A1.45,1.45,0,0,1,39.15,13.11Z"/><path class="cls-1" d="M65,13h0a2.28,2.28,0,0,1,2.08,1.38l6.51,15a1.56,1.56,0,0,1-1.42,2.19h0a1.55,1.55,0,0,1-1.43-.95l-1.46-3.5H60.65l-1.49,3.53a1.51,1.51,0,0,1-1.39.92h0a1.51,1.51,0,0,1-1.37-2.12l6.53-15.09A2.29,2.29,0,0,1,65,13Zm3.11,11.26L65,16.85l-3.13,7.38Z"/><path class="cls-1" d="M82.37,13.11h0a2.19,2.19,0,0,1,1.86,1l4.92,7.7,4.91-7.7a2.21,2.21,0,0,1,1.86-1h0a2.22,2.22,0,0,1,2.22,2.23V30a1.6,1.6,0,0,1-1.59,1.6h0A1.6,1.6,0,0,1,95,30V18.33l-4.59,6.92a1.43,1.43,0,0,1-2.38,0l-4.64-6.88V30a1.6,1.6,0,0,1-1.59,1.6h0A1.6,1.6,0,0,1,80.16,30V15.34A2.22,2.22,0,0,1,82.37,13.11Z"/><path class="cls-1" d="M105.49,14.71a1.6,1.6,0,0,1,1.59-1.6h5.62a9,9,0,0,1,2.89.43,6.23,6.23,0,0,1,2.2,1.25,5.54,5.54,0,0,1,1.38,2,6.24,6.24,0,0,1,.49,2.53v0a6.17,6.17,0,0,1-.58,2.73,5.59,5.59,0,0,1-1.57,2,7,7,0,0,1-2.33,1.2,9.51,9.51,0,0,1-2.86.41h-3.64V30a1.6,1.6,0,0,1-1.6,1.6h0a1.6,1.6,0,0,1-1.59-1.6Zm6.94,8a4.26,4.26,0,0,0,2.9-.92,3,3,0,0,0,1.06-2.38v-.06a2.92,2.92,0,0,0-1.08-2.47,4.53,4.53,0,0,0-2.88-.84h-3.75V22.7Z"/><circle class="cls-3" cx="6.4" cy="14.67" r="3.2"/><path class="cls-1" d="M29.48,12.16a12.16,12.16,0,0,0-24.32,0H7.44a9.88,9.88,0,0,1,19.76,0v1.13H19.58v8.17h-8v7.83H4.92v2.27h8.91V23.74h8V15.57H29.5Z"/><polygon class="cls-1" points="8.72 9 6.71 9 4.7 9 0.47 16.41 6.71 16.41 12.95 16.41 8.72 9"/></g></g></svg>