<svg xmlns="http://www.w3.org/2000/svg" width="173.772" height="72.727" viewBox="0 0 173.772 72.727"><defs><style>.a{fill:#fff;}.b{fill:none;stroke:#fff;stroke-miterlimit:10;stroke-width:0.5px;}</style></defs><path class="a" d="M15.576,50.6H12.254a5.133,5.133,0,0,1-2.6,4.888,6.48,6.48,0,0,0-.9-.681,3.894,3.894,0,0,0,2.587-3.894v-.259c-1.62,0-3.267.082-3.812.136V49.88H9.4c2.165,0,5.446,0,6.181-.15Zm-1.661-2.219H12.2a26.224,26.224,0,0,0-3.267.109v-.9h1.538a26.345,26.345,0,0,0,3.458-.123Zm1.225.912a10.019,10.019,0,0,0-.844-1.007l.463-.327a11.462,11.462,0,0,1,.871.953Zm.79-.517a6.6,6.6,0,0,0-.858-.98l.463-.327a9.53,9.53,0,0,1,.885.926Z" transform="translate(2.722 17.157)"/><path class="a" d="M17.557,51.293a15.928,15.928,0,0,0-2.1-1.144l.49-.681a17.807,17.807,0,0,1,2.124,1.021Zm-.163,3.553a1.661,1.661,0,0,0-.558.327c-.068.082-.109.123-.163.123s-.163,0-.681-1.021h0c0-.082.163,0,.49-.1A15.561,15.561,0,0,0,23.207,50a8.006,8.006,0,0,0,.545.708,20.571,20.571,0,0,1-6.344,4.139Zm1.361-5.691a10.755,10.755,0,0,0-2.083-1.28l.572-.626a12.144,12.144,0,0,1,2.1,1.171Zm3.131.436a8.482,8.482,0,0,0-.939-.912l.422-.381a11.191,11.191,0,0,1,.967.858Zm.735-.613a9.775,9.775,0,0,0-.953-.885l.408-.368a6.222,6.222,0,0,1,.98.83Z" transform="translate(5.588 17.077)"/><path class="a" d="M26.764,50.415A20.787,20.787,0,0,1,28.6,51.586a7.828,7.828,0,0,0,1.361-2.4c-.8,0-2.11,0-3.39.082A16.174,16.174,0,0,1,24.3,51.518a4.738,4.738,0,0,0-.79-.585A8.985,8.985,0,0,0,26.8,47.311c.1-.218,0-.381.109-.381h0a2.715,2.715,0,0,1,1.062.436c0,.109,0,.1-.136.163a1.2,1.2,0,0,0-.3.354l-.395.572c.953,0,1.838,0,2.873-.082.218,0,.218-.109.3-.109a3.39,3.39,0,0,1,.912.722c0,.123-.259.177-.463.6a10.96,10.96,0,0,1-6.3,5.909,4.751,4.751,0,0,0-.708-.762,8.754,8.754,0,0,0,4.193-2.478,11.722,11.722,0,0,0-1.865-1.361Z" transform="translate(8.497 16.962)"/><path class="a" d="M32.235,47.877c1.048.123,1.062.123,1.062.2a.286.286,0,0,1-.068.177.667.667,0,0,0-.082.368c-.082,1.906,0,4.248-1.783,6.154a5.173,5.173,0,0,0-.994-.49,5.7,5.7,0,0,0,1.879-4.765v-1.28a2.425,2.425,0,0,0,0-.272h0Zm2.178-.327c1.035,0,1.116,0,1.116.136a.286.286,0,0,1,0,.15c-.218.191-.218.327-.218,3.649V53.3a16.46,16.46,0,0,0,3.676-3.172,4.86,4.86,0,0,0,.545.626A23.825,23.825,0,0,1,35.6,54.221c-.3.218-.354.408-.463.408a5.451,5.451,0,0,1-.8-.762.406.406,0,0,0,.109-.3v-3.05a22.679,22.679,0,0,0-.1-2.723V47.6h0Z" transform="translate(10.976 17.186)"/><path class="a" d="M43,53.9a2.9,2.9,0,0,0,3.172-2.886,2.832,2.832,0,0,0-2.641-2.8c-.354,2.886-1.715,6.385-3.077,6.385-.749,0-1.715-1.2-1.715-2.845a4.18,4.18,0,0,1,4.275-4.3A3.649,3.649,0,0,1,47.1,51.055a3.785,3.785,0,0,1-3.608,3.758,3.226,3.226,0,0,0-.5-.912Zm-3.5-2.192c0,1.076.49,1.947.939,1.947.2,0,.395-.136.585-.422a13.614,13.614,0,0,0,1.715-5.105,3.485,3.485,0,0,0-3.24,3.581Z" transform="translate(14.001 17.139)"/><path class="a" d="M50.615,49.459a6.644,6.644,0,0,1-4,6.331,3.09,3.09,0,0,0-.463-.776,5.65,5.65,0,0,0,3.662-5.541H46.695v-.858h3.159v-.776a7.186,7.186,0,0,0,0-.9,1.836,1.836,0,0,1,0-.245.1.1,0,0,1,.1-.1h0c1.035,0,1.035.2,1.035.231a.653.653,0,0,1-.1.2.9.9,0,0,0-.136.354v1.225h3.921a29.039,29.039,0,0,1-.558,5.691c-.177.939-.436,1.361-1.947,1.361H51.146a2.723,2.723,0,0,0-.245-.9h1.2c.885,0,1.1-.191,1.2-.613a23.566,23.566,0,0,0,.449-4.751Z" transform="translate(16.68 16.842)"/><path class="a" d="M60.7,54.9c-2.423,0-3.948-1.361-3.948-3.09a4.084,4.084,0,0,1,2.083-3.363,20.23,20.23,0,0,0-4.084.79l-.177.068-.1-.136a4.205,4.205,0,0,1-.177-.912h.354a51.529,51.529,0,0,0,6.235-.776c.354-.082.517-.177.613-.177s.109,0,.381.817h0c0,.082-.15,0-.531.082C59.106,48.58,57.5,50.1,57.5,51.752c0,1.879,1.906,2.26,3,2.26h.463a7.391,7.391,0,0,0-.2.939Zm1.007-4.629a9.53,9.53,0,0,0-.762-1.062l.476-.286a10.115,10.115,0,0,1,.817,1.007Zm.83-.463a9.326,9.326,0,0,0-.776-1.035l.476-.286a6.481,6.481,0,0,1,.817.994Z" transform="translate(19.625 17.095)"/><path class="a" d="M65.478,52.917c-.722.436-1.865,1.021-2.382,1.253a.939.939,0,0,0-.354.231c-.082.1-.136.15-.2.15a4.236,4.236,0,0,1-.368-.926c0-.041,0,0,.177,0a4.384,4.384,0,0,0,1.089-.354V49.977H62.279v-.8l1.157.068a14.512,14.512,0,0,0,0-1.988,2.53,2.53,0,0,1,0-.259h.1c.912.068.926.136.926.191a.368.368,0,0,1-.082.191,6.317,6.317,0,0,0-.123,1.92,7.482,7.482,0,0,0,1.212-.068v.8H64.253v2.954a14.811,14.811,0,0,0,1.361-.694Zm2.451.762v-3.7l-1.239.381V54.2c0,.5.3.531,1.8.531h1.225c.531,0,.749-.245.953-1.729a4.86,4.86,0,0,0,.722.463c-.354,1.606-.681,1.96-1.566,2.015H67.03a1.062,1.062,0,0,1-1.1-1.144h0V50.725c-.231.068-.476.136-.83.272l-.259-.749a9.775,9.775,0,0,0,1.184-.436V47.962a1.442,1.442,0,0,1,0-.259h.1a7.163,7.163,0,0,1,.817.109.093.093,0,0,1,.1.1.531.531,0,0,1,0,.191.776.776,0,0,0-.109.381v1.2l1.212-.354a21.891,21.891,0,0,0,0-2.314,2.233,2.233,0,0,1,0-.259h.082c.912.082.939.15.939.2a.531.531,0,0,1-.082.191.953.953,0,0,0-.082.476v1.552c.749-.218,1.5-.476,2.274-.722,0,1.116-.068,2.519-.163,3.335a1.144,1.144,0,0,1-1.361,1.171H69.4a2.6,2.6,0,0,0-.191-.776h.477c.449,0,.585-.15.626-.531.082-.735.123-1.688.123-2.3l-1.688.463v3.935Z" transform="translate(22.47 16.897)"/><path class="a" d="M73.632,52.991c-.762.449-1.729.926-2.246,1.171a.926.926,0,0,0-.354.218c-.082.1-.136.163-.2.163a5.238,5.238,0,0,1-.368-.926l.177-.068a3.975,3.975,0,0,0,.994-.3V50.077H70.583v-.79h1.048v-.531a13.516,13.516,0,0,0,0-1.661,1.266,1.266,0,0,1-.082-.259h.1c.912.068.926.136.926.191a.4.4,0,0,1-.082.2c-.1.163-.109.327-.109,2.124a5.08,5.08,0,0,0,1.1-.082v.79H72.366v2.859a13.844,13.844,0,0,0,1.266-.681Zm3,.408c-.939.368-1.96.694-2.655.885a.79.79,0,0,0-.354.177.354.354,0,0,1-.191.123s-.15,0-.3-.8c0-.068,0,0,.191-.068a18.079,18.079,0,0,0,3.322-.98Zm2.015-3.744v-.123s.844.109.844.272a.354.354,0,0,1-.1.163.735.735,0,0,0-.191.368A8.168,8.168,0,0,1,78,53.263c.286.953.694,1.552.83,1.552s.259,0,.259-1.892a2.355,2.355,0,0,0,.667.463c-.1,1.77-.34,2.369-.8,2.369s-1.171-.967-1.5-1.865a9.925,9.925,0,0,1-2.178,1.661,1.674,1.674,0,0,0-.463-.613,7.5,7.5,0,0,0,2.478-1.783,19.305,19.305,0,0,1-.49-4.207H73.51v-.79c.994,0,2.165.082,3.254.082a8.02,8.02,0,0,0,0-1.361,1.589,1.589,0,0,1,0-.218h.1c.83,0,.83.15.83.191a.858.858,0,0,1,0,.191c-.068.15-.109.231-.109,1.225h2.369v.79H77.621a18.746,18.746,0,0,0,.34,3.417,6.113,6.113,0,0,0,.681-2.628Zm-4.724,2.913V49.655h2.314v2.913Zm1.661-2.206h-.994v1.566h.994ZM78.71,48.28a4.248,4.248,0,0,0-.871-1.184l.517-.313a5.445,5.445,0,0,1,.926,1.157Z" transform="translate(25.466 16.864)"/><path class="a" d="M80.459,55.775V51.691A11.994,11.994,0,0,1,79.1,53.052a2.178,2.178,0,0,0-.368-.749A9.013,9.013,0,0,0,81.6,49.131H79.016v-.762H80.5v-.354a8.609,8.609,0,0,0,0-.98,1.463,1.463,0,0,0-.068-.286c0-.054,0,0,.082,0h0c.858.082.885.136.885.191a.572.572,0,0,1-.082.2,1.8,1.8,0,0,0-.082.722v.558h.436a.354.354,0,0,0,.259-.1h.1c.082,0,.64.368.64.49s-.191.218-.245.327a13.753,13.753,0,0,1-1.1,1.688A10.891,10.891,0,0,0,83.1,52.195a2.069,2.069,0,0,0-.436.681A12.553,12.553,0,0,1,81.3,51.623v4.22Zm7.583-.395H82.2v-.83h2.491V50.275H82.678v-.83a16.623,16.623,0,0,1,2.015.082,17.492,17.492,0,0,0-.082-2.628,2.53,2.53,0,0,1,0-.259h.082c.98.082,1.007.15,1.007.2a.449.449,0,0,1-.1.2c-.1.15-.1.313-.1,2.546a20.9,20.9,0,0,0,2.233-.082v.83H85.51v4.275H88.1Z" transform="translate(28.455 16.857)"/><path class="a" d="M93.78,50.481H89.26v-.653a12.907,12.907,0,0,1-1.892.953,2.519,2.519,0,0,0-.517-.722,6.807,6.807,0,0,0,4.084-3.1c0-.163,0-.245.15-.245h0c.83.2.926.231.926.34s0,.109-.123.163l-.109.068a9.162,9.162,0,0,0,4.37,2.655,2.273,2.273,0,0,0-.49.762,11.3,11.3,0,0,1-1.879-.871Zm1.062,5.241c-.231-.34-.49-.667-.735-.98a48.93,48.93,0,0,1-5.582.653.912.912,0,0,0-.368.1.572.572,0,0,1-.2.082c-.136,0-.3-.79-.327-.885h1.062a11.108,11.108,0,0,0,1.361-2.233H87.218v-.844c1.484,0,2.9.068,4.329.068s2.723,0,4.18-.068v.844c-1.647,0-3.213-.068-4.779-.068a13.028,13.028,0,0,1-1.266,2.192,29.1,29.1,0,0,0,3.866-.368,14.306,14.306,0,0,0-1.007-1.021l.585-.449a24.846,24.846,0,0,1,2.382,2.478ZM91.315,47.84a7.76,7.76,0,0,1-1.879,1.824h4.125a13.615,13.615,0,0,1-2.246-1.824Z" transform="translate(31.39 16.882)"/><path class="a" d="M99.5,53.621V52.26c-.912.395-1.62.871-1.62,1.443s.327.83,1.852.83a8.168,8.168,0,0,0,2.505-.395,3.674,3.674,0,0,0,0,.653,2.873,2.873,0,0,0,0,.354c-.708,0-1.552.136-2.342.136-1.035,0-2.723-.15-2.723-1.579,0-1.007,1.089-1.647,2.41-2.206,0-.422-.177-.912-.8-.912-.967,0-1.8,1.048-2.559,2.505l-.912-.626a13.11,13.11,0,0,0,2.3-3.54l-1.811.082-.1-.912a5.269,5.269,0,0,0,1.184.1H97.9a6.808,6.808,0,0,0,.259-1.076h0a1.363,1.363,0,0,0,0-.163h0c.994.123,1.021.2,1.021.231a.2.2,0,0,1,0,.109.763.763,0,0,0-.177.354c-.082.2-.15.395-.218.585a8.168,8.168,0,0,0,2.4-.49v.912a21.973,21.973,0,0,1-2.723.354,11.244,11.244,0,0,1-.735,1.457,2,2,0,0,1,1.212-.408,1.28,1.28,0,0,1,1.253,1.239,16.038,16.038,0,0,0,2.056-1.007c.136,0,.177-.15.218-.15h0a6.356,6.356,0,0,1,.531.858.082.082,0,0,1,0,.068s0,.082-.177.1a11.3,11.3,0,0,0-2.478.762v1.647Z" transform="translate(34.447 16.969)"/><path class="a" d="M104.52,46.68c.926,0,.939.163.939.231a.436.436,0,0,1-.082.2.667.667,0,0,0-.1.381v2.056a4.084,4.084,0,0,0,.871-1.266c0-.082,0-.163.082-.163h0c.286.136.681.368.681.463s0,.1-.123.136-.163.136-.231.218a10.81,10.81,0,0,1-1.361,1.443,12.088,12.088,0,0,1-.1,1.361,6.072,6.072,0,0,0,1.879,2.178,2.641,2.641,0,0,0-.5.626,7.992,7.992,0,0,1-1.5-1.811,6.126,6.126,0,0,1-1.729,2.968,2.124,2.124,0,0,0-.5-.653,5.541,5.541,0,0,0,1.7-3.73V48.763a13.611,13.611,0,0,0,0-1.756,1.362,1.362,0,0,1,0-.245.085.085,0,0,1,.1-.082Zm-1.171,1.8c.667.082.749.15.749.231a.422.422,0,0,1,0,.15.83.83,0,0,0-.123.381,12.689,12.689,0,0,1-.49,2.1,2.614,2.614,0,0,0-.64-.313,7.542,7.542,0,0,0,.49-2.26v-.231h0Zm5.922-.6h-2.723v-.762h5.446v.83h-2.015v6.548c0,1.076-.558,1.361-1.743,1.361h-.585a3.063,3.063,0,0,0-.245-.844h.9c.8,0,.885-.191.885-.6Z" transform="translate(37.136 16.871)"/><path class="a" d="M119.464,49a13.206,13.206,0,0,0-2.328-.123h-.926v1.688a2.315,2.315,0,0,1,.368,1.361,4.207,4.207,0,0,1-2.369,3.689,2.45,2.45,0,0,0-.817-.694,3.159,3.159,0,0,0,2.342-2.491,1.389,1.389,0,0,1-2.505-.98,1.5,1.5,0,0,1,1.525-1.675,1.606,1.606,0,0,1,.749.191c0-.218,0-.626,0-1.089a36.418,36.418,0,0,0-3.689.245,3.009,3.009,0,0,0-.476.136h0s-.109-.667-.136-.926h0a2.723,2.723,0,0,0,.49.082h.218c.708,0,2.151,0,3.567-.1V47.242c0-.231-.082-.136-.082-.177s0,0,.082,0h0c.109,0,1.007,0,1.007.177a.218.218,0,0,1,0,.136c-.1.163-.109.3-.109.953h3.24Zm-4.084,2.246a.694.694,0,0,0-.708-.762.885.885,0,0,0-.8.98c0,.422.2.83.722.83s.858-.844.858-1.048Z" transform="translate(40.19 17.004)"/><path class="a" d="M117.94,52.49a1.47,1.47,0,1,1,1.443,1.47A1.47,1.47,0,0,1,117.94,52.49Zm2.478,0a1.014,1.014,0,1,0-1.007,1.021,1.007,1.007,0,0,0,1.007-1.021Z" transform="translate(42.626 18.44)"/><line class="b" x2="5.296" transform="translate(0 68.167)"/><line class="b" x2="5.282" transform="translate(168.49 68.167)"/><path class="a" d="M39.674,13.11h.395A1.974,1.974,0,0,1,42.043,15.1V34.253H53.166a1.974,1.974,0,0,1,1.974,1.988h0a1.974,1.974,0,0,1-1.974,1.988H40.273A2.573,2.573,0,0,1,37.7,35.642V15.1a1.974,1.974,0,0,1,1.974-1.988Z" transform="translate(13.626 4.738)"/><path class="a" d="M68.155,13h0a3.1,3.1,0,0,1,2.832,1.879L79.849,35.3a2.124,2.124,0,0,1-1.933,2.982h0a2.11,2.11,0,0,1-1.947-1.293l-1.988-4.765H62.233L60.2,37.029a2.056,2.056,0,0,1-1.892,1.253h0A2.056,2.056,0,0,1,56.447,35.4l8.89-20.544A3.118,3.118,0,0,1,68.155,13Zm4.234,15.33L68.155,18.241,63.894,28.289Z" transform="translate(20.338 4.699)"/><path class="a" d="M83.169,13.11h0A2.982,2.982,0,0,1,85.7,14.471l6.7,10.483,6.685-10.483a3.009,3.009,0,0,1,2.532-1.361h0a3.022,3.022,0,0,1,3.022,3.036V36.1a2.178,2.178,0,0,1-2.165,2.178h0a2.178,2.178,0,0,1-2.11-2.178V20.217l-6.249,9.421a1.947,1.947,0,0,1-3.24,0l-6.317-9.367V36.1a2.178,2.178,0,0,1-2.165,2.178h0A2.178,2.178,0,0,1,80.16,36.1V16.146a3.022,3.022,0,0,1,3.009-3.036Z" transform="translate(28.972 4.738)"/><path class="a" d="M105.49,15.289a2.178,2.178,0,0,1,2.165-2.178h7.651a12.253,12.253,0,0,1,3.935.585,8.482,8.482,0,0,1,3,1.7,7.542,7.542,0,0,1,1.879,2.723,8.5,8.5,0,0,1,.667,3.444h0a8.4,8.4,0,0,1-.79,3.717A7.611,7.611,0,0,1,121.854,28a9.53,9.53,0,0,1-3.172,1.634,12.947,12.947,0,0,1-3.894.558h-4.956V36.1a2.178,2.178,0,0,1-2.178,2.178h0A2.178,2.178,0,0,1,105.49,36.1Zm9.448,10.891a5.8,5.8,0,0,0,3.948-1.253,4.084,4.084,0,0,0,1.443-3.24v-.082a3.975,3.975,0,0,0-1.47-3.363,6.167,6.167,0,0,0-3.921-1.144h-5.105v9.067Z" transform="translate(38.127 4.738)"/><circle class="a" cx="4.357" cy="4.357" r="4.357" transform="translate(4.357 15.616)"/><path class="a" d="M38.357,16.555a16.555,16.555,0,1,0-33.11,0h3.1a13.451,13.451,0,1,1,26.9,0v1.538H24.878V29.216H13.987v10.66H4.92v3.09H17.05V32.32H27.942V21.2H38.384Z" transform="translate(1.778 0)"/><path class="a" d="M11.7,9H6.229L.47,19.088H17.461Z" transform="translate(0.17 3.253)"/></svg>