<?xml version="1.0" encoding="utf-8"?>
<!-- Generator: Adobe Illustrator 24.0.3, SVG Export Plug-In . SVG Version: 6.00 Build 0)  -->
<svg version="1.1" id="レイヤー_1" xmlns="http://www.w3.org/2000/svg" xmlns:xlink="http://www.w3.org/1999/xlink" x="0px"
	 y="0px" viewBox="0 0 103.8 17.9" style="enable-background:new 0 0 103.8 17.9;" xml:space="preserve">
<style type="text/css">
	.st0{clip-path:url(#SVGID_2_);fill:#FF6200;}
	.st1{clip-path:url(#SVGID_2_);fill:#233241;}
</style>
<title>アセット 2</title>
<g>
	<defs>
		<rect id="SVGID_1_" x="0" y="1.3" width="103.8" height="15.4"/>
	</defs>
	<clipPath id="SVGID_2_">
		<use xlink:href="#SVGID_1_"  style="overflow:visible;"/>
	</clipPath>
	<path class="st0" d="M3.2,8.3C4.9,7.1,6.5,5.6,8,4.1c0.3-0.3,0.3-0.7,0-1l0,0C7.8,3,6.2,1.5,6,1.3C5.6,1.1,5.1,1.5,5.4,1.9
		c0.3,0.5,0.7,1.2,1,1.6C6.2,3.8,3,7.3,2.7,7.8C2.3,8.2,2.7,8.8,3.2,8.3L3.2,8.3z M10.7,6.4c0.4-0.5,0-1-0.6-0.6
		c-0.4,0.2-6,5.3-7,6.4c-1-0.9-2.1-1.8-2.4-2c-0.2-0.1-0.4-0.1-0.6,0c-0.1,0.2-0.1,0.4,0,0.5c0.8,1.1,1.6,2.1,2.5,3
		c0.2,0.3,0.6,0.4,0.9,0.1l0.1-0.1C6.3,11.7,8.7,9.2,10.7,6.4L10.7,6.4z M13.4,9.2C11.3,12,8.8,14.5,6,16.5
		c-0.6,0.4-0.9-0.1-0.6-0.6c2.2-2.7,4.7-5.2,7.5-7.3C13.3,8.3,13.7,8.8,13.4,9.2z"/>
	<path class="st1" d="M65.3,4.8h1.8v8.4h-1.8V4.8z M59.7,8.9c0.9,0,1.4-0.5,1.4-1.2c0-0.8-0.5-1.2-1.4-1.2h-1.8v2.4H59.7z M56,4.8
		h3.8c0.9-0.1,1.8,0.3,2.4,0.9C62.7,6.2,63,6.9,63,7.6c0.1,1.2-0.7,2.3-1.8,2.6l2,3h-2.1l-1.8-2.7h-1.4v2.7H56L56,4.8z M50.8,9.7
		L49.7,7l-1.1,2.7H50.8z M48.9,4.8h1.7l3.6,8.5h-1.9l-0.8-1.9h-3.5l-0.8,1.9h-1.9L48.9,4.8z M35.7,9.1L35.7,9.1
		c0-2.4,1.9-4.3,4.2-4.4h0.1c1.2-0.1,2.4,0.4,3.3,1.2l-1.2,1.4c-0.6-0.6-1.4-0.9-2.2-0.9c-1.4,0.1-2.5,1.2-2.4,2.6
		c-0.1,1.4,1,2.6,2.3,2.7l0.2,0c0.6,0,1.2-0.2,1.7-0.5V10H40V8.4h3.6v3.7c-1,0.9-2.2,1.3-3.6,1.3c-2.3,0.1-4.3-1.7-4.4-4
		C35.7,9.3,35.7,9.2,35.7,9.1L35.7,9.1z M31.4,9.7L30.3,7l-1.1,2.7H31.4z M29.5,4.8h1.7l3.6,8.5h-1.9l-0.8-1.9h-3.5l-0.8,1.9h-1.9
		L29.5,4.8z M17.6,4.8h1.8v3.7l3.4-3.7H25l-3.4,3.6l3.5,4.9h-2.2l-2.6-3.6l-1,1v2.6h-1.8V4.8z"/>
	<path class="st1" d="M102.1,5.7v1.6h1.5v0.8h-1.5v3.1c0,0.7,0.2,1.1,0.8,1.1c0.2,0,0.4,0,0.6-0.1l0.1,0.8c-0.3,0.1-0.6,0.1-0.9,0.1
		c-0.4,0-0.8-0.1-1.1-0.4c-0.3-0.4-0.5-1-0.4-1.5V8.1h-0.9V7.3h0.9V5.9L102.1,5.7z M96.7,9.1c0-0.7,0-1.3,0-1.8h0.9l0,1.1h0
		c0.2-0.7,0.8-1.2,1.6-1.3c0.1,0,0.2,0,0.3,0v1c-0.1,0-0.2,0-0.4,0c-0.7,0-1.3,0.6-1.4,1.3c0,0.2,0,0.3,0,0.5V13h-1V9.1z M90.9,10.2
		c0,1.3,0.7,2.2,1.7,2.2s1.7-0.9,1.7-2.2c0-1-0.5-2.2-1.7-2.2C91.4,8,90.9,9.1,90.9,10.2L90.9,10.2z M95.4,10.1
		c0.1,0.8-0.2,1.6-0.7,2.2c-0.5,0.6-1.3,0.9-2.1,0.9c-0.8,0-1.5-0.3-2-0.9c-0.5-0.6-0.8-1.3-0.7-2.1c-0.1-0.8,0.2-1.6,0.7-2.2
		c0.5-0.6,1.3-0.9,2.1-0.9C94.3,7.2,95.4,8.4,95.4,10.1L95.4,10.1z M84.5,10.7c0,0.1,0,0.3,0,0.4c0.2,0.7,0.8,1.2,1.6,1.2
		c1.1,0,1.7-0.9,1.7-2.2C87.9,9,87.3,8,86.2,8c-0.8,0-1.4,0.5-1.6,1.3c0,0.1-0.1,0.3-0.1,0.4V10.7z M83.5,9.2c0-0.7,0-1.3-0.1-1.9
		h0.9l0.1,1c0.4-0.7,1.2-1.1,2-1.1c1.4,0,2.4,1.2,2.4,2.9c0,2.1-1.3,3.1-2.6,3.1c-0.7,0-1.4-0.3-1.8-0.9v0v3.1h-1V9.2z M81.2,9.6
		c0-0.6-0.3-1.7-1.4-1.7c-0.9,0.1-1.6,0.8-1.6,1.7H81.2z M78.2,10.4c-0.1,0.5,0.1,1.1,0.5,1.5c0.4,0.4,0.9,0.6,1.5,0.5
		c0.5,0,1.1-0.1,1.6-0.3l0.2,0.7c-0.6,0.3-1.3,0.4-1.9,0.4c-0.8,0-1.5-0.2-2.1-0.8c-0.5-0.6-0.8-1.3-0.7-2.1c0-1.7,1-3.1,2.7-3.1
		c1.9,0,2.4,1.6,2.4,2.7c0,0.2,0,0.3,0,0.5L78.2,10.4z M72.2,8.8h1.1c1.1,0,1.8-0.6,1.8-1.5c0-1-0.7-1.5-1.8-1.5c-0.3,0-0.7,0-1,0.1
		V8.8z M71.2,5.2c0.7-0.1,1.3-0.2,2-0.2c0.8-0.1,1.6,0.1,2.3,0.6c0.4,0.4,0.7,0.9,0.6,1.5c0,0.9-0.6,1.8-1.5,2
		c0.7,0.3,1.1,0.9,1.2,1.7c0.1,0.7,0.4,1.5,0.6,2.2h-1.1c-0.2-0.6-0.4-1.3-0.5-1.9c-0.2-1.1-0.6-1.5-1.6-1.5h-1V13h-1.1V5.2z"/>
</g>
</svg>
