<?xml version="1.0" encoding="utf-8"?>
<!-- Generator: Adobe Illustrator 24.0.3, SVG Export Plug-In . SVG Version: 6.00 Build 0)  -->
<svg version="1.1" id="レイヤー_1" xmlns="http://www.w3.org/2000/svg" xmlns:xlink="http://www.w3.org/1999/xlink" x="0px"
	 y="0px" viewBox="0 0 277 60.3" style="enable-background:new 0 0 277 60.3;" xml:space="preserve">
<style type="text/css">
	.st0{clip-path:url(#SVGID_2_);fill:#FF6200;}
	.st1{clip-path:url(#SVGID_2_);fill:#233241;}
</style>
<title>kagari_top</title>
<g>
	<defs>
		<rect id="SVGID_1_" x="36.9" y="12.5" width="203.3" height="34.8"/>
	</defs>
	<clipPath id="SVGID_2_">
		<use xlink:href="#SVGID_1_"  style="overflow:visible;"/>
	</clipPath>
	<path class="st0" d="M43.9,28.5c3.9-2.9,7.6-6.1,11-9.6c0.3-0.3,0.5-0.7,0.5-1.1c0-0.4-0.2-0.8-0.5-1.1l-0.1-0.1
		c-0.4-0.3-4.2-3.6-4.6-3.9c-0.9-0.6-1.9,0.2-1.3,1.3c0.6,1,1.6,2.7,2.3,3.7c-0.5,0.5-7.7,8.6-8.5,9.6
		C41.9,28.3,42.7,29.5,43.9,28.5L43.9,28.5z M60.9,24.2c0.8-1.1,0.1-2.3-1.3-1.3c-0.8,0.6-13.6,11.9-16,14.4c-2.3-2-4.8-4.1-5.4-4.6
		c-0.2-0.2-0.4-0.2-0.7-0.2c-0.2,0-0.5,0.1-0.6,0.3c-0.1,0.2-0.2,0.4-0.2,0.6c0,0.2,0.1,0.4,0.2,0.6c1.7,2.4,3.6,4.7,5.6,6.8
		c0.2,0.3,0.6,0.5,1,0.6c0.4,0.1,0.8,0,1.1-0.3L45,41C51,36,56.3,30.4,60.9,24.2z M67,30.5c-4.7,6.4-10.4,12-16.9,16.5
		c-1.3,0.9-2.1-0.3-1.3-1.3c4.9-6.2,10.6-11.7,16.9-16.5C66.8,28.4,67.7,29.5,67,30.5z"/>
	<path class="st1" d="M184.5,20.6h4.1v19h-4.1V20.6z M171.9,29.9c2,0,3.2-1.1,3.2-2.7c0-1.8-1.2-2.7-3.3-2.7h-4.1v5.4H171.9z
		 M163.5,20.5h8.6c1-0.1,2,0.1,3,0.4c0.9,0.3,1.8,0.9,2.6,1.5c0.5,0.6,1,1.3,1.2,2c0.3,0.7,0.4,1.5,0.4,2.3c0.1,1.3-0.3,2.6-1,3.7
		c-0.7,1.1-1.8,1.9-3,2.3l4.6,6.8H175l-4-6.1h-3.3v6.1h-4.1L163.5,20.5z M151.7,31.6l-2.5-6.2l-2.5,6.2H151.7z M147.3,20.4h3.8
		l8.1,19.2h-4.4l-1.7-4.3h-8l-1.7,4.3h-4.2L147.3,20.4z M117.5,30.2c0-1.3,0.2-2.6,0.7-3.7c0.5-1.2,1.2-2.3,2.1-3.2
		c0.9-0.9,2-1.6,3.1-2.2c1.2-0.5,2.4-0.8,3.7-0.8h0.3c1.3-0.1,2.7,0.1,4,0.6c1.3,0.5,2.4,1.1,3.5,2.1l-2.6,3.2c-1.3-1.3-3.1-2-4.9-2
		c-1.5,0.1-2.9,0.7-3.9,1.9c-1,1.1-1.6,2.6-1.5,4.1c-0.1,1.5,0.4,3,1.4,4.1c1,1.1,2.4,1.8,3.9,1.9h0.4c1.4,0,2.8-0.4,3.9-1.1v-2.7
		h-4.2v-3.6h8.2v8.3c-2.2,2-5.1,3-8.1,3c-1.2,0.1-2.5-0.1-3.7-0.6c-1.2-0.4-2.3-1.1-3.2-1.9c-0.9-0.8-1.7-1.9-2.2-3
		c-0.5-1.1-0.8-2.4-0.9-3.6C117.5,30.6,117.5,30.4,117.5,30.2L117.5,30.2z M107.7,31.6l-2.5-6.2l-2.5,6.2H107.7z M103.4,20.4h3.8
		l8.1,19.2h-4.4l-1.7-4.3h-8l-1.7,4.3h-4.2L103.4,20.4z M76.4,20.5h4.2v8.4l7.6-8.4h5l-7.7,8.1l8,11h-5l-5.8-8.1l-2.2,2.3v5.8h-4.1
		V20.5z"/>
	<path class="st1" d="M225.7,30.2c0,3.9,2.1,7.3,5.8,7.3s5.8-3.4,5.8-7.5c0-3.6-1.9-7.4-5.8-7.4C227.6,22.6,225.7,26.3,225.7,30.2z
		 M239.8,29.9c0,6.2-3.8,9.5-8.4,9.5c-4.6,0-8.1-3.7-8.1-9.2c0-5.7,3.5-9.5,8.4-9.5S239.8,24.6,239.8,29.9L239.8,29.9z M220.5,30.7
		h-7v6.5h7.8v1.9h-10.2V21.1h9.8V23h-7.4v5.7h7L220.5,30.7z M197.6,36.3c1.3,0.8,2.7,1.2,4.2,1.2c2.4,0,3.8-1.2,3.8-3.1
		s-1-2.7-3.4-3.6c-2.9-1-4.8-2.6-4.8-5.1c0-2.8,2.3-4.9,5.8-4.9c1.4,0,2.8,0.3,4,0.9l-0.6,1.9c-1-0.6-2.2-0.9-3.4-0.9
		c-2.5,0-3.4,1.5-3.4,2.7c0,1.7,1.1,2.5,3.6,3.5c3.1,1.2,4.6,2.7,4.6,5.3c0,2.6-2,5.2-6.3,5.2c-1.6,0-3.2-0.4-4.6-1.2L197.6,36.3z"
		/>
</g>
</svg>
