<svg xmlns="http://www.w3.org/2000/svg" viewBox="0 0 103.75 17.89"><defs><style>.cls-1{fill:#6f7579;}.cls-2{fill:#ff8700;}.cls-3{fill:#666;}</style></defs><title>アセット 2</title><g id="レイヤー_2" data-name="レイヤー 2"><g id="レイヤー_1-2" data-name="レイヤー 1"><path class="cls-1" d="M82.06,13.29l.6-.7a3.16,3.16,0,0,0,2.23,1c1.06,0,1.7-.53,1.7-1.33s-.58-1.08-1.34-1.43l-1.17-.5a2.28,2.28,0,0,1-1.64-2.07A2.29,2.29,0,0,1,85,6.13a3.28,3.28,0,0,1,2.38,1l-.54.65A2.59,2.59,0,0,0,85,7c-.91,0-1.5.46-1.5,1.18s.7,1.08,1.33,1.35L86,10a2.25,2.25,0,0,1,1.66,2.16c0,1.27-1.05,2.29-2.74,2.29A3.86,3.86,0,0,1,82.06,13.29Z"/><path class="cls-1" d="M90,6.28h4.66v.86H91.05V9.67h3.06v.87H91.05v2.93h3.76v.87H90Z"/><path class="cls-1" d="M96.86,10.28c0-2.58,1.42-4.15,3.45-4.15s3.44,1.57,3.44,4.15-1.42,4.21-3.44,4.21S96.86,12.87,96.86,10.28Zm5.84,0c0-2-1-3.26-2.39-3.26s-2.4,1.24-2.4,3.26.94,3.32,2.4,3.32S102.7,12.3,102.7,10.28Z"/><path class="cls-2" d="M14.94,8.44a50.77,50.77,0,0,0-8.61,8.61c-.4.51,0,1.14.68.68a36.41,36.41,0,0,0,8.6-8.62C16,8.62,15.5,8.05,14.94,8.44Z"/><path class="cls-2" d="M12.42,5.92c.41-.59,0-1.17-.68-.67-.41.3-6.93,6.23-8.13,7.51-1.21-1-2.49-2.07-2.8-2.3a.46.46,0,0,0-.67,0,.46.46,0,0,0,0,.67,32.31,32.31,0,0,0,2.91,3.48.79.79,0,0,0,1.21.06A49.87,49.87,0,0,0,12.42,5.92Z"/><path class="cls-2" d="M3.64,8.31a47.32,47.32,0,0,0,5.61-5,.85.85,0,0,0,.22-.61.85.85,0,0,0-.3-.57C9,1.94,7,.26,6.76.1c-.45-.31-1,.14-.67.68s.85,1.36,1.19,1.87C7,2.9,3.36,7.12,3,7.64S3,8.77,3.64,8.31Z"/><polygon class="cls-3" points="19.87 5.27 21.92 5.27 21.92 9.34 25.7 5.27 28.17 5.27 24.38 9.23 28.34 14.59 25.88 14.59 23 10.63 21.92 11.75 21.92 14.59 19.87 14.59 19.87 5.27"/><path class="cls-3" d="M35.32,10.69l-1.23-3-1.24,3ZM33.17,5.2h1.89l4,9.38H36.91l-.85-2.08H32.12l-.85,2.08H29.18Z"/><path class="cls-3" d="M40.89,10v0a4.8,4.8,0,0,1,4.89-4.82,5.08,5.08,0,0,1,3.65,1.28L48.14,8A3.43,3.43,0,0,0,45.7,7,2.79,2.79,0,0,0,43,9.91v0a2.79,2.79,0,0,0,2.82,3,3.3,3.3,0,0,0,1.93-.56V11H45.72V9.22h4v4a6,6,0,0,1-4,1.47A4.65,4.65,0,0,1,40.89,10Z"/><path class="cls-3" d="M57.75,10.69l-1.24-3-1.24,3ZM55.59,5.2h1.89l4,9.38H59.33l-.85-2.08H54.54l-.85,2.08H51.61Z"/><path class="cls-3" d="M67.44,9.79c1,0,1.57-.53,1.57-1.31v0c0-.88-.61-1.33-1.61-1.33h-2V9.79ZM63.32,5.27h4.26a3.63,3.63,0,0,1,2.7,1,2.89,2.89,0,0,1,.8,2.12v0a2.88,2.88,0,0,1-2,2.88l2.27,3.34H69l-2-3H65.37v3H63.32Z"/><rect class="cls-3" x="74.2" y="5.27" width="2.05" height="9.31"/></g></g></svg>