<svg xmlns="http://www.w3.org/2000/svg" xmlns:xlink="http://www.w3.org/1999/xlink" viewBox="0 0 277 60.26"><defs><style>.cls-1{fill:none;}.cls-2{fill:#fff;}.cls-3{fill:#373c38;}.cls-4,.cls-8{fill:#fb7b3b;}.cls-4,.cls-5{fill-rule:evenodd;}.cls-5{fill:#ffa3cc;}.cls-6{clip-path:url(#clip-path);}.cls-7{fill:#333;}</style><clipPath id="clip-path"><rect class="cls-1" x="5.99" y="12.14" width="35.97" height="35.97"/></clipPath></defs><title>km_top</title><g id="レイヤー_2" data-name="レイヤー 2"><g id="レイヤー_1-2" data-name="レイヤー 1"><rect class="cls-2" width="277" height="60.26"/><path class="cls-3" d="M66.08,41l-7.83-8.95V41h-3.1V21.23h3.1v8.16l6.34-8.15h3.9l-7.26,9.51L70,41Z"/><path class="cls-3" d="M81.22,30.67V41H78.13V30.67l-6.94-9.43h3.59L79.69,28l4.91-6.77h3.57Z"/><path class="cls-4" d="M110,31.13a10.08,10.08,0,0,0-.77-3.87A9.78,9.78,0,0,0,104,22a10,10,0,0,0-7.71,0,9.81,9.81,0,0,0-3.14,2.11A10.33,10.33,0,0,0,91,27.26a10.09,10.09,0,0,0-.78,3.87A9.89,9.89,0,0,0,100.14,41a10.06,10.06,0,0,0,3.87-.78c.35-.15.68-.32,1-.5a3.7,3.7,0,0,1-1.53-1.35l-.14-.25a3.18,3.18,0,0,1-.16.32,3.55,3.55,0,0,1-2.53,1.69c-.15-.55-.33-1.18-.33-1.18l-1.08.25a2.93,2.93,0,0,1-.06-1.38,6.81,6.81,0,1,1,7.71-6,4.27,4.27,0,0,1,1.73.37l-.51,1.12,1,.49a3.59,3.59,0,0,1-2.6,1.85,2.73,2.73,0,0,1-.5,0,2.82,2.82,0,0,1,.36.33,4,4,0,0,1,1,1.8A9.71,9.71,0,0,0,109.26,35,9.9,9.9,0,0,0,110,31.13Z"/><path class="cls-4" d="M104.94,35.92a6.7,6.7,0,0,0,2-4,4.42,4.42,0,0,0-1.35.25,2.34,2.34,0,0,0-.5.25,2.66,2.66,0,0,0,.1-.49,3.61,3.61,0,0,0-1-3l-.77.81-.92-.81a3.94,3.94,0,0,0-1,2.93,2.26,2.26,0,0,0,.15.72l-.29-.18a4,4,0,0,0-3.39-.14l.58,1-1.2.62a4.36,4.36,0,0,0,2.52,1.92,1.71,1.71,0,0,0,.5.1c-.11.11-.22.22-.32.34a3.48,3.48,0,0,0-.8,1.66A6.64,6.64,0,0,0,105,35.91Zm-3.52-2a.19.19,0,0,1,.19.18h0v0l1,.5a.76.76,0,0,1,.17-.23l-.82-.87-.12,0a.24.24,0,1,1,.24-.24h0a.24.24,0,0,1,0,.14l.83.88a.91.91,0,0,1,.31-.12l0-.89a.21.21,0,0,1-.15-.25.21.21,0,0,1,.25-.15.21.21,0,0,1,.14.25.21.21,0,0,1-.14.15c0,.3,0,.6,0,.89a.84.84,0,0,1,.3.08l.38-.64a.15.15,0,0,1,0-.11.16.16,0,1,1,.16.16h0l-.38.65a.49.49,0,0,1,.16.16l.67-.62a.18.18,0,0,1,.08-.25.19.19,0,0,1,.26.07.2.2,0,0,1-.08.26.19.19,0,0,1-.19,0l-.68.63a1,1,0,0,1,0,.16l.9-.13a.17.17,0,0,1,.16-.14.16.16,0,0,1,.16.16.16.16,0,0,1-.3.07l-.9.14V35l.9.06a.17.17,0,1,1,.11.21.15.15,0,0,1-.11-.11l-.9-.06a.56.56,0,0,1,0,.12l.67.34a.13.13,0,1,1,0,.19.14.14,0,0,1,0-.09l-.67-.34a.62.62,0,0,1-.14.18l.38.6h0a.13.13,0,0,1,.13.14.13.13,0,0,1-.13.13.13.13,0,0,1-.14-.13.11.11,0,0,1,0-.08l-.38-.6-.16.08.3.83a.14.14,0,0,1,.12.14.13.13,0,0,1-.26,0,.2.2,0,0,1,0-.09l-.3-.85H103v1s.23.07.23.12,0,.13-.06.13-.19-.06-.19-.13,0-.08,0-.12v-1a.43.43,0,0,0-.12-.08c-.21.22-.37.45-.57.67a.19.19,0,0,1,0,.08.14.14,0,0,1-.13.15h0a.15.15,0,0,1-.15-.15h0a.16.16,0,0,1,.16-.15h.06l.61-.66-.12-.13-.81.39h0a.14.14,0,0,1-.15.16.16.16,0,0,1-.16-.15.16.16,0,0,1,.16-.16.15.15,0,0,1,.11,0l.79-.37a.77.77,0,0,1-.08-.19l-1.1,0a.14.14,0,0,1-.17.07.14.14,0,0,1-.07-.17.13.13,0,0,1,.17-.07.1.1,0,0,1,.07.07l1.08,0v-.07a.63.63,0,0,1,0-.19l-1.08-.5a.2.2,0,0,1-.26,0,.19.19,0,0,1,0-.27.2.2,0,0,1,.13-.06Z"/><path class="cls-5" d="M105,39.73a3.3,3.3,0,0,0,1.19.33l.06-1.11s.66,0,1.23,0a5.15,5.15,0,0,0-.12-1.1l-.22.24A10.57,10.57,0,0,1,105,39.73Z"/><path class="cls-3" d="M126.24,24H120.8V41h-3.12V24h-5.44V21.24h14Z"/><path class="cls-3" d="M134.5,40.24a9.88,9.88,0,0,1-6.05-9.11,10.08,10.08,0,0,1,.77-3.87,10.51,10.51,0,0,1,2.13-3.14A9.74,9.74,0,0,1,134.5,22a9.94,9.94,0,0,1,3.84-.77,10.08,10.08,0,0,1,3.87.77,9.78,9.78,0,0,1,5.25,5.25,10.08,10.08,0,0,1,.77,3.87,10,10,0,0,1-.77,3.84,9.78,9.78,0,0,1-2.1,3.14,10.37,10.37,0,0,1-3.15,2.13,10.09,10.09,0,0,1-3.87.78A10,10,0,0,1,134.5,40.24Zm-1-13.91a6.75,6.75,0,1,0,4.8-2,6.75,6.75,0,0,0-4.8,2Z"/><path class="cls-3" d="M172.33,41V30.51l-6.18,9.23-6.21-9.23V41h-3.1V20.33l9.31,13.84,9.3-13.85V41Z"/><path class="cls-3" d="M190.29,36.78h-7L181.58,41h-3.41l8.61-20.69L195.36,41H192ZM189.17,34l-2.4-6-2.4,6Z"/><path class="cls-3" d="M208.57,37a5.7,5.7,0,0,1-4.45,3.87,6,6,0,0,1-1.2.11,6.43,6.43,0,0,1-2.34-.43,7.79,7.79,0,0,1-3.28-2.53l2.45-1.92a4.43,4.43,0,0,0,1.95,1.55,3,3,0,0,0,1.79.16,2.62,2.62,0,0,0,2.08-1.66,2.34,2.34,0,0,0-.9-2.24c-.9-.83-2.32-2.25-2.42-2.35l-2.43-2.3a5.73,5.73,0,0,1-1.52-2.37,4.26,4.26,0,0,1-.05-2.5,4.58,4.58,0,0,1,1.47-2.22,5.26,5.26,0,0,1,2.37-1.12,5.31,5.31,0,0,1,2.93.22,6.53,6.53,0,0,1,2.7,2l-2.42,1.94a2.67,2.67,0,0,0-2.62-1.12,1.79,1.79,0,0,0-1.43,1.15c-.11.37-.09,1,.74,1.8l3.31,3.17c.48.48,1.06,1,1.49,1.44a5.9,5.9,0,0,1,1.73,2.58,4.6,4.6,0,0,1,0,2.77Z"/><path class="cls-3" d="M224.89,24h-5.44V41h-3.12V24h-5.44V21.24h14Z"/><path class="cls-3" d="M230.81,29.29H238v2.79h-7.22v6.14h8.77V41H227.74V21.23H239.6V24h-8.79Z"/><path class="cls-3" d="M257.09,41h-3.5l-5-6.69h-2.25V41h-3.09V21.23h5.84a6.33,6.33,0,0,1,4.95,2,6.7,6.7,0,0,1,1.6,4.59,6.72,6.72,0,0,1-1.6,4.56,5.56,5.56,0,0,1-2.29,1.52Zm-8-9.44A3.62,3.62,0,0,0,252,30.51a3.91,3.91,0,0,0,.9-2.7,4,4,0,0,0-.9-2.7,3.63,3.63,0,0,0-2.85-1h-2.77v7.48Z"/><path class="cls-3" d="M270.83,37a5.73,5.73,0,0,1-4.45,3.87,6.09,6.09,0,0,1-1.2.11,6.48,6.48,0,0,1-2.35-.43,7.85,7.85,0,0,1-3.28-2.53L262,36.14A4.43,4.43,0,0,0,264,37.69a3.07,3.07,0,0,0,1.8.16,2.62,2.62,0,0,0,2.07-1.66,2.32,2.32,0,0,0-.9-2.24c-.89-.83-2.32-2.25-2.42-2.35l-2.42-2.3a5.63,5.63,0,0,1-1.52-2.37,4.26,4.26,0,0,1-.06-2.5A4.58,4.58,0,0,1,262,22.21a5.26,5.26,0,0,1,2.37-1.12,5.36,5.36,0,0,1,2.94.22,6.57,6.57,0,0,1,2.69,2l-2.42,1.94a2.66,2.66,0,0,0-2.61-1.12,1.79,1.79,0,0,0-1.44,1.15c-.11.37-.08,1,.74,1.8l3.31,3.17c.48.48,1.07,1,1.49,1.44a5.82,5.82,0,0,1,1.73,2.58A4.68,4.68,0,0,1,270.83,37Z"/><g class="cls-6"><g class="cls-6"><path class="cls-7" d="M39.11,20.43H35.43V17l-1-.83v4.24H26v.84H39.61c-.16-.29-.33-.56-.5-.84"/><path class="cls-7" d="M41.55,33.81H35.43V29H41.9a17.68,17.68,0,0,0-.61-3.68v2.85H29.15v-4.6H40.71c-.11-.28-.23-.56-.35-.84h-12V29h6.29v4.78H17v3.77H31.87v2.09H8.72q.27.42.57.84H32.71V36.74H17.87V34.65H34.6v9.21h.83V34.65h5.93c.07-.27.14-.55.2-.84"/><path class="cls-7" d="M9.79,19.76l-.24-.42c-.21.27-.41.56-.6.86l.84-.45"/><path class="cls-8" d="M18.22,20.82a.26.26,0,0,0,.26-.25.26.26,0,0,0-.52,0h0a.27.27,0,0,0,0,.12l-.89.84a1.14,1.14,0,0,0-.22-.22l.51-.88h.05a.21.21,0,0,0,.23-.21.22.22,0,0,0-.21-.24.24.24,0,0,0-.24.22.25.25,0,0,0,.06.16l-.51.86a1.12,1.12,0,0,0-.44-.09q0-.61,0-1.23a.29.29,0,0,0,.21-.34.28.28,0,0,0-.34-.2.29.29,0,0,0-.21.34.3.3,0,0,0,.21.2c0,.41,0,.83,0,1.24a.9.9,0,0,0-.42.16l-1.1-1.2a.3.3,0,0,0,.06-.18.32.32,0,0,0-.64,0,.32.32,0,0,0,.32.32h0a.3.3,0,0,0,.16,0l1.12,1.18a1,1,0,0,0-.23.31L14,21v0a.26.26,0,0,0-.52,0,.26.26,0,0,0,.46.17l1.47.68a1.09,1.09,0,0,0,0,.26v.09l-1.47-.05a.17.17,0,0,0-.22-.1.18.18,0,0,0-.1.23.18.18,0,0,0,.23.1.15.15,0,0,0,.09-.1l1.49.05a.8.8,0,0,0,.11.25l-1.07.51a.21.21,0,0,0-.3.29.22.22,0,0,0,.3,0,.22.22,0,0,0,.06-.15v0l1.09-.52a1.21,1.21,0,0,0,.16.16l-.82.9h-.08a.21.21,0,0,0-.21.21.21.21,0,0,0,.42,0,.17.17,0,0,0,0-.1l.84-.9a.51.51,0,0,0,.32.1v1.35s-.12.09-.12.17a.17.17,0,0,0,.18.17.2.2,0,0,0,.2-.17c0-.08-.06-.14-.06-.17V23h.1l.4,1.16a.16.16,0,0,0-.06.13.18.18,0,0,0,.17.17.18.18,0,0,0,0-.35L16.64,23a1,1,0,0,0,.21-.1l.52.81a.15.15,0,0,0,0,.11.18.18,0,0,0,.18.18.18.18,0,0,0,.19-.18.19.19,0,0,0-.19-.19h0L17,22.78a1.12,1.12,0,0,0,.19-.24l.9.45h0a.19.19,0,1,0,.19-.18.21.21,0,0,0-.13.05l-.9-.45a1.54,1.54,0,0,0,.05-.17l1.22.08a.23.23,0,0,0,.22.18.23.23,0,0,0,0-.46.25.25,0,0,0-.23.15l-1.2-.08V22l1.22-.18a.22.22,0,1,0,.43-.13.22.22,0,0,0-.28-.15.23.23,0,0,0-.15.15l-1.22.18a.85.85,0,0,0-.09-.22l.93-.85a.23.23,0,0,0,.14,0m-1.7,1.28a0,0,0,0,1,0,0v0a.21.21,0,0,1,0,.06h-.27l0,0V22l.05-.07h0l.09,0h.06s0,0,0,.05v.16Z"/><path class="cls-7" d="M10,18.8v0Z"/><path class="cls-7" d="M8.48,21c.12-.22.25-.43.39-.64-.13.21-.27.42-.39.64"/><path class="cls-7" d="M10.45,18.23l-.11.13Z"/><path class="cls-7" d="M23.79,19.64c.12-.27.26-.58.4-.87l.32-.7-.72-.29a6.41,6.41,0,0,0-2.51-.55,6.7,6.7,0,0,0-1.73.25,5.55,5.55,0,0,0-1.66-4.13l-.16-.13c-.38.14-.75.3-1.12.45l-.28.32-.13-.12-.9.45.2-.11.9.77,1-1.09A4.87,4.87,0,0,1,18.8,18a4.67,4.67,0,0,1-.13.65,2.78,2.78,0,0,1,.67-.33,5.37,5.37,0,0,1,4.18.14c-.33.71-.68,1.52-.68,1.52l1.35.67a4.86,4.86,0,0,1-3.52,2.5,3.05,3.05,0,0,1-.67.07,5.23,5.23,0,0,1,.49.45A5.4,5.4,0,0,1,22,27.56l-1.67,0L20.25,29a4.91,4.91,0,0,1-3.69-2.25,3.79,3.79,0,0,1-.2-.34,3.07,3.07,0,0,1-.2.45c-1,1.71-2.25,1.91-3.43,2.29-.2-.75-.45-1.6-.45-1.6l-1.46.35a4.5,4.5,0,0,1,1-4.14q.22-.24.45-.45a2.23,2.23,0,0,1-.67-.14A6.25,6.25,0,0,1,8.46,21c-.13.23-.26.45-.39.7a6.76,6.76,0,0,0,2.87,2,5.13,5.13,0,0,0-.81,4.42l.21.63,1.42-.34c.08.28.17.6.25.9l.21.74.73-.24.41-.12a5.2,5.2,0,0,0,3.06-1.93,5.56,5.56,0,0,0,3.81,2h.71L21,28.24h1.72v-.77a6.06,6.06,0,0,0-1.25-3.84,5.54,5.54,0,0,0,3.38-2.76l.29-.64Z"/><path class="cls-7" d="M13.59,18.6l.4.25a3.37,3.37,0,0,1-.21-1,5.37,5.37,0,0,1,.71-3.06,11.37,11.37,0,0,0-1.14.77,6.12,6.12,0,0,0-.3,2,5.78,5.78,0,0,0-1.69-.3c-.25.24-.49.49-.72.74a5.2,5.2,0,0,1,2.95.59"/><path class="cls-7" d="M14.85,14.6l-.21.12Z"/><path class="cls-7" d="M24,12.14a18,18,0,1,0,18,18,18,18,0,0,0-18-18m0,35.14A17.15,17.15,0,1,1,41.12,30.13,17.14,17.14,0,0,1,24,47.28h0"/></g></g></g></g></svg>