<svg xmlns="http://www.w3.org/2000/svg" viewBox="0 0 277 60.26"><defs><style>.cls-1{fill:#fff;}.cls-2{fill:#231815;}.cls-3{fill:#f7b200;}</style></defs><title>lm_top</title><g id="レイヤー_2" data-name="レイヤー 2"><g id="レイヤー_1-2" data-name="レイヤー 1"><rect class="cls-1" width="277" height="60.26"/><path class="cls-2" d="M58.7,22.55H59a1.67,1.67,0,0,1,1.67,1.68V40.42h9.41a1.68,1.68,0,0,1,1.67,1.69h0a1.68,1.68,0,0,1-1.67,1.68H59.21A2.19,2.19,0,0,1,57,41.6V24.23A1.68,1.68,0,0,1,58.7,22.55Z"/><path class="cls-2" d="M88.48,22.4h0A2.62,2.62,0,0,1,90.88,24l7.49,17.29a1.8,1.8,0,0,1-1.64,2.52h0a1.77,1.77,0,0,1-1.64-1.1l-1.68-4h-10l-1.72,4.07a1.72,1.72,0,0,1-1.59,1.06h0a1.74,1.74,0,0,1-1.59-2.44L86.08,24A2.61,2.61,0,0,1,88.48,22.4Zm3.58,13-3.64-8.5-3.61,8.5Z"/><path class="cls-2" d="M108.45,22.55h0a2.54,2.54,0,0,1,2.15,1.18l5.65,8.86,5.66-8.86a2.52,2.52,0,0,1,2.14-1.18h0a2.56,2.56,0,0,1,2.55,2.57V41.94a1.84,1.84,0,0,1-1.83,1.85h0a1.84,1.84,0,0,1-1.84-1.85V28.56l-5.29,8a1.64,1.64,0,0,1-2.73,0l-5.34-7.91V41.94a1.84,1.84,0,0,1-1.83,1.85h0a1.84,1.84,0,0,1-1.84-1.85V25.12A2.56,2.56,0,0,1,108.45,22.55Z"/><path class="cls-2" d="M135.06,24.4a1.84,1.84,0,0,1,1.83-1.85h6.47a10.54,10.54,0,0,1,3.33.5,6.93,6.93,0,0,1,2.52,1.44,6.3,6.3,0,0,1,1.6,2.25,7.37,7.37,0,0,1,.56,2.91v.06a7,7,0,0,1-.67,3.14,6.36,6.36,0,0,1-1.81,2.26,7.92,7.92,0,0,1-2.68,1.38,11,11,0,0,1-3.29.47h-4.19v5a1.84,1.84,0,0,1-1.84,1.85h0a1.84,1.84,0,0,1-1.83-1.85Zm8,9.2a4.88,4.88,0,0,0,3.33-1.07,3.47,3.47,0,0,0,1.23-2.74v-.06a3.4,3.4,0,0,0-1.24-2.85,5.28,5.28,0,0,0-3.32-1h-4.32V33.6Z"/><path class="cls-2" d="M162.77,26h3.36l2.52,12.31L171.26,26h3.27l.33,17.77h-2.41l-.26-12.35-2.53,12.35h-1.95l-2.57-12.39-.24,12.39h-2.43Z"/><path class="cls-2" d="M179.41,43.5a3,3,0,0,1-1-1.13,3.16,3.16,0,0,1-.34-1.43,4.06,4.06,0,0,1,.69-2.43A4.76,4.76,0,0,1,180.51,37a25.39,25.39,0,0,1,2.71-1.16v-1.1a2.94,2.94,0,0,0-.21-1.28.81.81,0,0,0-.8-.41q-1,0-1.05,1.41l0,.76-2.83-.11a4.69,4.69,0,0,1,1.09-3.23,4.11,4.11,0,0,1,3.08-1,3.5,3.5,0,0,1,2.77,1,4.21,4.21,0,0,1,.9,2.88v5.86a24.6,24.6,0,0,0,.22,3.11h-2.68c-.15-.79-.25-1.39-.31-1.82a3.17,3.17,0,0,1-.89,1.44,2.24,2.24,0,0,1-1.61.58A2.48,2.48,0,0,1,179.41,43.5Zm3.25-2a2.52,2.52,0,0,0,.56-.57V37.34a7.65,7.65,0,0,0-1.73,1.3,2.25,2.25,0,0,0-.57,1.57,2,2,0,0,0,.27,1.11.87.87,0,0,0,.76.4A1.11,1.11,0,0,0,182.66,41.46Z"/><path class="cls-2" d="M189.47,31.06h3v2a5.14,5.14,0,0,1,1.29-1.62,2.39,2.39,0,0,1,1.47-.49,2,2,0,0,1,.46,0v3.1a3.52,3.52,0,0,0-1.23-.27,2.35,2.35,0,0,0-2,1.23v8.73h-3Z"/><path class="cls-2" d="M198.29,26h3V36.17l3.25-5.11h3.27l-3.18,5.09,3.11,7.59h-3.13l-2.31-6.25-1,1.4v4.83h-3Z"/><path class="cls-2" d="M210.78,42.77a5.29,5.29,0,0,1-1-3.48V35.52a5.21,5.21,0,0,1,1-3.49,3.81,3.81,0,0,1,3.08-1.16,3.55,3.55,0,0,1,3,1.2,6.16,6.16,0,0,1,.89,3.64v1.82h-5.05V40a2.5,2.5,0,0,0,.27,1.33,1,1,0,0,0,.87.42.89.89,0,0,0,.82-.4,2.41,2.41,0,0,0,.26-1.24V39.07h2.8V40a4.14,4.14,0,0,1-1,3,3.88,3.88,0,0,1-2.92,1A3.8,3.8,0,0,1,210.78,42.77ZM215,36.06v-1.2a3.07,3.07,0,0,0-.25-1.42,1.07,1.07,0,0,0-1.73,0,4.09,4.09,0,0,0-.24,1.71v.87Z"/><path class="cls-2" d="M222.13,43.06a3.69,3.69,0,0,1-.72-2.48V33h-1.27v-2h1.27V27.27h3v3.79h1.91v2h-1.91v7.3a1.3,1.3,0,0,0,.27.92,1.18,1.18,0,0,0,.87.29,4,4,0,0,0,.92-.09v2.3a10.31,10.31,0,0,1-1.91.16A3,3,0,0,1,222.13,43.06Z"/><path class="cls-2" d="M229.38,26.57h3v2.48h-3Zm0,4.49h3V43.74h-3Z"/><path class="cls-2" d="M235.83,31.06h3v1.25a4.48,4.48,0,0,1,3.07-1.44,1.8,1.8,0,0,1,1.61.79,3.43,3.43,0,0,1,.54,2V43.74h-3v-9.5a1.65,1.65,0,0,0-.19-.9.76.76,0,0,0-.67-.28,2.62,2.62,0,0,0-1.38.61V43.74h-3Z"/><path class="cls-2" d="M247.85,47.29a2,2,0,0,1-1.18-1.88,2.2,2.2,0,0,1,.52-1.46,4,4,0,0,1,1.38-1,2.25,2.25,0,0,1-1.1-.65,1.48,1.48,0,0,1-.39-1,2.29,2.29,0,0,1,.34-1.23,6,6,0,0,1,1.07-1.16,3.24,3.24,0,0,1-1-1.39,5.71,5.71,0,0,1-.34-2.14,4.71,4.71,0,0,1,1-3.31,3.91,3.91,0,0,1,3-1.14,3.25,3.25,0,0,1,2.8,1.18,3.84,3.84,0,0,1,.64-.68,4.55,4.55,0,0,1,1-.64l.41-.17.71,1.6a9.75,9.75,0,0,0-1.08.38,6.59,6.59,0,0,0-1,.48,4.27,4.27,0,0,1,.33,1.09,6.3,6.3,0,0,1,.14,1.25,4.93,4.93,0,0,1-1,3.24,3.66,3.66,0,0,1-3,1.15,5.76,5.76,0,0,1-1.71-.26,1.74,1.74,0,0,0-.38.88.44.44,0,0,0,.27.4,2.27,2.27,0,0,0,.87.21l2.66.26q3.08.33,3.07,3.21a3,3,0,0,1-1.2,2.59,6.39,6.39,0,0,1-3.74.87A7,7,0,0,1,247.85,47.29Zm5.39-1.87a.89.89,0,0,0,.6-.87.85.85,0,0,0-.38-.77,3.63,3.63,0,0,0-1.44-.37l-2.17-.19a3.28,3.28,0,0,0-.64.67,1.19,1.19,0,0,0-.22.71.86.86,0,0,0,.55.81,4.52,4.52,0,0,0,1.84.26A5.11,5.11,0,0,0,253.24,45.42Zm-1.05-8.13a5.55,5.55,0,0,0,.25-2,5.77,5.77,0,0,0-.25-2,1,1,0,0,0-1-.59,1,1,0,0,0-1,.58,5.18,5.18,0,0,0-.27,2,5.1,5.1,0,0,0,.27,1.93,1,1,0,0,0,1,.61A1,1,0,0,0,252.19,37.29Z"/><circle class="cls-3" cx="21.01" cy="24.17" r="3.68"/><path class="cls-2" d="M47.57,21.28a14,14,0,0,0-28,0H22.2a11.38,11.38,0,0,1,22.75,0v1.31H36.18V32H27v9H19.31v2.62H29.57v-9H38.8v-9.4h8.79Z"/><polygon class="cls-2" points="23.68 17.65 21.37 17.65 19.05 17.65 14.18 26.18 21.37 26.18 28.55 26.18 23.68 17.65"/></g></g></svg>