<svg xmlns="http://www.w3.org/2000/svg" xmlns:xlink="http://www.w3.org/1999/xlink" viewBox="0 0 625.71 158.68"><defs><style>.cls-1{fill:none;}.cls-2{clip-path:url(#clip-path);}.cls-3{fill:#231815;}.cls-4{fill:#f7b200;}.cls-5{fill:#fdc82f;}</style><clipPath id="clip-path" transform="translate(-0.09 -0.38)"><rect class="cls-1" width="626" height="159"/></clipPath></defs><g id="レイヤー_2" data-name="レイヤー 2"><g id="レイヤー_1-2" data-name="レイヤー 1"><g class="cls-2"><path class="cls-3" d="M3,122.15h.57a2.91,2.91,0,0,1,2.9,2.92v28.14H22.8a2.91,2.91,0,0,1,2.9,2.92h0a2.92,2.92,0,0,1-2.9,2.93H3.87a3.8,3.8,0,0,1-3.78-3.82V125.07A2.91,2.91,0,0,1,3,122.15Z" transform="translate(-0.09 -0.38)"/><path class="cls-3" d="M54.72,121.88h0a4.58,4.58,0,0,1,4.18,2.76l13,30a3.13,3.13,0,0,1-2.84,4.38h0a3.09,3.09,0,0,1-2.86-1.91l-2.91-7H46l-3,7.07a3,3,0,0,1-2.77,1.84h0a3,3,0,0,1-2.76-4.25l13.07-30.17A4.55,4.55,0,0,1,54.72,121.88Zm6.22,22.52-6.32-14.76L48.34,144.4Z" transform="translate(-0.09 -0.38)"/><path class="cls-3" d="M89.43,122.15h0a4.43,4.43,0,0,1,3.73,2L103,139.6l9.83-15.4a4.43,4.43,0,0,1,3.73-2h0a4.45,4.45,0,0,1,4.43,4.47v29.22a3.21,3.21,0,0,1-3.19,3.22h0a3.21,3.21,0,0,1-3.19-3.22V132.59l-9.19,13.84a2.85,2.85,0,0,1-4.75,0l-9.27-13.75v23.15a3.21,3.21,0,0,1-3.19,3.22h0A3.21,3.21,0,0,1,85,155.84V126.62A4.45,4.45,0,0,1,89.43,122.15Z" transform="translate(-0.09 -0.38)"/><path class="cls-3" d="M135.66,125.36a3.2,3.2,0,0,1,3.19-3.21h11.24a18,18,0,0,1,5.78.87,12.18,12.18,0,0,1,4.39,2.5,11,11,0,0,1,2.77,3.9,12.73,12.73,0,0,1,1,5.07v.1a12.19,12.19,0,0,1-1.15,5.46A11.33,11.33,0,0,1,159.7,144a14.19,14.19,0,0,1-4.66,2.4,19.6,19.6,0,0,1-5.71.82H142v8.64a3.21,3.21,0,0,1-3.19,3.22h0a3.21,3.21,0,0,1-3.19-3.22Zm13.88,16a8.5,8.5,0,0,0,5.8-1.85,6,6,0,0,0,2.12-4.77v-.1a5.86,5.86,0,0,0-2.15-5,9.16,9.16,0,0,0-5.77-1.67H142v13.34Z" transform="translate(-0.09 -0.38)"/><circle class="cls-4" cx="52.77" cy="45.71" r="9.98"/><path class="cls-3" d="M124.76,38.27a37.89,37.89,0,0,0-75.78,0h7.1a30.8,30.8,0,1,1,61.59,0v3.52H93.91V67.25h-25V91.64H48.23v7.1H76V74.35h25V48.88h23.81Z" transform="translate(-0.09 -0.38)"/><polygon class="cls-3" points="60 28.04 53.73 28.04 47.46 28.04 34.27 51.13 53.73 51.13 73.18 51.13 60 28.04"/><path class="cls-3" d="M239.84,57.43a1.62,1.62,0,0,1,1.23.55l3.45,3.74a18.77,18.77,0,0,1-7,5.43,24.28,24.28,0,0,1-10,1.89A23.62,23.62,0,0,1,218,67.25a20.6,20.6,0,0,1-7.14-5,21.61,21.61,0,0,1-4.54-7.61A28.62,28.62,0,0,1,204.76,45a26.07,26.07,0,0,1,1.76-9.72,21.91,21.91,0,0,1,12.57-12.55A26.15,26.15,0,0,1,228.9,21a23.07,23.07,0,0,1,9.16,1.68,21.22,21.22,0,0,1,6.72,4.44l-2.93,4.07a2.66,2.66,0,0,1-.66.68,2,2,0,0,1-1.13.29,2.55,2.55,0,0,1-1.52-.58,19.51,19.51,0,0,0-2-1.27,15.91,15.91,0,0,0-3-1.27,17.48,17.48,0,0,0-10.77.57,13.48,13.48,0,0,0-4.78,3.3,15.11,15.11,0,0,0-3.13,5.22A20.05,20.05,0,0,0,213.71,45a20.59,20.59,0,0,0,1.12,7.06,15.52,15.52,0,0,0,3,5.2,13,13,0,0,0,4.53,3.24A13.92,13.92,0,0,0,228,61.62a24.37,24.37,0,0,0,3.24-.19,13.76,13.76,0,0,0,2.67-.62,11.61,11.61,0,0,0,2.31-1.09,13.69,13.69,0,0,0,2.16-1.64,3.07,3.07,0,0,1,.69-.48A1.79,1.79,0,0,1,239.84,57.43Z" transform="translate(-0.09 -0.38)"/><path class="cls-3" d="M265.05,50.14V68.52H256.3v-47h14.35a30.06,30.06,0,0,1,8.25,1,15.79,15.79,0,0,1,5.63,2.79,10.82,10.82,0,0,1,3.22,4.28,14.26,14.26,0,0,1,1,5.48,14.12,14.12,0,0,1-.7,4.49,13,13,0,0,1-2,3.84,13.48,13.48,0,0,1-3.26,3,17,17,0,0,1-4.41,2.09,8.75,8.75,0,0,1,2.87,2.7L293,68.52h-7.88a3.85,3.85,0,0,1-1.93-.45,4,4,0,0,1-1.36-1.31L272,51.7a3.39,3.39,0,0,0-1.22-1.2,4.24,4.24,0,0,0-2-.36Zm0-6.28h5.47a13.61,13.61,0,0,0,4.31-.62,8.31,8.31,0,0,0,3-1.71,6.81,6.81,0,0,0,1.77-2.59,8.9,8.9,0,0,0,.59-3.28,6.69,6.69,0,0,0-2.36-5.5q-2.37-1.92-7.21-1.92h-5.6Z" transform="translate(-0.09 -0.38)"/><path class="cls-3" d="M333.19,21.47v7H312.33v13h16.43v6.74H312.33V61.53h20.86v7H303.51v-47Z" transform="translate(-0.09 -0.38)"/><path class="cls-3" d="M387,68.52h-6.77a3,3,0,0,1-1.87-.57,3.24,3.24,0,0,1-1.05-1.41l-3.52-9.6H354.3l-3.51,9.6a3.11,3.11,0,0,1-1,1.36,2.83,2.83,0,0,1-1.87.62h-6.8l18.48-47h8.95ZM356.55,50.76h15l-5.73-15.65c-.26-.7-.55-1.52-.86-2.46s-.63-2-.93-3.08c-.3,1.11-.6,2.14-.89,3.1s-.58,1.78-.87,2.5Z" transform="translate(-0.09 -0.38)"/><path class="cls-3" d="M429.89,21.47v7.19H415.73V68.52H407V28.66H392.76V21.47Z" transform="translate(-0.09 -0.38)"/><path class="cls-3" d="M450.19,68.52H441.4v-47h8.79Z" transform="translate(-0.09 -0.38)"/><path class="cls-3" d="M461,21.47h7.06a3,3,0,0,1,1.86.56A3.28,3.28,0,0,1,471,23.46l11.07,28.7c.36.93.72,2,1.05,3.07s.66,2.29,1,3.53a40,40,0,0,1,1.86-6.6l11-28.7a3.32,3.32,0,0,1,1-1.37,2.83,2.83,0,0,1,1.85-.62h7.06l-19,47.05H480Z" transform="translate(-0.09 -0.38)"/><path class="cls-3" d="M546.4,21.47v7H525.54v13H542v6.74H525.54V61.53H546.4v7H516.73v-47Z" transform="translate(-0.09 -0.38)"/><path class="cls-5" d="M593.12,21a14,14,0,0,1,5.13.88,12.42,12.42,0,0,1,3.87,2.34,11.39,11.39,0,0,1,2.54,3.35,10.75,10.75,0,0,1,1.09,3.91l-5.11,1.07a.71.71,0,0,1-.21,0h-.21a1.77,1.77,0,0,1-1-.31,2.1,2.1,0,0,1-.69-1,9.09,9.09,0,0,0-.75-1.61,5.79,5.79,0,0,0-1.11-1.34,5,5,0,0,0-1.53-.91,5.48,5.48,0,0,0-2-.34,6.1,6.1,0,0,0-2.44.47,5.52,5.52,0,0,0-1.82,1.27,5.42,5.42,0,0,0-1.14,1.85,6.42,6.42,0,0,0-.39,2.23,8.42,8.42,0,0,0,.21,1.89,8.19,8.19,0,0,0,.67,1.82,11.36,11.36,0,0,0,1.19,1.87,24.91,24.91,0,0,0,1.8,2.07l12.5,13a22.08,22.08,0,0,0,1.72-4.33,23.36,23.36,0,0,0,.85-4.62,2,2,0,0,1,.49-1.2,1.53,1.53,0,0,1,1.17-.46h5a28.39,28.39,0,0,1-1.23,8.2,26.82,26.82,0,0,1-3.45,7.19l9.86,10.22h-7.88a8.83,8.83,0,0,1-1.09-.06,3.79,3.79,0,0,1-.89-.25,3.55,3.55,0,0,1-.82-.47,5.45,5.45,0,0,1-.81-.75l-3.25-3.35a24.69,24.69,0,0,1-6.95,4A23.53,23.53,0,0,1,588.18,69a15.8,15.8,0,0,1-5.34-.93,14.56,14.56,0,0,1-4.65-2.68,13.41,13.41,0,0,1-3.3-4.25,12.25,12.25,0,0,1-1.26-5.61,12,12,0,0,1,.72-4.15,14.42,14.42,0,0,1,2-3.66,16.74,16.74,0,0,1,3-3.06,19.71,19.71,0,0,1,3.83-2.34,18.87,18.87,0,0,1-2.52-4.77,14,14,0,0,1-.8-4.63,12.32,12.32,0,0,1,.89-4.64,10.93,10.93,0,0,1,2.61-3.82,12.49,12.49,0,0,1,4.18-2.59A15.35,15.35,0,0,1,593.12,21Zm-11.32,34a8.07,8.07,0,0,0,.62,3.22,7.17,7.17,0,0,0,1.69,2.43,7.75,7.75,0,0,0,2.49,1.53,8.59,8.59,0,0,0,3,.53,14.74,14.74,0,0,0,5.22-.89,15.44,15.44,0,0,0,4.31-2.49L586.78,46.56A11.17,11.17,0,0,0,583,50.37,9.15,9.15,0,0,0,581.8,54.92Z" transform="translate(-0.09 -0.38)"/><path class="cls-3" d="M232.14,129.77c.32.75.63,1.5.93,2.26.3-.78.62-1.55.94-2.31s.67-1.48,1-2.18L249,101.48a3.32,3.32,0,0,1,.54-.78,1.53,1.53,0,0,1,.61-.42,3,3,0,0,1,.77-.17c.28,0,.62,0,1,0h6.6v47.05H250.8V116.74c0-.56,0-1.18,0-1.85s.08-1.36.15-2l-14.22,26.68a3.79,3.79,0,0,1-1.27,1.41,3.26,3.26,0,0,1-1.82.51h-1.21a3.26,3.26,0,0,1-1.82-.51,3.79,3.79,0,0,1-1.27-1.41L215,112.74c.08.72.14,1.41.18,2.1s.05,1.32.05,1.9v30.39h-7.72v-47h6.61c.39,0,.73,0,1,0a2.83,2.83,0,0,1,.76.17,1.69,1.69,0,0,1,.64.42,3.33,3.33,0,0,1,.55.78l14.06,26.13A23.83,23.83,0,0,1,232.14,129.77Z" transform="translate(-0.09 -0.38)"/><path class="cls-3" d="M314.25,147.13h-6.77a3,3,0,0,1-1.87-.57,3.26,3.26,0,0,1-1.06-1.41l-3.51-9.6H281.55l-3.51,9.6a3.11,3.11,0,0,1-1,1.36,2.89,2.89,0,0,1-1.87.62h-6.8l18.48-47h8.95Zm-30.46-17.76h15l-5.72-15.66c-.26-.69-.55-1.51-.86-2.45s-.63-2-.93-3.08c-.31,1.11-.6,2.14-.9,3.09s-.58,1.79-.86,2.51Z" transform="translate(-0.09 -0.38)"/><path class="cls-3" d="M333,128.75v18.38h-8.75v-47h14.35a30.06,30.06,0,0,1,8.25,1,15.79,15.79,0,0,1,5.63,2.79,10.69,10.69,0,0,1,3.22,4.27,14.35,14.35,0,0,1,1,5.49,14.12,14.12,0,0,1-.7,4.49,13,13,0,0,1-2,3.84,13.48,13.48,0,0,1-3.26,3,16.62,16.62,0,0,1-4.41,2.08,8.68,8.68,0,0,1,2.87,2.71L361,147.13h-7.88a3.85,3.85,0,0,1-1.93-.45,4,4,0,0,1-1.36-1.31L340,130.31a3.39,3.39,0,0,0-1.22-1.2,4.24,4.24,0,0,0-2-.36Zm0-6.28h5.47a13.61,13.61,0,0,0,4.31-.62,8.31,8.31,0,0,0,3-1.71,6.89,6.89,0,0,0,1.77-2.59,8.9,8.9,0,0,0,.59-3.28,6.69,6.69,0,0,0-2.36-5.5q-2.37-1.92-7.21-1.92H333Z" transform="translate(-0.09 -0.38)"/><path class="cls-3" d="M380.53,119.8h2.05a5.33,5.33,0,0,0,2.05-.34,3.49,3.49,0,0,0,1.4-1.09l13-16.43a4.61,4.61,0,0,1,1.71-1.45,5.47,5.47,0,0,1,2.26-.41h7.55l-15.85,19.56a15.57,15.57,0,0,1-1.43,1.53,6.65,6.65,0,0,1-1.46,1,6.61,6.61,0,0,1,1.93,1.11,10.29,10.29,0,0,1,1.68,1.82l16.33,22H404a4.86,4.86,0,0,1-2.33-.44,3.57,3.57,0,0,1-1.28-1.28L387.07,128a4,4,0,0,0-1.47-1.22,5.67,5.67,0,0,0-2.31-.37h-2.76v20.69h-8.75V100.05h8.75Z" transform="translate(-0.09 -0.38)"/><path class="cls-3" d="M451.46,100.08v7H430.6v13H447v6.74H430.6v13.3h20.86v7H421.78v-47Z" transform="translate(-0.09 -0.38)"/><path class="cls-3" d="M497.08,100.08v7.19H482.92v39.86h-8.75V107.27H460v-7.19Z" transform="translate(-0.09 -0.38)"/><path class="cls-3" d="M517.38,147.13h-8.79v-47h8.79Z" transform="translate(-0.09 -0.38)"/><path class="cls-3" d="M538.4,100.13a2.21,2.21,0,0,1,1.3.62,7.44,7.44,0,0,1,.65.73l24.7,31.46c-.09-.75-.15-1.5-.18-2.22s0-1.41,0-2v-28.6h7.71v47.05H568a4.14,4.14,0,0,1-1.73-.32,3.85,3.85,0,0,1-1.33-1.18l-24.6-31.33c.07.7.11,1.38.15,2.07s0,1.3,0,1.87v28.89h-7.71v-47h4.59A8.7,8.7,0,0,1,538.4,100.13Z" transform="translate(-0.09 -0.38)"/><path class="cls-3" d="M608.52,140.69a20.43,20.43,0,0,0,9.33-2v-8.56H612a1.82,1.82,0,0,1-1.33-.47,1.52,1.52,0,0,1-.49-1.15v-5h15.65v19a26.36,26.36,0,0,1-3.72,2.26,24.53,24.53,0,0,1-4.13,1.58,31.43,31.43,0,0,1-4.71.92,43.42,43.42,0,0,1-5.4.31,24.61,24.61,0,0,1-9.47-1.79,22.38,22.38,0,0,1-7.48-5,22.62,22.62,0,0,1-4.93-7.61,25.78,25.78,0,0,1-1.77-9.66,26.56,26.56,0,0,1,1.72-9.73,21.41,21.41,0,0,1,12.59-12.56,27.91,27.91,0,0,1,10.16-1.76,26.43,26.43,0,0,1,10,1.71,23,23,0,0,1,7.14,4.44l-2.54,4a2.26,2.26,0,0,1-2,1.2,3,3,0,0,1-1.6-.52q-1-.61-2.13-1.23a14,14,0,0,0-2.41-1.08,20.24,20.24,0,0,0-3-.75,22.31,22.31,0,0,0-3.79-.29,16.21,16.21,0,0,0-6.29,1.17,13.19,13.19,0,0,0-4.8,3.36,15,15,0,0,0-3.06,5.23,20.46,20.46,0,0,0-1.07,6.84,21.37,21.37,0,0,0,1.13,7.24,15.3,15.3,0,0,0,3.19,5.35,13.86,13.86,0,0,0,4.88,3.33A16.24,16.24,0,0,0,608.52,140.69Z" transform="translate(-0.09 -0.38)"/></g></g></g></svg>