<?xml version="1.0" encoding="utf-8"?>
<!-- Generator: Adobe Illustrator 24.0.3, SVG Export Plug-In . SVG Version: 6.00 Build 0)  -->
<svg version="1.1" id="レイヤー_1" xmlns="http://www.w3.org/2000/svg" xmlns:xlink="http://www.w3.org/1999/xlink" x="0px"
	 y="0px" viewBox="0 0 277 60.3" style="enable-background:new 0 0 277 60.3;" xml:space="preserve">
<style type="text/css">
	.st0{fill:#FF6200;}
	.st1{fill:#233241;}
</style>
<title>kagari_top</title>
<g>
	<path class="st0" d="M94.4,33.2c-4.5,6.2-10,11.6-16.3,15.9c-1.3,0.9-2-0.3-1.2-1.3c4.8-6,10.2-11.3,16.3-15.9
		C94.2,31.2,95.1,32.2,94.4,33.2z M88.5,27.1c0.8-1.1,0.1-2.2-1.2-1.3c-0.8,0.5-13.1,11.5-15.4,13.9c-2.2-1.9-4.6-3.9-5.2-4.4
		c-0.4-0.3-0.9-0.3-1.3,0.1c-0.3,0.3-0.3,0.8,0,1.1c1.7,2.3,3.5,4.5,5.4,6.6c0.5,0.7,1.4,0.8,2.1,0.3l0.2-0.2
		C78.9,38.5,84.1,33.1,88.5,27.1z M72.1,31.3c3.8-2.8,7.3-5.9,10.6-9.3c0.6-0.6,0.6-1.6,0-2.2l-0.1-0.1c-0.4-0.3-4-3.5-4.4-3.8
		c-0.8-0.6-1.8,0.2-1.3,1.2c0.6,1,1.6,2.6,2.2,3.6c-0.5,0.5-7.4,8.3-8.2,9.2C70.2,31,70.9,32.2,72.1,31.3L72.1,31.3z"/>
	<path class="st1" d="M103.5,23.6h4v8.1l7.4-8.1h4.8l-7.4,7.8L120,42h-4.8l-5.6-7.8l-2.2,2.2V42h-4V23.6z M129.5,23.4h3.7L141,42
		h-4.2l-1.7-4.1h-7.7l-1.7,4.1h-4.1L129.5,23.4z M133.7,34.3l-2.4-6l-2.4,6H133.7z M143.1,32.9L143.1,32.9c-0.1-5.2,4.1-9.5,9.3-9.5
		c0,0,0,0,0,0h0.3c2.6-0.1,5.2,0.8,7.2,2.5l-2.5,3.1c-1.3-1.3-3-2-4.7-2c-3,0.2-5.4,2.7-5.2,5.7l0,0c-0.2,3,2.1,5.6,5.1,5.8h0.4
		c1.3,0,2.7-0.3,3.8-1.1v-2.6h-4v-3.5h7.9v8c-2.1,1.9-4.9,2.9-7.8,2.9c-5.1,0.2-9.3-3.7-9.6-8.7c0,0,0,0,0,0
		C143.1,33.3,143.1,33.1,143.1,32.9L143.1,32.9z M171.8,23.4h3.7l7.8,18.5h-4.2l-1.7-4.1h-7.7l-1.7,4.1H164L171.8,23.4z M176,34.3
		l-2.4-6l-2.4,6H176z M187.4,23.6h8.3c2-0.1,3.9,0.6,5.3,1.9c1.1,1.1,1.6,2.6,1.6,4.2l0,0c0.1,2.6-1.4,4.9-3.9,5.7l4.4,6.6h-4.7
		l-3.9-5.9h-3.1V42h-4L187.4,23.6z M195.5,32.6c1.9,0,3.1-1,3.1-2.6l0,0c0-1.7-1.2-2.6-3.1-2.6h-4v5.2H195.5z M207.7,23.6h4V42h-4
		V23.6z"/>
</g>
</svg>
