<?xml version="1.0" encoding="utf-8"?>
<!-- Generator: Adobe Illustrator 24.0.3, SVG Export Plug-In . SVG Version: 6.00 Build 0)  -->
<svg version="1.1" id="レイヤー_1" xmlns="http://www.w3.org/2000/svg" xmlns:xlink="http://www.w3.org/1999/xlink" x="0px"
	 y="0px" viewBox="0 0 277 60.3" style="enable-background:new 0 0 277 60.3;" xml:space="preserve">
<style type="text/css">
	.st0{fill:#FF6200;}
	.st1{fill:#233241;}
</style>
<title>kagari_top</title>
<g>
	<path class="st0" d="M52.4,30.7C47.8,37.1,42.2,42.6,35.7,47c-1.3,0.9-2-0.3-1.3-1.3c4.9-6.1,10.5-11.6,16.7-16.3
		C52.2,28.7,53.1,29.8,52.4,30.7z M46.4,24.5c0.8-1.1,0.1-2.3-1.3-1.3C44.3,23.7,31.7,35,29.3,37.4c-2.3-2-4.7-4-5.3-4.5
		c-0.4-0.3-1-0.3-1.3,0.1c-0.3,0.3-0.3,0.8,0,1.2c1.7,2.4,3.6,4.6,5.6,6.8c0.5,0.7,1.4,0.8,2.1,0.3l0.2-0.2
		C36.5,36.2,41.8,30.6,46.4,24.5z M29.5,28.8c3.9-2.9,7.5-6.1,10.9-9.5c0.6-0.6,0.6-1.6,0-2.2L40.3,17c-0.4-0.3-4.1-3.6-4.6-3.9
		c-0.9-0.6-1.9,0.2-1.3,1.3c0.6,1,1.6,2.7,2.2,3.7c-0.5,0.5-7.6,8.5-8.4,9.5C27.6,28.5,28.3,29.7,29.5,28.8L29.5,28.8z"/>
	<path class="st1" d="M61.7,20.9h4.1v8.3l7.6-8.3h5l-7.6,8l7.9,10.9h-4.9l-5.7-8L65.8,34v5.7h-4.1V20.9z M88.4,20.7h3.8l8,19h-4.3
		l-1.7-4.2h-7.9l-1.7,4.2h-4.2L88.4,20.7z M92.7,31.9l-2.5-6.1l-2.5,6.1H92.7z M102.3,30.4L102.3,30.4c-0.1-5.3,4.2-9.7,9.5-9.8
		c0,0,0,0,0,0h0.3c2.7-0.1,5.3,0.8,7.3,2.6l-2.6,3.2c-1.3-1.3-3-2-4.9-2c-3.1,0.2-5.5,2.8-5.4,5.9l0,0c-0.2,3.1,2.2,5.8,5.2,6h0.4
		c1.4,0,2.7-0.4,3.9-1.1v-2.7H112v-3.6h8.1v8.2c-2.2,1.9-5,3-8,3c-5.2,0.2-9.6-3.8-9.8-8.9c0,0,0,0,0,0
		C102.3,30.9,102.3,30.6,102.3,30.4L102.3,30.4z M131.8,20.7h3.8l8,19h-4.3l-1.7-4.2h-7.9l-1.7,4.2h-4.2L131.8,20.7z M136.1,31.9
		l-2.5-6.1l-2.5,6.1H136.1z M147.8,20.9h8.5c2-0.1,4,0.6,5.4,1.9c1.1,1.2,1.7,2.7,1.6,4.3l0,0c0.2,2.6-1.5,5.1-4,5.9l4.6,6.7h-4.8
		l-4-6h-3.2v6.1h-4.1L147.8,20.9z M156.1,30.1c2,0,3.1-1.1,3.1-2.7l0,0c0-1.8-1.2-2.7-3.2-2.7h-4.1v5.4H156.1z M168.6,21h4.1v18.8
		h-4.1V21z"/>
	<path class="st1" d="M181.8,21.7c1.5-0.3,3-0.4,4.4-0.4c1.8-0.2,3.7,0.3,5.2,1.4c0.9,0.9,1.5,2.1,1.4,3.4c0,2.1-1.4,4-3.4,4.5l0,0
		c1.5,0.7,2.5,2.1,2.6,3.8c0.3,1.7,0.8,3.3,1.4,4.9h-2.4c-0.5-1.4-0.9-2.8-1.2-4.3c-0.5-2.5-1.4-3.4-3.6-3.5h-2.2v7.7h-2.4V21.7z
		 M184.1,29.8h2.4c2.5,0,4-1.3,4-3.4c0-2.3-1.7-3.3-4.1-3.3c-0.8,0-1.5,0-2.3,0.2V29.8z M197.4,33.3c-0.2,2.3,1.5,4.3,3.7,4.5
		c0.3,0,0.5,0,0.8,0c1.2,0,2.4-0.2,3.5-0.7l0.4,1.6c-1.4,0.6-2.8,0.9-4.3,0.8c-3.3,0.2-6.1-2.3-6.3-5.6c0-0.3,0-0.6,0-0.8
		c0-3.9,2.3-6.9,6-6.9c4.2,0,5.3,3.7,5.3,6c0,0.4,0,0.7-0.1,1.1H197.4z M204.2,31.6c0-1.4-0.6-3.8-3.2-3.8c-2,0.1-3.6,1.8-3.6,3.8
		H204.2z M209.4,30.6c0-1.6,0-3-0.1-4.2h2.1l0.1,2.2l0,0c0.9-1.6,2.7-2.6,4.5-2.5c3.1,0,5.4,2.6,5.4,6.5c0,4.6-2.9,6.9-5.8,6.9
		c-1.6,0.1-3.1-0.7-3.9-2l0,0v7h-2.3L209.4,30.6z M211.7,34.1c0,0.3,0,0.6,0.1,0.9c0.4,1.6,1.8,2.7,3.5,2.7c2.5,0,3.9-2,3.9-5
		c0-2.6-1.3-4.8-3.8-4.8c-1.7,0-3.1,1.2-3.5,2.9c-0.1,0.3-0.1,0.6-0.1,0.9L211.7,34.1z M236.1,32.8c0.3,3.4-2.2,6.5-5.7,6.8
		c-0.2,0-0.5,0-0.7,0c-3.4,0-6.1-2.7-6.2-6c0-0.2,0-0.4,0-0.6c-0.3-3.4,2.3-6.5,5.7-6.8c0.2,0,0.4,0,0.7,0
		C233.6,26.2,236.1,28.9,236.1,32.8L236.1,32.8z M225.9,32.9c0,2.9,1.6,4.9,3.9,4.9s3.9-2.1,3.9-5c0-2.2-1.1-4.9-3.9-4.9
		C227,27.9,225.9,30.5,225.9,32.9L225.9,32.9z M239,30.5c0-1.5,0-2.9-0.1-4h2L241,29h0.1c0.4-1.6,1.9-2.8,3.6-2.9
		c0.2,0,0.4,0,0.6,0.1v2.2c-0.3,0-0.5,0-0.8,0c-1.6,0.1-3,1.3-3.1,3c-0.1,0.4-0.1,0.7-0.1,1.1v6.8H239V30.5z M251.1,22.8v3.7h3.4
		v1.8h-3.4v6.9c0,1.6,0.5,2.5,1.8,2.5c0.5,0,0.9,0,1.3-0.2l0.1,1.8c-0.7,0.2-1.4,0.3-2.1,0.3c-0.9,0.1-1.9-0.3-2.5-1
		c-0.7-1-1-2.2-0.9-3.4v-7h-2v-1.8h2v-3.1L251.1,22.8z"/>
</g>
</svg>
