<svg viewBox="0 0 383.97 94.52" xmlns="http://www.w3.org/2000/svg"><path d="m42 82.66v-41.2h10.33l-23-19.95v-18.34a3.17 3.17 0 1 0 -6.34 0v18.34l-22.99 19.95h10.31v41.2a7.3 7.3 0 0 0 -2.31 3.69h-3.69v8.18h43.69v-8.18h-3.69a7.3 7.3 0 0 0 -2.31-3.69zm-27.51-41.2h23.36v38.54a26.78 26.78 0 0 0 -7.49-2l.7-12.56a1.73 1.73 0 0 0 -1.74-1.84h-6.32a1.73 1.73 0 0 0 -1.74 1.84l.74 12.56a26.78 26.78 0 0 0 -7.49 2z"/><path d="m26.17 62.63c2.35 0 4.26-1.12 4.26-4.62s-3.95-8.01-4.26-8.01-4.26 4.51-4.26 8 1.91 4.63 4.26 4.63zm0-5.47a4.65 4.65 0 0 1 1.41 2.67c0 1.16-.63 1.53-1.41 1.53s-1.41-.37-1.41-1.53a4.76 4.76 0 0 1 1.41-2.66z" fill="#f15a29"/><path d="m97.45 45.74v-19.74h4.25v19.74h9.45v4.26h-9.45v42.16h-4.25v-42.16h-9.45v-4.26z"/><path d="m145.62 41.54a25.94 25.94 0 0 1 25.95 26 25.93 25.93 0 0 1 -44.29 18.34 25 25 0 0 1 -7.61-18.34 26 26 0 0 1 25.95-26zm-15.18 10.82a21.42 21.42 0 0 0 0 30.32 21.46 21.46 0 0 0 36.63-15.15 21.46 21.46 0 0 0 -36.63-15.17z"/><path d="m182.91 45.74h4.25v1.09a13.75 13.75 0 0 1 19.24.17 13.59 13.59 0 0 1 1.89 2.36 14.82 14.82 0 0 1 1.94-2.36 13.81 13.81 0 0 1 19.47 0 13.48 13.48 0 0 1 4 9.31v35.85h-4.25v-35.83a9.55 9.55 0 0 0 -16.22-6.33 9.39 9.39 0 0 0 -2.81 7v35.16h-4.25v-35.83a9.54 9.54 0 0 0 -9.55-9.07 9.59 9.59 0 0 0 -9.5 8.7v36.2h-4.25z"/><path d="m271 41.54a25.94 25.94 0 0 1 25.95 26 25.95 25.95 0 0 1 -51.9 0 26 26 0 0 1 25.95-26zm-15.16 10.82a21.42 21.42 0 0 0 0 30.32 21.46 21.46 0 0 0 36.63-15.15 21.46 21.46 0 0 0 -36.63-15.17z" fill="#f7941e"/><path d="m321.06 68.29a34.36 34.36 0 0 1 -7.52-5 10.7 10.7 0 0 1 -3.26-7.85 10.83 10.83 0 0 1 3.26-7.92 10.66 10.66 0 0 1 7.85-3.28 10.38 10.38 0 0 1 7.66 3 9.39 9.39 0 0 1 2.95 6.76v.24l-3.69 1.47a9.16 9.16 0 0 0 -2.31-5.38 6.25 6.25 0 0 0 -4.66-1.8 6.88 6.88 0 0 0 -4.87 11.77 33.07 33.07 0 0 0 5 3.59 39.45 39.45 0 0 1 8.6 5.86 13.78 13.78 0 1 1 -19.47 19.5 12.36 12.36 0 0 1 -4-8.86l4.21-1.09a9.39 9.39 0 0 0 2.81 6.95 9.55 9.55 0 0 0 13.49-13.52 41.07 41.07 0 0 0 -6.05-4.44z"/><path d="m365.35 92.82q-8.7 0-13.85-5.15a18.11 18.11 0 0 1 -5.29-13v-28.93h4.25v28.55a13.49 13.49 0 0 0 4.3 10.07 14.4 14.4 0 0 0 10.54 4.21 14 14 0 0 0 10.14-4.18 13.6 13.6 0 0 0 4.28-10.09v-28.56h4.28v28.93a18.12 18.12 0 0 1 -5.29 13q-5.18 5.15-13.36 5.15z"/></svg>