<?xml version="1.0" encoding="utf-8"?>
<!-- Generator: Adobe Illustrator 24.0.0, SVG Export Plug-In . SVG Version: 6.00 Build 0)  -->
<svg version="1.1" id="レイヤー_1" xmlns="http://www.w3.org/2000/svg" xmlns:xlink="http://www.w3.org/1999/xlink" x="0px"
	 y="0px" viewBox="0 0 223.1 53.2" style="enable-background:new 0 0 223.1 53.2;" xml:space="preserve">
<style type="text/css">
	.st0{enable-background:new    ;}
	.st1{fill:#2C7AA5;}
</style>
<title>アセット 1</title>
<g id="レイヤー_2_1_">
	<g id="レイヤー_1-2">
		<g class="st0">
			<path class="st1" d="M13.3,13.4c0,0.2,0,0.3,0,0.3c-0.1,0.3-0.8,1.3-0.9,1.4c0,0.1,0,0.3,0,0.4c0,0.3-0.2,0.5-0.5,0.6l0,0.2
				c0,0.3-0.2,0.5-0.3,0.8l0,0.3c0,0-0.5,1.2-0.4,1.1c-0.2,0.3-0.6,0.4-0.8,1.3c0,0.1,0,0.2,0,0.3C9.6,20.2,9.2,22,9,22H8.8
				c-0.1,0,0,0.2-0.2,0.2c0,0.2,0.1,0.2,0,0.3c0,0.1-0.1,0.2-0.2,0.3l0,0.1c0,0.2-0.2,0.2-0.2,0.3l0,0.1c0,0.1-0.1,0.2-0.1,0.3
				c0,0.1,0,0.2,0,0.2c0,0,0,0-0.1,0.2c0,0,0,0.1,0,0.2c0,0.2-0.3,0.2-0.3,0.4c0,0.2,0,0.3,0,0.5c-0.1,0.3-0.3,1-0.4,1.4
				c0,0.2,0.1,0.3,0.1,0.5c0,0.5-0.1,0.7,0.1,1.3l0,0.2h0.1c0,0,0,0.1-0.1,0.2c0,0,0,0,0,0s0.4,1.8,0.6,1.8h0.2c0.2,0,0,0.4,0.6,0.5
				c0,0,0,0.1-0.1,0.1c0,0.3,0.2,0.4,0.4,0.4c0.2,0,0.2-0.2,0.3-0.2c0.7,0,1.2-0.2,1.9-0.3c0,0,0,0.1,0,0.1c0.1,0,0.2-0.2,0.4-0.2
				h0.2c0,0,0.9,0,1.6-0.6h0.4c0.1,0,0.9-0.4,1.1-0.4c0.1,0,0.1-0.1,0.2-0.1c0.1,0,0.2,0,0.3,0c0.4,0,0.9-0.4,1.4-0.4
				c0,0,0.1,0,0.2,0h0.1c0.1,0,0.1,0.3,0.1,0.3c0.2,0,0.4-0.1,0.6-0.1c0.5,0,0.5,0.8,0.9,0.8l0,0.1c0,0.2,0,0.3,0,0.4
				c-0.1,0-0.2,0-0.2,0.1c0,0.1,0.3,0.2,0.3,0.3c0,0.2-0.4,0.1-0.4,0.3l0,0.1c0,0.3-0.4,0.4-0.5,0.4c-0.4,0-0.5-0.2-0.8-0.2h-0.1
				c-0.1-0.2-0.3-0.6-0.3-0.6h-0.2c-0.1,0-0.4,0-0.5-0.2c-0.4,0-0.5,0.3-0.8,0.3h-0.3c-0.3,0-0.2,0.2-0.5,0.2h-0.2
				c-0.2,0-0.7,0.3-0.9,0.3h-0.2c0,0,0,0.1,0,0.1h-0.1c-0.1,0-0.1,0-0.1,0l0,0.1h-0.2c0,0-0.1,0.1-0.2,0.1h-0.2
				c-0.3,0-0.2,0.2-0.4,0.2c-0.3,0.1-0.6,0.1-0.9,0.2h-0.1c-0.2,0-0.2,0.2-0.3,0.3c-0.1-0.1-0.1-0.1-0.2-0.1c-0.2,0-0.5,0.2-0.7,0.2
				C10,33,10,33,10,33c-0.1,0-0.1,0.1-0.2,0.1c-0.2,0-0.4,0-0.6,0c-0.3,0-0.4-0.2-0.4-0.2c-0.2,0-0.3,0.1-0.3,0.2
				c-0.1,0-0.2-0.2-0.2-0.3c-0.1,0-0.2,0.1-0.3,0.1c-0.2,0-0.4-0.2-0.6-0.2c0,0-0.1,0-0.2,0.1c0-0.4-0.4-0.3-0.4-0.4l0-0.2
				c0-0.2-0.3,0-0.4-0.2c-0.1,0-0.2-0.5-0.2-0.6c0-0.1-0.2-0.1-0.3-0.2c-0.1-0.2,0.1-0.7-0.3-0.8c0,0,0-0.1,0-0.2
				c0-0.1,0.1-0.3,0.1-0.4c0.1-0.3-0.3-0.4-0.2-0.8c0-0.2,0.1-0.2,0.2-0.4c0-0.2-0.1-0.2,0-0.3c0.1-0.3,0.4-0.8,0.4-0.8
				c0-0.2,0-0.8,0.1-1.2c0-0.2,0.1-0.4,0.2-0.4c0,0-0.1-0.3,0-0.3c0.1-0.4,0.2-0.4,0.3-0.8c0-0.3,0-0.5,0.1-0.6
				c0.1-0.4,0.3-0.7,0.4-1.1c0-0.1,0-0.3,0-0.5h0.1c0.2,0,0.6-1.3,0.6-1.1c0-0.1,0.3-0.4,0.4-0.5c0-0.2,0-0.3,0-0.5
				c0-0.3,0.2-0.4,0.3-0.6c0,0,0,0,0-0.1c0,0.1,0.2-0.5,0.4-1c0,0,0.1,0,0.2-0.1c0.1-0.3,1.5-2.8,1.5-2.6c0.3-0.5,0.2-0.7,0.5-1
				c0,0,0.2-0.2,0.2-0.2c0.1-0.2,0.2-0.5,0.2-0.7c0.1-0.2,0.2-0.2,0.3-0.3c0-0.1,0-0.2,0-0.3c0-0.1,0.4-0.6,0.7-0.6l0,0
				c0.1-0.5,1.1-2.1,1.4-2.1c0.1-0.4,0.1-0.7,0.3-1.1c0,0,0.3-0.2,0.3-0.3c0-0.1-0.1,0-0.1-0.1c0,0,0.2-0.2,0.3-0.4
				c0-0.1,0-0.2,0-0.3C14.2,8.5,14.9,8,15,8c0.4,0,1.2,0.2,1,1c0,0,0,0.1,0.2,0.1C16,9.2,16,9.3,16,9.5l-0.1,0.4
				c0,0.2-0.1,0.4-0.2,0.4c-0.1,0-0.1,0-0.1,0c-0.3,0-0.7,1.1-0.8,1.3l0,0.1c-0.4,0.1-0.4,0.6-0.9,0.6h-0.1
				C13.7,12.7,13.6,13.2,13.3,13.4z"/>
			<path class="st1" d="M21.1,28.6l0.1-0.5c0.1-0.6,0.4-1,0.7-1.7c0,0-0.1-0.1,0-0.2c0-0.1,0.4-0.4,0.4-0.7c0.1-0.2,0.2-0.7,0.2-0.7
				h0.2c0-0.1,0-0.1,0-0.2c0,0,0.2-0.2,0.2-0.4l0-0.2c0.4,0,0.8-1,0.9-1.2c0.6-0.1,0.8-1,1.1-1c0,0,0.1,0,0.2,0
				c0.2-1,1.6-1.9,2.4-2.6c0.1-0.1,0.7-0.8,2-1.2c0,0,0.1,0.1,0.2,0.1c0.1,0,0.1-0.2,0.2-0.2c0,0,0.1,0.2,0.3,0.2
				c0,0,0.2-0.2,0.6-0.2c0.6,0,1.4,1.6,1.3,2.1c0.1,0.2,0.3,0.2,0.5,0.4c0,0.1-0.1,0.1-0.1,0.2l-0.2,1c0,0.2-0.1,0.3-0.2,0.3h-0.1
				l0,0.2c-0.1,0.3-0.1,0.4-0.2,0.8h-0.1c-0.6,0-0.3,0.3-0.6,0.8h-0.1c0,0-1.2,1.1-1.2,1.1l0,0.2c-0.7,0-1,0.6-1.3,1
				c0,0.1-0.5,0.5-0.6,0.5h-0.1c-0.2,0-1.3,1-1.3,1c-0.2,0.2-1.1,1-1.3,1h-0.2c-0.1,0,0,0.1-0.1,0.1h-0.1l0,0.1
				c-0.1,0-0.4,0-0.5,0.1c-0.2,0.2-0.8,0.8-0.8,0.8c-0.1,0.3-0.3,0.6-0.3,0.8c0,0.1,0.2,0,0.1,0c0,0.3,0.5,0.7,0.5,0.7
				c0.1,0,0.3,0.1,0.6,0c0.2,0,0.5,0,0.6,0c0.7-0.2,1.4-0.5,1.6-0.5c0.1,0,0.1,0,0.1,0.2c0.1,0,0.3-0.3,0.4-0.3h0.2c0,0,0-0.1,0-0.1
				l0,0c0,0,0.1,0,0.1,0s0,0,0.1-0.1c0.7-0.2,1.1-0.5,1.5-0.5h0.1c0,0,0.7-0.4,1-0.5c0.3-0.2,0.3-0.6,0.9-0.6
				c0.4-0.3,0.9-0.3,1.3-0.9c0,0,0.1,0,0.1,0c0.1,0,0.2-0.2,0.3-0.2h0.1c0,0,0,0,0,0l0-0.1c0.1,0,0.6-0.5,0.8-0.5h0.1
				c0.2,0,1.2-1.1,1.2-1.1h0.2c0,0,0,0,0-0.1c0,0,0,0,0.1,0H35h0c0.1,0,1.5-1.2,1.5-1.2h0.1c0,0,0,0,0,0l0-0.2h0.1
				c0,0,0.6-0.4,0.8-0.9c0.6,0,1.1-0.9,1-0.8c0.1,0,0.2,0.1,0.3,0.1c0.1,0,0.3-0.1,0.4-0.1c0,0.1,0.1,0.1,0.1,0.1c0.3,0.1-1,1-0.6,1
				c0,0-0.2,0.4-0.2,0.3c0,0-0.4,0.4-0.5,0.4c-1,0.3-0.2,0.4-0.6,0.4c-0.1,0.1-0.4,0.7-0.6,0.7h-0.1c0,0-0.7,0.5-0.8,0.5
				c0,0.1,0,0.1,0,0.2c0,0.2-0.3,0.3-0.5,0.4c-0.3,0.2-0.7,0.5-0.7,0.5c-0.3,0-0.5,0.4-0.7,0.8c-0.4,0-0.5,0.3-0.9,0.5
				c-0.1,0-0.1,0-0.1,0c-0.3,0-0.4,0.6-0.7,0.6c-0.2,0-0.5,0.3-0.6,0.5c-0.5,0-1.4,0.7-1.4,0.8c-0.5,0.1-0.3,0-0.7,0.4h-0.1
				c-0.2,0-0.4,0.4-0.6,0.4H29l0,0.1h-0.2c-0.1,0,0,0.1-0.1,0.1l-0.1,0l0,0c0,0.1,0,0.1,0,0.1h-0.2l0,0.1h-0.1c0,0-0.6,0.1-0.6,0.2
				c0,0,0,0.1,0,0.1c-0.1,0-0.1,0-0.2,0c-0.2,0-0.4,0.2-0.6,0.3h-0.2l0,0.1h-0.1c-0.1,0-0.1,0-0.4,0H26c-0.2,0-0.4,0.3-0.6,0.3
				c0,0-0.1,0-0.1,0c-0.1,0-0.4,0.1-0.6,0.1c-0.1,0-0.2,0-0.3-0.2c-0.1,0.2-0.4,0.2-0.5,0.3c-0.3-0.2-0.8-0.1-1.1-0.2l0,0
				c0-0.1-0.1-0.1-0.2-0.1c-0.1,0-0.2,0-0.2,0.1l0,0c-0.2-0.1-0.2-0.3-0.5-0.4c-0.4-0.1-0.3-0.6-0.7-0.6c-0.2,0-0.1-0.8-0.2-1
				c-0.1-0.1-0.2,0-0.2-0.3C21.2,29.9,21,29.7,21.1,28.6z M29.6,20.2c-0.1,0.1-0.1,0.3-0.2,0.4c-0.1,0-0.2,0-0.3,0.1
				c-0.2,0.1-0.3,0.4-0.5,0.4c-0.2,0-0.1-0.2-0.3-0.2c-0.3,0-0.9,0.9-1.2,1.1c-0.4,0-0.4,0.3-0.8,0.3c-0.1,0.1-0.3,0.5-0.4,0.6
				c0,0.2,0,0.3,0,0.5c-0.1,0.3-0.3,0.2-0.3,0.3l0,0.2c0,0.2-0.3,0.3-0.5,0.4c-0.1,0-0.1-0.1-0.2-0.1c-0.3,0-0.6,1-0.6,1.2
				c0,0.2-0.4,0.6-0.4,0.8c-0.1,0.4-0.3,0.7-0.4,1.3c0.1,0,0.2,0,0.2,0c0.6,0,1.7-1.2,2-1.4c0.9-0.6,1.8-1.4,1.8-1.5
				c0.2-0.2,0.6-0.6,0.9-0.6h0.2c0.3-0.9,1.4-1.1,1.5-1.5c0.1-0.4,0.4-0.5,0.5-0.6c0-0.1,0-0.2,0-0.3c0-0.2,0.2-0.3,0.2-0.5
				c0.1-0.3-0.4-0.5-0.7-0.6c-0.1,0.2,0-0.4,0-0.3c0,0-0.1,0-0.1,0C29.7,20.5,29.8,20.1,29.6,20.2z M35,26L35,26L35,26z"/>
		</g>
		<g class="st0">
			<path class="st1" d="M44.3,12.7c0.5-0.3,0.2-1.2,0.8-1.4c0-0.2,0-0.2,0-0.3c0-0.2,1.1-1.1,1.2-1.6c0,0,0-0.1,0-0.3
				C46.6,9,46.7,8.7,47,8.6l0-0.1c0-0.2,0.4-0.5,0.5-0.7C48,8,48.4,8.1,48.8,8.1c0,0.3,0.2,1.5,0.2,1.5c0,0.2-0.2,0.2-0.2,0.2
				c0,0.1,0,0.2,0,0.3c0,0.2-0.3,0.2-0.4,0.5c0,0.1,0,0.2,0,0.2c-0.3,0-0.3,0.3-0.5,0.3h0c0,0.1,0,0.2,0,0.3
				c-0.1,0.3-0.3,0.6-0.4,0.9c0,0-0.5,0.7-0.4,0.7c-0.1,0.1-0.2,0.7-0.3,0.7c-0.2,0-0.1,0.4-0.2,0.4h-0.1c0,0,0,0.1-0.1,0.1
				c0.2,0,0.4-0.1,0.7-0.1c0,0,0.8-0.2,0.8-0.2c0,0.1,1.3,0,1.4,0c0.1-0.2,0.4,0.1,0.5,0.1c0,0,0.1-0.1,0.2-0.1
				c0.3-0.2,0.8,0.1,0.9,0.1c0,0,0,0,0.1,0c0.1,0,0.6,0,0.6-0.2c0.1,0.2,0.3,0.1,0.4,0.2c0.2,0,0.2-0.1,0.4-0.1c0,0,0,0.1,0.2,0.1
				c0.1,0,0.1-0.1,0.3-0.1H53c0.1,0,0.1-0.1,0.2-0.1c0,0,0,0.1,0,0.1c0.1,0,0.5-0.1,0.5-0.1c0,0,0,0.2,0.1,0.2
				c0.1,0,0.1-0.1,0.1-0.1c0.1,0,0.1,0.2,0.1,0.3c-0.1,0.3-0.3,0.5-0.5,0.7L53,14.9c-0.4,0-0.6,0.1-1.4,0.2c-0.1,0-0.2,0-0.3,0
				c-0.1,0-0.7-0.1-0.8-0.1c-0.3,0-0.6,0.3-1,0.3c-0.1,0-0.2,0-0.3,0c-0.2,0-0.7,0.2-0.8,0.2c0,0-0.6,0.1-0.6,0.1
				c0.1-0.2-1.3,0.2-1.4,0.1c-0.6-0.1-1,0-1.3,0.1c0,0.1,0,0.2,0,0.3c0,0,0,0,0,0l0,0.1c0,0.2-1.2,2-1.3,2l0,0.2
				c-0.1,0.5-0.5,0.6-0.5,1.1l0,0.1c-0.1,0.1-0.2,0.2-0.3,0.2c-0.1,0-0.1,0-0.2,0c0,0.1-0.1,0.1-0.1,0.2l0,0.3c0,0.1,0,0.1,0,0.1
				s-0.1,0-0.2,0c-0.1,0-0.1,0.4-0.2,0.4H42c0,0,0,0,0,0.1c0,0.1,0,0.2,0,0.2c0,0-0.1,0.1-0.1,0.1c0,0.1,0,0.2,0,0.3
				c0,0-0.2,0.2-0.2,0.5l0,0.1c-0.3,0.1-0.6,0.7-0.7,1c0,0.1,0,0.1,0,0.2h-0.1c-0.1,0-0.2,0-0.3,0h-0.1l0,0.2c0,0.3-0.1,0.5-0.2,0.7
				l0,0.2c0,0.2-0.3,0.2-0.5,0.4c0,0,0,0.1,0,0.2c0,0,0,0,0,0c-0.1,0.1-0.6,1.3-0.8,1.5c0,0.1,0,0.2,0,0.3c0,0.2-0.2,0.3-0.3,0.5
				c0,0.1,0,0.2,0,0.3c0,0.2-0.1,0.3-0.1,0.5c0,0,0,0.2,0,0.2c-0.6,0.6-0.8,1.4-0.9,1.9c0,0.3,0,0.5,0,0.7c0,0.2-0.2,0.1-0.3,0.2
				c0,0.1,0,0.1,0,0.2c0,0.3,0,0.4-0.1,0.6c-0.1,0.1,0.1,0.1,0.1,0.1c0.3,0,0.3-0.5,0.7-0.4h0.1c0.1-0.2,0.5,0,0.6-0.2
				c0,0,0.1-0.1,0-0.1c0.3,0,0.9-0.3,1-0.7c0.7-0.3,1.5-1.2,1.8-1.1h0.1l0-0.2c0.1-0.3,0.8-0.3,0.8-0.6l0-0.2c0-0.1,0.8-0.5,0.8-0.6
				c0-0.2,1.1-0.8,1.2-0.8c0.1-0.2,0.4-0.5,0.6-0.5c0,0,0.1,0,0.1,0c0,0,0,0,0-0.1l0-0.2c0,0,1.6-1.3,1.7-1.3
				c0.6-0.8,0.8-0.8,1.4-1.5c0,0,1-0.8,0.9-0.8c0.1,0,0.1,0,0.2,0.1c0.1,0,0.4-0.7,0.5-0.8c0.3-0.2,0.6-0.1,0.8-0.8
				c0.5-0.1,0.7-0.5,0.8-0.4c0.1,0,0.1,0,0.2,0c0.1,0,0.4,0.5,0.5,0.5c-0.1,0.1-0.2,0.5-0.3,0.6c-0.4,0.5-0.2,0.4-0.6,0.6
				c-0.1,0.2-0.1,0.1-0.2,0.2l-0.4,0.2L50.4,23c0,0.1-0.1,0.2-0.2,0.2c0.1,0-0.3,0.3-0.5,0.4c-0.1,0-0.1,0.2-0.1,0.2
				c-0.4,0-1.3,1.2-1.3,1.2c-0.9-0.2-1.2,1.3-1.5,1.3c-0.1,0-1.4,1.1-1.4,1.1c-0.1,0-0.2,0-0.2,0.2c-0.1,0.2,0,0.2-0.1,0.3
				c-0.1,0.3-0.8-0.2-1,0.5c-0.4,0.1-0.6,0.8-1.1,0.9c0,0,0,0.1-0.1,0.1c-0.1,0.2-0.2,0.3-0.2,0.4c-0.1,0.2-0.3,0-0.3,0.2
				c0,0-0.4,0.5-0.6,0.4c0,0-0.1,0-0.1,0c-0.1,0.3-1,0.9-0.9,0.9c0,0,0,0-0.1-0.1l0,0.1c-0.1,0.2-0.4,0.1-0.4,0.3
				c-0.1,0-0.1,0-0.1,0c-0.3-0.1-0.4,0.5-0.8,0.5c0,0.1,0,0.1-0.1,0.1c0,0.2-0.2,0-0.2,0.2c-0.4,0-0.8,0.7-1.1,0.6
				c-0.1,0.2-0.2,0.5-0.4,0.4h-0.1c-0.2,0-0.3,0.2-0.4,0.1c-0.1,0-0.2,0-0.3,0c-0.3-0.1-0.7,0.2-1.1,0.2c-0.4,0-0.7-0.3-0.6-1
				c0-0.2,0.1-0.2,0.1-0.2c0-0.1-0.1-0.1,0-0.2c0.1-0.5,0.5-0.8,0.7-1.8c0.1-0.5,0.3-0.9,0.6-1.4c0-0.1,0-0.3,0-0.4c0,0,0,0,0-0.1h0
				c0.1,0,0.8-2.4,0.9-2.5c0.2-0.2,1-1.8,1-1.9c0-0.1,0-0.2,0-0.3c0.3-0.1,0.3-0.6,0.7-0.6l0-0.1c0-0.2-0.1-0.3,0-0.5
				c0.1,0,0.6-1.1,0.6-0.9c0.2-0.6,0.1-0.8,0.7-1.3c0.2-0.4,0.5-1,0.6-1.4c0,0,0.1,0,0.1,0c0.2,0,1.5-2.9,1.5-2.9l0.1-0.4h0
				c-0.1,0.2-0.1,0-0.2,0c0,0-0.1,0-0.3,0c0,0,0,0-0.1,0h-0.1l0,0.1c0,0.1-0.7,0.2-0.7,0.2c0,0,0,0-0.1,0.1h0
				c-0.4,0.1-0.8,0.2-1.6,0.3h0c0,0-0.1-0.1-0.1-0.1c0,0.1-0.1,0.2-0.2,0.2c-0.1,0,0-0.2,0-0.2c-0.4,0-1.6,0.6-1.7,0.7h-0.1
				c-0.3,0-0.4,0-0.6,0c-0.3,0.1-0.6,0.8-1.2,1c-0.2,0.6-0.4,0.7-0.8,0.7c-0.1,0-0.1,0.3-0.3,0.3c-0.1,0-0.2-0.2-0.2-0.4l0-0.2
				c0,0-0.1-0.4-0.1-0.4l0-0.2c0-0.1,0-0.4-0.1-0.6l0-0.1c0-0.1-0.1-0.2,0-0.4c0.1-0.3,0.3-0.6,0.3-0.5l0-0.1
				c0.5-0.5,0.9-0.5,1.1-0.4h0.2c0.2,0,0.3-0.3,0.5-0.3c0.4-0.1,1,0,1.4-0.4c0,0,0.1,0,0.2,0c0.5,0,0.8-0.3,1-0.3c0.1,0,0,0.1,0,0.1
				c0,0,0-0.1,0.1-0.1c0.2,0,0.4,0,0.8,0c0.2,0,1.1-0.1,1-0.2c0,0,0.1,0.1,0.2,0.1c0.4-0.3,1-0.1,1.4-0.4c0.1,0,0.2,0,0.2,0
				c0,0,0.1,0,0,0.1c0.2-0.1,0.5,0,0.6-0.2c0,0.1,0.1,0.1,0.1,0.1h0.2c0,0,0,0,0.1,0c0.1,0,0.2-0.1,0.3-0.1c0.1-0.2,0.3-0.5,0.2-0.7
				C44,13.6,44.3,12.7,44.3,12.7z"/>
		</g>
		<g class="st0">
			<path class="st1" d="M61.7,11.8c-0.7,0-1.1,0.5-1.3,0.9c0,0-0.1,0-0.2,0.2c0,0,0,0.1,0,0.1l-0.7,0.5l0,0.2
				c-0.1,0.6-0.9,1.2-0.9,1.3c-0.2,1.1-0.8,1-1.5,1.7c-0.1,0.1-0.1,0.3-0.2,0.3h-0.1c0,0,0,0,0,0l0,0.1c0,0.2-0.8,0.3-0.8,0.6
				c0,0,0,0.1,0,0.1c0,0-0.1,0-0.1,0s-0.1,0-0.2,0c0,0-0.3,0.3-0.6,0.3c-0.2,0-0.3,0-0.4-0.1l0-0.2c0-0.2-0.1-0.2-0.1-0.3
				c0.1-0.5,1-0.7,1.2-0.9c0.3,0,1.2-1.7,1.7-1.8c0-0.3,0.3-0.3,0.3-0.6l0-0.1c0.3-0.1,0.4-0.5,0.7-0.6c0,0,0-0.1,0-0.1
				c0.1-0.4,0.8-1.4,1.1-1.6c0.2-0.2,0.3-0.6,0.8-1.1c0-0.1,0-0.1,0-0.2c0-0.2,0.2-0.5,0.4-0.7c0,0,0,0,0-0.1c0.2,0,0.2-0.9,0.6-1.2
				c0-0.4-0.1-0.9,0-1.4h0c-0.1,0-0.1-0.2-0.2-0.2c-0.1,0-0.3,0.2-0.5,0.2c-0.2-0.1-0.5-0.3-0.5-0.6c0-0.1,0.1-0.1,0.1-0.2
				c0-0.1,0-0.1,0-0.2c0.1-0.4,0.9-1.3,1.2-1.3c0.4,0,0.6,0.1,1,0.1c0,0.3,0.2,0.3,0.6,0.8c0.1,0.1,0.2,0.6,0.2,0.7l0,0.1
				c0,0.1,0.1,0,0.1,0c0.1,0.3,0,0.8,0.1,0.9c0,0.2,0.1,0.6,0,1c-0.1,0.5-0.3,0.6-0.4,1c0,0,0,0.1,0,0.2c-0.4,0.2-0.5,0.9-0.8,1.2
				l0,0.2c-0.1,0.3-0.2,0.6-0.3,0.9H61.7z"/>
		</g>
		<g class="st0">
			<path class="st1" d="M62.6,21.9l0-0.3c0.2-0.2,0.6-0.1,0.7-0.6c0.6-0.2,1.2-0.2,1.5-0.8c0.2-0.1,0.7-0.5,0.8-0.5h0.1
				c-0.1,0,0.7-0.3,0.8-0.5c0.1,0,0.1-0.2,0.2-0.2h0.1c0.4,0,1.2-0.6,1.2-0.6c0,0,0.1,0,0.2,0c0.1,0,0.1-0.2,0.3-0.2h0.2
				c0.1,0,0.1-0.1,0.2-0.2c0.3-0.1,0.9-0.4,1-0.4h0.3c0.4,0,0.2-0.2,0.5-0.2c0.1,0,0.1,0,0.2,0c0.1,0,0.2-0.1,0.3-0.3
				c0,0.1,0.3,0.1,0.4,0.2c0.2-0.1,0.5,0,0.6-0.2c0.2,0.2,0.6,0.3,0.7,0.6c0,0,0.3,0,0.3,0.2c0,0,0,0.1-0.1,0.1l0,0.1c0,0,0,0,0.1,0
				c0,0-0.1,0.1-0.1,0.2c0,0.1,0.2,0.2,0.2,0.5l0,0c-0.2,0.2-0.4,0.7-0.4,0.7c0,0.2,0.1,0.2,0.1,0.3s-0.2,0.3-0.5,0.4l0-0.1
				c0,0,0-0.1-0.1-0.1c0,0-0.1,0.2-0.3,0.2c-0.1,0-0.3-0.1-0.4-0.1c-0.4,0-0.9,0.1-1.2,0.5c-0.1-0.1-0.2-0.2-0.4-0.2
				c-0.3,0-0.5,0.3-0.6,0.3c-0.2,0.2-1.7,0.5-1.8,1c0,0-0.1,0-0.1,0c-0.1,0-0.2-0.1-0.2-0.1c-0.2,0.2-0.3,0.2-0.5,0.3H67
				c-0.1,0-0.1,0-0.1,0.1c-0.7,0.3-0.7,0.2-1,0.6h-0.2c-0.4,0-0.6,0.3-0.9,0.4c0,0.3-0.1,0.7-0.1,1c0,0.2,0.1,0.3,0.1,0.5
				c0,0,0,0.1-0.1,0.1c0.3,0.1,0.8,0.4,1,1c0,0.1,0,0.3,0.1,0.3H66c0.1,0,0.1,0.3,0.2,0.3s0.1,0,0.2-0.1c0,0.2,0.2,0.2,0.2,0.4h0.1
				c0.2,0,0.3,0.2,0.5,0.2c0.1,0,0.1,0,0.1,0c0.2,0.5,0.5,0.7,0.9,0.8c0.1,0.4,0.3,0.4,0.3,0.5l0,0.2c0,0.1,0.2,0.2,0.3,0.2
				c0.1,0.6,0.3,1,0.6,1.2l0,0.2c-0.1,0.5,0.1,0.6,0.2,0.9c-0.2,0.4-0.4,0.7-0.7,0.8c-0.2,0-0.2,0.3-0.4,0.5c-0.4,0-0.6-0.1-1,0.3
				c0,0-0.7,0.3-0.7,0.3c-0.2,0-0.2-0.2-0.4-0.2c-0.3,0.1-0.5,0.2-0.7,0.2c-0.1,0-0.2-0.2-0.3-0.2c-0.2,0-0.4,0.2-0.6,0.2
				c0.1-0.3-0.2-0.5-0.4-0.5c-0.2,0-0.4,0.1-0.6,0.2c-0.2-0.2-0.6,0-0.6-0.5c0,0.1-0.1,0.1-0.2,0.1c-0.5,0-0.8-0.4-1-0.4
				c-0.2,0-0.2,0.2-0.4,0.2c0-0.2-0.3-0.1-0.3-0.3h-0.1c-0.4,0-0.6-0.3-0.6-0.3h-0.1c-0.1,0-0.2-0.3-0.3-0.3h-0.1
				c-0.1,0-0.2-0.2-0.2-0.3c-0.3-0.2-0.4-0.2-0.4-0.2c-0.4,0-0.8-0.5-0.8-1c0.5,0.1,0.8,0.3,1,0.6c0.1,0,0.2-0.1,0.3-0.1h0
				c0.1,0.2,0.6,0.4,0.6,0.4h0.1c0.2,0,0.2,0.2,0.7,0.2c0.2,0,0.5,0,0.7,0.3c0.1,0,0.2,0,0.3,0c0.3,0,0.4,0.3,0.7,0.3h0.6
				c0.2,0,0.4,0,0.6,0c0.1,0,0.2,0,0.4,0c0,0,0.1,0,0.2,0c0.1,0,0.2-0.2,0.2-0.2s0.1,0.1,0.2,0.1c0.1,0,0.5-0.2,0.7-0.2H66
				c0,0,0.2-0.1,0.4-0.1c0,0,0,0.1,0.1,0.1c0.3,0,0.6-0.5,0.9-0.5l0-0.2c0-0.2,0.1-0.2,0.1-0.4c0-0.7-0.7-0.9-0.8-0.9
				c0-0.4-0.7-1-1-1h-0.1c-0.2-0.6-1-0.6-1.2-1.3c-0.2,0-0.3-0.2-0.4-0.2l0,0c0.1-0.3-0.3-0.3-0.2-0.6c0,0,0,0,0,0
				c0-0.1-0.1-0.2-0.2-0.2h-0.2c0-0.3,0-0.5-0.3-0.5c0-0.3-0.2-0.5-0.5-0.5c-0.5,0-0.4-1.3-0.4-1.2C62.3,23,62.4,22.5,62.6,21.9z"/>
			<path class="st1" d="M103.6,14.7c-0.2,0-0.3-0.1-0.5-0.2c-0.1-0.1-0.3-0.2-0.5-0.2c-0.1,0-0.1,0-0.2,0c0.1-0.2,0.1-0.2,0.2-0.2
				c0.2-0.1,0.3-0.2,0.4-0.4c-0.1-0.2-0.1-0.4,0-0.5c0-0.1,0-0.2,0.1-0.3c0.1-0.1,0.1-0.2,0.1-0.4c0.1-0.8-0.3-1-0.8-1.3l-0.3-0.3
				c-0.5,0.2-0.8,0.1-1.2,0.3h-0.3c-0.7,0-1.2,0.2-1.7,0.3l-0.3,0.1l-0.2-0.2c0,0-0.1,0-0.1,0s0,0,0.1-0.3c-0.7,0-0.8,0.5-1,0.6
				c-0.1,0.1-0.2,0.2-0.2,0.2c-0.1,0-0.2,0-0.2-0.2c-0.1-0.1-0.2-0.2-0.5-0.2c-0.3,0.1-0.4,0.5-0.4,0.5c-0.3,0-0.4,0.1-0.6,0.2
				c0,0.1-0.1,0.2-0.2,0.2h-0.2l-0.2,0.1c-0.1,0.1-0.6,0.2-0.6,0.4l0,0h-0.1c-0.1,0-1.7,0.7-2.1,1.4h-0.5c-0.7,0-0.8,0.4-0.8,0.6
				c0,0.1,0,0.2-0.1,0.2h-0.2c-0.2,0-0.4,0.5-0.4,0.6L90,15.8c-0.1,0-0.1,0-0.2,0.3l0,0.1c0,0.3-0.8,1-1.2,1.4l-0.5,0.6l-0.3,0.1
				c-0.3,0.1-0.4,0.2-0.8,1.1c0,0.1-0.5,0.5-0.6,0.5l-0.1,0.3c-0.1,0.3-0.2,0.5-0.3,0.6l0,0c-0.1,0.1-0.2,0.1-0.2,0.2
				c0,0.2,0,0.2,0,0.3c0,0.1,0,0.2,0,0.2c0,0,0,0-0.1,0.1c0,0-0.1,0.2-0.1,0.4l-0.1,0.4c-0.1,0.2,0.1,0.6-0.1,1.1
				c-0.4,0.6,0.5,2.2,0.9,2.4c0.2-0.1,0.5-0.1,0.8-0.1h0.6c0.2,0,0.4,0,0.7-0.1l1-0.2c0.1,0,0.2,0.1,0.3,0.1c0.4,0,0.4,0,0.5-0.1
				l0.2-0.2c0.1,0.1,0.2,0.1,0.2,0.1c0.4,0,0.2-0.2,0.3-0.3l0.7-0.2c0.6-0.1,1.4-0.3,2.6-0.9c0,0,0.1-0.2,0.2-0.3h0.2
				c0.1,0,0.2-0.1,0.3-0.2c0,0,0.1-0.1,0.3-0.1h0.2c0.2,0,0.4-0.3,0.7-0.4c0,0,0.1-0.2,0.2-0.2c0.1,0,0.1,0,0.1,0
				c0,0,0.2-0.1,0.2-0.1l0.3-0.1l0.3,0l0-0.2c0.1-0.2,0.1-0.1,0.1-0.1c0,0,0.2,0.1,0.3,0.1c0.3-0.1,0.6-0.5,0.8-0.6
				c0.3-0.3,0.6-0.6,1.1-0.8c0.2-0.3,0.4-0.5,0.6-0.8h0.1c0.2,0,0.3,0,0.4-0.1c0.1,0,0.2,0,0.3,0c0,0,0.3,0,0.4,0.1
				c0,0.2,0.1,0.2,0.3,0.2c0.1,0,0.1,0,0.2,0.1c0.2,0.2,0.5,0.5,0.5,0.6c0,0.2-0.3,0.5-0.4,0.5l0,0c-0.1,0-0.2,0.2-0.2,0.2l0,0.2
				c0,0-0.2,0.1-0.1,0.1c-0.2,0.2-0.3,0.1-0.3,0.3l0,0.2c-0.1,0-0.2,0.2-0.3,0.4c0,0.1-0.1,0.2-0.1,0.3c-0.1,0.1-0.2,0.2-0.3,0.5
				l0,0.2c-0.1,0.2-0.2,0.4-0.3,0.6c-0.1,0.3-0.2,0.6-0.3,0.8c0,0.2,0,0.2,0,0.3c0,0,0,0,0,0c-0.2,0-0.3,0-0.4,0.2
				c0,0.1-0.3,0.5-0.3,0.5c-0.1,0.2-0.4,0.6-0.9,1.8c0,0-0.1,0-0.1,0.1c-0.1,0.2-0.2,0.3-0.3,0.6l0,0.1c0,0,0,0.2,0,0.2
				c0,0.1-0.1,0.2-0.1,0.4c-0.1,0.1-0.3,0.4-0.7,1.9l-0.1,0.3c0,0.1-0.1,0.2-0.1,0.2c0,0.1-0.1,0.2-0.1,0.3c0,0.2,0,0.2,0,0.3
				c0,0.1,0,0.2,0,0.2c0,0-0.2,0.4-0.2,0.6s0.3,0.8,0.5,1c-0.4,0.9-1.8,1.3-1.8,1.3c-0.2-0.1-0.6-0.5-0.7-0.6l0-0.1l0,0
				c0-0.2-0.1-0.3-0.2-0.3l0.1-0.3c0.1-0.2,0.1,0,0.2-0.6c-0.1,0-0.1-0.2-0.1-0.3c0.2-0.9,0.3-1.6,0.4-1.7c0.3-0.6,0.6-1.3,0.7-1.4
				c0.4-0.3,0.7-1.2,0.9-1.9c0.1-0.3,0.1-0.5,0.2-0.5c0.3-1.2,1-1.9,1.2-2.2l0,0c0.2-0.1,0.2-0.2,0.2-0.2c0-0.1,0-0.2,0.1-0.3
				c0.1-0.1,0.1-0.2,0.1-0.3c0,0,0-0.2,0-0.3c0-0.1,0-0.1,0-0.2s0.2-0.3,0.3-0.5c-0.2-0.1-0.3-0.1-0.4-0.1c-0.2,0-0.3,0.2-0.4,0.3
				c-0.1,0.1-0.1,0.2-0.2,0.2c-0.2,0-0.3,0-0.3,0.1c-0.1,0-0.1,0-0.1,0c-0.1,0-0.2,0-0.2,0c-0.2,0-0.3,0.2-0.3,0.3l0,0
				c0,0-0.1,0-0.1,0c-0.2,0-0.3,0-0.6,0.1c0,0.2-0.2,0.2-0.4,0.3c-0.4,0.1-0.7,0.2-0.8,0.5c-0.1,0-0.3,0.1-0.4,0.1
				c-0.4,0-0.8,0.2-1.2,0.5h-0.2c-0.2,0-0.3,0.1-0.4,0.1c-0.1,0-0.2,0.1-0.3,0.1c0,0-0.1,0-0.1-0.1c-0.3,0-0.4,0.2-0.4,0.4
				c0,0,0,0,0,0c-0.7,0-1.4,0.3-1.9,0.5c-0.3,0.1-0.6,0.2-0.6,0.2c-0.1,0-0.3,0-0.5-0.2c0,0-0.3,0.2-0.4,0.2
				c-0.2,0.1-0.3,0.2-0.3,0.2c0,0-0.1-0.1-0.1-0.1c-0.1,0-0.1,0-0.2,0c-0.2,0-0.4,0.1-0.6,0.1c-0.1,0-0.1,0-0.2-0.1
				c0,0-0.1-0.1-0.2-0.1c0,0-0.2,0.1-0.2,0.2l-0.1,0c-0.4-0.1-0.9,0.1-0.9-0.2c0,0-0.6-0.5-1.1-0.6c-0.1-0.4-0.6-1.1-0.8-1.4l0-0.1
				c0,0,0-0.4-0.1-0.6c0,0,0.2-0.1,0.2-0.3c0,0-0.1-0.1-0.1-0.1c-0.1-0.5-0.1-0.6,0.1-1.9c0.3-1.9,1.2-3.2,1.3-3.2
				c0.2-0.3,0.5-0.5,0.8-0.8c0.6-0.8,2-2.8,2.9-2.9c0-0.2,0.1-0.3,0.2-0.5c0.1-0.1,0.2-0.2,0.2-0.2c0.2-0.1,0.4-0.3,0.5-0.4
				c0-0.1,0.1-0.2,0.2-0.2h0.2c0.2,0,0.2-0.1,0.2-0.2l0-0.1c0.1,0,0.1,0,0.1,0c0.1,0,0.2,0,0.3-0.1l0.1-0.2c0.1-0.1,0.2-0.2,0.2-0.2
				l0.4-0.2c0.5-0.2,1.1-0.5,1.2-0.9l0-0.1l0,0c0.2,0,0.3-0.2,0.5-0.3c0.1-0.1,0.2-0.2,0.2-0.2c-0.1,0,0.2-0.1,0.4-0.2
				s0.3-0.1,0.5-0.2l0-0.1c0.1,0,0.2-0.2,0.3-0.3c0.1,0,0.2-0.1,0.4-0.2c0.2-0.1,0.3-0.2,0.6-0.2c0.3-0.1,0.6-0.3,0.8-0.4
				c0.6-0.3,1.5-0.7,1.7-0.7h0.2c0.1,0,0.2,0,0.2-0.1h0h0.2l0.2-0.1c0.1,0,0.3,0.1,0.4,0.1c0.3,0,0.5-0.2,0.8-0.3
				c0.3-0.2,0.5-0.3,0.8-0.3c0.1,0,0.4,0,0.5,0h0.5c0.1,0,0.3,0,0.5-0.2c0,0,0,0.2,0,0.4c0.6,0,0.8-0.1,0.8-0.1l0.4-0.1
				c0,0.1,0.2,0.3,0.4,0.5c0.1,0.1,0.1,0.3,0.3,0.3l0.1,0.2c0.1,0,0.2,0.1,0.3,0.1c0.1,0.1,0.1,0.2,0.3,0.2h0.1
				c0,0.2,0.2,0.3,0.3,0.5c0.1,0.1,0.1,0.2,0.1,0.2l0,0.2c0,0.1,0,0.2,0.1,0.3c0.1,0.2,0.3,0.5,0.1,1.4c-0.1,0.4-0.1,0.7-0.2,1.1
				c-0.2,0-0.6,0.4-0.9,0.7L103.6,14.7z"/>
			<path class="st1" d="M105.2,33.4c0,0-0.1,0-0.1,0c0,0-0.4-0.3-0.7-0.3h-0.1c0.1-0.4-0.1-0.7-0.3-1c0.1-0.6,0.1-1.3,0.2-1.9
				c0.1-0.4,0.2-0.7,0.4-1c0-0.1,0-0.1,0-0.2c0-0.1,0.1-0.2,0.1-0.3c0-0.1-0.1,0-0.1-0.1c0,0,0.1,0,0.1,0c0-0.1,0-0.5,0.1-0.8
				c0-0.2,0-0.3,0.1-0.3h0.1c0,0,0-0.1,0-0.2c0.1-0.5,0.2-0.3,0.3-0.7c0-0.2,0.3-1.1,0.2-1.2c0.1,0,0.3-0.7,0.4-0.7
				c0.2-0.5,0.5-1,0.6-1.6c0.2,0,0.3-0.1,0.3-0.2l0-0.1c0,0,0.1,0,0.1-0.2c0-0.1,0-0.2-0.1-0.2c0.1,0,0.3-0.7,0.5-1c0,0,0-0.1,0-0.1
				c0-0.2,0.3-0.3,0.3-0.4c0-0.1,0-0.2,0-0.3c0-0.2,0.1-0.1,0.1-0.2c0,0,0-0.1,0-0.2c0-0.1,0.1-0.1,0.1-0.1c0.1-0.1,0.2-0.5,0.5-0.8
				l0-0.2c0.1-0.5,0.8-1.6,0.8-1.5c0,0,0,0,0-0.1c0-0.2,0-0.3,0-0.4c0-0.2,0.1,0.1,0.4-0.8c0-0.1,0.1-0.3,0.2-0.4c0,0,0-0.1,0.1-0.1
				c0.1-0.2,0.3-1,0.3-0.9c0-0.2,0.4-0.6,0.5-0.8c0.1-0.5,0.8-1.9,1.1-2.1c-0.1,0-0.1,0,0-0.1c0-0.3,0.4-1,0.5-1l0-0.1
				c0.1-0.5,0.8-1,0.8-1c0-0.1-0.1,0-0.1-0.1c0-0.2,0.6-0.8,0.5-0.7c0.1-0.4,0.3-0.6,0.4-1h0c0.2,0,0.2-0.3,0.3-0.3
				c0.1,0,0.2,0,0.2,0c0.1,0,0.2-0.1,0.2-0.1c0,0,0.1,0.1,0.2,0.1c0,0,0.2-0.1,0.2-0.1c0.2,0,0.5,0,0.5,0.3h0.1c0.1,0,0.2,0,0.3,0.1
				l0,0.1c-0.1,0.3,0.1,0.5,0.1,0.8c0,0.3-0.2,0.9-0.6,1.2h-0.2l0,0.2c-0.1,0.3-0.5-0.2-0.7,0.8c-0.4,0-0.2,0.9-0.9,1
				c-0.2,0.5-0.4,1.7-0.7,1.7h0l0,0.2h-0.1l0,0c0,0,0,0.1,0,0.1s-0.4,0.6-0.4,0.8l0,0.2c0,0.2-0.1,0.2-0.2,0.2c-0.1,0-0.2,0-0.1-0.2
				l0-0.1c-0.6,0-0.4,0-0.7,0.6c0,0.1-0.2,0.1-0.2,0.2c-0.2,0.3-0.3,1.2-0.7,1.4l-0.1,0.5c-0.1,0.4-0.2,0.4-0.3,0.8l-0.1,0.7
				c-0.1,0.6-0.7,0-0.9,1.1l0,0.1c-0.1,0.3-0.6,1.3-0.6,1.3h-0.1c-0.1,0-0.1,0.4-0.3,0.5l-0.1,0.3c-0.1,0.5-0.2,0.8-0.5,1.1
				l-0.3,1.9c-0.2,0-0.4,0-0.5,0.1c0,0.3,0,0.9,0,1.3c0,0.2-0.1,0.5-0.2,0.6l0,0.2c0,0,0,0-0.1,0h-0.1c0,0,0,0,0,0.1
				c0,0.1,0,0.2,0,0.2c0,0.2-0.3,0.4-0.4,0.5c-0.1,0.3,0.2,0.5,0.4,0.6l-0.4,0.6c0,1.3,0,1.5,0.2,1.5c0.3,0.1,0.9,0.3,1.3,0
				c0.1-0.1,0.9-0.5,0.8-0.5c0.8-0.3,0.4,0,1.3-0.7c0.6-0.4,1.1-0.8,1.8-1.5c0,0,0.1,0,0.1,0c0.1,0,0.1-0.1,0.2-0.2
				c0.4-0.3,0.4,0,0.8-0.6h0.1c0.2,0,0-0.5,0.2-0.4c0.1,0,0.2-0.1,0.1,0.1c0.7-0.5,1.6-1.4,1.8-1.4c0.2-0.2,0.3-0.5,0.5-0.7
				c0.1-0.1,0.8-0.5,0.8-0.5h0.1c0-0.1,0-0.1,0-0.2c0-0.2,1-1.2,1.5-1.5c0,0,0.1-0.1,0.1-0.1c0-0.2,0.3,0.1,0.3-0.1
				c0,0,0.3,0.1,0.3,0.1c-0.2,0.1-0.3,0.9-0.4,1c-0.1,0.2-0.1,0-0.2,0.1c0,0,0,0.1-0.1,0.1c-0.1,0.1,0,0.5-0.3,0.7
				c-0.2,0.2-0.5,0.2-0.4,0.2c0,0-0.6,1-0.9,1.3c-0.4,0.5-1,1-1,1c-0.3,0-0.6,0.4-0.7,0.7c-0.1,0-0.6,0.3-0.5,0.3c0,0,0,0,0,0
				c-0.4,0.5-0.7,0.5-1,1l0,0.1c0,0.2-0.3,0.1-0.3,0.2l0,0.1c-0.1,0.2-0.6,0.3-0.6,0.6c-0.2,0.2-0.6,0.4-0.7,0.5
				c-0.8,0.5-1.7,1.4-1.5,1.3c-0.1,0.1-0.1,0.1-0.1,0.2c0,0-0.5,0.3-0.7,0.3c-0.1,0-0.1,0-0.2,0c-0.5,0.5-0.8,0.4-1.2,0.8h-0.1
				c0,0-0.4,0.1-1.1,0.2C105.5,33.5,105.5,33.4,105.2,33.4C105.3,33.4,105.2,33.4,105.2,33.4z"/>
			<path class="st1" d="M117.9,20.8c0,0,0.1,0,0.1,0l0-0.1l0,0c0,0,0.1,0,0.2,0c0.2-0.2,0.2-1.3,0.5-1.4c0,0,0.1,0,0.2-0.1
				c0.1,0,0.3-0.4,0.4-0.4c0.2,0,0.2,0,0.3,0c0,0,0.2-0.2,0.2-0.2c0.1,0,0.2,0.2,0.3,0.2c0.3,0,0.5-0.3,0.7-0.3
				c0.2,0,0.3,0.3,0.6,0.3h0.1l0,0c-0.1,0.4,0.3,0.3,0.2,0.8h0.1c1.3,0,1.4,0.7,2.2,0.7c0.5,0,0.6,0.9,1.1,0.9c0.1,0,0.1,0,0.3,0
				c0,0.2,0.2,0.5,0.4,0.5c0.7,0,0.8-0.5,1,0c0,0.2,0.4,0.2,0.2,0.3c-0.1,0,0.6,0.9,0.7,0.8c0,0,0,0.1,0,0.1c0,0,0,0.2,0,0.3
				c0,0.1-0.3,0.1-0.4,0.4c0,0.3,0.1,1.2-0.4,1.6c0,0.6-0.5,0.5-0.5,1h-0.1c-0.1,0-0.2,0.4-0.4,0.4c-0.2,0-0.4,0.3-0.3,0.1
				c-0.2,0.2-0.9,0.8-0.7,0.8c-0.2,0.2-0.5-0.1-0.7,0.6c-0.2,0-1.1,1.2-1,1c-0.1,0.1-0.3,0-0.3,0.2c-0.6,0.3-1.4,1.1-1.5,1.6
				c0,0,0.1,0,0.1,0.1c0,0.2-0.5,0.4-0.6,0.4c0,0-0.1,0-0.1,0c-0.3,0.2,0,0.6-0.8,0.6c-0.2,0-0.4,0.5-0.4,0.5
				c-0.6,0-0.9,0.5-1.4,0.5c-0.3,0-0.5-0.1-0.8-0.1c-0.3,0-0.5,0.3-0.7,0.3c-0.3,0-0.4-0.3-0.5-0.3c-0.6-0.3-0.6,0-1.2-0.8l0-0.2
				c0-0.1,0-0.1,0-0.1h-0.1l0-0.2h-0.1l0-0.3c0,0-0.1,0-0.1,0s0,0,0-0.1l0-0.2c0-0.1-0.1-0.1-0.1-0.1c0-0.1,0.1-0.1,0.1-0.2
				c-0.4-0.5,0.1-1-0.2-1.4c0.2-0.3,0.2-0.8,0.5-1c-0.1-0.2-0.1-0.4-0.1-0.6c0,0,0.1-0.1,0.1-0.2c0-0.2,0-0.2-0.1-0.2
				c0.1-0.1,0.8-1.2,0.8-1.2c0-0.1,0-0.2,0-0.3c0-0.2,1-1.2,1.1-1.3l0-0.3c0-0.3,0.3-0.3,0.7-1.3c0-0.3,0.3-0.3,0.3-0.6
				c0-0.2-0.4-0.9,0-0.9C117.6,21.5,117.7,20.9,117.9,20.8z M123.7,21.9H123c-0.5,0-0.7-0.1-0.8-0.1c-0.1,0-0.2,0.1-0.2,0.1
				s-0.2,0-0.2,0c-0.1,0.1-0.3,0.1-0.4,0.1c-0.1-0.2-0.3-0.3-0.5-0.3c-0.2,0-1,1.4-1,1.4c0,0-0.2,0.2-0.2,0.2
				c-0.3,0.1-0.2,0.3-0.5,0.5c-0.1,0.3-0.2,0.5-0.2,0.6c0,0-1.1,2.1-1.9,2.7c0,0.2,0,0.4,0,0.5c-0.3,0.1-0.6,0.8-0.6,0.7
				c0,0.3,0,0.3-0.1,0.5c-0.1,0.3-0.2,0.2-0.2,0.6c0-0.1-0.1,2.4,0.4,2.4c0.3,0,0.5-0.3,0.6-0.3c0.1,0,0.1,0,0.2,0
				c0.5,0,0.4-0.3,0.8-0.3c0.1,0,0.1,0.2,0.4,0.2l0-0.2c0.1-0.7,1-0.7,1.2-0.8c1-0.6,1.2-1.6,2.6-2.2c0.2-0.2,0.2-0.4,0.3-0.6l0-0.1
				c0.7-0.4,1.2-1.4,1.8-2c-0.1-0.1,0.2-0.5,0.3-0.9c0.1-0.5-0.1-0.8,0.1-1.1c-0.1-0.2,0-0.5-0.2-0.7
				C123.9,21.6,123.7,21.9,123.7,21.9z"/>
			<path class="st1" d="M136.2,25.6c0.1-0.2,0.1-0.3,0.1-0.5c0.3-0.1,0.4-0.5,0.7-0.7c0-0.2,0.1-0.3,0.1-0.5
				c0.2-0.2,0.4-0.5,0.6-0.6c0.4-0.8,1-1.4,1.2-2.1c0-0.2,0.1-0.5,0.2-0.6c0,0,0,0,0.1,0c0.2,0,0.2-0.2,0.6-0.2
				c0.2,0,0.2,0.1,0.3,0.2h0.2c0.1,0,0.5,0.4,0.4,0.6l0,0.1c0.2,0.2,0.4,0.3,0.5,0.6c-0.1,0.3-0.3,0.4-0.3,0.7c0,0.1-0.1,0.2,0,0.2
				c0,0,0,0,0,0.1c-0.1,0.3,0.3,0.1,0.1,0.8c-0.1,0.6-0.2,1.2,0.1,1.5c0,0.1-0.1,0.2-0.1,0.3c-0.1,0.5,0,0.8,0.2,1.1l-0.1,0.3
				c0,0.2,0.2,0.8,0.2,0.8c0,0.1,0.2-0.1,0.1,0.2c0,0.2-0.1,0.2-0.2,0.3c0,0.3,0.2,0.5,0.4,0.7c0,0.1-0.1,0.2-0.1,0.2
				c-0.1,0.3,0.1,0.5,0.4,0.5c0.2,0.2,0.1,0.5,0.5,0.6c0.2,0,0.6-0.6,0.6-0.6l0.1-0.4c0.3,0,0.3-0.3,0.5-0.5c0-0.1,0-0.2,0-0.3
				c0.1-0.6,0.4-1,0.7-1.3c0-0.2,0-0.4,0-0.7c0.1-0.5,0.3-0.6,0.4-1l0.1-0.3c0.1-0.2,0.2-0.3,0.2-0.4c0,0-0.1-0.4,0-0.7
				c0-0.2,0.2-0.2,0.2-0.2c0,0-0.1-0.1,0-0.3c0-0.2,0.1-0.4,0.1-0.5c0-0.2,0.1-0.4,0-0.4c0,0,0.1-0.2,0.1-0.3c0-0.1,0-0.2,0-0.2
				c0.1-0.1,0.1-0.2,0.1-0.3c0.1-0.2,0.1-0.3,0-0.5l0-0.1c0.1-0.1,0-0.2,0.1-0.3c0,0,0.1-0.2,0.1-0.2c0,0-0.1-0.3-0.1-0.5l0.1-0.3
				c0.1-0.3,0-0.5,0-0.8c0-0.2,0.1-0.2,0.2-0.5c-0.1,0-0.1-0.2-0.1-0.2c0-0.2,0.2-0.4,0.5-0.4h0.1c0.1,0,0.1,0,0.1,0
				c0,0,0.1,0,0.2,0.1c0,0,0.2,0,0.3,0c0,0,0.1,0,0.1,0.1l0,0c0.4,0.1,0.5,0.1,0.5,0.5c0,0,0,0.4,0,0.5c-0.1,0.1-0.1,1.2-0.3,1.4
				c-0.1,0.3-0.1,0.5-0.1,0.8c0,0.2-0.1,0.3-0.2,0.5c0,0.1,0,0.2,0,0.3c0,0.1-0.1,0.2-0.2,0.2c0.1,0.1,0.2,0.3,0.1,0.6l0,0.2
				c0,0.1,0,0.2,0,0.2c-0.1,0-0.1,0.1-0.1,0.1l0,0.1c0,0.1,0,0.1-0.1,0.2c0,0,0,0.1,0,0.1c0,0.2-0.3,0-0.5,0.3
				c-0.1,0.5,0.6,0.2,0.6,0.5c-0.1,0.4-0.2,0.5-0.3,0.7c0,0.1,0,0.2,0,0.3c-0.3,0.1-0.3,0.4-0.5,0.5c0,0.2,0,0.4,0.1,0.4h0.1
				c-0.1,0.1-0.2,0.2-0.2,0.3l0,0.1c0,0,0,0,0,0.1c0,0,0,0.1,0,0.2c0,0.2-0.1,0.1-0.1,0.2l0,0.1c0,0,0,0.2-0.2,0.5l0,0.2
				c0,0.1-0.2,0.1-0.3,0.3c0,0.1,0,0.2-0.1,0.3c0,0.2-0.2,0.4-0.3,0.4l-0.1,0.3c-0.1,0.5-0.7,0.8-0.8,1.4l0,0.1
				c-1,0.6-0.8,0.8-0.9,0.8c-0.1,0.1-0.1,0-0.2,0h-0.1c-0.1,0-0.4,0.1-0.5,0.1c-0.6,0-1.1-1-1.7-1.3c-0.1-0.2-0.2-0.5-0.2-0.8
				c-0.1-0.3-0.7-0.6-0.6-0.8c-0.1-0.2,0.1-0.6,0-0.9c0-0.5-0.1-0.8-0.4-1c0.2-0.7,0.2-1.4-0.1-2l0-0.1c0.1-0.2,0-0.8-0.1-0.8
				c-0.3,0-0.5,0.5-0.5,0.5c-0.3,0-0.3,0.3-0.6,0.3c0,0.2,0,0.4,0.1,0.5c-0.3,0.3-0.7,0.5-1,0.8c0,0.2,0,0.2,0,0.3
				c0,0.2-0.3,0.9-0.7,0.8c0,0.1,0,0.2,0,0.3c-0.2,0.9-1.3,1.7-1.2,1.7c0,0-0.1,0-0.1,0l0,0.2c0,0.2-0.2,0.2-0.3,0.5
				c-0.1,0-0.1,0-0.2,0c-0.3,0-0.4,0.3-0.6,0.5c0,0.2,0,0.3,0,0.3c-0.1,0.3-0.3,1.1-0.7,1c-0.1,0.3,0,0.3,0,0.3c0,0.1-0.6,0.9-1,1.2
				l-0.3-0.1h-0.3c0,0-0.2,0-0.3-0.1c-0.3,0-0.4,0.3-0.7,0.3c-0.6,0-0.6-1.1-0.6-1.1c-0.2-0.5-0.1-0.6-0.1-1.1
				c0-0.2,0.1-0.3,0.2-0.5c0-0.2,0-0.8,0-0.8c0,0,0-0.1,0.1-0.1c0,0,0-0.3,0-0.3c0-0.1,0.1-0.1,0.2-0.2c0-0.1,0-0.5,0.1-0.8
				c0.1-0.6,0.4-1.4,0.6-1.4c0-0.1,0-0.3,0-0.3c0.1-0.5,0.4-0.7,0.4-1l0.1-0.3c0-0.1,0.1-0.1,0.1-0.1c0,0-0.1-0.1,0-0.2
				c0,0,0.1,0,0.1-0.1c0,0,0-0.1,0-0.2c0.1-0.2,0.1-0.3,0.1-0.4l0.1-0.4h0.1c0-0.1-0.1-0.1-0.1-0.2c0,0,0-0.1,0.1-0.2
				c0.1-0.1,0.5-0.9,0.5-0.8c0-0.3-0.1-0.4-0.3-0.6c0-0.5,0-1,0.1-1.4c0.2-1.2,1.1-1.8,1-1.8h0l0-0.2c0.1-0.4,0.4-0.9,0.9-0.9h0.1
				c0.1,0,0.1-0.2,0.3-0.2c0.5,0.1,0.7,0.9,0.8,1.5c0,0.2,0.2,0.2,0.3,0.3c-0.1,0.1-0.1,0.2-0.1,0.2l-0.1,0.4
				c-0.1,0.5-0.4,0.3-0.5,0.6c0,0.1,0,0.3-0.1,0.4c0,0.2,0,0.3-0.1,0.3l0,0.1c-0.1,0.3-0.5-0.2-0.7,0.6c-0.1,0.3-0.3,0.4-0.3,0.6
				c0,0.2,0,0.3,0,0.4c0,0.2-0.2,0.4-0.2,0.6l0,0.2c0,0.2-0.4,0.1-0.4,0.3l0,0.2c-0.1,0.3-0.2,0.5-0.3,0.8c-0.3,0.1-0.2,0.5-0.5,0.6
				c-0.1,0.3-0.1,0.7-0.1,1c-0.1,0.2-0.1,0.4-0.3,0.6c0.1,0.2,0,0.6,0.1,0.8c-0.1,0.2-0.2,0.4-0.3,0.5c0,0.2,0,0.3-0.1,0.6l-0.1,0.2
				l0,0.2c0,0.2-0.2,0.2-0.2,0.3c0,0.2,0.2,0.3,0.2,0.3c0.4,0,1.2-1.4,1.1-1.1l0-0.2c0.1-0.2,0.3-0.2,0.4-0.2c0,0,0.1-0.3,0.2-0.3
				h0.1c0.1,0,0.1-0.2,0.3-0.2c0,0,0,0,0,0c0-0.2,0.1-0.2,0.1-0.3l0.1-0.2c0,0,0.1,0,0.1,0c0.1,0,0.1-0.2,0.2-0.3
				c0.2-0.1,0.6-0.7,0.9-0.8c0,0,0-0.1,0-0.1c0.1-0.2,0.2-0.5,0.3-0.6l0-0.2c0-0.1,0,0,0.1,0C135.8,26.1,135.9,25.7,136.2,25.6z"/>
			<path class="st1" d="M169.8,27.4c0-0.2,0-0.3-0.1-0.3c0.1-0.3,0.4-0.5,0.4-0.7c0,0-0.1,0.1-0.1-0.1c-0.4,0.3-0.8,1.4-1.4,1.3
				c0,0.2-0.2,0.3-0.2,0.4l0,0.2c0,0.1-0.2,0-0.3,0c-0.1,0-0.1,0.2-0.2,0.3c0,0-0.3,0.3-0.3,0.3c0,0,0,0.1,0,0.2s0,0,0,0h-0.1
				c-0.2,0-0.7,0.5-0.8,0.6c0,0,0,0.1,0,0.2c-0.4,0.4-0.8,0.3-0.9,0.9c0,0-0.3,0.3-0.3,0.3c-0.3,0.2-1,0.8-0.9,0.7
				c-0.1,0.1-0.3,0.3-0.4,0.5c0,0.2-1.5,0.8-1.4,0.6c0,0.1,0.1,0.2,0.1,0.3c0,0,0,0-0.1,0c-0.1,0-0.1,0-0.1,0c0,0-0.1,0.1-0.1,0.1
				c0,0.1-0.6,0.3-0.7,0.2c-0.2-0.1-0.3-0.2-0.4-0.2c-0.4,0.1-0.9,0.3-1.2,0.3c-0.4-0.3-0.9-0.6-0.8-1.2c-0.4,0,0.6-1.5,0.3-1.7
				c0.1-0.7,0.3-0.7,0.5-1.3c0.1-0.4,0.3-0.4,0.4-0.9c0.2-0.1,0.8-0.9,0.5-1.2c0-0.2,0.3-0.6,0.5-1.3c0,0,0,0,0,0
				c0.1-0.2,0.2-0.1,0.3-0.2c0,0,0-0.1,0-0.2c0-0.2,0.4-0.3,0.4-0.6c0-0.2,0.1-0.3,0.2-0.6c0.1,0,0.1,0,0.2-0.2c0,0,0-0.1,0-0.2
				c0.1-0.3,0.2-0.2,0.3-0.3c0-0.1,0.5-1,0.5-1c0.1-0.1,0.2-0.2,0.3-0.3c0-0.1-0.1-0.3,0-0.4c0.1-0.1,0.3-0.3,0.4-0.6
				c0-0.2,0.1-0.2,0.2-0.4c0-0.1,0.1-0.1,0.1-0.1c0,0,0.4-0.7,0.4-0.7c0.1,0,0-0.2,0-0.2c0.2-0.1,0.2-0.3,0.3-0.6
				c0.6-0.1,0,0,0.5-0.2c0.2,0.1,0.3,0.2,0.7,0.2c0,0,0.1,0,0.1,0c0.2,0.6,0.8,0.8,0.6,2c0,0.3-0.3,0.3-0.7,1.1c0,0.1-0.9,1-1,1
				c-0.5,0.3-1.1,1.7-0.9,1.6c-0.3,0.2-0.3,0.6-0.7,1.1c0,0-0.1,0.5-0.1,0.5c0,0.2-0.3,0.4-0.3,0.6l0,0.2c0,0-0.1,0.2-0.4,0.4
				c0.1,0.1,0,0.2,0,0.3c0,0.2-0.1,0.3-0.3,0.4c0.1,0-0.2,1.1-0.2,1.2c0,0.2-0.2,0.5-0.2,0.6c-0.2,0.3-0.3,0.7,0.2,0.7
				c0.2,0,0.5,0,0.6-0.2l0-0.1c0.2,0.1,0.4-0.1,0.8-0.3c0.1-0.1,0.3-0.1,0.5-0.2c0.3-0.2,0.2,0,0.9-0.5c0.8-0.8,1.1-0.8,1.3-1
				c0.3-0.3,0.8-0.5,0.9-1l0-0.1c0.4,0,1.2-0.9,1.3-1.2c0-0.2,0.6-0.4,0.6-0.6c0,0,0-0.1,0-0.1c0.1-0.2,0.6-0.6,0.7-0.8
				c0,0,0-0.1,0-0.1c0.8-0.3,0.5-0.8,0.9-1.1l0-0.2c0.2-0.8,0.6-1,1.3-0.9c0.1,0,0.3,0.1,0.5,0.1c0,0,0,0.1-0.1,0.1
				c0,0.2,0.3,0.2,0.2,0.4l0,0c0,0.3,0.4,0.2,0.3,0.4c0,0.2-0.2,0.1-0.2,0.3c0.1,0.1,0.1,0.2,0.1,0.4c-0.2,0.7-0.5,0.3-0.7,0.6
				c0,0.2,0.2,0.4,0.2,0.5c0,0.1-0.1,0.1-0.1,0.2c0,0.1,0.1,0.1,0,0.2c0,0.2-0.2,0.3-0.4,0.4c0,0.2,0,0.3,0,0.5
				c-0.1,0.1-0.2,0.1-0.2,0.2c0,0,0,0.2,0,0.3c0,0,0,0.1-0.1,0.2c0,0.1-0.2,0.1-0.2,0.2c0,0.1,0,0.5,0,0.7l-0.1,0.3
				c0,0.1,0,0.3,0,0.3c-0.2,0.3-0.4,0.7-0.4,1c0,0.1,0,0.2,0.1,0.3c-0.1,0.1-0.2,0.3-0.2,0.4c-0.1,0.4,0.1,0.7,0.2,1
				c0.4-0.1,0.9,0,1.2-0.2c0.1-0.1,0.9-0.4,0.8-0.4c0.8-0.3,0.3-0.2,1.2-0.7c0.6-0.4,1.2-0.8,1.9-1.4c0,0,0.1,0,0.1,0
				s0.1-0.1,0.2-0.2c0.4-0.2,0.4,0.1,0.9-0.6h0.1c0.2,0,0.1-0.5,0.3-0.5c0.1,0,0.1,0,0.1,0.1c0.7-0.5,1.5-1.3,1.7-1.3
				c0.2-0.2,0.4-0.4,0.6-0.6c0.1-0.1,0.8-0.5,0.8-0.5h0.1c0-0.1,0-0.1,0-0.2c0-0.2,1.1-1.1,1.6-1.4l0-0.1c0-0.2,0.3,0.1,0.3-0.1
				c0,0,0.3,0.1,0.3,0.1c-0.2,0.1-0.3,0.7-0.4,0.8c-0.2,0.1-0.1,0-0.2,0c0,0-0.1,0.1-0.1,0.1c-0.1,0.1,0,0.3-0.3,0.5
				c-0.2,0.2-0.4,0.2-0.4,0.2c0,0-0.6,0.8-0.9,1.1c-0.4,0.5-1.2,0.9-1.1,0.9c-0.3,0-0.6,0.5-0.7,0.8c-0.1,0-0.6,0.3-0.5,0.3
				c0,0,0,0-0.1,0c-0.4,0.4-0.6,0.4-0.9,0.8l0,0.1c0,0.2-0.4,0.2-0.4,0.2l0,0.1c-0.1,0.2-0.6,0.3-0.7,0.6c-0.1,0.2-0.6,0.4-0.7,0.5
				c-0.8,0.4-1.7,1.2-1.6,1.1c-0.1,0.1-0.1,0.1-0.1,0.2c0,0-0.3,0.2-0.5,0.2c-0.1,0-0.1,0-0.2,0c-0.6,0.5-1,0.6-1.4,0.9H172
				c0,0-0.4,0.3-1.1,0.3c-0.3,0-0.1-0.2-0.3-0.2c-0.1,0-0.1,0-0.3,0c0,0-0.5-0.4-0.5-0.4l0-0.2c0-0.2-0.4-0.3-0.3-0.3h-0.1l0-0.2
				c0,0-0.2,0-0.2-0.1l0-0.2c0-0.1-0.1-0.1-0.1-0.1c-0.1-0.1-0.1-0.7-0.1-0.6l0,0c0,0,0,0,0-0.1c0,0-0.1-0.6-0.1-1
				c0-0.2,0.2-0.3,0.2-0.5c0-0.2-0.1-0.4,0-0.6c0-0.2,0.2-0.4,0.3-0.6l0.1-0.4C169.5,27.8,169.7,27.8,169.8,27.4z"/>
			<path class="st1" d="M194.5,19.5c0,0,0,0.2,0,0.2c0,0.7,0.3,1.1,0.2,2c-0.1,0.5-0.6,0.6-0.6,1.1c-0.1,0.3,0,0.7,0,1
				c0,0.2,0,0.2-0.2,0.3c0.1,0.1,0.2,0.1,0.2,0.3l-0.7,1.3c0.1,0.1,0,0.2,0,0.4l-0.1,0.3c0.9-0.2,1.7-1.5,2.3-1.5
				c0.3,0,0.3-0.3,0.5-0.5c0.5,0,1.2-0.6,1.2-0.6c0.2,0,1.3-0.7,1.4-1c0,0,0.1,0,0.1,0c0.1,0,0.2-0.1,0.3-0.1c0.1,0,2.6-1.4,2.6-1.4
				c0.7,0,1.3-0.7,1.5-0.8c0.1,0,0.3,0,0.5-0.1c0.1,0.2,0.5,0,0.5,0.2l0,0c0.4,0.2,0.7,0.5,0.7,0.7c-0.1,0.4-0.9,1-1.2,1
				c0-0.1,0-0.2-0.1-0.2c-0.9,0.3-0.7,0.7-1.1,0.7c-0.2,0-0.2-0.2-0.5-0.2c-0.4,0-0.2,0.5-0.7,0.5c-0.1,0-0.1,0-0.2,0
				c-0.3,0-2.4,1.4-2.8,1.4c-0.6,1-1.9,0.8-2.4,1.7c-0.4,0-0.7,0.4-1.1,0.6c0,0.1-1.3,0.7-1.3,0.9c0,0-0.1,0.3-0.1,0.3
				c-0.2,0.1-0.5,0.1-0.7,0.2c-0.2,0.4-0.5,0.5-0.7,1c-0.2,0.1-0.4,0.1-0.5,0.3c0,0.1,0,0.3,0,0.4c-0.1,0-0.4,0.5-0.4,0.7l0,0.3
				c-0.1,0.3-0.8,1.1-0.8,1.1c0,0.2-0.3,0.3-0.3,0.5c0,0,0,0.1-0.1,0.2c-0.2,0.3-1.7,0.5-1.5,0.4c-0.3,0.2-0.8,0.4-1.2,0.5
				c0-0.1,0-0.1-0.1-0.1c-0.1,0-0.2,0-0.3,0c0,0-0.2-0.5-0.2-0.6l0,0c-0.2-0.2,0.3-0.8,0.7-1.2c0.3,0,0.6-0.2,0.7-0.6l0-0.2
				c0.5,0,1.6-1.5,1.6-1.4c0.8-0.8,0.5-1.5,1-2.1c0.2-1,0.5-0.7,0.5-1c0-0.1,0-0.3,0-0.4c0,0,0.4-0.7,0.4-0.7
				c0.2-0.4,0.4-1.3,0.6-1.4c0-0.1,0-0.1,0-0.2c0-0.2,0.1-0.2,0.1-0.3c0-0.1,0-0.1,0-0.2c0-0.2,0.2-0.3,0.3-0.4
				c0-0.3-0.1-0.5-0.1-0.8c0-0.2,0.3-0.3,0.3-0.7c0-0.3,0.1-0.9,0-0.9c-0.3,0-0.5,0.2-0.7,0.2c-0.1,0-0.1,0-0.2-0.1
				c-0.1,0-0.1,0.1-0.1,0.2c0,0.1,0,0.2,0,0.3c0,0.1,0,0.1,0,0.1c-0.5,0-0.8,0.7-0.8,0.7s0,0,0,0.1c-0.7,0-0.5,0.6-1.2,0.9
				c-0.2,0.5-0.7,0.6-0.8,1.1c0,0,0,0-0.1,0c-0.1,0-0.1,0.2-0.1,0.2c-0.6,0.4-0.1,0.1-0.6,0.6c-0.1,0.1-0.2,0.2-0.3,0.3
				c0,0.3,0,0.3,0,0.4c-0.1,0.5-0.3,0.4-0.4,0.5c-0.2,0.3-0.1,0.3-0.7,1.3c0,0-0.5,0.7-0.7,0.7c0,0.2-0.2,0.3-0.2,0.5
				c0,0,0,0.1,0,0.2c-0.4,0.2-0.5,0.6-0.8,0.8l0,0.2c-0.1,0.5-0.5,0.6-0.6,1c0,0.1,0,0.2,0,0.2h-0.1c-0.3,0-0.4,0.7-0.9,0.9
				c0,0.1,0,0.2,0,0.2c0,0.2-0.2,0.3-0.3,0.6l0,0.1c-0.2,0-0.2,0.1-0.4,0.1c0,0,0,0-0.1,0c-0.1,0.3-0.4,0.4-0.5,0.6
				c0,0.2-0.1,0.3-0.1,0.5c-0.1,0.5-0.4,0.3-0.5,0.5c0,0-0.1,0.2-0.1,0.2c0,0.1-0.2,0-0.3,0.3c0,0-0.2,0.2-0.2,0.2
				c-0.1,0.5-0.2,0.3-0.3,0.6c-0.1,0.2,0,0.3-0.1,0.5c-0.1,0.2-0.7,0.8-0.8,1c-0.1,0.3-0.3,0.4-0.5,0.6c0,0.2,0,0.3,0,0.3
				c-0.1,0.3-0.5,0.7-0.6,1c0,0.1-0.1,0.2,0,0.3c-0.2,0-0.3,0-0.4,0.2c0.1,0,0.1,0.1,0.1,0.1c-0.1,0.2-0.3,0.4-0.3,0.5
				c0,0.1,0,0.2,0,0.2h0.1c-0.1,0.2-0.3,0.3-0.3,0.5l0,0.3c-0.3,0-0.2,0.4-0.6,0.6c0.1,0.1,0.1,0.1,0,0.2c0,0.2-0.2,0.3-0.2,0.4
				c0,0.2,0,0.5-0.1,0.6c-0.1,0.4-0.5,0.7-0.5,1.1c0,0.1,0,0.1,0,0.1c-0.3,0-0.5,0.7-0.5,0.7c0,0.2,0.2,0.2,0.2,0.3
				c-0.1,0.3-0.2,0.5-0.4,0.7c0,0.2,0,0.3,0,0.5c-0.2,1-1.4,1.2-1.9,1.8c-0.4,0-0.3-0.4-0.7-0.4c-0.1,0-0.1,0-0.3,0
				c-0.1-0.1,0-0.2,0-0.2c0-0.1,0.1-0.1,0.1-0.3c-0.2,0-0.3-0.1-0.4-0.2c0.1-0.4,0.7-0.8,0.8-1.3c0-0.1,0-0.2,0-0.2
				c0-0.3,0.3-0.2,0.3-0.5c0-0.2-0.1-0.2,0-0.3c0,0,0-0.1,0.1-0.1c0.2,0,0.5-0.7,0.5-0.7c0,0,0.3-0.3,0.3-0.4
				c1.3-2.7,0.6-1.9,1.1-2.5c0.1-0.1,0.3-0.3,0.5-1.1c0.1-0.3,0.4-0.3,0.4-0.5l0-0.2c0.1-0.3,0.4-1,0.5-1.3c0.5,0,0.4-1.5,1-1.8
				c0.6-1.6,0.7-1.5,0.7-1.8c0,0,0.4-1,0.7-1.3c0,0,0,0,0-0.1c0-0.2,0.2-0.3,0.2-0.5c0-0.1-0.1-0.1-0.1-0.2c0-0.3,0.4-1.2,0.7-1.4
				c0-0.1,0-0.2,0-0.2c0-0.1,0.1-0.2,0.1-0.5s0.3-0.3,0.4-0.6c0.2-1.3,0.5-1,0.7-1.5c0-0.2-0.1-0.4,0-0.6c0.1-0.6,0.8-1,0.9-2
				c0,0,0.6-0.7,0.8-1.9l0-0.2c0.2-0.2,0.4-0.3,0.6-1c0.5-0.5,0.7-2,0.8-2.2c0.1-0.2,0.4,0,0.5-0.2c0.1,0.2,0.4,0.1,0.4,0.4
				c0.1-0.1,0.2-0.1,0.3-0.1c0.5,0,0.9,0.4,0.8,1c0,0.2-0.2,1-0.3,1.1c0,0-0.1,0.2-0.1,0.2c0,0,0,0.2-0.1,0.2s-0.1-0.1-0.2-0.1
				c0,0-0.2,0.2-0.2,0.3c0,0.1,0.1,0.1,0.2,0.1c-0.2,0.2-0.3,0.4-0.4,0.8l0,0.2c-0.1,0-0.1,0.2-0.2,0.2h0c-0.1,0-0.2,0.1-0.2,0.1
				c0,0.1,0,0.2,0,0.2c-0.1,0.3-0.3,0.5-0.4,0.6c0,0.1,0.1,0.2,0.1,0.3l0,0.1c-0.5,0.1-0.7,1.1-0.8,1.3c-0.3,0.1-0.4,0.5-0.5,0.7
				l0,0.1c0,0.2-0.2,0.2-0.2,0.2c-0.1,0.2-0.1,0.7-0.5,0.7l0,0.2c0,0.2-0.1,0.3-0.2,0.5l0,0.1c-0.4,0.4-0.8,0.7-0.9,1.3
				c0,0,0,0.2,0,0.3c-0.4,0.1-0.4,0.7-0.6,1.3c0,0-0.1,0.1-0.2,0.4c-0.2,0.3-0.4,0.6-0.5,0.8l0,0.2c0,0.2-0.2,0.2-0.3,0.5
				c0,0,0.1,0,0.2,0c0.2,0,0.6-0.5,0.6-0.7l0-0.1c0.3-0.6,0.6-0.9,1-1.1c0,0,0-0.1,0-0.2c0.1-0.3,0.4-0.4,0.4-0.6
				c0.2-0.2,0.4-0.6,0.5-0.8c0.3-0.4,0.4-0.7,0.8-1.2c0,0,0.5-0.9,0.8-1l0-0.2c0-0.2,0.1-0.2,0.2-0.4l0-0.1c0.3-0.3,1.1-1.3,1.1-1.3
				c0.1-0.8,1.2-1.7,1.3-1.7c0,0,0-0.1,0-0.1c0.2-0.9,1.3-1.9,1.7-2.3c2.8-3.3,2.4-2,2.7-2.8c0.1-0.1,0.2,0,0.3-0.1
				c0.5-0.2,0.8-0.9,1.7-0.9c0.6,0,0.8,0.5,0.8,0.6c0,0,0,0,0,0.1c0,0,0,0.2,0,0.2h0.1c0.1,0,0,0.2,0.1,0.2L194.5,19.5
				C194.5,19.4,194.6,19.5,194.5,19.5z"/>
			<path class="st1" d="M207.1,30.1c0,0,0.2-0.1,0.2-0.1s-0.1,0.3,0.1,0.3h0.1c0.4-0.1,0.7,1,0.7,1.8c0,0-0.1,0-0.2,0.1
				c-0.4,0.1-0.5-0.3-0.8-0.2c0,0-0.1,0.1-0.2,0.1c0.1,0.4,0.3,0.3,0.3,0.9c-0.1,0.1-0.2,0.1-0.3,0.1c-0.3,0.1-0.7,0-1,0l0-0.1
				c0-0.2-0.2,0-0.2-0.2c0,0,0,0,0-0.1c-0.1-0.2-0.5-0.2-0.6-0.5c0.1-0.3,0-1.2,0.6-1.3c0.2-0.4,0.9-0.6,0.9-1.1
				C206.8,29.7,207,30.1,207.1,30.1z M217.5,7.2C217.5,7.2,217.5,7.3,217.5,7.2c0.5,0.1,0.6,0.5,0.7,0.5c0,0.3-0.1,0.5-0.2,0.8
				c0,0-0.1,0-0.1,0c-0.8,0.2-0.9,1.7-1.2,1.8c-0.1,0-0.2,0-0.3,0.1c-0.3,0-0.4,0.3-0.7,0.5c0,0.1,0.1,0.1,0,0.2
				c0,0.3-0.2,0.4-0.1,0.6c0,0,0,0.1,0.1,0.1c-0.2,0.1-0.2,0.2-0.2,0.3l0,0c-0.5,0.2-0.5,0.6-0.8,0.8c0,0.1,0,0.2,0,0.2
				c0,1-1,1.8-1,2.4c0,0-0.4-0.5-0.3-0.4c-0.6,0.2-0.8,1.3-0.8,1.4c-0.6,0.2-0.5,1.5-0.9,1.6c0,0-0.1,0-0.1,0l0,0.2
				c0,0.2-0.1,0.8-0.4,0.8H211c0,0.3-0.1,0.5-0.1,0.7c0,0.1,0,0.2,0,0.2c-0.2,0.2-0.1,0.7-0.4,0.9c0,0.1,0,0.1,0,0.2
				c0,0.2-0.1,0.4-0.1,0.6c0,0.1,0,0.2,0,0.2c-0.5,0.3-0.2,1.3-0.9,1.4c-0.5,0.2-0.7,0.3-0.7-0.5c0,0,0.1,0,0.1-0.1
				c0-0.1,0,0.1-0.1-0.2c0-0.2,0.1-0.3,0.1-0.4c0,0,0-0.1,0-0.1c0.3-0.7,0.7-2.2,1-2.4c0-0.2,0-0.3,0-0.5c0.5-0.4,0.4-1.3,0.9-1.8
				c0,0,0.2-0.8,0.2-0.6c0.2-0.5,0.9-1.1,0.8-1.8c0.4-0.2,0.5-0.9,0.5-1c0.5-0.3,0.5-1,1-1.3c0-0.8,1-1.5,1-2.2
				c0.2-0.1,0.3-0.3,0.5-0.4c0,0,0-0.1,0-0.1c0,0,0.3-0.7,0.6-0.8l-0.1-0.1c0-0.8,0.6-1.9,0.7-2c0,0,0,0,0.1,0
				c0.1,0,0.2-0.1,0.3-0.1c0.2-0.1,0.4,0.1,0.7,0c0,0,0.1,0,0.2,0C217.4,6.9,217.5,7,217.5,7.2z"/>
		</g>
	</g>
</g>
</svg>
