<svg xmlns="http://www.w3.org/2000/svg" width="61.41" height="71.344" viewBox="0 0 61.41 71.344">
  <g id="グループ_383" data-name="グループ 383" transform="matrix(0.914, -0.407, 0.407, 0.914, -1483.565, -738.847)">
    <g id="グループ_360" data-name="グループ 360" transform="translate(1053.411 1307.137)">
      <g id="グループ_359" data-name="グループ 359">
        <g id="グループ_358" data-name="グループ 358">
          <path id="パス_194" data-name="パス 194" d="M1079.87,1342.518h-27.458a1.19,1.19,0,0,1-1.189-1.19v-38.644a1.189,1.189,0,0,1,1.189-1.19h27.458a1.19,1.19,0,0,1,1.19,1.19v38.644A1.191,1.191,0,0,1,1079.87,1342.518Zm-26.268-2.379h25.079v-36.265H1053.6Z" transform="translate(-1051.222 -1301.495)" fill="#222"/>
        </g>
      </g>
    </g>
    <g id="グループ_370" data-name="グループ 370" transform="translate(1058.505 1313.474)">
      <g id="グループ_363" data-name="グループ 363">
        <g id="グループ_362" data-name="グループ 362">
          <g id="グループ_361" data-name="グループ 361">
            <path id="パス_195" data-name="パス 195" d="M1060.815,1313.033h-5.406a1.19,1.19,0,0,1-1.19-1.189v-5.43a1.19,1.19,0,0,1,1.19-1.189h5.406a1.19,1.19,0,0,1,1.19,1.189v5.43A1.19,1.19,0,0,1,1060.815,1313.033Zm-4.216-2.379h3.025V1307.6H1056.6Z" transform="translate(-1054.219 -1305.224)" fill="#222"/>
          </g>
        </g>
      </g>
      <g id="グループ_366" data-name="グループ 366" transform="translate(0 10.27)">
        <g id="グループ_365" data-name="グループ 365">
          <g id="グループ_364" data-name="グループ 364">
            <path id="パス_196" data-name="パス 196" d="M1060.815,1319.076h-5.406a1.19,1.19,0,0,1-1.19-1.19v-5.43a1.19,1.19,0,0,1,1.19-1.19h5.406a1.19,1.19,0,0,1,1.19,1.19v5.43A1.19,1.19,0,0,1,1060.815,1319.076Zm-4.216-2.379h3.025v-3.051H1056.6Z" transform="translate(-1054.219 -1311.267)" fill="#222"/>
          </g>
        </g>
      </g>
      <g id="グループ_369" data-name="グループ 369" transform="translate(0 20.54)">
        <g id="グループ_368" data-name="グループ 368">
          <g id="グループ_367" data-name="グループ 367">
            <path id="パス_197" data-name="パス 197" d="M1060.815,1325.119h-5.406a1.19,1.19,0,0,1-1.19-1.19V1318.5a1.19,1.19,0,0,1,1.19-1.19h5.406a1.19,1.19,0,0,1,1.19,1.19v5.429A1.19,1.19,0,0,1,1060.815,1325.119Zm-4.216-2.379h3.025v-3.051H1056.6Z" transform="translate(-1054.219 -1317.31)" fill="#222"/>
          </g>
        </g>
      </g>
    </g>
    <g id="グループ_373" data-name="グループ 373" transform="translate(1067.14 1316.19)">
      <g id="グループ_372" data-name="グループ 372">
        <g id="グループ_371" data-name="グループ 371">
          <path id="パス_198" data-name="パス 198" d="M1069.361,1309.2h-8.871a1.189,1.189,0,1,1,0-2.377h8.871a1.189,1.189,0,1,1,0,2.377Z" transform="translate(-1059.3 -1306.822)" fill="#222"/>
        </g>
      </g>
    </g>
    <g id="グループ_376" data-name="グループ 376" transform="translate(1067.14 1326.458)">
      <g id="グループ_375" data-name="グループ 375">
        <g id="グループ_374" data-name="グループ 374">
          <path id="パス_199" data-name="パス 199" d="M1069.361,1315.243h-8.871a1.19,1.19,0,0,1,0-2.379h8.871a1.19,1.19,0,1,1,0,2.379Z" transform="translate(-1059.3 -1312.864)" fill="#222"/>
        </g>
      </g>
    </g>
    <g id="グループ_379" data-name="グループ 379" transform="translate(1067.14 1336.728)">
      <g id="グループ_378" data-name="グループ 378">
        <g id="グループ_377" data-name="グループ 377">
          <path id="パス_200" data-name="パス 200" d="M1069.361,1321.286h-8.871a1.19,1.19,0,0,1,0-2.379h8.871a1.19,1.19,0,1,1,0,2.379Z" transform="translate(-1059.3 -1318.907)" fill="#222"/>
        </g>
      </g>
    </g>
    <g id="グループ_382" data-name="グループ 382" transform="translate(1048.092 1293.429)">
      <g id="グループ_381" data-name="グループ 381">
        <g id="グループ_380" data-name="グループ 380">
          <path id="パス_201" data-name="パス 201" d="M1087.377,1353.5h-38.095a1.19,1.19,0,0,1-1.19-1.191v-49.332a1.19,1.19,0,0,1,1.19-1.19h13.266a6.111,6.111,0,0,1-.4-2.163,6.178,6.178,0,1,1,12.355,0,6.111,6.111,0,0,1-.4,2.163h13.266a1.19,1.19,0,0,1,1.189,1.19v49.332A1.19,1.19,0,0,1,1087.377,1353.5Zm-36.906-2.379h35.716v-46.954h-14.175a1.189,1.189,0,0,1-.884-1.985,3.8,3.8,0,1,0-5.6,0,1.189,1.189,0,0,1-.884,1.985h-14.175Z" transform="translate(-1048.092 -1293.429)" fill="#222"/>
        </g>
      </g>
    </g>
  </g>
</svg>
