<svg xmlns="http://www.w3.org/2000/svg" width="54.072" height="51.032" viewBox="0 0 54.072 51.032">
  <g id="グループ_168" data-name="グループ 168" transform="translate(-1357.5 -687.398)">
    <g id="グループ_154" data-name="グループ 154" transform="translate(1375.711 687.398)">
      <g id="グループ_126" data-name="グループ 126" transform="translate(0.003)">
        <g id="グループ_125" data-name="グループ 125">
          <g id="グループ_124" data-name="グループ 124">
            <path id="パス_82" data-name="パス 82" d="M1404.066,738.43h-33.7a1.08,1.08,0,0,1-1.08-1.081V717.38a1.081,1.081,0,1,1,2.163,0v18.887h31.532V699.26l-9.764-9.7h-21.768v18.333a1.081,1.081,0,1,1-2.163,0V688.478a1.08,1.08,0,0,1,1.08-1.08h23.3a1.078,1.078,0,0,1,.762.313l10.4,10.331a1.08,1.08,0,0,1,.32.766v38.54A1.082,1.082,0,0,1,1404.066,738.43Z" transform="translate(-1369.29 -687.398)" fill="#222"/>
          </g>
        </g>
      </g>
      <g id="グループ_129" data-name="グループ 129" transform="translate(0 24.168)">
        <g id="グループ_128" data-name="グループ 128">
          <g id="グループ_127" data-name="グループ 127">
            <path id="パス_83" data-name="パス 83" d="M1370.37,705.191a1.089,1.089,0,0,1-1.082-1.081,1.082,1.082,0,0,1,1.849-.768,1.1,1.1,0,0,1,0,1.536A1.136,1.136,0,0,1,1370.37,705.191Z" transform="translate(-1369.288 -703.042)" fill="#222"/>
          </g>
        </g>
      </g>
      <g id="グループ_132" data-name="グループ 132" transform="translate(23.297 10.329)">
        <g id="グループ_131" data-name="グループ 131">
          <g id="グループ_130" data-name="グループ 130">
            <path id="パス_84" data-name="パス 84" d="M1395.85,696.247h-10.4a1.081,1.081,0,0,1,0-2.163h10.4a1.081,1.081,0,1,1,0,2.163Z" transform="translate(-1384.368 -694.084)" fill="#222"/>
          </g>
        </g>
      </g>
      <g id="グループ_135" data-name="グループ 135" transform="translate(23.297)">
        <g id="グループ_134" data-name="グループ 134">
          <g id="グループ_133" data-name="グループ 133">
            <path id="パス_85" data-name="パス 85" d="M1385.449,699.89a1.081,1.081,0,0,1-1.081-1.081V688.478a1.081,1.081,0,0,1,2.163,0v10.331A1.081,1.081,0,0,1,1385.449,699.89Z" transform="translate(-1384.368 -687.398)" fill="#222"/>
          </g>
        </g>
      </g>
      <g id="グループ_138" data-name="グループ 138" transform="translate(5.64 11.488)">
        <g id="グループ_137" data-name="グループ 137">
          <g id="グループ_136" data-name="グループ 136">
            <path id="パス_86" data-name="パス 86" d="M1385.23,697h-11.21a1.081,1.081,0,1,1,0-2.163h11.21a1.081,1.081,0,0,1,0,2.163Z" transform="translate(-1372.939 -694.834)" fill="#222"/>
          </g>
        </g>
      </g>
      <g id="グループ_141" data-name="グループ 141" transform="translate(5.64 18.678)">
        <g id="グループ_140" data-name="グループ 140">
          <g id="グループ_139" data-name="グループ 139">
            <path id="パス_87" data-name="パス 87" d="M1394,701.651h-19.98a1.081,1.081,0,1,1,0-2.163H1394a1.081,1.081,0,1,1,0,2.163Z" transform="translate(-1372.939 -699.488)" fill="#222"/>
          </g>
        </g>
      </g>
      <g id="グループ_144" data-name="グループ 144" transform="translate(5.64 25.868)">
        <g id="グループ_143" data-name="グループ 143">
          <g id="グループ_142" data-name="グループ 142">
            <path id="パス_88" data-name="パス 88" d="M1394,706.3h-19.98a1.081,1.081,0,1,1,0-2.163H1394a1.081,1.081,0,1,1,0,2.163Z" transform="translate(-1372.939 -704.142)" fill="#222"/>
          </g>
        </g>
      </g>
      <g id="グループ_147" data-name="グループ 147" transform="translate(5.64 33.058)">
        <g id="グループ_146" data-name="グループ 146">
          <g id="グループ_145" data-name="グループ 145">
            <path id="パス_89" data-name="パス 89" d="M1394,710.959h-19.98a1.081,1.081,0,1,1,0-2.163H1394a1.081,1.081,0,1,1,0,2.163Z" transform="translate(-1372.939 -708.796)" fill="#222"/>
          </g>
        </g>
      </g>
      <g id="グループ_150" data-name="グループ 150" transform="translate(5.64 40.248)">
        <g id="グループ_149" data-name="グループ 149">
          <g id="グループ_148" data-name="グループ 148">
            <path id="パス_90" data-name="パス 90" d="M1379.625,715.613h-5.6a1.081,1.081,0,1,1,0-2.163h5.6a1.081,1.081,0,1,1,0,2.163Z" transform="translate(-1372.939 -713.45)" fill="#222"/>
          </g>
        </g>
      </g>
      <g id="グループ_153" data-name="グループ 153" transform="translate(22.409 40.248)">
        <g id="グループ_152" data-name="グループ 152">
          <g id="グループ_151" data-name="グループ 151">
            <path id="パス_91" data-name="パス 91" d="M1388.086,715.613h-3.212a1.081,1.081,0,1,1,0-2.163h3.212a1.081,1.081,0,1,1,0,2.163Z" transform="translate(-1383.793 -713.45)" fill="#222"/>
          </g>
        </g>
      </g>
    </g>
    <g id="グループ_167" data-name="グループ 167" transform="translate(1357.5 687.398)">
      <g id="グループ_157" data-name="グループ 157" transform="translate(3.519 4.253)">
        <g id="グループ_156" data-name="グループ 156">
          <g id="グループ_155" data-name="グループ 155">
            <path id="パス_92" data-name="パス 92" d="M1365.088,733.356h0a1.081,1.081,0,0,1-.882-.456,23.972,23.972,0,0,1-4.428-13.96V695.592a5.312,5.312,0,1,1,10.621,0V706.6a1.081,1.081,0,1,1-2.163,0V695.592a3.15,3.15,0,1,0-6.3,0v23.348a21.842,21.842,0,0,0,3.147,11.365,21.839,21.839,0,0,0,3.149-11.365V711a1.081,1.081,0,1,1,2.163,0v7.942a23.972,23.972,0,0,1-4.429,13.96A1.081,1.081,0,0,1,1365.088,733.356Z" transform="translate(-1359.778 -690.151)" fill="#222"/>
          </g>
        </g>
      </g>
      <g id="グループ_160" data-name="グループ 160" transform="translate(7.748 45.295)">
        <g id="グループ_159" data-name="グループ 159">
          <g id="グループ_158" data-name="グループ 158">
            <path id="パス_93" data-name="パス 93" d="M1363.6,722.453a1.081,1.081,0,0,1-1.081-1.081V717.8a1.081,1.081,0,0,1,2.163,0v3.573A1.081,1.081,0,0,1,1363.6,722.453Z" transform="translate(-1362.515 -716.717)" fill="#222"/>
          </g>
        </g>
      </g>
      <g id="グループ_163" data-name="グループ 163" transform="translate(7.748)">
        <g id="グループ_162" data-name="グループ 162">
          <g id="グループ_161" data-name="グループ 161">
            <path id="パス_94" data-name="パス 94" d="M1363.6,693.814a1.082,1.082,0,0,1-1.081-1.081v-4.255a1.081,1.081,0,0,1,2.163,0v4.255A1.082,1.082,0,0,1,1363.6,693.814Z" transform="translate(-1362.515 -687.398)" fill="#222"/>
          </g>
        </g>
      </g>
      <g id="グループ_166" data-name="グループ 166" transform="translate(0 11.695)">
        <g id="グループ_165" data-name="グループ 165">
          <g id="グループ_164" data-name="グループ 164">
            <path id="パス_95" data-name="パス 95" d="M1358.581,708.4a1.082,1.082,0,0,1-1.081-1.081V696.049a1.081,1.081,0,0,1,1.081-1.081h11.976a1.081,1.081,0,1,1,0,2.163h-10.895v10.19A1.082,1.082,0,0,1,1358.581,708.4Z" transform="translate(-1357.5 -694.968)" fill="#222"/>
          </g>
        </g>
      </g>
    </g>
  </g>
</svg>
