<svg xmlns="http://www.w3.org/2000/svg" width="59.922" height="52.1" viewBox="0 0 59.922 52.1">
  <g id="グループ_224" data-name="グループ 224" transform="translate(-1173.007 -1982.064)">
    <g id="グループ_220" data-name="グループ 220" transform="translate(1173.007 1982.064)">
      <g id="グループ_215" data-name="グループ 215" transform="translate(0 9.775)">
        <path id="パス_116" data-name="パス 116" d="M1178.982,2023.945a26.681,26.681,0,0,1-5.022-.468,1.2,1.2,0,0,1-.111-2.316c.277-.089,6.708-2.21,6.925-8.93a20.235,20.235,0,0,1-2.2-23.874,1.2,1.2,0,0,1,2.056,1.233,17.846,17.846,0,0,0,2.234,21.379,1.2,1.2,0,0,1,.315.8,11.592,11.592,0,0,1-5.006,9.752c3.688.111,9.061-.512,10.99-4.794a1.2,1.2,0,0,1,1.49-.64,19.624,19.624,0,0,0,6.5,1.121c10.523,0,19.083-8.258,19.083-18.407a17.88,17.88,0,0,0-2.277-8.723,1.2,1.2,0,0,1,2.094-1.171,20.333,20.333,0,0,1,2.58,9.894c0,11.471-9.636,20.8-21.48,20.8a21.916,21.916,0,0,1-6.3-.933C1188.265,2023.032,1182.964,2023.945,1178.982,2023.945Z" transform="translate(-1173.007 -1987.774)" fill="#222"/>
      </g>
      <g id="グループ_216" data-name="グループ 216" transform="translate(6.831 7.43)">
        <path id="パス_117" data-name="パス 117" d="M1178.2,1988.786a1.229,1.229,0,0,1-1.2-1.2,1.2,1.2,0,0,1,2.049-.851,1.205,1.205,0,0,1,.348.851,1.159,1.159,0,0,1-.348.839A1.18,1.18,0,0,1,1178.2,1988.786Z" transform="translate(-1176.997 -1986.404)" fill="#222"/>
      </g>
      <g id="グループ_217" data-name="グループ 217" transform="translate(8.863)">
        <path id="パス_118" data-name="パス 118" d="M1179.383,1989.959a1.2,1.2,0,0,1-.818-2.075,22.055,22.055,0,0,1,22.913-4.323,1.2,1.2,0,1,1-.87,2.233,19.607,19.607,0,0,0-7.141-1.332,19.359,19.359,0,0,0-13.265,5.174A1.2,1.2,0,0,1,1179.383,1989.959Z" transform="translate(-1178.184 -1982.064)" fill="#222"/>
      </g>
      <g id="グループ_218" data-name="グループ 218" transform="translate(30.523 1.414)">
        <path id="パス_119" data-name="パス 119" d="M1202.311,1994.168a1.2,1.2,0,0,1-1.048-.613,18.934,18.934,0,0,0-9.665-8.35,1.2,1.2,0,0,1,.87-2.233,21.354,21.354,0,0,1,10.889,9.412,1.2,1.2,0,0,1-1.046,1.784Z" transform="translate(-1190.835 -1982.89)" fill="#222"/>
      </g>
      <g id="グループ_219" data-name="グループ 219" transform="translate(25.936 5.949)">
        <path id="パス_120" data-name="パス 120" d="M1199.632,1996.817a1.2,1.2,0,0,1-1.048-.615,18.933,18.933,0,0,0-9.665-8.348,1.2,1.2,0,1,1,.87-2.232,21.345,21.345,0,0,1,10.889,9.411,1.2,1.2,0,0,1-1.046,1.784Z" transform="translate(-1188.156 -1985.539)" fill="#222"/>
      </g>
    </g>
    <g id="グループ_223" data-name="グループ 223" transform="translate(1202.668 2002.983)">
      <g id="グループ_221" data-name="グループ 221" transform="translate(0 6.443)">
        <path id="パス_121" data-name="パス 121" d="M1216.252,2022.783c-2.652,0-6.189-.6-8.047-3.417a14.846,14.846,0,0,1-3.989.55,14.6,14.6,0,0,1-13.813-9.531,1.2,1.2,0,0,1,2.257-.806,12.2,12.2,0,0,0,11.557,7.941,12.592,12.592,0,0,0,4.167-.719,1.2,1.2,0,0,1,1.49.638c1.005,2.229,3.575,2.846,5.758,2.933a8.048,8.048,0,0,1-2.573-6.049,1.191,1.191,0,0,1,.315-.8,11.4,11.4,0,0,0,1.43-13.661,1.2,1.2,0,1,1,2.054-1.234,13.789,13.789,0,0,1-1.392,16.147c.229,4.027,4.123,5.325,4.294,5.379a1.2,1.2,0,0,1-.116,2.315A17.929,17.929,0,0,1,1216.252,2022.783Z" transform="translate(-1190.332 -1998.045)" fill="#222"/>
      </g>
      <g id="グループ_222" data-name="グループ 222" transform="translate(13.521)">
        <path id="パス_122" data-name="パス 122" d="M1207.91,2000.291a1.193,1.193,0,0,1-.817-.322,12.444,12.444,0,0,0-7.737-3.292,1.2,1.2,0,0,1-1.125-1.267,1.185,1.185,0,0,1,1.267-1.125,14.836,14.836,0,0,1,9.228,3.931,1.2,1.2,0,0,1-.816,2.075Z" transform="translate(-1198.229 -1994.282)" fill="#222"/>
      </g>
    </g>
  </g>
</svg>
