<svg xmlns="http://www.w3.org/2000/svg" width="64.902" height="44.407" viewBox="0 0 64.902 44.407">
  <g id="グループ_123" data-name="グループ 123" transform="translate(-97.5 -878.767)">
    <g id="グループ_102" data-name="グループ 102" transform="translate(97.5 897.282)">
      <g id="グループ_101" data-name="グループ 101">
        <path id="パス_71" data-name="パス 71" d="M126.91,906.88a1.353,1.353,0,0,1-.375-.054L98.423,898.35a1.3,1.3,0,0,1-.923-1.242V890.05a1.3,1.3,0,0,1,1.673-1.243l8.7,2.622a1.3,1.3,0,0,1-.749,2.487L100.1,891.8v4.347l25.515,7.692V899.49l-7.864-2.372a1.3,1.3,0,0,1,.749-2.487l8.788,2.65a1.3,1.3,0,0,1,.923,1.242v7.058a1.3,1.3,0,0,1-1.3,1.3Z" transform="translate(-97.5 -888.752)" fill="#222"/>
      </g>
    </g>
    <g id="グループ_104" data-name="グループ 104" transform="translate(111.458 901.508)">
      <g id="グループ_103" data-name="グループ 103">
        <path id="パス_72" data-name="パス 72" d="M106.325,893.6a1.255,1.255,0,0,1-.909-.377,1.27,1.27,0,0,1,0-1.83,1.329,1.329,0,0,1,1.83,0,1.255,1.255,0,0,1,.376.909,1.286,1.286,0,0,1-1.3,1.3Z" transform="translate(-105.027 -891.031)" fill="#222"/>
      </g>
    </g>
    <g id="グループ_106" data-name="グループ 106" transform="translate(125.612 901.115)">
      <g id="グループ_105" data-name="グループ 105">
        <path id="パス_73" data-name="パス 73" d="M113.958,905.114a1.3,1.3,0,0,1-1.3-1.3v-7.058a1.3,1.3,0,0,1,2.6,0v4.9L135.5,890.969a1.3,1.3,0,1,1,1.213,2.3l-22.152,11.7A1.3,1.3,0,0,1,113.958,905.114Z" transform="translate(-112.66 -890.819)" fill="#222"/>
      </g>
    </g>
    <g id="グループ_108" data-name="グループ 108" transform="translate(153.67 887.764)">
      <g id="グループ_107" data-name="グループ 107">
        <path id="パス_74" data-name="パス 74" d="M129.091,896.5a1.3,1.3,0,0,1-.6-2.446l5.441-2.863v-6.275a1.3,1.3,0,0,1,2.6,0v7.058a1.3,1.3,0,0,1-.693,1.148l-6.134,3.228A1.292,1.292,0,0,1,129.091,896.5Z" transform="translate(-127.791 -883.619)" fill="#222"/>
      </g>
    </g>
    <g id="グループ_110" data-name="グループ 110" transform="translate(97.5 905.045)">
      <g id="グループ_109" data-name="グループ 109">
        <path id="パス_75" data-name="パス 75" d="M126.91,911.067a1.351,1.351,0,0,1-.375-.054l-28.112-8.476a1.3,1.3,0,0,1-.923-1.242v-7.058a1.3,1.3,0,0,1,1.673-1.242l28.112,8.474a1.3,1.3,0,0,1,.923,1.242v7.058a1.3,1.3,0,0,1-1.3,1.3ZM100.1,900.33l25.515,7.692v-4.345L100.1,895.984Z" transform="translate(-97.5 -892.939)" fill="#222"/>
      </g>
    </g>
    <g id="グループ_112" data-name="グループ 112" transform="translate(125.612 895.528)">
      <g id="グループ_111" data-name="グループ 111">
        <path id="パス_76" data-name="パス 76" d="M113.958,915.452a1.3,1.3,0,0,1-1.3-1.3V907.1a1.3,1.3,0,0,1,2.6,0V912l31.6-16.628V889.1a1.3,1.3,0,0,1,2.6,0v7.058a1.3,1.3,0,0,1-.694,1.148L114.563,915.3A1.288,1.288,0,0,1,113.958,915.452Z" transform="translate(-112.66 -887.806)" fill="#222"/>
      </g>
    </g>
    <g id="グループ_114" data-name="グループ 114" transform="translate(97.5 878.768)">
      <g id="グループ_113" data-name="グループ 113">
        <path id="パス_77" data-name="パス 77" d="M98.8,899.357a1.3,1.3,0,0,1-.606-2.446l34.194-17.994a1.3,1.3,0,0,1,1.209,2.3L99.4,899.206A1.289,1.289,0,0,1,98.8,899.357Z" transform="translate(-97.5 -878.768)" fill="#222"/>
      </g>
    </g>
    <g id="グループ_116" data-name="グループ 116" transform="translate(125.612 878.767)">
      <g id="グループ_115" data-name="グループ 115">
        <path id="パス_78" data-name="パス 78" d="M113.96,908.352a1.3,1.3,0,0,1-.606-2.446l31.455-16.552L119.645,881.3a1.3,1.3,0,1,1,.79-2.474l28.112,9a1.3,1.3,0,0,1,.21,2.387L114.562,908.2A1.31,1.31,0,0,1,113.96,908.352Z" transform="translate(-112.66 -878.767)" fill="#222"/>
      </g>
    </g>
    <g id="グループ_118" data-name="グループ 118" transform="translate(138.764 881.03)">
      <g id="グループ_117" data-name="グループ 117">
        <path id="パス_79" data-name="パス 79" d="M134.2,886.792a1.338,1.338,0,0,1-.395-.061l-13.145-4.208a1.3,1.3,0,1,1,.792-2.474l13.145,4.207a1.3,1.3,0,0,1-.4,2.535Z" transform="translate(-119.753 -879.987)" fill="#222"/>
      </g>
    </g>
    <g id="グループ_120" data-name="グループ 120" transform="translate(128.908 885.238)">
      <g id="グループ_119" data-name="グループ 119">
        <path id="パス_80" data-name="パス 80" d="M128.882,889.061a1.272,1.272,0,0,1-.395-.063l-13.147-4.206a1.3,1.3,0,0,1,.792-2.474l13.145,4.208a1.3,1.3,0,0,1-.395,2.535Z" transform="translate(-114.437 -882.257)" fill="#222"/>
      </g>
    </g>
    <g id="グループ_122" data-name="グループ 122" transform="translate(120.775 890.158)">
      <g id="グループ_121" data-name="グループ 121">
        <path id="パス_81" data-name="パス 81" d="M124.5,891.715a1.284,1.284,0,0,1-.395-.063l-13.145-4.208a1.3,1.3,0,1,1,.79-2.472l13.147,4.206a1.3,1.3,0,0,1-.4,2.537Z" transform="translate(-110.052 -884.91)" fill="#222"/>
      </g>
    </g>
  </g>
</svg>
