<svg xmlns="http://www.w3.org/2000/svg" width="51.02" height="59.667" viewBox="0 0 51.02 59.667">
  <g id="グループ_201" data-name="グループ 201" transform="translate(-1630.036 -1106.776)">
    <g id="グループ_190" data-name="グループ 190" transform="translate(1641.356 1106.776)">
      <g id="グループ_171" data-name="グループ 171">
        <g id="グループ_170" data-name="グループ 170">
          <g id="グループ_169" data-name="グループ 169">
            <path id="パス_96" data-name="パス 96" d="M1650.866,1117.177c-6.834,0-14.19-1.628-14.19-5.2s7.356-5.2,14.19-5.2,14.192,1.626,14.192,5.2S1657.7,1117.177,1650.866,1117.177Zm0-8.014c-7.668,0-11.8,2-11.8,2.813s4.136,2.814,11.8,2.814,11.805-2,11.805-2.814S1658.534,1109.163,1650.866,1109.163Z" transform="translate(-1636.676 -1106.776)" fill="#222"/>
          </g>
        </g>
      </g>
      <g id="グループ_174" data-name="グループ 174" transform="translate(12.998 4.006)">
        <g id="グループ_173" data-name="グループ 173">
          <g id="グループ_172" data-name="グループ 172">
            <path id="パス_97" data-name="パス 97" d="M1645.493,1137.526a1.194,1.194,0,0,1-.486-2.285c.525-.237,12.292-5.794,12.292-24.922a1.193,1.193,0,1,1,2.386,0c0,20.767-13.147,26.853-13.708,27.1A1.19,1.19,0,0,1,1645.493,1137.526Z" transform="translate(-1644.3 -1109.126)" fill="#222"/>
          </g>
        </g>
      </g>
      <g id="グループ_177" data-name="グループ 177" transform="translate(12.997 30.019)">
        <g id="グループ_176" data-name="グループ 176">
          <g id="グループ_175" data-name="グループ 175">
            <path id="パス_98" data-name="パス 98" d="M1645.493,1133.884a1.192,1.192,0,0,1-1.193-1.194v-7.112a1.193,1.193,0,1,1,2.386,0v7.112A1.192,1.192,0,0,1,1645.493,1133.884Z" transform="translate(-1644.3 -1124.385)" fill="#222"/>
          </g>
        </g>
      </g>
      <g id="グループ_180" data-name="グループ 180" transform="translate(3.241 19.482)">
        <g id="グループ_179" data-name="グループ 179">
          <g id="グループ_178" data-name="グループ 178">
            <path id="パス_99" data-name="パス 99" d="M1649.526,1131.128a1.19,1.19,0,0,1-.484-.1c-.257-.114-6.35-2.9-10.344-11.1a1.193,1.193,0,0,1,2.146-1.043c3.617,7.431,9.112,9.942,9.167,9.967a1.194,1.194,0,0,1-.484,2.285Z" transform="translate(-1638.577 -1118.204)" fill="#222"/>
          </g>
        </g>
      </g>
      <g id="グループ_183" data-name="グループ 183" transform="translate(1.744 15.765)">
        <g id="グループ_182" data-name="グループ 182">
          <g id="グループ_181" data-name="グループ 181">
            <path id="パス_100" data-name="パス 100" d="M1638.892,1118.392a1.175,1.175,0,0,1-.847-.346,1.2,1.2,0,0,1-.346-.847,1.157,1.157,0,0,1,.346-.835,1.211,1.211,0,0,1,1.683,0,1.168,1.168,0,0,1,.358.835,1.187,1.187,0,0,1-.358.847A1.148,1.148,0,0,1,1638.892,1118.392Z" transform="translate(-1637.699 -1116.023)" fill="#222"/>
          </g>
        </g>
      </g>
      <g id="グループ_186" data-name="グループ 186" transform="translate(0 4.006)">
        <g id="グループ_185" data-name="グループ 185">
          <g id="グループ_184" data-name="グループ 184">
            <path id="パス_101" data-name="パス 101" d="M1638.628,1119.528a1.2,1.2,0,0,1-1.169-.958,42.043,42.043,0,0,1-.782-8.251,1.193,1.193,0,1,1,2.386,0,39.473,39.473,0,0,0,.737,7.781,1.193,1.193,0,0,1-.934,1.4A1.127,1.127,0,0,1,1638.628,1119.528Z" transform="translate(-1636.676 -1109.126)" fill="#222"/>
          </g>
        </g>
      </g>
      <g id="グループ_189" data-name="グループ 189" transform="translate(9.225 37.532)">
        <g id="グループ_188" data-name="グループ 188">
          <g id="グループ_187" data-name="グループ 187">
            <path id="パス_102" data-name="パス 102" d="M1643.282,1132.244a1.194,1.194,0,0,1-.622-2.213,8.409,8.409,0,0,1,8.786,0,1.193,1.193,0,1,1-1.241,2.037,6.039,6.039,0,0,0-6.3,0A1.18,1.18,0,0,1,1643.282,1132.244Z" transform="translate(-1642.087 -1128.792)" fill="#222"/>
          </g>
        </g>
      </g>
    </g>
    <g id="グループ_200" data-name="グループ 200" transform="translate(1630.036 1150.735)">
      <g id="グループ_193" data-name="グループ 193" transform="translate(10.601)">
        <g id="グループ_192" data-name="グループ 192">
          <g id="グループ_191" data-name="グループ 191">
            <path id="パス_103" data-name="パス 103" d="M1664.989,1143.732h-27.544a1.192,1.192,0,0,1-1.192-1.193v-8.783a1.192,1.192,0,0,1,1.192-1.193h27.544a1.192,1.192,0,0,1,1.193,1.193v8.783A1.193,1.193,0,0,1,1664.989,1143.732Zm-26.349-2.387H1663.8v-6.4h-25.155Z" transform="translate(-1636.254 -1132.562)" fill="#222"/>
          </g>
        </g>
      </g>
      <g id="グループ_196" data-name="グループ 196" transform="translate(33.841 5.009)">
        <g id="グループ_195" data-name="グループ 195">
          <g id="グループ_194" data-name="グループ 194">
            <path id="パス_104" data-name="パス 104" d="M1665.872,1146.2H1651.08a1.194,1.194,0,0,1-1.193-1.193v-2.039a1.193,1.193,0,0,1,2.387,0v.846h10.257l-2.2-1.805a1.192,1.192,0,0,1-.049-1.8l2.528-2.318h-4.966a1.193,1.193,0,0,1,0-2.387h8.033a1.193,1.193,0,0,1,.806,2.073l-3.774,3.461,3.725,3.048a1.194,1.194,0,0,1-.757,2.117Z" transform="translate(-1649.887 -1135.5)" fill="#222"/>
          </g>
        </g>
      </g>
      <g id="グループ_199" data-name="グループ 199" transform="translate(0 5.009)">
        <g id="グループ_198" data-name="グループ 198">
          <g id="グループ_197" data-name="グループ 197">
            <path id="パス_105" data-name="パス 105" d="M1646.02,1146.2h-14.791a1.194,1.194,0,0,1-.757-2.117l3.723-3.048-3.773-3.461a1.193,1.193,0,0,1,.807-2.073h8.033a1.193,1.193,0,0,1,0,2.387H1634.3l2.528,2.318a1.194,1.194,0,0,1-.051,1.8l-2.2,1.805h10.258v-.846a1.193,1.193,0,0,1,2.387,0v2.039A1.193,1.193,0,0,1,1646.02,1146.2Z" transform="translate(-1630.036 -1135.5)" fill="#222"/>
          </g>
        </g>
      </g>
    </g>
  </g>
</svg>
