<svg xmlns="http://www.w3.org/2000/svg" width="69.461" height="58.959" viewBox="0 0 69.461 58.959">
  <g id="グループ_400" data-name="グループ 400" transform="translate(-1087.5 -1810.025)">
    <g id="グループ_393" data-name="グループ 393" transform="translate(1087.5 1810.025)">
      <g id="グループ_384" data-name="グループ 384" transform="translate(0 2.502)">
        <path id="パス_202" data-name="パス 202" d="M1100.523,1852.116a1.327,1.327,0,0,1-.409-.063,1.391,1.391,0,0,1-.963-1.105l-1.49-9.262c-6.377-3.436-10.161-8.859-10.161-14.623,0-6.478,4.6-12.332,12.295-15.662a1.39,1.39,0,0,1,1.1,2.552c-6.648,2.874-10.618,7.776-10.618,13.11,0,4.882,3.465,9.546,9.268,12.475a1.38,1.38,0,0,1,.746,1.018l1.157,7.174,4.926-5.2a1.416,1.416,0,0,1,1.237-.417,32.629,32.629,0,0,0,3.852.409,1.389,1.389,0,1,1-.125,2.775c-1.151-.054-2.306-.163-3.449-.327l-6.359,6.708A1.384,1.384,0,0,1,1100.523,1852.116Z" transform="translate(-1087.5 -1811.286)" fill="#222"/>
      </g>
      <g id="グループ_385" data-name="グループ 385" transform="translate(17.758 0.021)">
        <path id="パス_203" data-name="パス 203" d="M1097.837,1812.8a1.4,1.4,0,0,1-1.389-1.389,1.37,1.37,0,0,1,.415-.986,1.437,1.437,0,0,1,1.959,0,1.391,1.391,0,0,1,.4.986,1.358,1.358,0,0,1-.4.972A1.388,1.388,0,0,1,1097.837,1812.8Z" transform="translate(-1096.448 -1810.036)" fill="#222"/>
      </g>
      <g id="グループ_386" data-name="グループ 386" transform="translate(24.067)">
        <path id="パス_204" data-name="パス 204" d="M1122.244,1837.653a1.388,1.388,0,0,1-1.1-2.231,11.593,11.593,0,0,0,2.552-7.119c0-8.546-10.171-15.5-22.676-15.5a1.389,1.389,0,1,1,0-2.778c14.035,0,25.455,8.2,25.455,18.278a14.488,14.488,0,0,1-3.122,8.8A1.387,1.387,0,0,1,1122.244,1837.653Z" transform="translate(-1099.627 -1810.025)" fill="#222"/>
      </g>
      <g id="グループ_387" data-name="グループ 387" transform="translate(29.659 33.077)">
        <path id="パス_205" data-name="パス 205" d="M1103.833,1829.709a1.389,1.389,0,0,1-.224-2.759c.411-.068.814-.143,1.212-.228a1.389,1.389,0,0,1,.574,2.719q-.661.14-1.336.25A1.241,1.241,0,0,1,1103.833,1829.709Z" transform="translate(-1102.445 -1826.692)" fill="#222"/>
      </g>
      <g id="グループ_388" data-name="グループ 388" transform="translate(22.512 33.317)">
        <path id="パス_206" data-name="パス 206" d="M1101.788,1830.05c-.544,0-1.084-.014-1.618-.038a1.39,1.39,0,0,1-1.326-1.451,1.37,1.37,0,0,1,1.451-1.324,33.411,33.411,0,0,0,6.855-.407,1.389,1.389,0,0,1,.458,2.741A35.362,35.362,0,0,1,1101.788,1830.05Z" transform="translate(-1098.843 -1826.813)" fill="#222"/>
      </g>
      <g id="グループ_392" data-name="グループ 392" transform="translate(7.774 13.225)">
        <g id="グループ_389" data-name="グループ 389">
          <path id="パス_207" data-name="パス 207" d="M1096.488,1826.795a5.053,5.053,0,1,1,5.073-5.053A5.069,5.069,0,0,1,1096.488,1826.795Zm0-7.329a2.275,2.275,0,1,0,2.294,2.276A2.287,2.287,0,0,0,1096.488,1819.465Z" transform="translate(-1091.417 -1816.689)" fill="#222"/>
        </g>
        <g id="グループ_390" data-name="グループ 390" transform="translate(12.612)">
          <path id="パス_208" data-name="パス 208" d="M1102.843,1826.795a5.053,5.053,0,1,1,5.069-5.053A5.069,5.069,0,0,1,1102.843,1826.795Zm0-7.329a2.275,2.275,0,1,0,2.29,2.276A2.287,2.287,0,0,0,1102.843,1819.465Z" transform="translate(-1097.772 -1816.689)" fill="#222"/>
        </g>
        <g id="グループ_391" data-name="グループ 391" transform="translate(25.222)">
          <path id="パス_209" data-name="パス 209" d="M1109.2,1826.795a5.053,5.053,0,1,1,5.071-5.053A5.068,5.068,0,0,1,1109.2,1826.795Zm0-7.329a2.275,2.275,0,1,0,2.292,2.276A2.288,2.288,0,0,0,1109.2,1819.465Z" transform="translate(-1104.126 -1816.689)" fill="#222"/>
        </g>
      </g>
    </g>
    <g id="グループ_399" data-name="グループ 399" transform="translate(1117.083 1834.952)">
      <g id="グループ_394" data-name="グループ 394" transform="translate(19.748 6.459)">
        <path id="パス_210" data-name="パス 210" d="M1122.13,1853.413a1.38,1.38,0,0,1-1.008-.435l-4.787-5.051c-.84.117-1.687.195-2.524.234a1.375,1.375,0,0,1-1.453-1.324,1.391,1.391,0,0,1,1.326-1.453,24.823,24.823,0,0,0,2.933-.31,1.4,1.4,0,0,1,1.234.415l3.354,3.539.788-4.894a1.384,1.384,0,0,1,.746-1.018c4.364-2.205,6.97-5.694,6.97-9.332a8.874,8.874,0,0,0-2.2-5.668,1.389,1.389,0,0,1,2.135-1.776,11.6,11.6,0,0,1,2.842,7.444c0,4.519-2.925,8.766-7.861,11.477l-1.125,6.984a1.386,1.386,0,0,1-1.371,1.167Z" transform="translate(-1112.357 -1825.84)" fill="#222"/>
      </g>
      <g id="グループ_395" data-name="グループ 395">
        <path id="パス_211" data-name="パス 211" d="M1122.346,1851.394c-10.995,0-19.939-6.462-19.939-14.4s8.945-14.4,19.939-14.4a26.2,26.2,0,0,1,9.9,1.885,1.389,1.389,0,1,1-1.058,2.568,23.417,23.417,0,0,0-8.844-1.675c-9.463,0-17.161,5.214-17.161,11.626s7.7,11.626,17.161,11.626c.383,0,.762-.008,1.135-.026a1.362,1.362,0,0,1,1.451,1.326,1.391,1.391,0,0,1-1.326,1.451C1123.189,1851.384,1122.768,1851.394,1122.346,1851.394Z" transform="translate(-1102.406 -1822.585)" fill="#222"/>
      </g>
      <g id="グループ_396" data-name="グループ 396" transform="translate(26.822 13.015)">
        <path id="パス_212" data-name="パス 212" d="M1120.208,1831.922h-2.9a1.389,1.389,0,0,1,0-2.779h2.9a1.389,1.389,0,0,1,0,2.779Z" transform="translate(-1115.921 -1829.143)" fill="#222"/>
      </g>
      <g id="グループ_397" data-name="グループ 397" transform="translate(17.101 13.015)">
        <path id="パス_213" data-name="パス 213" d="M1115.31,1831.922h-2.9a1.389,1.389,0,1,1,0-2.779h2.9a1.389,1.389,0,1,1,0,2.779Z" transform="translate(-1111.023 -1829.143)" fill="#222"/>
      </g>
      <g id="グループ_398" data-name="グループ 398" transform="translate(7.383 13.015)">
        <path id="パス_214" data-name="パス 214" d="M1110.413,1831.922h-2.9a1.389,1.389,0,1,1,0-2.779h2.9a1.389,1.389,0,0,1,0,2.779Z" transform="translate(-1106.126 -1829.143)" fill="#222"/>
      </g>
    </g>
  </g>
</svg>
