<svg xmlns="http://www.w3.org/2000/svg" width="236" height="115" viewBox="0 0 236 115">
  <g id="グループ_354" data-name="グループ 354" transform="translate(-984 -2031)">
    <rect id="長方形_103" data-name="長方形 103" width="236" height="115" transform="translate(984 2031)" fill="#fff"/>
    <g id="グループ_271" data-name="グループ 271" transform="translate(379.591 987.297)">
      <g id="グループ_262" data-name="グループ 262" transform="translate(693.508 1098.524)">
        <g id="グループ_256" data-name="グループ 256" transform="translate(37.113)">
          <path id="パス_134" data-name="パス 134" d="M723.735,1092.967H705.178a1.6,1.6,0,0,1-1.6-1.6v-12.5a1.6,1.6,0,0,1,1.6-1.6h18.557a1.6,1.6,0,0,1,1.6,1.6v12.5A1.6,1.6,0,0,1,723.735,1092.967Zm-16.959-3.2h15.361v-9.3H706.776Z" transform="translate(-703.58 -1077.271)" fill="#5d5d5d"/>
        </g>
        <g id="グループ_257" data-name="グループ 257" transform="translate(18.557)">
          <path id="パス_135" data-name="パス 135" d="M715.606,1092.967H697.049a1.6,1.6,0,0,1-1.6-1.6v-12.5a1.6,1.6,0,0,1,1.6-1.6h18.557a1.6,1.6,0,0,1,1.6,1.6v12.5A1.6,1.6,0,0,1,715.606,1092.967Zm-16.959-3.2h15.361v-9.3H698.647Z" transform="translate(-695.451 -1077.271)" fill="#5d5d5d"/>
        </g>
        <g id="グループ_258" data-name="グループ 258">
          <path id="パス_136" data-name="パス 136" d="M707.477,1092.967H688.92a1.6,1.6,0,0,1-1.6-1.6v-12.5a1.6,1.6,0,0,1,1.6-1.6h18.557a1.6,1.6,0,0,1,1.6,1.6v12.5A1.6,1.6,0,0,1,707.477,1092.967Zm-16.959-3.2h15.361v-9.3H690.518Z" transform="translate(-687.322 -1077.271)" fill="#5d5d5d"/>
        </g>
        <g id="グループ_259" data-name="グループ 259" transform="translate(37.113 12.5)">
          <path id="パス_137" data-name="パス 137" d="M723.735,1098.444H705.178a1.6,1.6,0,0,1-1.6-1.6v-12.5a1.6,1.6,0,1,1,3.2,0v10.9h15.361v-10.9a1.6,1.6,0,1,1,3.2,0v12.5A1.6,1.6,0,0,1,723.735,1098.444Z" transform="translate(-703.58 -1082.747)" fill="#5d5d5d"/>
        </g>
        <g id="グループ_260" data-name="グループ 260" transform="translate(18.557 12.5)">
          <path id="パス_138" data-name="パス 138" d="M715.606,1098.444H697.049a1.6,1.6,0,0,1-1.6-1.6v-12.5a1.6,1.6,0,1,1,3.2,0v10.9h15.361v-10.9a1.6,1.6,0,1,1,3.2,0v12.5A1.6,1.6,0,0,1,715.606,1098.444Z" transform="translate(-695.451 -1082.747)" fill="#5d5d5d"/>
        </g>
        <g id="グループ_261" data-name="グループ 261" transform="translate(0 12.5)">
          <path id="パス_139" data-name="パス 139" d="M707.477,1098.444H688.92a1.6,1.6,0,0,1-1.6-1.6v-12.5a1.6,1.6,0,1,1,3.2,0v10.9h15.361v-10.9a1.6,1.6,0,1,1,3.2,0v12.5A1.6,1.6,0,0,1,707.477,1098.444Z" transform="translate(-687.322 -1082.747)" fill="#5d5d5d"/>
        </g>
      </g>
      <g id="グループ_263" data-name="グループ 263" transform="translate(747.488 1070.072)">
        <path id="パス_140" data-name="パス 140" d="M724.28,1085.473a1.6,1.6,0,0,1-1.6-1.6V1068H712.567a1.6,1.6,0,1,1,0-3.2H724.28a1.6,1.6,0,0,1,1.6,1.6v17.47A1.6,1.6,0,0,1,724.28,1085.473Z" transform="translate(-710.969 -1064.807)" fill="#5d5d5d"/>
      </g>
      <g id="グループ_264" data-name="グループ 264" transform="translate(682.5 1087.541)">
        <path id="パス_141" data-name="パス 141" d="M760.8,1122.622H684.1a1.6,1.6,0,0,1-1.6-1.6v-25.6a1.6,1.6,0,1,1,3.2,0v24h73.5v-43.77H684.1a1.6,1.6,0,0,1,0-3.2h76.7a1.6,1.6,0,0,1,1.6,1.6v46.966A1.6,1.6,0,0,1,760.8,1122.622Z" transform="translate(-682.5 -1072.46)" fill="#5d5d5d"/>
      </g>
      <g id="グループ_265" data-name="グループ 265" transform="translate(682.507 1101.413)">
        <path id="パス_142" data-name="パス 142" d="M684.1,1081.715a1.569,1.569,0,0,1-1.135-.479,1.547,1.547,0,0,1-.463-1.121,1.564,1.564,0,0,1,.463-1.135,1.653,1.653,0,0,1,2.253,0,1.63,1.63,0,0,1,.479,1.135,1.638,1.638,0,0,1-1.6,1.6Z" transform="translate(-682.503 -1078.537)" fill="#5d5d5d"/>
      </g>
      <g id="グループ_266" data-name="グループ 266" transform="translate(682.5 1070.072)">
        <path id="パス_143" data-name="パス 143" d="M684.1,1091.8a1.6,1.6,0,0,1-1.6-1.6v-23.8a1.6,1.6,0,0,1,1.6-1.6h11.713a1.6,1.6,0,1,1,0,3.2H685.7v22.2A1.6,1.6,0,0,1,684.1,1091.8Z" transform="translate(-682.5 -1064.807)" fill="#5d5d5d"/>
      </g>
      <g id="グループ_269" data-name="グループ 269" transform="translate(696.201 1060.703)">
        <g id="グループ_267" data-name="グループ 267">
          <path id="パス_144" data-name="パス 144" d="M694.23,1082.634a5.733,5.733,0,0,1-5.727-5.725V1066.43a5.726,5.726,0,1,1,11.453,0v10.478A5.731,5.731,0,0,1,694.23,1082.634Zm0-18.735a2.533,2.533,0,0,0-2.532,2.531v10.478a2.53,2.53,0,0,0,5.061,0V1066.43A2.532,2.532,0,0,0,694.23,1063.9Z" transform="translate(-688.502 -1060.703)" fill="#5d5d5d"/>
        </g>
        <g id="グループ_268" data-name="グループ 268" transform="translate(41.044)">
          <path id="パス_145" data-name="パス 145" d="M712.207,1082.634a5.731,5.731,0,0,1-5.725-5.725V1066.43a5.725,5.725,0,1,1,11.45,0v10.478A5.731,5.731,0,0,1,712.207,1082.634Zm0-18.735a2.533,2.533,0,0,0-2.529,2.531v10.478a2.529,2.529,0,1,0,5.059,0V1066.43A2.532,2.532,0,0,0,712.207,1063.9Z" transform="translate(-706.482 -1060.703)" fill="#5d5d5d"/>
        </g>
      </g>
      <g id="グループ_270" data-name="グループ 270" transform="translate(706.14 1070.072)">
        <path id="パス_146" data-name="パス 146" d="M723.877,1068H694.454a1.6,1.6,0,1,1,0-3.2h29.423a1.6,1.6,0,1,1,0,3.2Z" transform="translate(-692.856 -1064.807)" fill="#5d5d5d"/>
      </g>
    </g>
  </g>
</svg>
