<svg xmlns="http://www.w3.org/2000/svg" width="236" height="115" viewBox="0 0 236 115">
  <g id="グループ_355" data-name="グループ 355" transform="translate(-729 -2031)">
    <rect id="長方形_102" data-name="長方形 102" width="236" height="115" transform="translate(729 2031)" fill="#fff"/>
    <g id="グループ_79" data-name="グループ 79" transform="translate(-472.946 30.974)">
      <path id="パス_52" data-name="パス 52" d="M1278.65,2048.915c8.1,0,14.629-9.979,14.629-18.239a14.63,14.63,0,1,0-29.26,0C1264.019,2038.936,1270.547,2048.915,1278.65,2048.915Zm0-3.587c-4.937,0-9.405-5.852-10.673-11.563l6-7.542,9.085-.149,5.229,8.129a1.633,1.633,0,0,0,.766.607C1287.507,2040.168,1283.288,2045.328,1278.65,2045.328Zm0-25.715a11.038,11.038,0,0,1,10.989,10.53l-4.276-6.651a1.67,1.67,0,0,0-1.4-.763h-.028l-10.8.177a1.682,1.682,0,0,0-1.276.627l-4.045,5.086A11.053,11.053,0,0,1,1278.65,2019.613Z" transform="translate(42.288 0)" fill="#5d5d5d"/>
      <path id="パス_53" data-name="パス 53" d="M1295.436,2055.656h-32.1v-6.562a21.938,21.938,0,0,1,1.78-8.7,1.793,1.793,0,0,0-3.295-1.414,25.463,25.463,0,0,0-2.073,10.115v8.354a1.792,1.792,0,0,0,1.793,1.793h33.9a1.793,1.793,0,1,0,0-3.586Z" transform="translate(35.612 34.161)" fill="#5d5d5d"/>
      <path id="パス_54" data-name="パス 54" d="M1263.448,2039.05a1.807,1.807,0,0,0,1.794-1.793,1.794,1.794,0,0,0-3.067-1.276,1.777,1.777,0,0,0-.52,1.276,1.776,1.776,0,0,0,1.793,1.793Z" transform="translate(38.596 30.391)" fill="#5d5d5d"/>
      <path id="パス_55" data-name="パス 55" d="M1290.176,2034.957c-.023-.015-.039-.041-.064-.053s-.082-.018-.12-.036a25.424,25.424,0,0,0-25.29,1.661,1.793,1.793,0,1,0,1.986,2.987c.568-.376,1.173-.676,1.77-1a13.226,13.226,0,0,0,10.778,5.7c.262,0,.528-.008.795-.025a13.331,13.331,0,0,0,9.682-5.429,22.043,22.043,0,0,1,11.119,19.125v8.354a1.793,1.793,0,1,0,3.587,0v-8.354A25.629,25.629,0,0,0,1290.176,2034.957Zm-10.356,5.91a9.878,9.878,0,0,1-8.232-3.738,21.4,21.4,0,0,1,15.024.174A9.881,9.881,0,0,1,1279.82,2040.867Z" transform="translate(42.102 25.369)" fill="#5d5d5d"/>
      <path id="パス_56" data-name="パス 56" d="M1317.674,2055.656h-32.1v-6.562a21.894,21.894,0,0,1,1.783-8.7,1.794,1.794,0,0,0-3.3-1.414,25.467,25.467,0,0,0-2.073,10.115v8.354a1.792,1.792,0,0,0,1.793,1.793h33.9a1.793,1.793,0,1,0,0-3.586Z" transform="translate(70.348 34.161)" fill="#5d5d5d"/>
      <path id="パス_57" data-name="パス 57" d="M1285.686,2039.05a1.806,1.806,0,0,0,1.793-1.793,1.793,1.793,0,0,0-3.067-1.276,1.787,1.787,0,0,0-.52,1.276,1.776,1.776,0,0,0,1.793,1.793Z" transform="translate(73.332 30.391)" fill="#5d5d5d"/>
      <path id="パス_58" data-name="パス 58" d="M1301.076,2032.267a25.442,25.442,0,0,0-14.137,4.261,1.794,1.794,0,1,0,1.988,2.987,21.991,21.991,0,0,1,34.141,18.372v8.354a1.794,1.794,0,1,0,3.587,0v-8.354A25.629,25.629,0,0,0,1301.076,2032.267Z" transform="translate(76.84 25.369)" fill="#5d5d5d"/>
      <path id="パス_59" data-name="パス 59" d="M1255.853,2048.915c8.1,0,14.629-9.979,14.629-18.239a14.63,14.63,0,1,0-29.261,0C1241.221,2038.936,1247.746,2048.915,1255.853,2048.915Zm0-3.587c-4.763,0-9.1-5.442-10.538-10.952q3.686-1.519,7.494-3.195,3.174-1.411,6.208-2.831l7.33,6.174C1264.866,2039.983,1260.569,2045.328,1255.853,2045.328Zm0-25.715a11.063,11.063,0,0,1,11.037,11.014l-6.541-5.513a1.67,1.67,0,0,0-1.788-.233q-3.455,1.637-7.1,3.253c-2.252,1-4.453,1.922-6.641,2.831,0-.1-.013-.194-.013-.289A11.067,11.067,0,0,1,1255.853,2019.613Z" transform="translate(6.677 0)" fill="#5d5d5d"/>
      <path id="パス_60" data-name="パス 60" d="M1272.637,2055.656h-32.1v-6.562a21.892,21.892,0,0,1,1.783-8.7,1.794,1.794,0,0,0-3.3-1.414,25.467,25.467,0,0,0-2.073,10.115v8.354a1.792,1.792,0,0,0,1.793,1.793h33.9a1.793,1.793,0,1,0,0-3.586Z" transform="translate(0 34.161)" fill="#5d5d5d"/>
      <path id="パス_61" data-name="パス 61" d="M1240.65,2039.05a1.806,1.806,0,0,0,1.793-1.793,1.794,1.794,0,0,0-3.067-1.276,1.787,1.787,0,0,0-.52,1.276,1.776,1.776,0,0,0,1.793,1.793Z" transform="translate(2.983 30.391)" fill="#5d5d5d"/>
      <path id="パス_62" data-name="パス 62" d="M1256.039,2032.267a25.444,25.444,0,0,0-14.137,4.261,1.8,1.8,0,0,0-.5,2.488,1.776,1.776,0,0,0,2.293.579l11.1,11.1a1.671,1.671,0,0,0,2.357,0l11.111-11.112a22.038,22.038,0,0,1,9.764,18.3v8.354a1.793,1.793,0,1,0,3.587,0v-8.354A25.629,25.629,0,0,0,1256.039,2032.267Zm-.062,14.9-9.243-9.247a21.843,21.843,0,0,1,18.5-.018Z" transform="translate(6.492 25.369)" fill="#5d5d5d"/>
      <path id="パス_63" data-name="パス 63" d="M1286.306,2058.909a1.648,1.648,0,0,0,.372-.043c.692-.156,3.195-1.14,6.3-7.212a16.66,16.66,0,0,0,1.711-6.882,11.287,11.287,0,0,0,17.606-.161,22.631,22.631,0,0,0,1.145,6.833c2.009,5.762,3.735,7.1,4.583,7.378a1.631,1.631,0,0,0,.525.087,1.667,1.667,0,0,0,.761-3.149c-.174-.154-1.263-1.227-2.726-5.414-1.545-4.438-.84-9.62-.556-11.258a20.177,20.177,0,0,0,2.016-8.413,14.63,14.63,0,1,0-29.26,0,20.1,20.1,0,0,0,1.932,8.244c.287.992,1.7,6.5-.707,11.216-2.4,4.694-4.109,5.48-4.071,5.48h0a1.667,1.667,0,0,0,.369,3.292Zm17.107-13.581c-4.765,0-9.1-5.442-10.538-10.952,2.457-1.015,4.955-2.073,7.494-3.195q3.174-1.411,6.208-2.831l7.327,6.177C1312.426,2039.983,1308.129,2045.328,1303.412,2045.328Zm0-25.715a11.063,11.063,0,0,1,11.037,11.014l-6.541-5.513a1.67,1.67,0,0,0-1.788-.233q-3.455,1.637-7.1,3.253c-2.252,1-4.453,1.922-6.641,2.829,0-.095-.013-.192-.013-.286A11.067,11.067,0,0,1,1303.412,2019.613Z" transform="translate(74.503 0)" fill="#5d5d5d"/>
    </g>
  </g>
</svg>
