<?xml version="1.0" encoding="utf-8"?>
<!-- Generator: Adobe Illustrator 24.0.0, SVG Export Plug-In . SVG Version: 6.00 Build 0)  -->
<svg version="1.1" id="レイヤー_1" xmlns="http://www.w3.org/2000/svg" xmlns:xlink="http://www.w3.org/1999/xlink" x="0px"
	 y="0px" viewBox="0 0 138.1 53.2" style="enable-background:new 0 0 138.1 53.2;" xml:space="preserve">
<style type="text/css">
	.st0{enable-background:new    ;}
	.st1{fill:#FFFFFF;}
</style>
<title>entry_txt</title>
<g id="レイヤー_2_1_">
	<g id="レイヤー_1-2">
		<g class="st0">
			<path class="st1" d="M21.2,14.2c0,0.1-0.2,0.2-0.2,0.5l0,0.2c-0.4,0.5-0.4,1.1-0.8,1.7c0,0.1-0.3,0.3-0.3,0.3l0,0.2
				c0,0.1-0.2,0.3-0.2,0.3c0,0.5-0.4,0.6-0.5,1.2l0,0.1c-0.1,0.3-0.6,1.1-0.9,1.5l0,0.2c-0.1,0.7-0.5,0.9-0.6,1.6c0,0,0,0.1,0,0.2
				c-0.6,0.7-0.5,1.2-0.8,1.9c-0.1,0.1-0.3,0.2-0.3,0.4c0,0.1-0.3,0.6-0.3,0.6c0,0.1,0,0.2,0,0.3c0,0.2-0.1,0.2-0.2,0.4l0,0.1
				c0,0.3-0.5,1.2-1.1,1.9c0,0.1,0,0.1,0,0.2c0,0.4-1.5,3.3-1.6,3.4c0,0.1-0.1,0-0.2,0.2l0,0.1c0,0-0.4,0.8-0.6,1.3
				c-0.5,0-0.8,0.7-1,0.7c-0.1,0-0.1-0.2-0.3-0.1c-0.3,0-0.6,0.4-0.9,0.4c-0.7,0-0.3-0.5-0.8-0.4c0,0-0.2-0.1-0.5-0.5
				c-0.1-0.2-0.3-0.3-0.3-0.5c0,0,0-0.1,0.1-0.2c-1.1-0.5-1.5-1.6-2-2c0,0,0-0.1,0-0.2c0-0.2-0.5-1.6-0.8-1.7c0-0.1,0.1-0.1,0.1-0.2
				c0-0.4-0.4-0.8-0.4-1.2c-0.1-0.3,0-0.6,0-1c0-0.3-0.2-0.2-0.2-0.6c0-0.2,0.1-0.3,0.1-0.4c0.1-0.5-0.1-1.1-0.1-1.1s0-0.1,0.1-0.4
				c0-0.2-0.1-0.3,0-0.5l0-0.1c0.1,0,0.5-1.1,0.5-1.1l0-0.1c0-0.3,0-0.3,0-0.5c0-0.2,1-1.7,1.4-1.9c0,0,0-0.1,0-0.1
				c0.1-0.3,0.3-0.4,0.5-0.4c0.2,0,0.3,0.2,0.3,0.5c-0.1,0.6-0.6,1-0.7,1.3c0,0.1,0,0.2,0,0.3c-0.4,0-0.5,0.4-0.5,0.7
				c0,0.2,0.2,0.6,0.2,0.7c0,0-0.1,0-0.2,0.1c0,0.3,0.1,0.3,0.1,0.7c0,0,0.1,0,0.1,0.1c0,0.1-0.1,0-0.1,0.1c0,0.2,0.1,0.5,0.1,0.7
				c0,0-0.1,0-0.1,0.1c0,0,0.1,0.1,0.1,0.4c-0.1,0.3-0.3,0.3-0.3,0.7c0.1,0.1,0.1,0.2,0,0.5c-0.1,0.3,0.5,0.1,0.6,0.3l0,0.2
				c-0.1,0.4,0.1,0.5,0,0.8c0,0.1-0.1,0.2-0.1,0.3c0,0,0.4,0.4,0.4,0.6c0,0.1-0.1,0.2-0.1,0.3c0,0,0.6,0.8,0.6,0.8
				c0.1,0.4,0,1.2,0.3,1.3h0.2c0,0,0,0,0,0.1l0,0.2c0,0,0,0,0.1,0c0.1,0,0.2-0.2,0.4-0.2c0,0,0.2,0.8,0.5,0.8h0.1
				c0,0.1,0.5,0.4,0.7,0.4c0.1,0,0.2-0.1,0.3-0.1c0.1,0,0.2,0,0.2,0c0.5,0,1.3-1.9,1.2-1.4l0-0.3c0.1-0.1,0.3-0.3,0.4-0.6
				c0,0,0-0.1,0-0.2c0,0,0.5-0.9,0.6-0.9l0-0.2c0.1-0.5,0.5-0.8,0.6-1.3c0,0,0-0.1,0-0.2c0-0.3,0.5-0.3,0.5-0.7l0-0.3
				c0,0,0.2-0.1,0.2-0.4l0-0.1c0.4-0.5,0.5-1.2,0.9-1.7c0.1-0.1,0.2-0.3,0.2-0.4l0-0.2c0.1-0.1,0.5-1.1,0.5-1c0-0.1,0-0.2,0-0.3
				c0.1-0.3,0.6-1.1,0.9-2c0.2-0.2,0.5-1.2,1-2c0,0,0.2-0.2,0.2-0.3c0.1-0.2,0-0.6,0.4-0.7c-0.1-0.1,0-0.2,0-0.2
				c0.1-0.3,0.2-0.6,0.3-0.8c0.1-0.2,0.3-1,0.5-1.5c0-0.3,0.2-0.5,0.3-0.8c0.1-0.2,0.2-0.7,0.3-1.1c0.1-0.1,0.3-0.4,0.4-0.7
				c0.1-0.7-0.4-0.3-0.7-0.6L20,10.5c-0.1,0-0.2,0.3-0.5,0.3c-0.2,0-0.4,0-0.7,0c-0.2,0-0.6,0.1-0.8,0.2c-0.2-0.1-0.5-0.2-0.8-0.2
				c-0.3,0-0.4,0.2-0.7,0.2c-0.3,0-0.6-0.1-0.9-0.1c-0.3,0-0.6,0.3-0.8,0.3c-0.7,0-1.7-0.2-2.5-0.3c-0.1,0-0.2-0.3-0.3-0.3H12
				c0,0-0.1-0.2-0.2-0.2c-0.2-0.2-0.5-0.3-0.6-0.5l0-0.1c0,0,0,0-0.1,0h0l0-0.2c0,0-0.4-0.2-0.3-0.4c0-0.1,0.9-1,0.9-1
				c0.7,0,1,0.3,1.4,0.3c0.5,0,0.9,0.3,1.1,0.3c0.2,0,0.1,0,0.5,0.1h0.1c0.1,0,0.3,0.1,0.4,0.1c0,0,0.2,0,0.2-0.1
				c0,0,0.2,0.1,0.4,0.1c0.1,0,0.2-0.2,0.3-0.2c0.1,0,0.4,0.1,0.6,0h0.4c0.2,0,0.1,0.2,0.3,0.2c0,0,0.1-0.2,0.2-0.2
				c0.1,0,0.2,0.2,0.3,0.1h0.4c0.3,0,0.4,0.1,0.6,0.1c0,0,0.1-0.1,0.1-0.1c0,0,0,0,0,0.1h0.3c0.3,0,0.8,0,1.3,0
				c0.2,0,0.9-0.1,0.9-0.3c0-0.2-0.1-0.3-0.1-0.5c0,0,0.2-0.2,0.2-0.2c0-0.1,0-0.3,0-0.4l0-0.1c0,0,0,0,0,0c0-0.2,0.4-0.3,0.7-0.3
				c0.3,0,0.6,0,0.7,0.1c0.2,0.2,0.2,0.7,0.1,1.1c0,0.2,0,0.4-0.1,0.5C23.3,9.2,24,9,24.2,9.4c0.2,0,0.2-0.1,0.5-0.2
				c0.4,0,0.3,0.2,0.5,0.2h0.1c0.1,0,0.1,0.2,0.3,0.2c0.1,0,0.4-0.2,0.6-0.2c-0.1,0.3,1.3,0,1.6,0.3c0.1,0.1,0.5,0.2,0.7,0.2H29
				c0,0,0.1,0,0.1,0.2c2.4,0.4,1.4-0.1,1.9,0.6c0.3,0.1,1-0.2,1.5,0.9c0.1,0.1,0,0.3,0.1,0.3c0,0.1,0.4,0.2,0.3,0.7
				c0,0.3-0.2,0.3-0.5,0.3c-0.2,0-0.3-0.1-0.4-0.1c-0.2,0-0.3,0.1-0.3,0.1c-0.3,0-0.1-0.2-0.3-0.3c-0.5-0.4-1.1-0.5-1.3-0.8
				c0,0.1-0.2,0.1-0.2,0.1c-0.1,0-0.3,0-0.4,0c0,0-0.1,0-0.1,0c-0.2,0-0.1-0.3-0.3-0.3c0,0-0.1,0-0.3,0c-0.1,0-0.1,0-0.1,0
				c0,0,0-0.1,0-0.1h-0.2c-0.4,0-0.7-0.3-0.7-0.3c-0.1,0-0.3,0.1-0.6,0.2c0,0,0-0.1-0.1-0.1c-0.1,0-0.2,0-0.3,0
				c-0.2,0-0.3-0.3-1.7-0.2c-0.1,0-0.7-0.2-0.7-0.3C24.4,10.9,24.2,11,24,11c-0.4,0-0.7-0.2-1.2-0.1c-0.7,0-1,1.3-1.5,2.7
				C21.3,13.7,21.2,14.1,21.2,14.2z"/>
			<path class="st1" d="M25.9,20.8c0,0,0.1,0,0.1,0l0-0.1l0,0c0,0,0.1,0,0.2,0c0.2-0.2,0.2-1.3,0.5-1.4c0,0,0.1,0,0.2-0.1
				c0.1,0,0.3-0.4,0.4-0.4c0.2,0,0.2,0,0.3,0c0,0,0.2-0.2,0.2-0.2c0.1,0,0.2,0.2,0.3,0.2c0.3,0,0.5-0.3,0.7-0.3
				c0.2,0,0.3,0.3,0.6,0.3h0.1l0,0c-0.1,0.4,0.3,0.3,0.2,0.8h0.1c1.3,0,1.4,0.7,2.2,0.7c0.5,0,0.6,0.9,1.1,0.9c0.1,0,0.1,0,0.3,0
				c0,0.2,0.2,0.5,0.4,0.5c0.7,0,0.8-0.5,1,0c0,0.2,0.4,0.2,0.2,0.3c-0.1,0,0.6,0.9,0.7,0.8c0,0,0,0.1,0,0.1c0,0,0,0.2,0,0.3
				c0,0.1-0.3,0.1-0.4,0.4c0,0.3,0.1,1.2-0.4,1.6c0,0.6-0.5,0.5-0.5,1h-0.1c-0.1,0-0.2,0.4-0.4,0.4c-0.2,0-0.4,0.3-0.3,0.1
				c-0.2,0.2-0.9,0.8-0.7,0.8c-0.2,0.2-0.5-0.1-0.7,0.6c-0.2,0-1.1,1.2-1,1c-0.1,0.1-0.3,0-0.3,0.2c-0.6,0.3-1.4,1.1-1.5,1.6
				c0,0,0.1,0,0.1,0.1c0,0.2-0.5,0.4-0.6,0.4c0,0-0.1,0-0.1,0c-0.3,0.2,0,0.6-0.8,0.6c-0.2,0-0.4,0.5-0.4,0.5
				c-0.6,0-0.9,0.5-1.4,0.5c-0.3,0-0.5-0.1-0.8-0.1c-0.3,0-0.5,0.3-0.7,0.3c-0.3,0-0.4-0.3-0.5-0.3c-0.6-0.3-0.6,0-1.2-0.8l0-0.2
				c0-0.1,0-0.1,0-0.1h-0.1l0-0.2h-0.1l0-0.3c0,0-0.1,0-0.1,0s0,0,0-0.1l0-0.2c0-0.1-0.1-0.1-0.1-0.1c0-0.1,0.1-0.1,0.1-0.2
				c-0.4-0.5,0.1-1-0.2-1.4c0.2-0.3,0.2-0.8,0.5-1c-0.1-0.2-0.1-0.4-0.1-0.6c0,0,0.1-0.1,0.1-0.2c0-0.2,0-0.2-0.1-0.2
				c0.1-0.1,0.8-1.2,0.8-1.2c0-0.1,0-0.2,0-0.3c0-0.2,1.1-1.2,1.1-1.3l0-0.3c0-0.3,0.3-0.3,0.7-1.3c0-0.3,0.3-0.3,0.3-0.6
				c0-0.2-0.4-0.9,0-0.9C25.7,21.5,25.7,20.9,25.9,20.8z M31.7,21.9H31c-0.5,0-0.7-0.1-0.8-0.1c-0.1,0-0.2,0.1-0.2,0.1
				c-0.1,0-0.2,0-0.2,0c-0.1,0.1-0.3,0.1-0.4,0.1c-0.1-0.2-0.3-0.3-0.5-0.3c-0.2,0-1,1.4-1,1.4c0,0-0.2,0.2-0.2,0.2
				c-0.3,0.1-0.2,0.3-0.5,0.5C27.2,24,27,24.2,27,24.3c0,0-1.1,2.1-1.9,2.7c0,0.2,0,0.4,0,0.5c-0.3,0.1-0.6,0.8-0.6,0.7
				c0,0.3,0,0.3-0.1,0.5c-0.1,0.3-0.2,0.2-0.2,0.6c0-0.1-0.1,2.4,0.4,2.4c0.3,0,0.5-0.3,0.6-0.3c0.1,0,0.1,0,0.2,0
				c0.5,0,0.4-0.3,0.8-0.3c0.1,0,0.1,0.2,0.4,0.2l0-0.2c0.1-0.7,1-0.7,1.2-0.8c1-0.6,1.2-1.6,2.6-2.2c0.2-0.2,0.2-0.4,0.3-0.6l0-0.1
				c0.7-0.4,1.2-1.4,1.8-2c-0.1-0.1,0.2-0.5,0.3-0.9c0.1-0.5-0.1-0.8,0.1-1.1c-0.1-0.2,0-0.5-0.2-0.7C31.9,21.6,31.7,21.9,31.7,21.9
				z"/>
			<path class="st1" d="M40.5,30.8c0.8-0.3,0.3-0.3,1.2-0.9c0.6-0.4,1.2-0.8,1.9-1.3h0.1c0.1,0,0.1-0.1,0.2-0.2
				c0.4-0.2,0.4,0.1,0.9-0.6h0.1c0.2,0,0.1-0.5,0.3-0.5c0.1,0,0.1,0,0.1,0.1c0.7-0.5,1.5-1.3,1.7-1.3c0.2-0.2,0.4-0.4,0.6-0.6
				c0.1-0.1,0.8-0.5,0.8-0.5h0.1c0-0.1,0-0.1,0-0.2c0-0.2,1.1-1.1,1.5-1.4l0-0.1c0-0.3,0.3,0.1,0.3-0.1l0.3,0.1
				c-0.2,0.1-0.3,0.7-0.4,0.7c-0.2,0.1-0.1,0-0.2,0c0,0-0.1,0.1-0.1,0.1c-0.1,0.1,0.1,0.4-0.2,0.6c-0.2,0.2-0.4,0.2-0.4,0.2
				c0,0-0.7,0.8-1,1.1c-0.4,0.5-1.2,1-1.2,1c-0.2,0-0.5,0.5-0.7,0.8c-0.1,0.1-0.6,0.3-0.5,0.3h-0.1c-0.4,0.4-0.6,0.4-0.9,0.8l0,0.1
				c0,0.2-0.4,0.2-0.4,0.2l0,0.1c-0.1,0.2-0.7,0.2-0.8,0.5c-0.1,0.2-0.6,0.4-0.7,0.5c-0.8,0.4-1.7,1.2-1.6,1.1
				c-0.1,0.1-0.1,0.1-0.1,0.2l0,0c-0.2,0-0.3,0.1-0.5,0.1c-0.1,0-0.1,0.2-0.2,0.2c-0.5,0.4-0.3,0.2-0.7,0.5l0,0.1
				c-0.3,0-1.5,1.1-2,1c-0.3,0-0.4,0.2-0.5,0.2c0,0-0.1,0-0.2,0c-0.1-0.1-0.2,0.1-0.5,0.1c-0.4,0-0.5-0.5-0.9-0.7
				c0.1-0.3-0.1-0.6-0.1-0.7l0-0.2c0-0.1,0-0.2,0-0.2c0-0.1,0.1-0.2,0.2-0.3c0-0.1,0-0.4,0-0.4c0-0.1,0.1-0.2,0.1-0.3c0,0,0,0,0-0.1
				c0.1-0.2,0.3-0.6,0.1-0.8c0.2-0.2,0.2-0.8,0.4-0.9c0.1,0,0.1-0.1,0.1-0.1c0-0.1,0-0.1,0.1-0.3c0.1-0.2,0.1-0.2,0.2-0.5l0-0.2
				c0.2-0.3,0.4-0.6,0.6-1.1c0-0.1,0-0.2,0.1-0.3c0.1-0.2,0.3-0.3,0.4-0.4c0.4-1,0.5-1.9,1.1-2.4c0-0.2-0.1-0.3-0.1-0.5
				c0-0.2,0.6-0.9,0.7-1.3c0-0.2,0.1-0.1,0-0.3c0-0.2,0-0.2,0.1-0.4c0,0,0.3-0.6,0.3-0.6c0-0.1-0.2-0.4-0.1-0.5
				c0.2-0.2,0.2-0.8,0.2-0.8c0-0.2,0-0.3,0.1-0.5c0,0,0,0,0.1,0c0.1,0,0.3-0.3,0.5-0.3h0.1c0.1,0,0.1-0.1,0.1-0.1h0.2
				c0.4,0,0.7,0.2,0.4,0.9c0.1,0.3,0.3,1,0.6,1.1c-0.1,0.2-0.1,0.6-0.2,1c-0.2,0.2-0.2,0.4-0.4,0.4c0,0.2,0,0.3,0,0.5
				c-0.1,0.2-0.2,0.6-0.5,0.8l0,0c0,0,0.1,0.1,0,0.2c0,0.1,0,0-0.1,0.1c-0.2,0.2-0.6,0.8-0.8,1c-0.3,1-0.7,1.9-1.4,2.4
				c0,0.2,0.4,0.9-0.1,0.9c-0.1,0-0.3,0.4-0.3,0.4c-0.1,0.1-0.1,0.2-0.2,0.2h0c0,0.3-0.1,0.6-0.2,0.9c-0.1,0.5-0.3,0.9-0.5,1.5
				c-0.1,0.3-0.2,0.2-0.3,0.5c0,0.3,0,0.4,0.2,0.7c0.1-0.1,0.3,0.1,0.4-0.1l0.2,0.1c0.7-0.5,0.7-0.7,1.1-0.7
				C39.7,31.2,40.6,30.8,40.5,30.8z M47.4,10c-0.1,0.2-0.3,0.2-0.3,0.4c0,0.1,0.2,0.2,0.2,0.3c0,0.2-0.2,0.1-0.2,0.3l0,0.2
				c0,0.3-0.4,0.4-0.6,0.7c-0.3,0-1,0.2-1-0.3h-0.3c-0.1,0,0-0.1-0.1-0.1c-0.1-0.1-0.2,0-0.3-0.2c-0.1,0,0-0.2-0.1-0.2
				c-0.4-0.3-0.2-0.5-0.1-1c0,0,0.5-0.6,0.7-0.6c0.1,0,0.1,0,0.1,0.1c0.1,0,0-0.3,0.1-0.3h0.1c0,0,0.3-0.1,0.4-0.2
				c0,0.1,0.1,0.2,0.4,0.2c0.1,0,0.5-0.2,0.7-0.2c0,0,0,0,0,0.1l0,0.2C47.1,9.4,47.4,9.8,47.4,10L47.4,10z"/>
			<path class="st1" d="M64.4,27.1c0,0,0-0.2,0.1-0.2c0.2-0.1,0.3-0.2,0.5-0.1c0.1-0.3,0.6-0.5,0.7-0.7c0-0.2,0.8-0.3,1.1-0.8
				c0.4-0.2,0.8-0.5,1-1c0,0,0.1,0,0.1,0c0.5,0,0.9-0.8,1.2-1c0.4-0.1,0.7-0.3,1-0.5c0.3,0,0.3,0.3,0.5,0.5c-0.8,0.2-1,1.1-1.7,1.1
				c-0.6,0.2-0.9,1.4-1.5,1.4c0,0-0.1-0.1-0.1-0.1c-0.2,0.3-0.2,0.6-0.4,0.8c-0.1,0.2-0.2,0.2-0.3,0.2c-0.4,0.4-0.4,0.7-1,0.9
				c0,0.1-0.2,0.2-0.3,0.3c0,0.3-0.6,0.5-0.6,0.7c-0.3,0.2-0.5,0.3-0.7,0.6c-0.2-0.1-0.2,0.2-0.4,0.1c-0.6,0.4-0.9,1-1.5,1.2
				c0,0.2-0.2,0.3-0.3,0.5c-0.2,0-0.4,0.2-0.6,0.3c-0.2,0.1-0.4,0.3-0.6,0.4c-0.1,0-0.2,0.2-0.3,0.2c-0.1,0.1-0.2,0-0.3,0.2
				c0,0-0.2,0.2-0.2,0.2c0,0-0.1,0-0.1,0c-0.4,0-0.8,0.5-0.9,0.5c-0.1,0-0.1-0.2-0.2-0.2c-0.1,0.1-0.1,0.2-0.2,0.2h-0.4
				c-0.1,0-0.3,0.1-0.4,0.1c-0.2,0-0.9-0.2-0.9-0.2l0.1-0.2l0,0c0,0-0.5,0-0.4-0.3c0-0.2,0-0.1,0-0.3c0,0-0.1-0.8-0.1-1
				c0.1-0.2,0.2-0.2,0.2-0.3c0,0,0.1-0.2,0.1-0.3l0-0.2c0,0,0-0.5,0.2-1c0-0.3,0.4-0.9,0.6-1.2c0.1-0.2,0-0.4,0.1-0.6
				c0.1-0.3,0.4-0.5,0.5-0.8c0-0.2,0-0.2,0-0.4c0,0,0.2-0.3,0.3-0.5c0.1-0.1,0.1-0.3,0.2-0.3c0.2-0.2,0.3-0.5,0.5-0.7
				c0.1-0.3,0.3-0.7,0.3-1c0.3-0.2,0.6-1.5,1-2.2c0,0-0.2-0.2-0.2-0.2c-0.5,0-1,0.6-1.6,0.7c-0.1,0.2-0.3,0.2-0.4,0.4
				c0,0.1-0.7,0.5-0.8,0.6c-0.1,0.3-1.1,0.9-1.5,1.1l-0.1,0.2c-0.1,0.3-0.6,0.5-0.6,0.9c0,0,0,0,0,0.1c-0.7,0.2-1,1.1-1.4,1.2
				c-0.4,1.1-1,1.1-1.3,1.6c-0.1,0.1-0.6,1.3-0.9,1.3h-0.1c0,0.1,0,0.2,0,0.3c-0.1,0.3-0.4,0.4-0.5,0.8l0,0.2h0
				c-0.2,0-0.4,0.3-0.4,0.3c0,0.1,0,0.2-0.1,0.3c0,0.1-0.1,0.2-0.1,0.2c0,0,0,0,0,0c0,0,0,0-0.1,0.1l0,0.1h-0.1c0,0,0,0,0,0
				l-0.1,0.2h-0.1c0,0-0.6,0.9-0.7,0.9h-0.1c-0.1,0,0,0,0,0.1c0,0,0,0-0.1,0c-0.1,0,0,0.1-0.1,0.1c-0.2,0.1-0.2-0.1-0.4,0
				c-0.3,0.2-0.5,0-0.9,0.2c-0.3-0.3-0.3,0-0.4-0.6c-0.1-0.1-0.4-0.1-0.3-0.2c0-0.1,0.1-0.2,0.1-0.2c0-0.1-0.1-0.2,0-0.3
				c0-0.3,0.1-0.3,0.2-0.4c0-0.1,0-0.2,0-0.3c0,0,0.1,0,0.1-0.1c0-0.1-0.1,0,0-0.1l0.1-0.3c0-0.2-0.1-0.2,0-0.4
				c0.3-0.3,0.5-1,0.5-1.1l0.1-0.5c0.1-0.3,0.4-0.7,0.7-1.2h0l0-0.2c0-0.1,0.1-0.1,0.2-0.2c0.2-0.4,0.3-1,0.5-1.3
				c0.1-0.1,0.1,0,0.2-0.1c0-0.1,0.1-0.4,0.3-0.5c-0.1-0.3,0.1-0.8,0.2-1.2c0,0,0.1,0,0.1-0.1c0-0.2,0.1-0.2,0.1-0.2
				c0.3-0.2,1-1.8,1-1.8c0.1-0.2,0.5-1.1,0.7-1.4c0.3-1.1,1.4-1.6,1.2-1.6c0.2-0.1,0.4-0.1,0.5-0.1h0.9c-0.1,0.3,0,0.3,0.1,0.4
				l0,0.7c-0.1,0.5-0.7,0.4-0.8,0.7l-0.1,0.4c0,0-0.3,0.8-0.7,1.4l-0.1,0.2c0,0.1-0.1,0.2-0.1,0.2c0,0.1-0.1,0.2,0,0.3
				c-0.3,0.1-0.5,0.6-0.7,1c-0.3,0.1-0.5,1-0.7,1.4c0,0,0,0.1,0,0.1c-0.2,0.1-0.4,0.1-0.4,0.3c-0.1,0.2,0,0.2,0,0.3
				c-0.1,0.3-0.3,0.5-0.5,0.8c-0.2,0.5-0.3,1.3-0.7,1.6l0,0.1c0,0.1-0.1,0.1-0.1,0.1c-0.1,0-0.1,0.1-0.1,0.1c-0.2,0-0.2,0.6-0.3,0.7
				c-0.1,0.2-0.1,0.2,0,0.4c0.2,0,1.6-1.6,2.3-2.6h0c0.2,0,0.3-0.2,0.5-0.2l0-0.1c0.1-0.3,0.8-1,1-1.2l0-0.1h0.1l0-0.2
				c0.1-0.3,0.7-0.7,0.6-0.7c0,0,0.4-0.5,0.4-0.5c1.6-1.5,1.7-1.6,1.8-1.6c0.1-0.2,0.3-0.2,0.4-0.3c0.3-0.4,1-1.1,1.3-1.1
				c0,0,0,0,0.1,0c0.2,0,0.3-0.5,0.4-0.6c0.8-0.2,1.3-1.1,2.1-1.4c0.1,0,1.1-0.3,1.1-0.3c0.1,0,0.2,0.1,0.4,0.1
				c0.1,0,0.2-0.1,0.3-0.1c0.2,0,0.1,0.5,0.4,0.5c0,0,0.1,0.4,0.2,0.3c0,0.3-0.1,0.6-0.2,0.8c-0.1,0.3,0,0.3-0.1,0.4
				c-0.1,0.2-0.2,0.4-0.3,0.5c0.1,0.1,0,0.2,0,0.3L61.9,22h0c-0.1,0-0.4,1.1-0.8,1.2c-0.1,0.2,0,0.3,0,0.4c0,0,0,0.1-0.1,0.1
				c-0.3,0.2-0.9,1.4-1,1.4c0,0.2,0,0.3-0.1,0.4c-0.1,0.1-0.1,0.2-0.2,0.3c-0.1,0.1-0.1,0.5-0.2,0.8c-0.1,0.3-0.3,0.7-0.5,0.8
				c0,0.1,0,0.1,0,0.2c0,0.1-0.1,0-0.1,0.2c-0.2,0.4-0.2,0.9-0.3,1.1l-0.2,0.3c0,0.2,0,0.5,0,0.6l-0.1,0.1c-0.1,0.2-0.1,1,0,1
				c0.1,0,0.6,0,0.7,0c0.1,0,0.2-0.3,0.3-0.4c0,0,0.2,0.1,0.2,0c0.1-0.1,0.3-0.3,0.5-0.4h0.2c0.1-0.2,0.1-0.2,0.3-0.3
				c0.1-0.1,0.1,0,0.2-0.1c0.2-0.1,0.2-0.2,0.3-0.3c0.1,0,0.2,0,0.2,0c0.1-0.2,0.2-0.2,0.4-0.3c0.1-0.2,0.2-0.1,0.3-0.2l0.2-0.2
				c0.2,0,0.3-0.1,0.5-0.2c0.1-0.1,0.2-0.3,0.3-0.4c0,0,0.2-0.2,0.2-0.2c0.1,0,0.1,0.1,0.2,0.1c0,0,0-0.2,0.1-0.2
				c0.1,0,0.3-0.2,0.5-0.2c0.1-0.3,0.3-0.2,0.3-0.4C64.3,27.3,64.4,27.2,64.4,27.1z"/>
			<path class="st1" d="M86.3,27.4c0-0.2,0-0.3-0.1-0.3c0.1-0.3,0.4-0.5,0.4-0.7c0,0-0.1,0.1-0.1-0.1c-0.4,0.3-0.8,1.4-1.4,1.3
				c0,0.2-0.2,0.3-0.2,0.4l0,0.2c0,0.1-0.2,0-0.3,0c-0.1,0-0.1,0.2-0.2,0.3c0,0-0.3,0.3-0.3,0.3c0,0,0,0.1,0,0.2c0,0,0,0,0,0H84
				c-0.2,0-0.7,0.5-0.8,0.6c0,0,0,0.1,0,0.2c-0.4,0.4-0.8,0.3-0.9,0.9c0,0-0.3,0.3-0.3,0.3c-0.3,0.2-1,0.8-0.9,0.7
				c-0.1,0.1-0.3,0.3-0.4,0.5c0,0.2-1.5,0.8-1.4,0.6c0,0.1,0.1,0.2,0.1,0.3c0,0,0,0-0.1,0c-0.1,0-0.1,0-0.1,0c0,0-0.1,0.1-0.1,0.1
				c0,0.1-0.6,0.3-0.7,0.2c-0.2-0.1-0.3-0.2-0.4-0.2c-0.4,0.1-0.8,0.3-1.2,0.3c-0.4-0.3-0.9-0.6-0.8-1.2c-0.4,0,0.6-1.5,0.3-1.7
				c0.1-0.7,0.3-0.7,0.5-1.3c0.1-0.4,0.3-0.4,0.4-0.9c0.2-0.1,0.8-0.9,0.5-1.2c0-0.2,0.3-0.6,0.5-1.3c0,0,0,0,0,0
				c0.1-0.2,0.2-0.1,0.3-0.2c0,0,0-0.1,0-0.2c0-0.2,0.4-0.3,0.4-0.6c0-0.2,0.1-0.3,0.2-0.6c0.1,0,0.1,0,0.2-0.2c0,0,0-0.1,0-0.2
				c0.1-0.3,0.2-0.2,0.3-0.3c0-0.1,0.5-1,0.5-1c0.1-0.1,0.2-0.2,0.3-0.3c0-0.1-0.1-0.3,0-0.4c0.1-0.1,0.3-0.3,0.4-0.6
				c0-0.2,0.1-0.2,0.2-0.4c0-0.1,0.1-0.1,0.1-0.1c0,0,0.4-0.7,0.4-0.7c0.1,0,0-0.2,0-0.2c0.2-0.1,0.2-0.3,0.3-0.6
				c0.6-0.1,0,0,0.5-0.2c0.2,0.1,0.3,0.2,0.7,0.2c0,0,0.1,0,0.1,0c0.2,0.6,0.8,0.8,0.6,2c0,0.3-0.3,0.3-0.7,1.1c0,0.1-0.9,1-1,1
				c-0.5,0.3-1.1,1.7-0.9,1.6c-0.3,0.2-0.3,0.6-0.7,1.1c0,0-0.1,0.5-0.1,0.5c0,0.2-0.3,0.4-0.3,0.6l0,0.2c0,0-0.1,0.2-0.4,0.4
				c0.1,0.1,0,0.2,0,0.3c0,0.2-0.1,0.3-0.3,0.4c0.1,0-0.2,1.1-0.2,1.2c0,0.2-0.2,0.5-0.2,0.6c-0.2,0.3-0.3,0.7,0.2,0.7
				c0.2,0,0.5,0,0.6-0.2l0-0.1c0.2,0.1,0.4-0.1,0.8-0.3c0.1-0.1,0.3-0.1,0.5-0.2c0.3-0.2,0.2,0,0.9-0.5c0.8-0.8,1.1-0.8,1.3-1
				c0.3-0.3,0.8-0.5,0.9-1l0-0.1c0.4,0,1.2-0.9,1.3-1.2c0-0.2,0.6-0.4,0.6-0.6c0,0,0-0.1,0-0.1c0.1-0.2,0.6-0.6,0.7-0.8
				c0,0,0-0.1,0-0.1c0.8-0.3,0.5-0.8,0.9-1.1l0-0.2c0.2-0.8,0.6-1,1.3-0.9c0.1,0,0.3,0.1,0.5,0.1c0,0,0,0.1-0.1,0.1
				c0,0.2,0.3,0.2,0.2,0.4l0,0c0,0.3,0.4,0.2,0.3,0.4c0,0.2-0.2,0.1-0.2,0.3c0.1,0.1,0.1,0.2,0.1,0.4c-0.2,0.7-0.5,0.3-0.7,0.6
				c0,0.2,0.2,0.4,0.2,0.5c0,0.1-0.1,0.1-0.1,0.2c0,0.1,0.1,0.1,0,0.2c0,0.2-0.2,0.3-0.4,0.4c0,0.2,0,0.3,0,0.5
				c-0.1,0.1-0.2,0.1-0.2,0.2c0,0,0,0.2,0,0.3c0,0,0,0.1-0.1,0.2c0,0.1-0.2,0.1-0.2,0.2c0,0.1,0,0.5,0,0.7l-0.1,0.3
				c0,0.1,0,0.3,0,0.3c-0.2,0.3-0.4,0.7-0.4,1c0,0.1,0,0.2,0.1,0.3c-0.1,0.1-0.2,0.3-0.2,0.4c-0.1,0.4,0.1,0.7,0.2,1
				c0.4-0.1,0.9,0,1.2-0.2c0.1-0.1,0.9-0.4,0.8-0.4c0.8-0.3,0.3-0.2,1.2-0.7c0.6-0.4,1.2-0.8,1.9-1.4c0,0,0.1,0,0.1,0
				c0.1,0,0.1-0.1,0.2-0.2c0.4-0.2,0.4,0.1,0.9-0.6h0.1c0.2,0,0.1-0.5,0.3-0.5c0.1,0,0.1,0,0.1,0.1c0.7-0.5,1.5-1.3,1.7-1.3
				c0.2-0.2,0.4-0.4,0.6-0.6c0.1-0.1,0.8-0.5,0.8-0.5h0.1c0-0.1,0-0.1,0-0.2c0-0.2,1.1-1.1,1.6-1.4l0-0.1c0-0.2,0.3,0.1,0.3-0.1
				c0,0,0.3,0.1,0.3,0.1c-0.2,0.1-0.3,0.7-0.4,0.8c-0.2,0.1-0.1,0-0.2,0c0,0-0.1,0.1-0.1,0.1c-0.1,0.1,0,0.3-0.3,0.5
				c-0.2,0.2-0.4,0.2-0.4,0.2c0,0-0.6,0.8-0.9,1.1c-0.4,0.5-1.2,0.9-1.1,0.9c-0.3,0-0.6,0.5-0.7,0.8c-0.1,0-0.6,0.3-0.5,0.3
				c0,0,0,0-0.1,0c-0.4,0.4-0.6,0.4-0.9,0.8l0,0.1c0,0.2-0.4,0.2-0.4,0.2l0,0.1c-0.1,0.2-0.6,0.3-0.7,0.6c-0.1,0.2-0.6,0.4-0.7,0.5
				c-0.8,0.4-1.7,1.2-1.6,1.1c-0.1,0.1-0.1,0.1-0.1,0.2c0,0-0.3,0.2-0.5,0.2c-0.1,0-0.1,0-0.2,0c-0.6,0.5-1,0.6-1.4,0.9h-0.1
				c0,0-0.4,0.3-1.1,0.3c-0.3,0-0.1-0.2-0.3-0.2c-0.1,0-0.1,0-0.3,0c0,0-0.5-0.4-0.5-0.4l0-0.2c0-0.2-0.4-0.3-0.3-0.3h-0.1l0-0.2
				c0,0-0.2,0-0.2-0.1l0-0.2c0-0.1-0.1-0.1-0.1-0.1c-0.1-0.1-0.1-0.7-0.1-0.6l0,0c0,0,0,0,0-0.1c0,0-0.1-0.6-0.1-1
				c0-0.2,0.2-0.3,0.2-0.5c0-0.2-0.1-0.4,0-0.6c0-0.2,0.2-0.4,0.3-0.6l0.1-0.4C86,27.8,86.2,27.8,86.3,27.4z"/>
			<path class="st1" d="M98.1,21.9l0-0.3c0.2-0.2,0.6-0.1,0.7-0.6c0.6-0.2,1.2-0.2,1.5-0.8c0.2-0.1,0.7-0.5,0.8-0.5h0.1
				c-0.1,0,0.7-0.3,0.8-0.5c0.1,0,0.1-0.2,0.2-0.2h0.1c0.4,0,1.2-0.6,1.2-0.6c0,0,0.1,0,0.2,0c0.1,0,0.1-0.2,0.3-0.2h0.2
				c0.1,0,0.1-0.1,0.2-0.2c0.3-0.1,0.9-0.4,1-0.4h0.3c0.4,0,0.2-0.2,0.5-0.2c0.1,0,0.1,0,0.2,0c0.1,0,0.2-0.1,0.3-0.3
				c0,0.1,0.3,0.1,0.4,0.2c0.2-0.1,0.5,0,0.6-0.2c0.2,0.2,0.6,0.3,0.7,0.6c0,0,0.3,0,0.3,0.2c0,0,0,0.1-0.1,0.1l0,0.1c0,0,0,0,0.1,0
				c0,0-0.1,0.1-0.1,0.2c0,0.1,0.2,0.2,0.2,0.5l0,0c-0.2,0.2-0.4,0.7-0.4,0.7c0,0.2,0.1,0.2,0.1,0.3s-0.2,0.3-0.5,0.4l0-0.1
				c0,0,0-0.1-0.1-0.1c0,0-0.1,0.2-0.3,0.2c-0.1,0-0.3-0.1-0.4-0.1c-0.4,0-0.9,0.1-1.2,0.5c-0.1-0.1-0.2-0.2-0.4-0.2
				c-0.3,0-0.5,0.3-0.6,0.3c-0.2,0.2-1.7,0.5-1.8,1c0,0-0.1,0-0.1,0c-0.1,0-0.2-0.1-0.2-0.1c-0.2,0.2-0.3,0.2-0.5,0.3h-0.1
				c-0.1,0-0.1,0-0.1,0.1c-0.7,0.3-0.7,0.2-1,0.6h-0.2c-0.4,0-0.6,0.3-0.9,0.4c0,0.3-0.1,0.7-0.1,1c0,0.2,0.1,0.3,0.1,0.5
				c0,0,0,0.1-0.1,0.1c0.3,0.1,0.8,0.4,1,1c0,0.1,0,0.3,0.1,0.3h0.1c0.1,0,0.1,0.3,0.2,0.3s0.1,0,0.2-0.1c0,0.2,0.2,0.2,0.2,0.4h0.1
				c0.2,0,0.3,0.2,0.5,0.2c0.1,0,0.1,0,0.1,0c0.2,0.5,0.5,0.7,0.9,0.8c0.1,0.4,0.3,0.4,0.3,0.5l0,0.2c0,0.1,0.2,0.2,0.3,0.2
				c0.1,0.6,0.3,1,0.6,1.2l0,0.2c-0.1,0.5,0.1,0.6,0.2,0.9c-0.2,0.4-0.4,0.7-0.7,0.8c-0.2,0-0.2,0.3-0.4,0.5c-0.3,0-0.6-0.1-1,0.3
				c0,0-0.7,0.3-0.7,0.3c-0.2,0-0.2-0.2-0.4-0.2c-0.3,0.1-0.5,0.2-0.7,0.2c-0.1,0-0.2-0.2-0.3-0.2c-0.2,0-0.4,0.2-0.6,0.2
				c0.1-0.3-0.2-0.5-0.4-0.5c-0.2,0-0.4,0.1-0.6,0.2c-0.2-0.2-0.6,0-0.6-0.5c0,0.1-0.1,0.1-0.2,0.1c-0.5,0-0.8-0.4-1-0.4
				c-0.2,0-0.2,0.2-0.4,0.2c0-0.2-0.3-0.1-0.3-0.3h-0.1c-0.4,0-0.6-0.3-0.6-0.3h-0.1c-0.1,0-0.2-0.3-0.3-0.3h-0.1
				c-0.1,0-0.2-0.2-0.2-0.3c-0.3-0.2-0.4-0.2-0.4-0.2c-0.3,0-0.8-0.5-0.8-1c0.5,0.1,0.8,0.3,1,0.6c0.1,0,0.2-0.1,0.3-0.1h0
				c0.1,0.2,0.6,0.4,0.6,0.4h0.1c0.2,0,0.2,0.2,0.7,0.2c0.2,0,0.5,0,0.7,0.3c0.1,0,0.2,0,0.3,0c0.3,0,0.4,0.3,0.7,0.3h0.6
				c0.2,0,0.4,0,0.6,0c0.1,0,0.2,0,0.4,0c0,0,0.1,0,0.2,0c0.1,0,0.2-0.2,0.2-0.2s0.1,0.1,0.2,0.1c0.1,0,0.5-0.2,0.7-0.2h0.1
				c0,0,0.2-0.1,0.4-0.1c0,0,0,0.1,0.1,0.1c0.3,0,0.6-0.5,0.9-0.5l0-0.2c0-0.2,0.1-0.2,0.1-0.4c0-0.7-0.7-0.9-0.8-0.9
				c0-0.4-0.7-1-1-1h-0.1c-0.2-0.6-1-0.6-1.2-1.3c-0.2,0-0.3-0.2-0.4-0.2l0,0c0.1-0.3-0.3-0.3-0.2-0.6c0,0,0,0,0,0
				c0-0.1-0.1-0.2-0.2-0.2H99c0-0.3,0-0.5-0.3-0.5c0-0.3-0.2-0.5-0.5-0.5c-0.5,0-0.4-1.3-0.4-1.2C97.9,23,98,22.5,98.1,21.9z"/>
			<path class="st1" d="M116.9,30.1c0,0,0.2-0.1,0.2-0.1s-0.1,0.3,0.1,0.3h0.1c0.4-0.1,0.7,1,0.7,1.8c0,0-0.1,0-0.2,0.1
				c-0.4,0.1-0.5-0.3-0.8-0.2c0,0-0.1,0.1-0.2,0.1c0.1,0.4,0.3,0.3,0.3,0.9c-0.1,0.1-0.2,0.1-0.3,0.1c-0.3,0.1-0.7,0-1,0l0-0.1
				c0-0.2-0.2,0-0.2-0.2c0,0,0,0,0-0.1c-0.1-0.2-0.5-0.2-0.6-0.5c0.1-0.3,0-1.2,0.6-1.3c0.2-0.4,0.9-0.6,0.9-1.1
				C116.7,29.7,116.8,30.1,116.9,30.1z M127.3,7.2C127.3,7.2,127.3,7.3,127.3,7.2c0.5,0.1,0.6,0.5,0.7,0.5c0,0.3-0.1,0.5-0.2,0.8
				c0,0-0.1,0-0.1,0c-0.8,0.2-0.9,1.7-1.2,1.8c-0.1,0-0.2,0-0.3,0.1c-0.3,0-0.4,0.3-0.7,0.5c0,0.1,0.1,0.1,0,0.2
				c0,0.3-0.2,0.4-0.1,0.6c0,0,0,0.1,0.1,0.1c-0.2,0.1-0.2,0.2-0.2,0.3l0,0c-0.5,0.2-0.5,0.6-0.8,0.8c0,0.1,0,0.2,0,0.2
				c0,1-1,1.8-1,2.4c0,0-0.4-0.5-0.3-0.4c-0.6,0.2-0.8,1.3-0.8,1.4c-0.6,0.2-0.5,1.5-0.9,1.6c0,0-0.1,0-0.1,0l0,0.2
				c0,0.2-0.1,0.8-0.4,0.8h-0.1c0,0.3-0.1,0.5-0.1,0.7c0,0.1,0,0.2,0,0.2c-0.2,0.2-0.1,0.7-0.4,0.9c0,0.1,0,0.1,0,0.2
				c0,0.2-0.1,0.4-0.1,0.6c0,0.1,0,0.2,0,0.2c-0.5,0.3-0.2,1.3-0.9,1.4c-0.5,0.2-0.7,0.3-0.7-0.5c0,0,0.1,0,0.1-0.1
				c0-0.1,0,0.1-0.1-0.2c0-0.2,0.1-0.3,0.1-0.4c0,0,0-0.1,0-0.1c0.3-0.7,0.7-2.2,1-2.4c0-0.2,0-0.3,0-0.5c0.5-0.4,0.4-1.3,0.9-1.8
				c0,0,0.2-0.8,0.2-0.6c0.2-0.5,0.9-1.1,0.8-1.8c0.4-0.2,0.5-0.9,0.5-1c0.5-0.3,0.5-1,1-1.3c0-0.8,1-1.5,1-2.2
				c0.2-0.1,0.3-0.3,0.5-0.4c0,0,0-0.1,0-0.1c0,0,0.3-0.7,0.6-0.8l-0.1-0.1c0-0.8,0.6-1.9,0.7-2c0,0,0,0,0.1,0
				c0.1,0,0.2-0.1,0.3-0.1c0.2-0.1,0.4,0.1,0.7,0c0,0,0.1,0,0.2,0C127.2,6.9,127.3,7,127.3,7.2z"/>
		</g>
	</g>
</g>
</svg>
