<svg xmlns="http://www.w3.org/2000/svg" width="114" height="114" viewBox="0 0 114 114">
  <g id="flow_02" transform="translate(-538 -5968)">
    <circle id="楕円形_3" data-name="楕円形 3" cx="57" cy="57" r="57" transform="translate(538 5968)" fill="#fff"/>
    <g id="グループ_59" data-name="グループ 59" transform="translate(570.383 5995)">
      <g id="グループ_26" data-name="グループ 26" transform="translate(0.004 8.237)">
        <path id="パス_22" data-name="パス 22" d="M1129.718,2003.358a1.185,1.185,0,0,1-1.185-1.184V1993.2a1.184,1.184,0,0,1,1.185-1.185h39.4a1.185,1.185,0,0,1,0,2.369H1130.9v7.791A1.185,1.185,0,0,1,1129.718,2003.358Z" transform="translate(-1128.533 -1992.013)" fill="#222"/>
      </g>
      <g id="グループ_27" data-name="グループ 27" transform="translate(0 22.028)">
        <path id="パス_23" data-name="パス 23" d="M1129.716,2001.753a1.189,1.189,0,0,1-.841-2.025,1.226,1.226,0,0,1,1.682,0,1.186,1.186,0,0,1,0,1.67A1.177,1.177,0,0,1,1129.716,2001.753Z" transform="translate(-1128.531 -1999.395)" fill="#222"/>
      </g>
      <g id="グループ_28" data-name="グループ 28" transform="translate(0.004 8.237)">
        <path id="パス_24" data-name="パス 24" d="M1177.542,2018.477h-47.824a1.184,1.184,0,0,1-1.185-1.184v-5.517a1.185,1.185,0,0,1,2.369,0v4.333h45.455V1993.2a1.183,1.183,0,1,1,2.367,0v24.095A1.182,1.182,0,0,1,1177.542,2018.477Z" transform="translate(-1128.533 -1992.013)" fill="#222"/>
      </g>
      <g id="グループ_29" data-name="グループ 29" transform="translate(0.004)">
        <path id="パス_25" data-name="パス 25" d="M1177.542,1998.21a1.185,1.185,0,0,1-1.184-1.185v-7.053H1130.9v7.053a1.185,1.185,0,0,1-2.369,0v-8.237a1.185,1.185,0,0,1,1.185-1.185h47.824a1.183,1.183,0,0,1,1.182,1.185v8.237A1.183,1.183,0,0,1,1177.542,1998.21Z" transform="translate(-1128.533 -1987.604)" fill="#222"/>
      </g>
      <g id="グループ_30" data-name="グループ 30" transform="translate(23.916 32.332)">
        <path id="パス_26" data-name="パス 26" d="M1142.516,2031.8a1.185,1.185,0,0,1-1.184-1.184v-24.517a1.184,1.184,0,0,1,2.369,0v24.517A1.185,1.185,0,0,1,1142.516,2031.8Z" transform="translate(-1141.332 -2004.91)" fill="#222"/>
      </g>
      <g id="グループ_31" data-name="グループ 31" transform="translate(6.084 43.567)">
        <path id="パス_27" data-name="パス 27" d="M1132.973,2026.575a1.184,1.184,0,0,1-.708-2.134l17.831-13.283a1.184,1.184,0,1,1,1.414,1.9l-17.831,13.281A1.179,1.179,0,0,1,1132.973,2026.575Z" transform="translate(-1131.788 -2010.924)" fill="#222"/>
      </g>
      <g id="グループ_32" data-name="グループ 32" transform="translate(23.916 43.567)">
        <path id="パス_28" data-name="パス 28" d="M1160.347,2026.575a1.175,1.175,0,0,1-.706-.235l-17.832-13.281a1.184,1.184,0,0,1,1.414-1.9l17.833,13.283a1.184,1.184,0,0,1-.708,2.134Z" transform="translate(-1141.332 -2010.924)" fill="#222"/>
      </g>
    </g>
  </g>
</svg>
