<svg xmlns="http://www.w3.org/2000/svg" width="114" height="114" viewBox="0 0 114 114">
  <g id="flow_01" transform="translate(-282 -5968)">
    <circle id="楕円形_2" data-name="楕円形 2" cx="57" cy="57" r="57" transform="translate(282 5968)" fill="#fff"/>
    <g id="グループ_56" data-name="グループ 56" transform="translate(306 5991.338)">
      <g id="グループ_55" data-name="グループ 55" transform="translate(0 11.662)">
        <g id="グループ_48" data-name="グループ 48">
          <g id="グループ_35" data-name="グループ 35" transform="translate(14.586 0.018)">
            <g id="グループ_34" data-name="グループ 34">
              <path id="パス_29" data-name="パス 29" d="M1079.1,1990.906a1.3,1.3,0,0,1-1.308-1.308,1.287,1.287,0,0,1,.379-.916,1.341,1.341,0,0,1,1.844,0,1.3,1.3,0,0,1,.392.916,1.285,1.285,0,0,1-.392.929A1.266,1.266,0,0,1,1079.1,1990.906Z" transform="translate(-1077.79 -1988.316)" fill="#222"/>
            </g>
          </g>
          <g id="グループ_37" data-name="グループ 37">
            <g id="グループ_36" data-name="グループ 36">
              <path id="パス_30" data-name="パス 30" d="M1110.818,2025.292H1079.3a9.3,9.3,0,0,1-9.317-9.261v-18.462a9.3,9.3,0,0,1,9.317-9.263h1.913a1.308,1.308,0,0,1,0,2.615H1079.3a6.682,6.682,0,0,0-6.7,6.647v18.462a6.681,6.681,0,0,0,6.7,6.645h31.518a1.308,1.308,0,1,1,0,2.616Z" transform="translate(-1069.983 -1988.306)" fill="#222"/>
            </g>
          </g>
          <g id="グループ_39" data-name="グループ 39" transform="translate(19.239)">
            <g id="グループ_38" data-name="グループ 38">
              <path id="パス_31" data-name="パス 31" d="M1111.9,2012.855a1.307,1.307,0,0,1-1.308-1.308v-13.978a6.682,6.682,0,0,0-6.7-6.647h-22.3a1.308,1.308,0,0,1,0-2.615h22.3a9.3,9.3,0,0,1,9.317,9.263v13.978A1.308,1.308,0,0,1,1111.9,2012.855Z" transform="translate(-1080.281 -1988.306)" fill="#222"/>
            </g>
          </g>
          <g id="グループ_41" data-name="グループ 41" transform="translate(24.775 34.37)">
            <g id="グループ_40" data-name="グループ 40">
              <path id="パス_32" data-name="パス 32" d="M1084.552,2015.189a1.308,1.308,0,0,1-1.308-1.308v-5.87a1.308,1.308,0,0,1,2.616,0v5.87A1.307,1.307,0,0,1,1084.552,2015.189Z" transform="translate(-1083.244 -2006.703)" fill="#222"/>
            </g>
          </g>
          <g id="グループ_43" data-name="グループ 43" transform="translate(13.618 40.24)">
            <g id="グループ_42" data-name="グループ 42">
              <path id="パス_33" data-name="パス 33" d="M1100.9,2012.461H1078.58a1.308,1.308,0,1,1,0-2.616H1100.9a1.308,1.308,0,0,1,0,2.616Z" transform="translate(-1077.272 -2009.845)" fill="#222"/>
            </g>
          </g>
          <g id="グループ_45" data-name="グループ 45" transform="translate(0 26.35)">
            <g id="グループ_44" data-name="グループ 44">
              <path id="パス_34" data-name="パス 34" d="M1110.818,2005.026h-39.527a1.308,1.308,0,0,1,0-2.616h39.527a1.308,1.308,0,1,1,0,2.616Z" transform="translate(-1069.983 -2002.411)" fill="#222"/>
            </g>
          </g>
          <g id="グループ_47" data-name="グループ 47" transform="translate(24.775 26.35)">
            <g id="グループ_46" data-name="グループ 46">
              <path id="パス_35" data-name="パス 35" d="M1084.552,2009a1.309,1.309,0,0,1-1.308-1.307v-3.976a1.308,1.308,0,0,1,2.616,0v3.976A1.308,1.308,0,0,1,1084.552,2009Z" transform="translate(-1083.244 -2002.411)" fill="#222"/>
            </g>
          </g>
        </g>
        <g id="グループ_50" data-name="グループ 50" transform="translate(39.527 23.118)">
          <g id="グループ_49" data-name="グループ 49">
            <path id="パス_36" data-name="パス 36" d="M1116.349,2020.419h-23.9a1.307,1.307,0,0,1-1.308-1.308v-5.87a1.308,1.308,0,0,1,2.616,0v4.563h21.285V2003.3h-12.568a1.308,1.308,0,1,1,0-2.615h13.876a1.308,1.308,0,0,1,1.308,1.308v17.123A1.308,1.308,0,0,1,1116.349,2020.419Z" transform="translate(-1091.14 -2000.68)" fill="#222"/>
          </g>
        </g>
        <g id="グループ_52" data-name="グループ 52" transform="translate(39.527 23.118)">
          <g id="グループ_51" data-name="グループ 51">
            <path id="パス_37" data-name="パス 37" d="M1092.448,2014.548a1.307,1.307,0,0,1-1.308-1.308v-11.252a1.307,1.307,0,0,1,1.308-1.308h10.025a1.308,1.308,0,1,1,0,2.615h-8.717v9.945A1.308,1.308,0,0,1,1092.448,2014.548Z" transform="translate(-1091.14 -2000.68)" fill="#222"/>
          </g>
        </g>
        <g id="グループ_54" data-name="グループ 54" transform="translate(39.526 23.117)">
          <g id="グループ_53" data-name="グループ 53">
            <path id="パス_38" data-name="パス 38" d="M1104.4,2011.856a1.3,1.3,0,0,1-.76-.245l-11.951-8.56a1.307,1.307,0,0,1,1.523-2.126l11.189,8.015,11.189-8.015a1.308,1.308,0,1,1,1.525,2.126l-11.951,8.56A1.3,1.3,0,0,1,1104.4,2011.856Z" transform="translate(-1091.14 -2000.68)" fill="#222"/>
          </g>
        </g>
      </g>
    </g>
  </g>
</svg>
