<svg xmlns="http://www.w3.org/2000/svg" width="114" height="114" viewBox="0 0 114 114">
  <g id="flow_04" transform="translate(-1034 -5968)">
    <circle id="楕円形_5" data-name="楕円形 5" cx="57" cy="57" r="57" transform="translate(1034 5968)" fill="#fff"/>
    <g id="グループ_57" data-name="グループ 57" transform="translate(1069.093 5992)">
      <g id="グループ_21" data-name="グループ 21">
        <g id="グループ_17" data-name="グループ 17" transform="translate(6.689 23.719)">
          <path id="パス_15" data-name="パス 15" d="M1244.311,2026.885a1.307,1.307,0,0,1-1.308-1.308v-39.054a1.308,1.308,0,1,1,2.615,0v39.054A1.307,1.307,0,0,1,1244.311,2026.885Z" transform="translate(-1243.003 -1985.215)" fill="#222"/>
        </g>
        <g id="グループ_18" data-name="グループ 18" transform="translate(6.689 9.823)">
          <path id="パス_16" data-name="パス 16" d="M1244.311,1988.841a1.307,1.307,0,0,1-1.308-1.308v-8.448a1.308,1.308,0,1,1,2.615,0v8.448A1.307,1.307,0,0,1,1244.311,1988.841Z" transform="translate(-1243.003 -1977.777)" fill="#222"/>
        </g>
        <g id="グループ_19" data-name="グループ 19" transform="translate(1.777)">
          <path id="パス_17" data-name="パス 17" d="M1246.594,1984.958a6.219,6.219,0,1,1,6.216-6.219A6.227,6.227,0,0,1,1246.594,1984.958Zm0-9.823a3.6,3.6,0,1,0,3.6,3.6A3.607,3.607,0,0,0,1246.594,1975.135Z" transform="translate(-1240.374 -1972.52)" fill="#222"/>
        </g>
        <g id="グループ_20" data-name="グループ 20" transform="translate(0 62.774)">
          <path id="パス_18" data-name="パス 18" d="M1254.106,2008.735h-13.375a1.308,1.308,0,1,1,0-2.615h13.375a1.308,1.308,0,1,1,0,2.615Z" transform="translate(-1239.423 -2006.119)" fill="#222"/>
        </g>
      </g>
      <g id="グループ_22" data-name="グループ 22" transform="translate(6.689 39.514)">
        <path id="パス_19" data-name="パス 19" d="M1255.173,1996.284h-10.862a1.308,1.308,0,0,1,0-2.615h10.862a1.308,1.308,0,1,1,0,2.615Z" transform="translate(-1243.003 -1993.669)" fill="#222"/>
      </g>
      <g id="グループ_23" data-name="グループ 23" transform="translate(23.297 39.532)">
        <path id="パス_20" data-name="パス 20" d="M1253.2,1996.278a1.282,1.282,0,0,1-.929-.394,1.26,1.26,0,0,1-.379-.913,1.31,1.31,0,0,1,.379-.929,1.308,1.308,0,0,1,2.236.929,1.321,1.321,0,0,1-1.308,1.308Z" transform="translate(-1251.893 -1993.679)" fill="#222"/>
      </g>
      <g id="グループ_24" data-name="グループ 24" transform="translate(6.689 14.473)">
        <path id="パス_21" data-name="パス 21" d="M1279.546,2007.922h-12.88a1.308,1.308,0,0,1,0-2.616h9.943l-9.3-10.337a1.309,1.309,0,0,1,0-1.749l9.3-10.339h-32.3a1.308,1.308,0,0,1,0-2.615h35.236a1.308,1.308,0,0,1,.971,2.182l-10.477,11.647,10.477,11.645a1.308,1.308,0,0,1-.971,2.182Z" transform="translate(-1243.003 -1980.266)" fill="#222"/>
      </g>
    </g>
  </g>
</svg>
