<svg xmlns="http://www.w3.org/2000/svg" width="114" height="114" viewBox="0 0 114 114">
  <g id="グループ_349" data-name="グループ 349" transform="translate(-794 -3235)">
    <g id="グループ_70" data-name="グループ 70" transform="translate(484 450)">
      <g id="楕円形_6" data-name="楕円形 6" transform="translate(310 2785)" fill="none" stroke="#707070" stroke-width="1">
        <circle cx="57" cy="57" r="57" stroke="none"/>
        <circle cx="57" cy="57" r="56.5" fill="none"/>
      </g>
    </g>
    <g id="グループ_346" data-name="グループ 346" transform="matrix(0.978, -0.208, 0.208, 0.978, 775.1, 3239.632)">
      <path id="パス_189" data-name="パス 189" d="M52.425,71.32A6.051,6.051,0,0,0,51,75.132c0,4.141,6.857,6.72,14.056,6.72a21.488,21.488,0,0,0,10.628-2.578" transform="translate(0 11.259)" fill="none" stroke="#222" stroke-miterlimit="10" stroke-width="2"/>
      <path id="パス_190" data-name="パス 190" d="M51.939,62.031a10.163,10.163,0,0,0-.939,4.4c0,2.4,1.508,4.512,3.771,6.212,6.912,5.2,20.913,6.569,20.913.439,0-4.923-10.425-5.2-17.726-2.143" transform="translate(0 7.81)" fill="none" stroke="#222" stroke-miterlimit="10" stroke-width="2"/>
      <path id="パス_191" data-name="パス 191" d="M52.241,52.212A6.366,6.366,0,0,0,51,55.884c0,14.3,24.616,13.029,24.684,7.09-.045-3.888-10.532-5.743-17.821-2.61" transform="translate(0 4.163)" fill="none" stroke="#222" stroke-miterlimit="10" stroke-width="2"/>
      <path id="パス_192" data-name="パス 192" d="M75.684,43.756A20.458,20.458,0,0,0,65.056,41C57.857,41,51,43.743,51,47.884c0,2.386,1.508,4.388,3.785,5.938,6.912,4.745,20.9,5.266,20.9-.425C75.684,48.115,65.292,48.4,58,51.9" fill="none" stroke="#222" stroke-miterlimit="10" stroke-width="2"/>
    </g>
  </g>
</svg>
