<svg xmlns="http://www.w3.org/2000/svg" width="114" height="114" viewBox="0 0 114 114">
  <g id="グループ_347" data-name="グループ 347" transform="translate(-272 -3235)">
    <g id="グループ_67" data-name="グループ 67" transform="translate(-38 450)">
      <g id="楕円形_6" data-name="楕円形 6" transform="translate(310 2785)" fill="none" stroke="#707070" stroke-width="1">
        <circle cx="57" cy="57" r="57" stroke="none"/>
        <circle cx="57" cy="57" r="56.5" fill="none"/>
      </g>
    </g>
    <g id="グループ_345" data-name="グループ 345" transform="translate(-2272.187 1389.037)">
      <path id="パス_181" data-name="パス 181" d="M2579.48,1924.451a.863.863,0,0,1-.591-.232.879.879,0,0,1-.214-.974l.085-.2a38.072,38.072,0,0,0,2.14-16.708l-.045-.431a.868.868,0,0,1,.491-.872l14.393-6.808c-.733-2.26-.475-4.214.738-5.427,1.163-1.164,3-1.456,5.175-.819a14.344,14.344,0,0,1,5.877,3.688c3.9,3.9,5.158,8.753,2.864,11.046-1.249,1.249-3.258,1.486-5.585.686l-6.774,14.322a.86.86,0,0,1-.883.489l-.445-.052a38.107,38.107,0,0,0-16.719,2.163l-.2.077A.862.862,0,0,1,2579.48,1924.451Zm3.16-18.118a39.9,39.9,0,0,1-1.752,15.845,39.974,39.974,0,0,1,15.847-1.757l6.706-14.18a.854.854,0,0,1,.171-.241l.261-.262a.866.866,0,0,1,.946-.187c1.9.792,3.521.768,4.352-.062,1.384-1.385.563-5.169-2.865-8.6a12.6,12.6,0,0,0-5.139-3.251c-1.514-.443-2.779-.3-3.465.382h0c-.8.8-.849,2.367-.127,4.189a.869.869,0,0,1-.193.932l-.314.313a.884.884,0,0,1-.242.17Zm14.45-12.924h0Z" transform="translate(0 1.382)" fill="#201600"/>
      <path id="パス_182" data-name="パス 182" d="M2609.791,1902.384a.865.865,0,0,1-.612-1.477c.87-.871.664-2.35.464-3.156a.866.866,0,0,1,1.68-.417,4.885,4.885,0,0,1-.921,4.8A.862.862,0,0,1,2609.791,1902.384Z" transform="translate(3.922 2.033)" fill="#201600"/>
      <path id="パス_183" data-name="パス 183" d="M2598.552,1890.793a.865.865,0,0,1-.612-1.477,4.882,4.882,0,0,1,4.8-.923.866.866,0,0,1-.416,1.681c-.808-.2-2.287-.406-3.156.465A.862.862,0,0,1,2598.552,1890.793Z" transform="translate(2.468 0.932)" fill="#201600"/>
      <path id="パス_184" data-name="パス 184" d="M2594.788,1899.015a.865.865,0,0,1-.612-1.477l2.72-2.721a.865.865,0,0,1,1.223,1.224l-2.719,2.721A.867.867,0,0,1,2594.788,1899.015Z" transform="translate(1.981 1.76)" fill="#201600"/>
      <path id="パス_185" data-name="パス 185" d="M2601.62,1905.946a.865.865,0,0,1-.611-1.478l2.773-2.772a.865.865,0,0,1,1.223,1.223l-2.773,2.774A.866.866,0,0,1,2601.62,1905.946Z" transform="translate(2.865 2.649)" fill="#201600"/>
      <path id="パス_186" data-name="パス 186" d="M2590.862,1913.912a4.45,4.45,0,1,1,3.147-1.3A4.435,4.435,0,0,1,2590.862,1913.912Zm0-7.169a2.721,2.721,0,0,0-1.925,4.644,2.786,2.786,0,0,0,3.848,0,2.72,2.72,0,0,0-1.923-4.644Z" transform="translate(1.009 3.111)" fill="#201600"/>
      <path id="パス_187" data-name="パス 187" d="M2579.662,1921.936a.865.865,0,0,1-.612-1.477l9.716-9.716a.865.865,0,0,1,1.223,1.223l-9.716,9.717A.862.862,0,0,1,2579.662,1921.936Z" transform="translate(0.024 3.82)" fill="#201600"/>
      <path id="パス_188" data-name="パス 188" d="M2611.482,1900.441a.832.832,0,0,1-.234-.033.867.867,0,0,1-.607-.629,13.63,13.63,0,0,0-8.774-8.773.866.866,0,0,1-.406-1.453l8.337-8.337a.865.865,0,0,1,1.223,1.224l-7.342,7.342a15.038,15.038,0,0,1,4.857,3.335,15.235,15.235,0,0,1,3.327,4.853l7.344-7.344a.865.865,0,0,1,1.224,1.223l-8.338,8.338A.862.862,0,0,1,2611.482,1900.441Z" transform="translate(2.924 0)" fill="#201600"/>
    </g>
  </g>
</svg>
