<svg xmlns="http://www.w3.org/2000/svg" width="114" height="114" viewBox="0 0 114 114">
  <g id="グループ_353" data-name="グループ 353" transform="translate(-407 -3506)">
    <g id="グループ_67" data-name="グループ 67" transform="translate(97 721)">
      <g id="楕円形_6" data-name="楕円形 6" transform="translate(310 2785)" fill="none" stroke="#707070" stroke-width="1">
        <circle cx="57" cy="57" r="57" stroke="none"/>
        <circle cx="57" cy="57" r="56.5" fill="none"/>
      </g>
    </g>
    <g id="グループ_344" data-name="グループ 344" transform="translate(-1828.89 1669.4)">
      <g id="グループ_333" data-name="グループ 333" transform="translate(2293.194 1871.775)">
        <path id="パス_170" data-name="パス 170" d="M2287.214,1878.286a1.056,1.056,0,0,1-1.055-1.055v-6.477a1.056,1.056,0,0,1,2.111,0v6.477A1.056,1.056,0,0,1,2287.214,1878.286Z" transform="translate(-2286.159 -1869.698)" fill="#222"/>
      </g>
      <g id="グループ_334" data-name="グループ 334" transform="translate(2287.229 1871.775)">
        <path id="パス_171" data-name="パス 171" d="M2282.977,1878.286a1.056,1.056,0,0,1-1.056-1.055v-6.477a1.055,1.055,0,1,1,2.111,0v6.477A1.056,1.056,0,0,1,2282.977,1878.286Z" transform="translate(-2281.921 -1869.698)" fill="#222"/>
      </g>
      <g id="グループ_335" data-name="グループ 335" transform="translate(2281.567 1864.6)">
        <path id="パス_172" data-name="パス 172" d="M2293.427,1873.227h-11.658a3.874,3.874,0,0,1-3.87-3.87v-.886a3.874,3.874,0,0,1,3.87-3.87h11.658a3.873,3.873,0,0,1,3.87,3.87v.886A3.873,3.873,0,0,1,2293.427,1873.227Zm-11.658-6.516a1.762,1.762,0,0,0-1.759,1.759v.886a1.762,1.762,0,0,0,1.759,1.759h11.658a1.761,1.761,0,0,0,1.759-1.759v-.886a1.761,1.761,0,0,0-1.759-1.759Z" transform="translate(-2277.898 -1864.6)" fill="#222"/>
      </g>
      <g id="グループ_336" data-name="グループ 336" transform="translate(2268.89 1878.259)">
        <path id="パス_173" data-name="パス 173" d="M2291.264,1919.052a22.368,22.368,0,1,1,22.374-22.373A22.4,22.4,0,0,1,2291.264,1919.052Zm0-42.636a20.275,20.275,0,1,0,17.392,9.874,20.269,20.269,0,0,0-17.392-9.874Z" transform="translate(-2268.89 -1874.305)" fill="#222"/>
      </g>
      <g id="グループ_337" data-name="グループ 337" transform="translate(2302.746 1877.561)">
        <path id="パス_174" data-name="パス 174" d="M2299.763,1887a.986.986,0,0,1-.131-.009,1.057,1.057,0,0,1-.777-.507,20.081,20.081,0,0,0-5.475-5.992,1.056,1.056,0,0,1-.126-1.6l4.332-4.346a2.537,2.537,0,0,1,3.586,0l3.95,3.964a2.528,2.528,0,0,1,0,3.569h0l-4.612,4.611A1.055,1.055,0,0,1,2299.763,1887Zm-4.167-7.466a22.157,22.157,0,0,1,4.35,4.734l3.682-3.681a.414.414,0,0,0,0-.586l-3.95-3.963a.432.432,0,0,0-.6,0Zm8.778,1.8h0Z" transform="translate(-2292.946 -1873.809)" fill="#222"/>
      </g>
      <g id="グループ_338" data-name="グループ 338" transform="translate(2290.209 1878.259)">
        <path id="パス_175" data-name="パス 175" d="M2285.094,1881.754a1.056,1.056,0,0,1-1.055-1.055v-5.338a1.056,1.056,0,0,1,2.111,0v5.338A1.056,1.056,0,0,1,2285.094,1881.754Z" transform="translate(-2284.038 -1874.305)" fill="#222"/>
      </g>
      <g id="グループ_339" data-name="グループ 339" transform="translate(2290.209 1915.555)">
        <path id="パス_176" data-name="パス 176" d="M2285.094,1908.257a1.056,1.056,0,0,1-1.055-1.056v-5.339a1.056,1.056,0,1,1,2.111,0v5.339A1.056,1.056,0,0,1,2285.094,1908.257Z" transform="translate(-2284.038 -1900.806)" fill="#222"/>
      </g>
      <g id="グループ_340" data-name="グループ 340" transform="translate(2306.188 1899.577)">
        <path id="パス_177" data-name="パス 177" d="M2301.787,1891.564h-5.339a1.056,1.056,0,0,1,0-2.111h5.339a1.056,1.056,0,1,1,0,2.111Z" transform="translate(-2295.392 -1889.453)" fill="#222"/>
      </g>
      <g id="グループ_341" data-name="グループ 341" transform="translate(2268.89 1899.577)">
        <path id="パス_178" data-name="パス 178" d="M2275.285,1891.564h-5.34a1.056,1.056,0,0,1,0-2.111h5.34a1.056,1.056,0,0,1,0,2.111Z" transform="translate(-2268.89 -1889.453)" fill="#222"/>
      </g>
      <g id="グループ_342" data-name="グループ 342" transform="translate(2284.975 1894.67)">
        <path id="パス_179" data-name="パス 179" d="M2286.1,1897.524a5.779,5.779,0,1,1,5.78-5.779A5.785,5.785,0,0,1,2286.1,1897.524Zm0-9.448a3.668,3.668,0,1,0,3.669,3.669A3.672,3.672,0,0,0,2286.1,1888.077Z" transform="translate(-2280.319 -1885.966)" fill="#222"/>
      </g>
      <g id="グループ_343" data-name="グループ 343" transform="translate(2280.038 1889.733)">
        <path id="パス_180" data-name="パス 180" d="M2284.187,1890.889a1.059,1.059,0,0,1-.747-.31l-6.319-6.319a1.056,1.056,0,0,1,1.493-1.493l6.319,6.319a1.056,1.056,0,0,1-.746,1.8Z" transform="translate(-2276.811 -1882.458)" fill="#222"/>
      </g>
    </g>
  </g>
</svg>
