<svg xmlns="http://www.w3.org/2000/svg" width="114" height="114" viewBox="0 0 114 114">
  <g id="グループ_348" data-name="グループ 348" transform="translate(-533 -3235)">
    <g id="グループ_69" data-name="グループ 69" transform="translate(223 450)">
      <g id="楕円形_6" data-name="楕円形 6" transform="translate(310 2785)" fill="none" stroke="#707070" stroke-width="1">
        <circle cx="57" cy="57" r="57" stroke="none"/>
        <circle cx="57" cy="57" r="56.5" fill="none"/>
      </g>
    </g>
    <g id="グループ_314" data-name="グループ 314" transform="translate(471.842 2671.738)">
      <g id="グループ_293" data-name="グループ 293" transform="translate(90.158 623.716)">
        <g id="グループ_288" data-name="グループ 288">
          <g id="グループ_287" data-name="グループ 287">
            <g id="グループ_286" data-name="グループ 286">
              <g id="グループ_285" data-name="グループ 285">
                <path id="パス_156" data-name="パス 156" d="M105.629,658.81a4.188,4.188,0,0,1-3.128-1.41L92.142,645.724a7.9,7.9,0,0,1-1.4-8.239,7.285,7.285,0,0,1,6.236-4.682c.238-.02.481-.029.725-.029a8.835,8.835,0,0,1,7.924,4.984,8.835,8.835,0,0,1,7.924-4.984q.366,0,.725.029a7.284,7.284,0,0,1,6.235,4.682,7.9,7.9,0,0,1-1.4,8.239l-1.606,1.811a.908.908,0,0,1-1.358-1.206l1.607-1.811a6.1,6.1,0,0,0,1.069-6.359,5.5,5.5,0,0,0-4.7-3.547c-.19-.016-.382-.024-.575-.024a7.069,7.069,0,0,0-7.016,7.106.908.908,0,1,1-1.815,0,7.069,7.069,0,0,0-7.016-7.106q-.29,0-.575.024a5.5,5.5,0,0,0-4.7,3.547,6.1,6.1,0,0,0,1.069,6.358l10.359,11.676a2.409,2.409,0,0,0,3.54,0l2.473-2.786a.908.908,0,0,1,1.358,1.206l-2.473,2.786A4.188,4.188,0,0,1,105.629,658.81Z" transform="translate(-90.158 -632.774)" fill="#222"/>
              </g>
            </g>
          </g>
        </g>
        <g id="グループ_292" data-name="グループ 292" transform="translate(18.221 9.074)">
          <g id="グループ_291" data-name="グループ 291">
            <g id="グループ_290" data-name="グループ 290">
              <g id="グループ_289" data-name="グループ 289">
                <path id="パス_157" data-name="パス 157" d="M135.892,659.036a.935.935,0,0,1-.175-.016.907.907,0,0,1-.7-.656l-2.929-10.923-3.581,5.629a.91.91,0,0,1-.766.42H114.221a.908.908,0,1,1,0-1.815h13.02l4.422-6.949a.908.908,0,0,1,1.642.253l2.982,11.125,3.137-4.141a.908.908,0,0,1,.724-.36h4.925a.908.908,0,0,1,0,1.815H140.6l-3.984,5.259A.908.908,0,0,1,135.892,659.036Z" transform="translate(-113.313 -644.305)" fill="#222"/>
              </g>
            </g>
          </g>
        </g>
      </g>
      <g id="グループ_297" data-name="グループ 297" transform="translate(134.168 590.262)">
        <g id="グループ_296" data-name="グループ 296" transform="translate(0)">
          <g id="グループ_295" data-name="グループ 295">
            <g id="グループ_294" data-name="グループ 294">
              <path id="パス_158" data-name="パス 158" d="M146.991,597.478a.907.907,0,0,1-.662-1.528l5.063-5.4a.907.907,0,1,1,1.324,1.241l-5.063,5.4A.906.906,0,0,1,146.991,597.478Z" transform="translate(-146.084 -590.262)" fill="#222"/>
            </g>
          </g>
        </g>
      </g>
      <g id="グループ_301" data-name="グループ 301" transform="translate(139.28 590.263)">
        <g id="グループ_300" data-name="グループ 300" transform="translate(0 0)">
          <g id="グループ_299" data-name="グループ 299">
            <g id="グループ_298" data-name="グループ 298">
              <path id="パス_159" data-name="パス 159" d="M158.549,597.478a.906.906,0,0,1-.662-.287l-5.063-5.4a.907.907,0,1,1,1.324-1.241l5.063,5.4a.907.907,0,0,1-.663,1.528Z" transform="translate(-152.579 -590.263)" fill="#222"/>
            </g>
          </g>
        </g>
      </g>
      <g id="グループ_305" data-name="グループ 305" transform="translate(139.232 590.262)">
        <g id="グループ_304" data-name="グループ 304" transform="translate(0)">
          <g id="グループ_303" data-name="グループ 303">
            <g id="グループ_302" data-name="グループ 302">
              <path id="パス_160" data-name="パス 160" d="M153.426,607.244a.907.907,0,0,1-.908-.908V591.169a.908.908,0,0,1,1.815,0v15.167A.907.907,0,0,1,153.426,607.244Z" transform="translate(-152.518 -590.262)" fill="#222"/>
            </g>
          </g>
        </g>
      </g>
      <g id="グループ_309" data-name="グループ 309" transform="translate(139.233 609.616)">
        <g id="グループ_308" data-name="グループ 308" transform="translate(0 0)">
          <g id="グループ_307" data-name="グループ 307">
            <g id="グループ_306" data-name="グループ 306">
              <path id="パス_161" data-name="パス 161" d="M153.427,616.657a.9.9,0,0,1-.645-.264.91.91,0,0,1,0-1.28.933.933,0,0,1,1.289,0,.9.9,0,0,1-.645,1.543Z" transform="translate(-152.52 -614.855)" fill="#222"/>
            </g>
          </g>
        </g>
      </g>
      <g id="グループ_313" data-name="グループ 313" transform="translate(139.232 613.777)">
        <g id="グループ_312" data-name="グループ 312" transform="translate(0 0)">
          <g id="グループ_311" data-name="グループ 311">
            <g id="グループ_310" data-name="グループ 310">
              <path id="パス_162" data-name="パス 162" d="M153.426,648.269a.908.908,0,0,1-.908-.908v-26.31a.908.908,0,0,1,1.815,0v26.31A.907.907,0,0,1,153.426,648.269Z" transform="translate(-152.518 -620.144)" fill="#222"/>
            </g>
          </g>
        </g>
      </g>
    </g>
  </g>
</svg>
