<?xml version="1.0" encoding="utf-8"?>
<!-- Generator: Adobe Illustrator 24.0.3, SVG Export Plug-In . SVG Version: 6.00 Build 0)  -->
<svg version="1.1" id="レイヤー_1" xmlns="http://www.w3.org/2000/svg" xmlns:xlink="http://www.w3.org/1999/xlink" x="0px"
	 y="0px" viewBox="0 0 189 24" style="enable-background:new 0 0 189 24;" xml:space="preserve">
<style type="text/css">
	.st0{clip-path:url(#SVGID_2_);fill:#FF6200;}
	.st1{clip-path:url(#SVGID_2_);fill:#233241;}
</style>
<g>
	<defs>
		<rect id="SVGID_1_" width="189" height="24"/>
	</defs>
	<clipPath id="SVGID_2_">
		<use xlink:href="#SVGID_1_"  style="overflow:visible;"/>
	</clipPath>
	<path class="st0" d="M5.8,11.1c2.7-2,5.2-4.2,7.6-6.6c0.2-0.2,0.3-0.5,0.3-0.8c0-0.3-0.1-0.6-0.3-0.8l-0.1-0.1
		c-0.3-0.2-2.9-2.5-3.2-2.7C9.6-0.3,8.9,0.3,9.3,1c0.4,0.7,1.1,1.9,1.6,2.6C10.5,3.9,5.5,9.5,5,10.2C4.5,10.9,5,11.7,5.8,11.1
		L5.8,11.1z M17.6,8.1c0.6-0.8,0-1.6-0.9-0.9c-0.6,0.4-9.4,8.2-11,9.9c-1.6-1.4-3.3-2.8-3.7-3.1c-0.1-0.1-0.3-0.2-0.5-0.2
		c-0.2,0-0.3,0.1-0.4,0.2C1,14.1,1,14.3,1,14.4c0,0.1,0.1,0.3,0.1,0.4c1.2,1.7,2.5,3.2,3.9,4.7c0.2,0.2,0.4,0.4,0.7,0.4
		c0.3,0,0.6,0,0.8-0.2l0.1-0.1C10.7,16.2,14.4,12.3,17.6,8.1z M21.8,12.4c-3.2,4.4-7.1,8.3-11.6,11.4c-0.9,0.6-1.4-0.2-0.9-0.9
		c3.4-4.3,7.3-8.1,11.6-11.4C21.7,11,22.3,11.7,21.8,12.4z"/>
	<path class="st1" d="M102.8,5.6h2.9v13.1h-2.9V5.6z M94.1,12c1.4,0,2.2-0.8,2.2-1.9c0-1.2-0.8-1.9-2.2-1.9h-2.8V12H94.1z M88.3,5.5
		h5.9c0.7,0,1.4,0.1,2,0.3c0.7,0.2,1.3,0.6,1.8,1.1c0.4,0.4,0.7,0.9,0.9,1.4c0.2,0.5,0.3,1.1,0.3,1.6c0.1,0.9-0.2,1.8-0.7,2.5
		c-0.5,0.7-1.2,1.3-2.1,1.6l3.2,4.7h-3.3l-2.8-4.2h-2.2v4.2h-2.9L88.3,5.5z M80.2,13.2l-1.7-4.3l-1.7,4.3H80.2z M77.2,5.5h2.6
		l5.6,13.3h-3l-1.2-2.9h-5.5l-1.2,2.9h-2.9L77.2,5.5z M56.6,12.2c0-0.9,0.2-1.8,0.5-2.6c0.3-0.8,0.8-1.6,1.4-2.2
		c0.6-0.6,1.3-1.1,2.2-1.5c0.8-0.3,1.7-0.5,2.6-0.5h0.2c0.9,0,1.9,0.1,2.7,0.4c0.9,0.3,1.7,0.8,2.4,1.4l-1.8,2.2
		C65.8,8.5,64.6,8,63.3,8c-1,0.1-2,0.5-2.7,1.3c-0.7,0.8-1.1,1.8-1,2.8c-0.1,1,0.3,2.1,1,2.8c0.7,0.8,1.7,1.3,2.7,1.3h0.3
		c1,0,1.9-0.2,2.7-0.8v-1.9h-2.9v-2.5H69v5.7c-1.5,1.4-3.5,2.1-5.6,2.1c-0.9,0-1.7-0.1-2.5-0.4c-0.8-0.3-1.6-0.7-2.2-1.3
		c-0.6-0.6-1.2-1.3-1.5-2.1c-0.4-0.8-0.6-1.6-0.6-2.5C56.6,12.5,56.6,12.3,56.6,12.2L56.6,12.2z M49.9,13.2l-1.7-4.3l-1.7,4.3H49.9z
		 M46.9,5.5h2.6l5.6,13.3h-3l-1.2-2.9h-5.5l-1.2,2.9h-2.9L46.9,5.5z M28.3,5.5h2.9v5.8l5.3-5.8h3.5l-5.3,5.6l5.5,7.6h-3.4l-4-5.6
		l-1.5,1.6v4h-2.9V5.5z"/>
	<path class="st1" d="M186.9,13c0-0.2,0-0.5-0.1-0.7c-0.1-0.5-0.4-0.9-0.8-1.3c-0.4-0.3-0.9-0.5-1.4-0.5c-1.6,0-2.7,1.3-2.7,3.4
		c0,1.8,0.9,3.2,2.6,3.2c0.5,0,1-0.2,1.4-0.5c0.4-0.3,0.7-0.7,0.9-1.2c0.1-0.3,0.1-0.6,0.1-0.9V13z M188.6,9.4
		c0,0.6-0.1,1.3-0.1,2.4V17c0,2.1-0.4,3.3-1.3,4.1c-0.9,0.8-2.1,1.2-3.3,1.1c-1,0-2.1-0.2-3-0.7l0.4-1.2c0.8,0.5,1.7,0.7,2.6,0.7
		c1.7,0,2.9-0.9,2.9-3.1v-1c-0.3,0.5-0.7,0.9-1.2,1.1c-0.5,0.3-1.1,0.4-1.6,0.4c-2.2,0-3.8-1.9-3.8-4.4c0-3,2-4.7,4-4.7
		c0.6,0,1.1,0.1,1.6,0.4c0.5,0.3,0.9,0.7,1.2,1.2l0.1-1.3L188.6,9.4z M171.5,11.8c0-0.9,0-1.7-0.1-2.4h1.4l0.1,1.5
		c0.3-0.5,0.7-1,1.3-1.3c0.5-0.3,1.1-0.4,1.7-0.4c1.2,0,3.2,0.7,3.2,3.8v5.3h-1.6v-5.1c0-1.4-0.6-2.6-2.1-2.6c-0.5,0-1,0.2-1.4,0.5
		c-0.4,0.3-0.7,0.7-0.8,1.2c-0.1,0.2-0.1,0.5-0.1,0.8v5.4h-1.6V11.8z M167.6,18.4V9.5h1.6v8.9L167.6,18.4z M169.4,6.9
		c0,0.2-0.1,0.4-0.2,0.6c-0.1,0.2-0.3,0.3-0.4,0.4c-0.2,0.1-0.4,0.1-0.6,0.1c-0.2,0-0.4-0.1-0.5-0.3c-0.1-0.1-0.2-0.3-0.3-0.5
		c0-0.2,0-0.4,0.1-0.6c0.1-0.2,0.2-0.3,0.4-0.4c0.2-0.1,0.4-0.2,0.6-0.2c0.1,0,0.3,0,0.4,0.1c0.1,0.1,0.2,0.1,0.3,0.2
		c0.1,0.1,0.2,0.2,0.2,0.3C169.4,6.7,169.5,6.8,169.4,6.9L169.4,6.9z M163.9,6.9v2.6h2.3v1.2h-2.3v4.8c0,1.1,0.3,1.8,1.2,1.8
		c0.3,0,0.6,0,0.9-0.1l0.1,1.2c-0.5,0.2-1,0.2-1.4,0.2c-0.3,0-0.6,0-0.9-0.2c-0.3-0.1-0.6-0.3-0.8-0.5c-0.5-0.7-0.7-1.5-0.6-2.3
		v-4.9H161V9.5h1.4V7.3L163.9,6.9z M158.1,5.3h1.6v13.1h-1.6V5.3z M155.8,16c0,0.9,0,1.7,0.1,2.4h-1.4l-0.1-1.5
		c-0.3,0.5-0.7,1-1.3,1.2c-0.5,0.3-1.1,0.4-1.7,0.4c-1.4,0-3.1-0.8-3.1-3.9V9.5h1.6v4.9c0,1.7,0.5,2.9,2,2.9c0.5,0,0.9-0.2,1.3-0.4
		c0.4-0.3,0.7-0.6,0.9-1.1c0.1-0.3,0.1-0.5,0.1-0.8V9.5h1.6V16z M141.3,16.8c0.7,0.4,1.4,0.6,2.2,0.6c1.2,0,1.7-0.6,1.7-1.3
		c0-0.7-0.5-1.2-1.7-1.6c-1.6-0.6-2.4-1.5-2.4-2.5c0-1.4,1.2-2.6,3.1-2.6c0.8,0,1.5,0.2,2.2,0.6L146,11c-0.6-0.3-1.2-0.5-1.8-0.5
		c-1,0-1.5,0.6-1.5,1.2s0.5,1.1,1.7,1.5c1.5,0.6,2.3,1.4,2.3,2.7c0,1.6-1.2,2.7-3.3,2.7c-0.9,0-1.7-0.2-2.5-0.6L141.3,16.8z
		 M131.7,11.9c0-0.9,0-1.7-0.1-2.4h1.4l0.1,1.5h0.1c0.3-0.5,0.7-1,1.2-1.2c0.5-0.3,1.1-0.4,1.7-0.4c1.2,0,3.1,0.7,3.1,3.8v5.3h-1.6
		v-5.2c0-1.4-0.5-2.6-2.1-2.6c-0.5,0-1,0.2-1.4,0.5c-0.4,0.3-0.7,0.7-0.8,1.2c-0.1,0.2-0.1,0.5-0.1,0.8v5.4h-1.6V11.9z M123,13.9
		c0,2,1.1,3.4,2.7,3.4c1.6,0,2.7-1.5,2.7-3.5c0-1.5-0.8-3.4-2.7-3.4S123,12.2,123,13.9L123,13.9z M130.1,13.9c0.1,0.6,0,1.2-0.2,1.8
		c-0.2,0.6-0.5,1.1-0.9,1.6c-0.4,0.4-0.9,0.8-1.5,1c-0.6,0.2-1.2,0.4-1.8,0.3c-0.6,0-1.2-0.1-1.7-0.3c-0.5-0.2-1-0.6-1.4-1
		c-0.4-0.4-0.7-0.9-0.9-1.5c-0.2-0.6-0.3-1.2-0.2-1.7c0-3,2-4.7,4.4-4.7C128.2,9.3,130.1,11.1,130.1,13.9L130.1,13.9z M120.7,18
		c-1,0.4-2.2,0.6-3.3,0.6c-3.5,0-6.1-2.2-6.1-6.3c-0.1-0.9,0.1-1.7,0.4-2.6c0.3-0.8,0.8-1.6,1.4-2.2c0.6-0.6,1.3-1.1,2.2-1.4
		c0.8-0.3,1.7-0.5,2.6-0.4c1,0,2.1,0.1,3,0.5l-0.4,1.3c-0.8-0.4-1.6-0.5-2.5-0.5c-3,0-4.9,1.9-4.9,5.1c0,3,1.8,5,4.8,5
		c0.9,0,1.8-0.2,2.6-0.5L120.7,18z"/>
</g>
</svg>
