<svg xmlns="http://www.w3.org/2000/svg" viewBox="0 0 200.63 35.25"><defs><style>.cls-1{fill:#231815;}.cls-2{fill:#f7b200;}</style></defs><title>アセット 85</title><g id="レイヤー_2" data-name="レイヤー 2"><g id="レイヤー_1-2" data-name="レイヤー 1"><path class="cls-1" d="M43,14.73h.32a1.62,1.62,0,0,1,1.61,1.63V32H54a1.62,1.62,0,0,1,1.61,1.63h0A1.62,1.62,0,0,1,54,35.25H43.48a2.11,2.11,0,0,1-2.1-2.13V16.36A1.62,1.62,0,0,1,43,14.73Z"/><path class="cls-1" d="M71.74,14.59h0a2.54,2.54,0,0,1,2.32,1.53l7.23,16.69a1.75,1.75,0,0,1-1.58,2.44h0a1.72,1.72,0,0,1-1.59-1.07L76.5,30.29H66.88l-1.65,3.93a1.69,1.69,0,0,1-1.54,1h0a1.68,1.68,0,0,1-1.53-2.37l7.26-16.76A2.52,2.52,0,0,1,71.74,14.59ZM75.19,27.1l-3.51-8.21L68.19,27.1Z"/><path class="cls-1" d="M91,14.73h0a2.45,2.45,0,0,1,2.07,1.14l5.46,8.56L104,15.87a2.48,2.48,0,0,1,2.07-1.14h0a2.49,2.49,0,0,1,2.47,2.49V33.46a1.79,1.79,0,0,1-1.78,1.79h0A1.78,1.78,0,0,1,105,33.46V20.54l-5.1,7.69a1.59,1.59,0,0,1-2.65,0L92.1,20.59V33.46a1.78,1.78,0,0,1-1.77,1.79h0a1.78,1.78,0,0,1-1.77-1.79V17.22A2.48,2.48,0,0,1,91,14.73Z"/><path class="cls-1" d="M116.71,16.52a1.79,1.79,0,0,1,1.78-1.79h6.24a9.83,9.83,0,0,1,3.21.49,6.71,6.71,0,0,1,2.44,1.39,6.1,6.1,0,0,1,1.54,2.17,7.08,7.08,0,0,1,.54,2.81v.06a6.76,6.76,0,0,1-.64,3,6.23,6.23,0,0,1-1.75,2.18,7.68,7.68,0,0,1-2.59,1.34,10.89,10.89,0,0,1-3.17.45h-4v4.81a1.78,1.78,0,0,1-1.77,1.79h0a1.79,1.79,0,0,1-1.78-1.79Zm7.72,8.88a4.72,4.72,0,0,0,3.22-1,3.38,3.38,0,0,0,1.18-2.65v-.06a3.27,3.27,0,0,0-1.2-2.75,5.11,5.11,0,0,0-3.2-.92h-4.17V25.4Z"/><path class="cls-1" d="M152.52,33.18h.06a.6.6,0,0,0,.4-.42s.07,0,.1,0c.4,0,.48-.56.72-.72a1.39,1.39,0,0,0,.69-.43c.26.06.26.27.45.37-.58.14-.58.83-1,1.09s-.18.61-.66.61c-.24,0-.69.64-.83.64a1.71,1.71,0,0,1-.9.32,2.49,2.49,0,0,1-.9-.26v-.08c0-.06-.14-.14-.16-.16h0a2,2,0,0,1-.13-.75s.05,0,.05-.1a1,1,0,0,0-.05-.16c0-.08.1,0,.13-.08v-.67c0-.18,0-.37.08-.4a3,3,0,0,1-.08-.58.51.51,0,0,1,0-.21v-.06s0,0,0-.1a.48.48,0,0,1,.19-.37.77.77,0,0,1-.08-.4c0-.32.08-.56.1-.83a.56.56,0,0,1,0-.1c0-.05.05-.08.05-.13a1.93,1.93,0,0,0-.05-.32,2.79,2.79,0,0,0,.08-.61c0-.16-.08-.35-.08-.48a.18.18,0,0,1,.1-.19c-.05-.05-.05-.1-.08-.18l0-.32s-.06-.19-.16-.19a.8.8,0,0,0-.19.24h-.1c-.32,0-.4.45-.4.5s.05.11.1.22V28h-.08c-.31,0-.29.27-.53.32.06.05.08,0,.08.11,0,.37-.64.74-.87.95,0,.13,0,.16,0,.16s-.24.19-.24.45v.22h0c-.13,0-.08.07-.21.07l-.05,0c0,.05,0,.08,0,.1s.11.14.13.27h0a1.1,1.1,0,0,0-.48.69c0,.08,0,.08,0,.13-.61.08-.72,1.46-.74,1.57s-.24,0-.24.11a.62.62,0,0,0,0,.1s-.08.06-.08.14c-.3-.06-.35-.35-.67-.35a.55.55,0,0,0-.42.27c-.14-.06-.3-.08-.35-.24a.15.15,0,0,0-.08,0,.4.4,0,0,1-.4-.39c0-.06,0-.14,0-.19s0-.11-.16-.11a.47.47,0,0,0,.08-.29v-.16c0-.16.11-.16.11-.24s-.06-.45-.06-.58a7.13,7.13,0,0,1,.14-1.06c0-.22-.06-.46-.06-.64s.11-.27.11-.35-.13-.13-.13-.24a3.14,3.14,0,0,0,.1-.37s-.05-.08-.05-.1a5.32,5.32,0,0,0,.05-.62s-.05-.05-.05-.08a.44.44,0,0,1,.08-.26.27.27,0,0,1-.13-.16v-.05a.4.4,0,0,0,0-.19c0-.21-.11-.53-.11-.72a.48.48,0,0,0-.47.24h0c-.19,0-.32.51-.69.61-.45,1-.83.75-.83,1.07a.67.67,0,0,0,.06.16c-.24,0-.19.18-.24.34-.29.16-.56.48-.56.61v0c0,.08-.11.16-.11.29s.06.05.06.08c-.22,0-.37.05-.37.29V30a3.13,3.13,0,0,0-.7,1.2c0,.1,0,.18,0,.26a.63.63,0,0,1-.18.32v.08h-.08l0,0h-.13a2.32,2.32,0,0,0-.43,1.22c-.16.21-.47.37-.47.69a.57.57,0,0,0,0,.24.46.46,0,0,1-.24.08.86.86,0,0,0,0,.13c0,.45-.45.32-.48.48a.21.21,0,0,1-.21-.18v-.06h0c-.24,0-.19.16-.45.16,0-.05-.77,0-.77-.77a.67.67,0,0,1,.24-.45.59.59,0,0,1,0-.21.45.45,0,0,1,.16-.38c-.05,0-.08,0-.08-.07v-.3c.21,0,.11-.24.29-.26a.08.08,0,0,1,0-.08c0-.06.08-.35.13-.35a1.08,1.08,0,0,1,0-.16c0-.13.13-.13.13-.29s0,0,0-.08,0-.08,0-.11.05-.26.21-.26a.1.1,0,0,1-.05-.08c0-.11.08-.13.08-.16s0,0-.06,0,.06-.16.06-.18v-.11c.08,0,.05-.13.18-.13h.06v-.08c0-.29.24-.43.24-.69v-.08c.29-.21.15-1.06.47-1.06,0,0,0-.06,0-.06s.08-.1.1-.13c.14-.53-.08-.51.27-.64a.86.86,0,0,1,0-.13,1.89,1.89,0,0,1,.4-1v-.19s.08.06.08-.16v-.21c0-.29.13-.1.16-.24a.34.34,0,0,0,0-.08s.19-.26.27-.29c0-.32,0-.26.24-.69v-.9c.1-.11.24-.16.29-.32a3.07,3.07,0,0,0,.5.1c.08,0,.08.08.16.08s.91.22.91.8c0,.05.05.08.05.13a8.6,8.6,0,0,1-.5,1.33,1,1,0,0,0-.56.45v.06c0,.26-.13.63-.21.63-.4,0-.51.56-.51.64a6.66,6.66,0,0,1-.08.67s-.05.08-.13.13c-.37.32-.56.53-.56.88v.13c0,.13,0,.21-.08.21s-.24.59-.34.59c-.14,1-.67.71-.72,1.43-.11,0-.13.13-.13.27s0,.18.1.18.16-.08.16-.13,0-.11,0-.19c.4-.08.24-.34.4-.4s.48-.93,1-1.08c0,0,0,0,0-.08s.05-.11.13-.11,0,0,0-.11.27-.26.27-.5v-.05a1.54,1.54,0,0,1,.42-.35c0-.05,0-.13,0-.16s.13-.16.13-.32h0c.08,0,.08-.13.15-.13h.08a1.06,1.06,0,0,0,.43-.72.32.32,0,0,0,0-.16c.11,0,.08-.08.11-.1a.75.75,0,0,0,.11,0s.05,0,.05,0a.1.1,0,0,0,0-.06c0-.08.16,0,.19-.1s0-.24.16-.32h0a4.13,4.13,0,0,0,.3-.45s.37-.54.53-.54a10.82,10.82,0,0,1,.66-.93v-.1c.05-.05.32,0,.4,0s.29.08.29.11h.11a.07.07,0,0,0,0,.05.09.09,0,0,0,.06,0h.1v0a3.13,3.13,0,0,0,.48.21c.11.3.48.51.48.75,0,.08-.08.08-.08.13a4.94,4.94,0,0,1,.26.69c0,.05-.05,0-.05.08,0,.21.05.37.05.45s-.13.08-.21.24a.34.34,0,0,1,0,.16c0,.13-.11.19-.11.27,0,.53.11.37.11,1,0,.22-.08.43-.08.59a1.72,1.72,0,0,0,.21.48v.05c0,.18-.19.24-.19.32s0,.13,0,.13c-.11.16-.37.05-.21.35.26-.06.26-.32.5-.43a.75.75,0,0,1,0-.11c0-.13.5-.5.5-.71,0,0,0-.06,0-.11s.58-.5.58-.58v-.16c.08,0,.05-.16.13-.16h.08s.06,0,.06-.08v-.06s0-.05,0-.05h0c.06,0,.14-.1.14-.1a.15.15,0,0,0,0-.11c0-.05.13,0,.16-.05s.13-.4.16-.4h.05c-.13-.06.4-.51.4-.48s0-.08,0-.11a.77.77,0,0,0,.56-.5.13.13,0,0,1,.06,0c.26,0,.42-.69.58-.69h.08c.05,0,.05,0,.05,0V26h.16a.43.43,0,0,1,.35-.16,1.31,1.31,0,0,1,.21.05,0,0,0,0,1,.05-.05,1.13,1.13,0,0,1,1,.9v.16c0,.08.16.29.21.48s-.05.08-.11.08-.1,0-.18,0a.09.09,0,0,0-.06,0,1.4,1.4,0,0,1,.38.82,1.76,1.76,0,0,0-.06,1.28c0,.08,0,.13-.26.45.1.08.1.19.16.24s0,.24,0,.24h-.05s0,0,0,.08a.75.75,0,0,0,0,.24c-.27.42-.08,1-.08,2,0,.13-.08.24-.08.35s.48.26.53.26a.5.5,0,0,0,.24-.1C152.42,33.29,152.47,33.18,152.52,33.18Z"/><path class="cls-1" d="M155.55,31.4v-.34a3.44,3.44,0,0,1,.29-1.2s-.05-.08-.05-.13.24-.29.24-.5,0-.48.08-.48h.16c0-.06,0-.06,0-.11a.55.55,0,0,0,.11-.29v-.11c.29,0,.47-.69.5-.82.45-.08.51-.67.72-.67a1.3,1.3,0,0,0,.13,0c0-.69,1-1.3,1.49-1.78a2.75,2.75,0,0,1,1.33-.82s.08.05.13.05,0-.11.16-.11a.28.28,0,0,0,.21.11.68.68,0,0,1,.4-.11c.43,0,1.28,1.09,1.28,1.44.1.11.29.16.42.27s0,.07,0,.1v.69c0,.11-.05.19-.13.19h-.08v.1c0,.22,0,.3,0,.54h-.11c-.48,0-.16.23-.34.55h-.06s-.77.75-.77.77v.11c-.5,0-.63.45-.87.72,0,0-.3.37-.4.37h-.11c-.16,0-.82.69-.82.69a5.83,5.83,0,0,1-.85.66h-.13c-.08,0,0,.08-.06.08h-.1v.08c-.08,0-.3,0-.38.06s-.5.53-.53.53c0,.21-.1.45-.1.56s.16,0,.1,0c.06.21.51.51.48.51a2.09,2.09,0,0,0,.48,0l.45,0c.53-.11,1-.32,1.14-.32s.08,0,.08.13.16-.21.24-.21h.13s0,0,0-.08l0,0,.08,0s0,0,0-.08a8.11,8.11,0,0,1,1.09-.32h.11s.47-.27.71-.37.16-.43.64-.43c.29-.24.61-.21.88-.63a.08.08,0,0,0,0,0c.11,0,.13-.1.19-.1h.08s0,0,0,0v0c.11,0,.4-.32.53-.32h.06c.13,0,.77-.75.74-.75h.13a.08.08,0,0,1,0-.05s0,0,0,0h.05a7.51,7.51,0,0,0,1-.85h.11s0,0,0,0v-.14h.06a1.38,1.38,0,0,0,.5-.61c.43,0,.69-.61.69-.55a.91.91,0,0,0,.21.05c.11,0,.22-.05.32-.05s.06.05.11.05c.21,0-.61.69-.32.69,0,0-.11.27-.08.24s-.26.29-.32.29c-.74.24-.13.29-.42.29-.08.08-.22.51-.4.51h-.08s-.48.32-.51.34a.2.2,0,0,1,0,.11c0,.16-.21.21-.32.27s-.42.37-.45.37c-.21,0-.34.29-.4.53-.32,0-.32.24-.58.34a.12.12,0,0,1-.08,0c-.27,0-.21.42-.45.42s-.32.21-.43.32a2,2,0,0,0-1,.53c-.35.08-.21,0-.51.29h-.08c-.13,0-.26.3-.39.3h-.11v0h-.13c-.08,0,0,.08-.08.08l-.06,0,0,0a.15.15,0,0,0,0,.08h-.16v.08h-.1s-.43.08-.43.13a.09.09,0,0,0,0,.08.3.3,0,0,0-.16,0c-.19,0-.29.14-.4.24h-.16V34h-.1a1.83,1.83,0,0,1-.27,0h-.11c-.13,0-.24.22-.39.22a.22.22,0,0,1-.08,0,1.57,1.57,0,0,1-.46.05.24.24,0,0,1-.21-.1c-.05.13-.26.13-.34.24a5.37,5.37,0,0,0-.88-.14v0c0-.08-.08-.08-.16-.08s-.13,0-.13.08v0c-.19-.08-.22-.24-.43-.26s-.34-.45-.58-.45-.16-.56-.27-.67-.18,0-.16-.24S155.55,32.12,155.55,31.4Zm5.31-5.89c-.08.08,0,.21-.1.29s-.14,0-.22.08-.16.26-.29.29S160.12,26,160,26s-.54.64-.77.8c-.3,0-.27.24-.59.24a.93.93,0,0,0-.18.45c0,.13,0,.21,0,.32s-.21.1-.21.24v.13c0,.11-.21.24-.29.29a.82.82,0,0,0-.14-.05c-.23,0-.29.69-.29.82s-.21.45-.18.56a3.55,3.55,0,0,0-.16.9.38.38,0,0,0,.18,0c.45,0,1.12-.82,1.36-1a12.55,12.55,0,0,0,1.19-1c.16-.16.4-.45.61-.45h.14c.13-.62.93-.8.93-1s.26-.32.26-.45a.75.75,0,0,0-.08-.24c0-.13.08-.21.08-.32s-.37-.35-.61-.42c0,.1,0-.3,0-.22s-.08,0-.08,0C161,25.75,161,25.45,160.86,25.51Zm4.86,4v0Z"/><path class="cls-1" d="M181.18,32.23a2.63,2.63,0,0,1-.58.61h-.11c-.05,0-.1.18-.21.24s-.19,0-.26.08-.48.32-.54.58c-.74,0-.34.29-.55.32s-1,.43-.85.4a.1.1,0,0,1-.06,0l-.1,0a1.15,1.15,0,0,1-.85.24,7.59,7.59,0,0,1-1.09-.11c-.14-.24-.24-.42-.59-.45v-.08c0-.27-.37-.37-.37-.53V33.4l-.05,0c-.06,0-.06-.08-.06-.1a.1.1,0,0,0,0-.06c0-.13-.13,0-.13-.26a.16.16,0,0,1,.08-.14c0-.07-.21-.23-.21-.39a.33.33,0,0,1,0-.11.87.87,0,0,1-.13-.45.05.05,0,0,1,.05-.05,2.56,2.56,0,0,1-.08-.43c0-.13,0-.4.22-.45a1.58,1.58,0,0,1-.19-.59c0-.16.08-.29.08-.39s-.08-.19-.08-.24.08-.11.08-.14-.05-.13-.05-.26.1-.11.13-.19v-.29a6.75,6.75,0,0,1,.34-1.41.49.49,0,0,0,0-.13v-.08c0-.13.05-.13.05-.19V27c0-.16.19-.22.19-.29s-.08-.22-.08-.3.27-.45.27-.42,0-.16,0-.21.11-.27.11-.3a.45.45,0,0,1,0-.16,1.22,1.22,0,0,1,.13-.42.37.37,0,0,0-.18.37v.08c-.62.13-.69.8-1.25,1,0,.38-.14.51-.14,1,0,.08,0,.19,0,.26a1.85,1.85,0,0,1-.11.24c0,.14,0,.22,0,.32a.33.33,0,0,1-.08.22c.05.1.13.15.16.26,0,1.2-.58,1.3-.61,1.33s-.11.11-.16.11h-.11c-.08.08-.39.08-.63.08v0c0-.08-.32-.32-.35-.64a1.89,1.89,0,0,1,.21-.66s-.08,0-.1,0-.48.29-.51.32a.87.87,0,0,1-.77.69c-.08.48-.26.85-.71.93a2.26,2.26,0,0,1-.85,1s0,.08,0,.1-.45,1-.87,1c-.06.08,0,.21-.06.26l-.29.19h-.08c-.05,0-.45.4-.66.45a.54.54,0,0,0-.27.4c-.13,0-.13-.19-.19-.27s-.18.08-.29.08-.1-.16-.24-.16a.1.1,0,0,0-.08,0h0c-.16,0,0,.32-.16.32h-.05a.1.1,0,0,1-.08,0c-.16,0-.69-.8-.75-.93a1.62,1.62,0,0,1-.21-.45c0-.11,0-.11,0-.22s0-.13,0-.26a1.44,1.44,0,0,0,0-.37V31.7a.57.57,0,0,0,.06-.27v-.27c0-.08.13-.21.13-.31a.18.18,0,0,0,0-.11c.56-.19,0-.9.64-1,0-.24,0-.51.32-.51a3.87,3.87,0,0,1,.45-.72c0-.42.93-.93.93-1v-.11s.19-.08.19-.24v-.05a1.16,1.16,0,0,1,.16,0h.1a.08.08,0,0,0,0-.05,5.75,5.75,0,0,1,.42-.43h.11c.08,0,.05-.16.1-.18h0c.24,0,.27-.22.51-.22h.1c.11,0,.08-.24.27-.24s.08.06.18.06a2,2,0,0,1,1.44-.35c.56,0,.21.21.72.21a2.92,2.92,0,0,1,1.06.4h0c.22,0,.48-.63.48-.61.27-.05.61-.5.61-.5h.06c.08-.88.63-.67.63-.91s.27-.1.27-.23V24c0-.06.11-.08.19-.08v-.06c0-.37.85-1.09.93-1.25l.13-.26s0-.05,0-.08.11-.13.21-.4a5,5,0,0,0,.59-1.62l.26-.29a.47.47,0,0,1,0-.16,1.25,1.25,0,0,1,.08-.32.22.22,0,0,1,0-.08c0-.11.19-.11.19-.13.21-.48.13-.75.37-.77a3.82,3.82,0,0,1,.26-.88,1.38,1.38,0,0,1,.32-.56v-.1c0-.11.06-.16.06-.35V16.5c.08,0,.61-1,.61-.9v-.21c0-.22.1-.14.1-.3V15s.35-.43.3-.43h.1s.11-.21.29-.21.38.13.62.13h.08a.8.8,0,0,0,.31.45c0,.22-.21.16-.21.35s.08.26.13.26a2.24,2.24,0,0,0,.27,0c.08,0,.11.11.11.13,0,.3-.24.35-.3.46v.05l-.26.37c-.08.19-.56,1.3-.69,1.3v.11a1.11,1.11,0,0,1-.75.95.61.61,0,0,1,.06.24c0,.08,0,.16,0,.27a.36.36,0,0,0,.05.21c-.42.06-.37.37-.37.64a1,1,0,0,0-.26.4c-.16.24-.27.26-.27.66,0,.06-.19.08-.21.11s0,.21-.06.26-.42.32-.61.54,0,.37-.37.61a.68.68,0,0,1-.26.55v.08c0,.14-.08.24-.08.38a1.55,1.55,0,0,0,0,.18,3.47,3.47,0,0,1-.34.67c0,.13-.14.58-.14.53v.1c0,.06-.07.14-.07.19s0,.19,0,.27a.12.12,0,0,1,0,.05c-.11.1-.19.64-.27.82v.08c0,.08,0,.11,0,.16V27a2.57,2.57,0,0,1-.37,1.09c0,.1,0,.13,0,.24,0,.29-.18.58-.18.82v.32c0,.24-.11.53-.11.95a.06.06,0,0,0,.06.06c0,.1-.08.37-.08.56s0,.31.08.31-.06.08-.06.16a2.56,2.56,0,0,0,.45,1.33s0,.11,0,.16a.75.75,0,0,0,.5.61h.08c.13,0,.11.08.21.08s.11-.08.19-.08.11.08.19.08.42-.1.69-.16c.1,0,.24-.21.32-.21h0s0,0,0,0v-.1c0-.08.13,0,.13-.06v0c.13,0,.13,0,.18,0a.08.08,0,0,1,.08,0c.24-.08.35-.32.59-.4s.29-.37.61-.37H180a4.35,4.35,0,0,0,1-1c.45-.19.61-.4.93-1h.37c.11,0,0,.13.11.18s.34.24.34.35,0,.05-.08.05-.61.53-.61.69,0,.06,0,.06C181.79,31.62,181.4,32.15,181.18,32.23ZM172,26.89c-.11,0-.13-.14-.19-.14a1.74,1.74,0,0,1-.29.06s0-.06,0-.06h-.13s0-.07-.13-.07-.11.18-.22.21-.95.66-.93.66a2.43,2.43,0,0,1-.26-.05c-.08,0-.16,0-.24,0a.67.67,0,0,1-.19-.06c-.05.24-.24.53-.45.53-.21.4-.8.48-.8,1-.05,0-.1,0-.21,0a3.53,3.53,0,0,1-.34.32c-.08.05,0,.18-.11.23s-.19.08-.19.27-.13.35-.13.4a.26.26,0,0,0,0,.13c-.22.05-.43.45-.43.4,0,.11.08.16.08.24a2.1,2.1,0,0,0-.32.72s0,.05,0,.08.1.16.1.21-.16.16-.21.32l.27.37c.29,0,.37-.19.66-.19h.11a1.05,1.05,0,0,1,.45-.4l.08,0c0-.24.26-.29.26-.45v0c.32,0,.3-.24.4-.32s.32,0,.32-.47v0a2.39,2.39,0,0,0,.9-.85.36.36,0,0,0,.27-.08s0-.05,0-.05.14,0,.16-.08a6.09,6.09,0,0,1,.53-.77c.38-.06.51-.35.56-.69a2,2,0,0,0,.77-.75s0-.05,0-.08c.18,0,.18-.16.18-.34l-.18-.24Z"/><path class="cls-1" d="M184.24,32.94c.55-.18.21-.23.82-.61a7.21,7.21,0,0,0,1.25-.93h.11c.05,0,.05-.08.1-.13.29-.16.29.05.59-.4h.08c.16,0,0-.32.18-.32s.11,0,.11.08c.48-.32,1-.87,1.11-.87a2.47,2.47,0,0,0,.4-.45c.06-.06.56-.38.53-.38h.06a.17.17,0,0,1,0-.1,4.24,4.24,0,0,1,1-1v-.05c0-.19.24.05.24-.08l.27.08c-.11.05-.11.48-.21.5s-.11,0-.16,0-.06,0-.08.08.13.29-.08.42-.32.11-.27.14-.42.53-.58.74a4.33,4.33,0,0,1-.77.66c-.19,0-.35.38-.46.56s-.42.21-.34.21H188c-.24.27-.38.3-.62.56v.06c0,.1-.26.1-.26.16v0c-.08.13-.51.13-.51.34s-.42.27-.45.32a5.49,5.49,0,0,0-1.06.77c0,.06-.08.08-.08.11v0c-.16,0-.24.08-.37.08s-.08.13-.13.1c-.35.29-.24.11-.48.32v0c-.24,0-1,.77-1.41.72-.24,0-.27.16-.32.16a1.3,1.3,0,0,0-.13,0c-.05-.05-.11.06-.35.06s-.42-.35-.79-.51c0-.18-.14-.42-.14-.5V33.9s-.05-.11-.05-.13.08-.11.08-.19a2.43,2.43,0,0,0-.05-.26c0-.06.05-.11.05-.22s0,0,0-.08.16-.39,0-.58c.11-.13,0-.56.16-.64s.06-.05.06-.08a.46.46,0,0,1,0-.21c0-.16.08-.16.1-.35V31a7,7,0,0,0,.32-.78.59.59,0,0,1,0-.23.57.57,0,0,1,.27-.3c.16-.66.1-1.3.55-1.64,0-.14-.1-.22-.1-.32s.34-.64.37-.91c0-.1.05-.08,0-.23s0-.14.06-.3c0,0,.18-.42.16-.42s-.19-.29-.14-.35.06-.56.08-.58-.05-.21,0-.37c0,0,0,0,.05,0s.21-.24.32-.24h.1c.06,0,0-.08.06-.08h.18c.35,0,.56.14.45.64.14.19.35.67.59.77a5,5,0,0,0,0,.67c-.11.13-.13.29-.24.29a1.2,1.2,0,0,1,0,.34c0,.16-.06.46-.27.59l0,0s.06.06,0,.16,0,0,0,.08a3.42,3.42,0,0,1-.45.69,2.69,2.69,0,0,1-.71,1.65c0,.16.42.64,0,.61,0,0-.16.29-.18.29s0,.14-.11.14h0a2.34,2.34,0,0,1-.05.64c0,.31-.11.63-.21,1,0,.21-.11.11-.13.35a.61.61,0,0,0,.21.47c.05-.05.26.06.32-.05l.18.05c.48-.31.48-.47.77-.47C183.71,33.18,184.29,32.94,184.24,32.94Zm2.55-14.55c-.06.13-.19.1-.19.29s.19.11.21.21-.1.08-.13.21v.14c0,.18-.24.29-.37.5-.27,0-.74.11-.8-.21h-.24c-.08,0,0-.08-.05-.08s-.16,0-.21-.11-.06-.13-.11-.16c-.32-.21-.21-.34-.21-.69,0,0,.32-.4.45-.4s.05,0,.11.08,0-.18.05-.18h.11a.39.39,0,0,0,.24-.16c0,.08.1.11.29.11a3,3,0,0,1,.5-.14s0,0,0,.06V18a2.82,2.82,0,0,0,.32.37Z"/><path class="cls-1" d="M195.15,26.41a.57.57,0,0,1-.55-.43.08.08,0,0,1,0-.08c-.16,0-.19-.15-.35-.15-.34,0-.23.21-.37.31s-.66.48-.63.72h-.06c-.18,0-.08.19-.26.19h-.06c-.05,0,0,.82-.26.71,0,.62-.75.27-.67.85-.21.16-.24.14-.24.46a.13.13,0,0,0,0,.1c0,.48-.72.51-.72.85,0,0,.06.11.06.16s-.06.11-.06.16c-.16.21-.08.75-.24,1a6.41,6.41,0,0,0-.1.88c0,.05.05.13.05.21a3.37,3.37,0,0,1,0,.56c0,.1.13.29.26.29s.11-.13.16-.19c.08-.21.48-.16.5-.55,0-.08.16-.11.32-.19a.06.06,0,0,1,0-.05c-.05-.43.58-.64.43-.64l.13-.32s.26-.34.34-.34a.28.28,0,0,0,0-.11c0-.13.21-.21.18-.32v-.08s.11,0,.11,0a.08.08,0,0,1,0-.08s.06,0,.08-.08a.31.31,0,0,0,0-.07c0-.08.13-.08.13-.11s0-.13.1-.13h.06c-.06-.35.34-.46.29-.64,0-.35.56-.45.53-.72v-.08l0,0c.06,0,.08-.22.11-.35a.2.2,0,0,0,0-.11v0c.06-.32.24-.75.32-.75h.14a.7.7,0,0,0,.13,0l.32,0h.24s.63.3.69.48a.47.47,0,0,0,0,.19c0,.21.24.26.24.37s0,.11,0,.16.05.13.08.26-.11.22-.05.46.08.29.1.45c0,0,.06,0,.06,0s0,.27,0,.51a.06.06,0,0,1,0,.05s0,0,0,0c.06.3.29.48.37,1a1.22,1.22,0,0,0,.22.51c0,.08,0,.16,0,.24a4.22,4.22,0,0,1,.16.5.17.17,0,0,1,0,.19c.1.08.16.21.31.23s.11.19.22.24a1.55,1.55,0,0,0,.69.27c.1,0,.16,0,.24,0l.34,0c.16,0,1-.13,1-.24a4.73,4.73,0,0,1,.51.27c0,.16-.19.21-.35.24,0,0,.08.08.08.1,0,.32-.26.22-.37.3v0s-1.2.16-1.3.19-.06,0-.08,0h-.19c-.26,0-1.38-.18-1.49-.63-.53,0-.61-.56-1-.77l0-.11a3,3,0,0,0-.43-1c-.05-.19-.18-.59-.21-.75a1.13,1.13,0,0,0,0-.21c0-.11,0-.11,0-.19a.07.07,0,0,0,0-.05s-.06,0-.06,0a2.12,2.12,0,0,1,0-.34.27.27,0,0,0-.14-.21c-.31.08-.47.5-.66.82-.26.08-.64.29-.64.5s.27.11.3.27c-.08,0-.06.16-.06.19s-.1,0-.1.05v.05c0,.06-.11.06-.16.08-.32.29-.48.69-.77.91.08.42-.27.26-.19.66v.08c-.29.13-.64.69-.88.69-.05,0-.08,0-.18-.08s-.35.24-.35.21c-.16,0-.56,0-.53.11a.84.84,0,0,0-.18-.05c-.11,0-.14.05-.22.05s-.13-.11-.21-.11h-.11c-.42,0-.71-.64-.71-.64s0-.05,0-.1-.21-.08-.21-.16.08-.27.05-.43a.75.75,0,0,1,0-.23c0-.08,0-.11,0-.16s-.08,0-.08-.08a7.39,7.39,0,0,1,.13-.75v0c0-.08.08-.11.08-.19v-.08c0-.13.11-.24.06-.58a.53.53,0,0,0,0-.11c.32-.13.16-.56.35-.66,0,.05.16-.64.31-.67s0,0,0,0a.29.29,0,0,0-.13-.13c0-.22.45-.67.4-.62a1.64,1.64,0,0,0,.1-.37h.06c.42,0,0-.74.55-.79a.13.13,0,0,1,0-.06c0-.08.13-.08.13-.24a.13.13,0,0,0,0-.08c.08,0,.08,0,.19,0h.05a.08.08,0,0,0,0-.05.24.24,0,0,0,0-.14s.08-.18.16-.18h.08s0-.19,0-.27c.37-.24,0,.08.53-.71,0-.06.3-.16.4-.43.45-.21.61-.66,1-.66l.14,0c0-.08.24-.21.34-.21s.06.05.08.05a1.18,1.18,0,0,1,.4-.08c.16,0,.08.08.13.08h.14a1.36,1.36,0,0,1,.87.56s0,0,0,.05.18.24.18.32-.08.27-.05.43,0,.08.05.1c-.29.08-.42.4-.45.4S195.21,26.41,195.15,26.41Zm3.56,7.84c-.05,0-.05,0,0,0Z"/><circle class="cls-2" cx="6.6" cy="16.3" r="3.56"/><path class="cls-1" d="M32.24,13.51a13.51,13.51,0,0,0-27,0H7.75a11,11,0,0,1,22,0v1.26H21.24v9.08H12.33v8.7H5v2.53h9.91v-8.7h8.91V17.3h8.49Z"/><polygon class="cls-1" points="9.17 10 6.94 10 4.7 10 0 18.24 6.94 18.24 13.88 18.24 9.17 10"/></g></g></svg>