<svg xmlns="http://www.w3.org/2000/svg" width="236" height="115" viewBox="0 0 236 115">
  <g id="グループ_356" data-name="グループ 356" transform="translate(-475 -2031)">
    <rect id="長方形_101" data-name="長方形 101" width="236" height="115" transform="translate(475 2031)" fill="#fff"/>
    <g id="グループ_80" data-name="グループ 80" transform="translate(-942.498 1264.879)">
      <g id="グループ_82" data-name="グループ 82" transform="translate(1563.294 829.708)">
        <g id="グループ_81" data-name="グループ 81">
          <g id="グループ_80-2" data-name="グループ 80">
            <path id="パス_64" data-name="パス 64" d="M1523.148,804.384a1.7,1.7,0,0,1-1.712-1.713,1.767,1.767,0,0,1,.5-1.216,1.72,1.72,0,1,1,1.216,2.929Z" transform="translate(-1521.436 -800.981)" fill="#5d5d5d"/>
          </g>
        </g>
      </g>
      <g id="グループ_85" data-name="グループ 85" transform="translate(1502.398 788.999)">
        <g id="グループ_84" data-name="グループ 84">
          <g id="グループ_83" data-name="グループ 83">
            <path id="パス_65" data-name="パス 65" d="M1529.462,849.961a32.81,32.81,0,1,1,32.917-32.81,32.438,32.438,0,0,1-.171,3.347,1.712,1.712,0,1,1-3.406-.35,29.5,29.5,0,1,0-29.341,26.39,29.314,29.314,0,0,0,25.292-14.261,1.712,1.712,0,1,1,2.931,1.769A32.7,32.7,0,0,1,1529.462,849.961Z" transform="translate(-1496.545 -784.341)" fill="#5d5d5d"/>
          </g>
        </g>
      </g>
      <g id="グループ_88" data-name="グループ 88" transform="translate(1492.498 781.121)">
        <g id="グループ_87" data-name="グループ 87">
          <g id="グループ_86" data-name="グループ 86">
            <path id="パス_66" data-name="パス 66" d="M1498.7,810.58a1.716,1.716,0,0,1-1.209-.5,16.95,16.95,0,0,1,8.717-28.651,17.132,17.132,0,0,1,15.347,4.656,1.71,1.71,0,0,1-.617,2.818l-.259.1a34.247,34.247,0,0,0-20.37,20.453,1.71,1.71,0,0,1-1.235,1.089A1.787,1.787,0,0,1,1498.7,810.58Zm10.823-26.038a14.654,14.654,0,0,0-2.679.252,13.533,13.533,0,0,0-8.651,20.783,37.645,37.645,0,0,1,18.843-18.784A13.533,13.533,0,0,0,1509.52,784.542Z" transform="translate(-1492.499 -781.121)" fill="#5d5d5d"/>
          </g>
        </g>
      </g>
      <g id="グループ_91" data-name="グループ 91" transform="translate(1548.576 781.121)">
        <g id="グループ_90" data-name="グループ 90">
          <g id="グループ_89" data-name="グループ 89">
            <path id="パス_67" data-name="パス 67" d="M1538.779,810.58a1.787,1.787,0,0,1-.375-.039,1.71,1.71,0,0,1-1.235-1.089A34.245,34.245,0,0,0,1516.8,789l-.257-.1a1.71,1.71,0,0,1-.617-2.818,17.128,17.128,0,0,1,15.347-4.656,16.95,16.95,0,0,1,8.717,28.651A1.715,1.715,0,0,1,1538.779,810.58Zm-18.336-23.787a37.647,37.647,0,0,1,18.843,18.784,13.533,13.533,0,0,0-8.651-20.783A13.767,13.767,0,0,0,1520.443,786.792Z" transform="translate(-1515.42 -781.121)" fill="#5d5d5d"/>
          </g>
        </g>
      </g>
      <g id="グループ_94" data-name="グループ 94" transform="translate(1508.14 847.077)">
        <g id="グループ_93" data-name="グループ 93">
          <g id="グループ_92" data-name="グループ 92">
            <path id="パス_68" data-name="パス 68" d="M1500.6,821.423a1.712,1.712,0,0,1-1.209-2.926l9.95-9.918a1.714,1.714,0,0,1,2.42,2.427l-9.952,9.918A1.71,1.71,0,0,1,1500.6,821.423Z" transform="translate(-1498.892 -808.08)" fill="#5d5d5d"/>
          </g>
        </g>
      </g>
      <g id="グループ_97" data-name="グループ 97" transform="translate(1551.744 847.076)">
        <g id="グループ_96" data-name="グループ 96">
          <g id="グループ_95" data-name="グループ 95">
            <path id="パス_69" data-name="パス 69" d="M1528.38,821.423a1.714,1.714,0,0,1-1.211-.5l-9.95-9.918a1.713,1.713,0,1,1,2.417-2.427l9.952,9.918a1.712,1.712,0,0,1-1.208,2.926Z" transform="translate(-1516.715 -808.08)" fill="#5d5d5d"/>
          </g>
        </g>
      </g>
      <g id="グループ_100" data-name="グループ 100" transform="translate(1533.604 798.56)">
        <g id="グループ_99" data-name="グループ 99">
          <g id="グループ_98" data-name="グループ 98">
            <path id="パス_70" data-name="パス 70" d="M1524.921,813.211h-13.908a1.711,1.711,0,0,1-1.712-1.713V789.962a1.713,1.713,0,1,1,3.425,0v19.824h12.2a1.713,1.713,0,0,1,0,3.425Z" transform="translate(-1509.3 -788.249)" fill="#5d5d5d"/>
          </g>
        </g>
      </g>
    </g>
  </g>
</svg>
