<svg xmlns="http://www.w3.org/2000/svg" width="236" height="115" viewBox="0 0 236 115">
  <g id="グループ_357" data-name="グループ 357" transform="translate(-220 -2031)">
    <rect id="長方形_100" data-name="長方形 100" width="236" height="115" transform="translate(220 2031)" fill="#fff"/>
    <g id="グループ_75" data-name="グループ 75" transform="translate(298.667 2043)">
      <path id="パス_42" data-name="パス 42" d="M1298.449,1997.733a38.52,38.52,0,0,1-8.47,0,1.218,1.218,0,0,0-1.323,1.061,1.2,1.2,0,0,0,1.061,1.321,40.909,40.909,0,0,0,8.993,0,1.2,1.2,0,0,0,1.061-1.32A1.22,1.22,0,0,0,1298.449,1997.733Z" transform="translate(-1251.496 -1919.552)" fill="#5d5d5d"/>
      <path id="パス_43" data-name="パス 43" d="M1305.732,2015.6c-1.538,2.792-2.608,3.314-2.582,3.314a1.2,1.2,0,0,0,.267,2.365,1.289,1.289,0,0,0,.266-.029c.5-.114,2.3-.824,4.527-5.189a11.942,11.942,0,0,0,1.233-4.946A8.115,8.115,0,0,0,1322.1,2011a16.255,16.255,0,0,0,.822,4.911c1.444,4.145,2.684,5.106,3.3,5.309a1.176,1.176,0,0,0,.378.061,1.2,1.2,0,0,0,.547-2.262c-.127-.11-.908-.884-1.958-3.9a17.576,17.576,0,0,1-.4-8.092,14.509,14.509,0,0,0,1.448-6.049,10.519,10.519,0,1,0-21.038,0,14.433,14.433,0,0,0,1.393,5.929,13.1,13.1,0,0,1,.188,6.035l-12.073-16.866V1957.7c19.1.676,34.45,17.458,34.45,37.989a40.093,40.093,0,0,1-2.469,13.928,1.2,1.2,0,0,0,2.245.831,42.467,42.467,0,0,0,2.618-14.759c0-22.28-17.065-40.406-38.042-40.406a1.2,1.2,0,0,0-1.2,1.2v39.98a1.2,1.2,0,0,0,.225.7Zm9.982-4.086c-3.424,0-6.539-3.913-7.575-7.875,1.767-.728,3.561-1.488,5.388-2.3q2.28-1.012,4.464-2.034l5.268,4.44C1322.2,2007.675,1319.108,2011.517,1315.715,2011.517Zm0-18.49a7.956,7.956,0,0,1,7.938,7.921l-4.7-3.964a1.2,1.2,0,0,0-1.286-.167q-2.482,1.177-5.1,2.339c-1.618.716-3.2,1.382-4.773,2.036,0-.07-.009-.14-.009-.208A7.956,7.956,0,0,1,1315.715,1993.027Z" transform="translate(-1248.416 -1955.288)" fill="#5d5d5d"/>
      <path id="パス_44" data-name="パス 44" d="M1272.13,2005.785a1.2,1.2,0,0,0,.919-1.422,41.359,41.359,0,0,1-.912-8.669c0-20.523,15.015-37.3,33.712-37.987v40.669a1.2,1.2,0,0,0,.208.674l12.557,18.448a1.2,1.2,0,0,0,.993.525,1.183,1.183,0,0,0,.672-.21,1.2,1.2,0,0,0,.315-1.663l-12.349-18.143v-41.522a1.2,1.2,0,0,0-1.2-1.2c-20.57,0-37.305,18.126-37.305,40.406a43.765,43.765,0,0,0,.967,9.172A1.2,1.2,0,0,0,1272.13,2005.785Z" transform="translate(-1267.419 -1955.288)" fill="#5d5d5d"/>
      <path id="パス_45" data-name="パス 45" d="M1272.755,1984.91c0,5.939,4.692,13.114,10.52,13.114s10.519-7.175,10.519-13.114a10.519,10.519,0,1,0-21.038,0Zm10.52,10.535c-3.551,0-6.762-4.207-7.674-8.313l4.314-5.425,6.532-.105,3.76,5.845a1.153,1.153,0,0,0,.551.435C1289.643,1991.735,1286.607,1995.445,1283.275,1995.445Zm7.9-10.92-3.077-4.78a1.433,1.433,0,0,0-1.028-.551l-7.761.129a1.2,1.2,0,0,0-.919.451l-2.909,3.658a7.916,7.916,0,0,1,15.693,1.092Z" transform="translate(-1264.88 -1939.216)" fill="#5d5d5d"/>
      <path id="パス_46" data-name="パス 46" d="M1294.142,2009.016h-23.083V2004.3a15.767,15.767,0,0,1,1.28-6.256,1.289,1.289,0,0,0-2.369-1.017,18.311,18.311,0,0,0-1.49,7.272v6.007a1.289,1.289,0,0,0,1.29,1.289h24.373a1.289,1.289,0,0,0,0-2.579Z" transform="translate(-1268.48 -1920.799)" fill="#5d5d5d"/>
      <path id="パス_47" data-name="パス 47" d="M1270.764,1994.191a1.285,1.285,0,0,0-.374.916,1.29,1.29,0,0,0,2.579,0,1.29,1.29,0,0,0-2.205-.916Z" transform="translate(-1266.872 -1922.831)" fill="#5d5d5d"/>
      <path id="パス_48" data-name="パス 48" d="M1283.375,1990.617a18.3,18.3,0,0,0-10.164,3.063,1.29,1.29,0,0,0,1.428,2.148,15.813,15.813,0,0,1,24.549,13.209v6.007a1.289,1.289,0,0,0,2.579,0v-6.007A18.427,18.427,0,0,0,1283.375,1990.617Z" transform="translate(-1264.981 -1925.539)" fill="#5d5d5d"/>
      <path id="パス_49" data-name="パス 49" d="M1320.691,2009.016h-23.083V2004.3a15.763,15.763,0,0,1,1.28-6.256,1.289,1.289,0,0,0-2.369-1.017,18.307,18.307,0,0,0-1.49,7.272v6.007a1.288,1.288,0,0,0,1.289,1.289h24.372a1.289,1.289,0,1,0,0-2.579Z" transform="translate(-1246.124 -1920.799)" fill="#5d5d5d"/>
      <path id="パス_50" data-name="パス 50" d="M1297.313,1994.191a1.285,1.285,0,0,0-.374.916,1.289,1.289,0,0,0,2.579,0,1.29,1.29,0,0,0-2.2-.916Z" transform="translate(-1244.516 -1922.831)" fill="#5d5d5d"/>
      <path id="パス_51" data-name="パス 51" d="M1309.923,1990.617a18.3,18.3,0,0,0-10.163,3.063,1.29,1.29,0,0,0,1.428,2.148,15.813,15.813,0,0,1,24.549,13.209v6.007a1.289,1.289,0,0,0,2.579,0v-6.007A18.427,18.427,0,0,0,1309.923,1990.617Z" transform="translate(-1242.624 -1925.539)" fill="#5d5d5d"/>
    </g>
  </g>
</svg>
