<svg xmlns="http://www.w3.org/2000/svg" width="114" height="114" viewBox="0 0 114 114">
  <g id="flow_03" transform="translate(-787 -5968)">
    <circle id="楕円形_4" data-name="楕円形 4" cx="57" cy="57" r="57" transform="translate(787 5968)" fill="#fff"/>
    <g id="グループ_58" data-name="グループ 58" transform="translate(812.271 5996)">
      <g id="グループ_12" data-name="グループ 12">
        <g id="グループ_7" data-name="グループ 7" transform="translate(0 10.667)">
          <path id="パス_8" data-name="パス 8" d="M1192.8,2027.244a29.121,29.121,0,0,1-5.48-.51,1.307,1.307,0,0,1-.121-2.528c.3-.1,7.32-2.412,7.557-9.745a22.081,22.081,0,0,1-2.4-26.051,1.308,1.308,0,0,1,2.244,1.345,19.474,19.474,0,0,0,2.438,23.329,1.305,1.305,0,0,1,.342.872,12.644,12.644,0,0,1-5.461,10.642c4.024.121,9.887-.559,11.993-5.231a1.314,1.314,0,0,1,1.625-.7,21.414,21.414,0,0,0,7.1,1.223c11.483,0,20.824-9.011,20.824-20.086a19.51,19.51,0,0,0-2.485-9.519,1.309,1.309,0,0,1,2.285-1.278,22.187,22.187,0,0,1,2.815,10.8c0,12.517-10.515,22.7-23.439,22.7a23.915,23.915,0,0,1-6.879-1.018C1202.928,2026.248,1197.144,2027.244,1192.8,2027.244Z" transform="translate(-1186.278 -1987.774)" fill="#222"/>
        </g>
        <g id="グループ_8" data-name="グループ 8" transform="translate(7.454 8.108)">
          <path id="パス_9" data-name="パス 9" d="M1191.576,1989a1.341,1.341,0,0,1-1.308-1.308,1.307,1.307,0,0,1,2.236-.928,1.323,1.323,0,0,1,.379.928,1.272,1.272,0,0,1-.379.915A1.289,1.289,0,0,1,1191.576,1989Z" transform="translate(-1190.268 -1986.404)" fill="#222"/>
        </g>
        <g id="グループ_9" data-name="グループ 9" transform="translate(9.671)">
          <path id="パス_10" data-name="パス 10" d="M1192.763,1990.679a1.309,1.309,0,0,1-.893-2.265,24.067,24.067,0,0,1,25-4.717,1.307,1.307,0,0,1-.949,2.436,21.392,21.392,0,0,0-7.792-1.454,21.124,21.124,0,0,0-14.475,5.646A1.306,1.306,0,0,1,1192.763,1990.679Z" transform="translate(-1191.455 -1982.065)" fill="#222"/>
        </g>
        <g id="グループ_10" data-name="グループ 10" transform="translate(33.307 1.543)">
          <path id="パス_11" data-name="パス 11" d="M1216.629,1995.2a1.311,1.311,0,0,1-1.143-.669,20.661,20.661,0,0,0-10.547-9.112,1.307,1.307,0,0,1,.949-2.436,23.306,23.306,0,0,1,11.882,10.27,1.309,1.309,0,0,1-1.142,1.947Z" transform="translate(-1204.106 -1982.891)" fill="#222"/>
        </g>
        <g id="グループ_11" data-name="グループ 11" transform="translate(28.302 6.492)">
          <path id="パス_12" data-name="パス 12" d="M1213.95,1997.846a1.31,1.31,0,0,1-1.144-.671,20.674,20.674,0,0,0-10.546-9.11,1.307,1.307,0,0,1,.949-2.436,23.3,23.3,0,0,1,11.882,10.27,1.309,1.309,0,0,1-1.141,1.947Z" transform="translate(-1201.427 -1985.539)" fill="#222"/>
        </g>
      </g>
      <g id="グループ_15" data-name="グループ 15" transform="translate(32.366 22.827)">
        <g id="グループ_13" data-name="グループ 13" transform="translate(0 7.03)">
          <path id="パス_13" data-name="パス 13" d="M1231.887,2025.04c-2.894,0-6.754-.65-8.781-3.729a16.2,16.2,0,0,1-4.353.6,15.931,15.931,0,0,1-15.073-10.4,1.307,1.307,0,0,1,2.462-.88,13.311,13.311,0,0,0,12.611,8.665,13.756,13.756,0,0,0,4.547-.785,1.311,1.311,0,0,1,1.625.7c1.095,2.432,3.9,3.105,6.283,3.2a8.782,8.782,0,0,1-2.808-6.6,1.3,1.3,0,0,1,.344-.873,12.442,12.442,0,0,0,1.56-14.906,1.308,1.308,0,1,1,2.242-1.347,15.047,15.047,0,0,1-1.519,17.62c.249,4.394,4.5,5.81,4.686,5.87a1.308,1.308,0,0,1-.127,2.526A19.54,19.54,0,0,1,1231.887,2025.04Z" transform="translate(-1203.603 -1998.045)" fill="#222"/>
        </g>
        <g id="グループ_14" data-name="グループ 14" transform="translate(14.754)">
          <path id="パス_14" data-name="パス 14" d="M1222.063,2000.839a1.3,1.3,0,0,1-.891-.351,13.584,13.584,0,0,0-8.443-3.593,1.307,1.307,0,0,1-1.228-1.383,1.292,1.292,0,0,1,1.383-1.227,16.187,16.187,0,0,1,10.07,4.29,1.307,1.307,0,0,1-.891,2.264Z" transform="translate(-1211.5 -1994.282)" fill="#222"/>
        </g>
      </g>
    </g>
  </g>
</svg>
