<svg xmlns="http://www.w3.org/2000/svg" width="114" height="114" viewBox="0 0 114 114">
  <g id="グループ_350" data-name="グループ 350" transform="translate(-1055 -3235)">
    <g id="グループ_71" data-name="グループ 71" transform="translate(745 450)">
      <g id="楕円形_6" data-name="楕円形 6" transform="translate(310 2785)" fill="none" stroke="#707070" stroke-width="1">
        <circle cx="57" cy="57" r="57" stroke="none"/>
        <circle cx="57" cy="57" r="56.5" fill="none"/>
      </g>
    </g>
    <g id="グループ_332" data-name="グループ 332" transform="translate(-1489.384 1247.863)">
      <g id="グループ_321" data-name="グループ 321" transform="translate(2592.522 2028.817)">
        <g id="グループ_316" data-name="グループ 316" transform="translate(3.6)">
          <g id="グループ_315" data-name="グループ 315">
            <path id="パス_163" data-name="パス 163" d="M2598.991,2038.284a5.216,5.216,0,1,1,5.134-5.215A5.181,5.181,0,0,1,2598.991,2038.284Zm0-8.2a2.984,2.984,0,1,0,2.9,2.983A2.947,2.947,0,0,0,2598.991,2030.085Z" transform="translate(-2593.858 -2027.853)" fill="#222"/>
          </g>
        </g>
        <g id="グループ_318" data-name="グループ 318" transform="translate(4.388 32.852)">
          <g id="グループ_317" data-name="グループ 317">
            <path id="パス_164" data-name="パス 164" d="M2595.682,2059.652a1.15,1.15,0,0,1-.792-.323,1.122,1.122,0,0,1-.323-.792,1.1,1.1,0,0,1,.323-.793,1.153,1.153,0,0,1,1.573,0,1.1,1.1,0,0,1,0,1.585A1.122,1.122,0,0,1,2595.682,2059.652Z" transform="translate(-2594.567 -2057.434)" fill="#222"/>
          </g>
        </g>
        <g id="グループ_320" data-name="グループ 320" transform="translate(0 13.317)">
          <g id="グループ_319" data-name="グループ 319">
            <path id="パス_165" data-name="パス 165" d="M2602.63,2066.995h-6.515a1.116,1.116,0,0,1-1.115-1.116v-1.187a1.115,1.115,0,0,1,2.231,0v.071h4.283v-10.138a1.115,1.115,0,0,1,1.115-1.115h3.27v-4.752a6.528,6.528,0,1,0-13.053,0v4.752h3.269a1.116,1.116,0,0,1,1.116,1.115v1.644a1.115,1.115,0,1,1-2.231,0v-.528h-3.27a1.116,1.116,0,0,1-1.115-1.116v-5.867a8.759,8.759,0,1,1,17.515,0v5.867a1.115,1.115,0,0,1-1.115,1.116h-3.27v10.138A1.117,1.117,0,0,1,2602.63,2066.995Z" transform="translate(-2590.616 -2039.844)" fill="#222"/>
          </g>
        </g>
      </g>
      <g id="グループ_326" data-name="グループ 326" transform="translate(2611.658 2019.137)">
        <g id="グループ_323" data-name="グループ 323" transform="translate(3.601)">
          <g id="グループ_322" data-name="グループ 322">
            <path id="パス_166" data-name="パス 166" d="M2616.223,2029.566a5.215,5.215,0,1,1,5.133-5.214A5.181,5.181,0,0,1,2616.223,2029.566Zm0-8.2a2.985,2.985,0,1,0,2.9,2.984A2.948,2.948,0,0,0,2616.223,2021.368Z" transform="translate(-2611.089 -2019.137)" fill="#222"/>
          </g>
        </g>
        <g id="グループ_325" data-name="グループ 325" transform="translate(0 13.317)">
          <g id="グループ_324" data-name="グループ 324">
            <path id="パス_167" data-name="パス 167" d="M2619.861,2058.277h-6.514a1.115,1.115,0,0,1-1.116-1.115v-10.139h-3.269a1.117,1.117,0,0,1-1.116-1.116v-5.867a8.76,8.76,0,1,1,17.516,0v5.867a1.116,1.116,0,0,1-1.116,1.116h-3.27v10.139A1.115,1.115,0,0,1,2619.861,2058.277Zm-5.4-2.231h4.283v-10.139a1.116,1.116,0,0,1,1.115-1.116h3.269v-4.751a6.528,6.528,0,1,0-13.053,0v4.751h3.27a1.115,1.115,0,0,1,1.115,1.116Z" transform="translate(-2607.847 -2031.128)" fill="#222"/>
          </g>
        </g>
      </g>
      <g id="グループ_331" data-name="グループ 331" transform="translate(2573.384 2019.137)">
        <g id="グループ_328" data-name="グループ 328" transform="translate(3.602)">
          <g id="グループ_327" data-name="グループ 327">
            <path id="パス_168" data-name="パス 168" d="M2581.76,2029.566a5.215,5.215,0,1,1,5.133-5.214A5.18,5.18,0,0,1,2581.76,2029.566Zm0-8.2a2.985,2.985,0,1,0,2.9,2.984A2.947,2.947,0,0,0,2581.76,2021.368Z" transform="translate(-2576.627 -2019.137)" fill="#222"/>
          </g>
        </g>
        <g id="グループ_330" data-name="グループ 330" transform="translate(0 13.317)">
          <g id="グループ_329" data-name="グループ 329">
            <path id="パス_169" data-name="パス 169" d="M2585.4,2058.277h-6.515a1.114,1.114,0,0,1-1.115-1.115v-10.139h-3.27a1.116,1.116,0,0,1-1.116-1.116v-5.867a8.76,8.76,0,1,1,17.516,0v5.867a1.116,1.116,0,0,1-1.115,1.116h-3.27v10.139A1.115,1.115,0,0,1,2585.4,2058.277Zm-5.4-2.231h4.282v-10.139a1.116,1.116,0,0,1,1.116-1.116h3.269v-4.751a6.528,6.528,0,1,0-13.052,0v4.751h3.269a1.116,1.116,0,0,1,1.116,1.116Z" transform="translate(-2573.384 -2031.128)" fill="#222"/>
          </g>
        </g>
      </g>
    </g>
  </g>
</svg>
